<svg xmlns="http://www.w3.org/2000/svg" width="160" height="47" viewBox="0 0 160 47">
  <g id="Group_2417" data-name="Group 2417" transform="translate(-1096 -471)">
    <g id="Group_2403" data-name="Group 2403" transform="translate(-5)">
      <g id="Rectangle_1051" data-name="Rectangle 1051" transform="translate(1101 471)" stroke="#a6a6a6" stroke-width="1">
        <rect width="160" height="47" rx="6" stroke="none"/>
        <rect x="0.5" y="0.5" width="159" height="46" rx="5.5" fill="none"/>
      </g>
      <path id="app-store-svgrepo-com" d="M29.18,23.776a22.36,22.36,0,0,1-2.022,3.774c-1.312,2-3.164,4.487-5.457,4.508-2.037.018-2.56-1.326-5.326-1.31s-3.341,1.335-5.379,1.315C8.7,32.042,6.946,29.8,5.632,27.8,1.961,22.21,1.577,15.651,3.842,12.163a8.127,8.127,0,0,1,6.536-3.926c2.431,0,3.96,1.333,5.968,1.333,1.95,0,3.138-1.336,5.949-1.336a7.939,7.939,0,0,1,5.977,3.156,6.839,6.839,0,0,0,.909,12.387ZM20.162,6A6.825,6.825,0,0,0,21.677.95a7.368,7.368,0,0,0-4.759,2.56,6.34,6.34,0,0,0-1.556,4.927A6.236,6.236,0,0,0,20.162,6Z" transform="translate(1109.564 478.05)" fill="#fff"/>
      <text id="App_Store" data-name="App Store" transform="translate(1151 505)" fill="#fff" font-size="19" font-family="AvenirNext-DemiBold, Avenir Next" font-weight="300"><tspan x="0" y="0">App Store</tspan></text>
      <text id="COMING_SOON" data-name="COMING SOON" transform="translate(1151 487)" fill="#fff" font-size="9" font-family="AvenirNext-Medium, Avenir Next" font-weight="500"><tspan x="0" y="0">COMING SOON</tspan></text>
    </g>
  </g>
</svg>
