<svg xmlns="http://www.w3.org/2000/svg" width="182" height="151" viewBox="0 0 182 151">
  <g id="Group_1986" data-name="Group 1986" transform="translate(-725 -408)">
    <rect id="Rectangle_796" data-name="Rectangle 796" width="182" height="151" transform="translate(725 408)" fill="#efefef"/>
    <g id="Kota_Cimahi_grey" data-name="Kota Cimahi grey" transform="translate(754.622 422.135)">
      <path id="Path_3362" data-name="Path 3362" d="M244.551,1746.791A42.62,42.62,0,0,1,202.823,1713l-6.832,3.232a53.147,53.147,0,0,0,1.759,5.646l-6.75,2.986a57.422,57.422,0,0,0,107.1,0l-6.75-2.986a53.147,53.147,0,0,0,1.759-5.646L286.279,1713A42.62,42.62,0,0,1,244.551,1746.791Z" transform="translate(-183.186 -1642.922)" fill="#acacac" fill-rule="evenodd"/>
      <path id="Path_3363" data-name="Path 3363" d="M521,393h80.1v45.164a40.051,40.051,0,0,1-80.1,0Z" transform="translate(-499.686 -376.922)" fill="#acacac" fill-rule="evenodd"/>
      <circle id="Ellipse_140" data-name="Ellipse 140" cx="40.012" cy="40.012" r="40.012" transform="translate(21.523 21.183)" fill="#acacac"/>
      <path id="Path_3364" data-name="Path 3364" d="M554,547.782l11.946,7.691,13.378-8.591,13.377,8.591,13.378-8.591,13.378,8.591,11.945-7.691a40.036,40.036,0,0,0-77.4,0Z" transform="translate(-531.336 -496.809)" fill="#fff" fill-rule="evenodd"/>
      <path id="Path_3365" data-name="Path 3365" d="M537.173,1232.591l-11.946-7.691a36.822,36.822,0,0,0-1.227,7.4l13.173,8.509,13.378-8.591,13.378,8.591,13.377-8.591,13.377,8.591,13.173-8.509a36.835,36.835,0,0,0-1.227-7.4l-11.946,7.691L577.305,1224l-13.377,8.591L550.55,1224Z" transform="translate(-502.563 -1173.926)" fill="#878787" fill-rule="evenodd"/>
      <path id="Path_3366" data-name="Path 3366" d="M1032.923,1026.591,1019.545,1018l-6.545,4.213v6.709l6.545-4.173,13.377,8.591,13.378-8.591,6.545,4.173v-6.709L1046.3,1018Z" transform="translate(-971.558 -976.354)" fill="#898989" fill-rule="evenodd"/>
      <path id="Path_3367" data-name="Path 3367" d="M1019.545,816.75l13.377,8.591,13.378-8.591,6.545,4.214v-6.75L1046.3,810l-13.378,8.632L1019.545,810,1013,814.214v6.75Z" transform="translate(-971.558 -776.863)" fill="#898989" fill-rule="evenodd"/>
      <path id="Path_3368" data-name="Path 3368" d="M1019.545,609.709l13.377,8.632,13.378-8.632,6.545,4.214v-6.75L1046.3,603l-13.378,8.591L1019.545,603,1013,607.173v6.75Z" transform="translate(-971.558 -578.331)" fill="#898989" fill-rule="evenodd"/>
      <path id="Path_3369" data-name="Path 3369" d="M1350.336,1123l-6.668,4.3L1337,1123v6.75l6.668,4.3,6.668-4.3Z" transform="translate(-1282.303 -1077.058)" fill="#acacac" fill-rule="evenodd"/>
      <path id="Path_3370" data-name="Path 3370" d="M1343.668,927l6.668-4.3V916l-6.668,4.3L1337,916v6.709Z" transform="translate(-1282.303 -878.527)" fill="#acacac" fill-rule="evenodd"/>
      <path id="Path_3371" data-name="Path 3371" d="M1343.668,719.046l6.668-4.3V708l-6.668,4.3L1337,708v6.75Z" transform="translate(-1282.303 -679.036)" fill="#acacac" fill-rule="evenodd"/>
      <path id="Path_3372" data-name="Path 3372" d="M920.628,2057.977,908.192,2050l-13.377,8.591L881.436,2050,869,2057.977a42.063,42.063,0,0,0,6.136,4.255l6.3-4.01,13.378,8.592,13.377-8.592,6.3,4.01A42.061,42.061,0,0,0,920.628,2057.977Z" transform="translate(-833.449 -1966.135)" fill="#878787" fill-rule="evenodd"/>
      <path id="Path_3373" data-name="Path 3373" d="M572.56,1653.814l13.377-8.591,13.378,8.591,9.859-6.382a37.915,37.915,0,0,0,2.945-10.1l-12.8,8.264L585.937,1637l-13.377,8.591L559.182,1637l-13.377,8.591-12.8-8.264a37.919,37.919,0,0,0,2.946,10.1l9.859,6.382,13.377-8.591Z" transform="translate(-511.195 -1570.03)" fill="#878787" fill-rule="evenodd"/>
      <path id="Path_3374" data-name="Path 3374" d="M523,104.336a2.533,2.533,0,0,1,.7-1.882,2.5,2.5,0,0,1,1.841-.7,4.848,4.848,0,0,1,1.309.2,3.538,3.538,0,0,1,1.268.7V100.7a5.181,5.181,0,0,0-1.309-.532,5.387,5.387,0,0,0-1.391-.164,4.456,4.456,0,0,0-3.191,1.186,4.159,4.159,0,0,0-1.227,3.15,5.158,5.158,0,0,0,.327,1.759,3.884,3.884,0,0,0,.9,1.391,3.578,3.578,0,0,0,1.309.9,4.519,4.519,0,0,0,1.677.286,6.21,6.21,0,0,0,1.555-.2,6.444,6.444,0,0,0,1.432-.655V105.85a6.171,6.171,0,0,1-1.391.818,4.39,4.39,0,0,1-1.432.245,2.343,2.343,0,0,1-1.718-.7A2.576,2.576,0,0,1,523,104.336Z" transform="translate(-499.686 -95.909)" fill="#898989" fill-rule="evenodd"/>
      <path id="Path_3375" data-name="Path 3375" d="M2430,104v8.346h2V104Z" transform="translate(-2330.589 -99.745)" fill="#898989" fill-rule="evenodd"/>
      <path id="Path_3376" data-name="Path 3376" d="M918.964,112.346V104H917v8.346Z" transform="translate(-879.486 -99.745)" fill="#898989" fill-rule="evenodd"/>
      <path id="Path_3377" data-name="Path 3377" d="M1173.473,101,1172,109.468h1.882l.655-4.786a.925.925,0,0,1,.041-.286c.082-.614.164-1.145.2-1.636.041.368.123.736.164,1.023a6.736,6.736,0,0,0,.123.736l1.063,4.95h2.25l1.227-4.95c.041-.2.082-.45.164-.736a6.668,6.668,0,0,0,.164-1.023c.041.368.041.7.082,1.023a5.024,5.024,0,0,1,.041.7l.532,4.991h1.923L1181.286,101h-2.414l-1.268,5.2a3.9,3.9,0,0,0-.123.614c-.041.286-.123.614-.164.941-.082-.368-.123-.7-.163-1.023s-.123-.532-.123-.655l-1.1-5.073Z" transform="translate(-1124.054 -96.868)" fill="#898989" fill-rule="evenodd"/>
      <path id="Path_3378" data-name="Path 3378" d="M1611.4,104l-3.4,8.346h2.087l.614-1.636h3.354l.573,1.636h2.046L1613.645,104Zm2.168,5.277h-2.291l1.186-3.191Z" transform="translate(-1542.217 -99.745)" fill="#898989" fill-rule="evenodd"/>
      <path id="Path_3379" data-name="Path 3379" d="M2026,104v8.346h1.923v-3.4h3.477v3.4h1.923V104H2031.4v3.355h-3.477V104Z" transform="translate(-1943.117 -99.745)" fill="#898989" fill-rule="evenodd"/>
      <path id="Path_3380" data-name="Path 3380" d="M365.868,2040.25l-.777.245a2.3,2.3,0,0,0-.164-.49,1.507,1.507,0,0,0-.2-.45c-.082-.163-.164-.286-.286-.327s-.2-.082-.286,0a.969.969,0,0,0-.164.655.92.92,0,0,1,.041.286,2.912,2.912,0,0,1-.123.941,1.037,1.037,0,0,1-.532.572,1.126,1.126,0,0,1-1.023.082,1.815,1.815,0,0,1-.9-.859,2.413,2.413,0,0,1-.245-.572c-.041-.2-.164-.409-.2-.655l.818-.246a5.182,5.182,0,0,0,.164.573,2.1,2.1,0,0,0,.164.409.887.887,0,0,0,.245.286.351.351,0,0,0,.286,0c.082-.041.082-.041.123-.123a.247.247,0,0,0,.041-.164c0-.082.041-.286.041-.532a1.146,1.146,0,0,1-.041-.327,1.95,1.95,0,0,1,.164-.736,1.412,1.412,0,0,1,.491-.491,1.1,1.1,0,0,1,1.064-.082,2.11,2.11,0,0,1,.9.9,1.362,1.362,0,0,1,.2.49A5.369,5.369,0,0,1,365.868,2040.25Zm.777,2.372a2.8,2.8,0,0,1-.327.123,1.115,1.115,0,0,1-.245.041l-1.145.287.573.9.777-.9c0-.041.082-.123.164-.246Zm.245-.9.736,1.1-2.7,3.559-.655-.981.655-.777-.818-1.309-1.023.2-.614-.982Zm1.636,2.455.7.859-2.618,2,1.227,1.513-.736.573-1.882-2.372Zm2.086,2.577.736.859-1.923,1.6h0a.766.766,0,0,0-.327.532.891.891,0,0,0,.2.572.7.7,0,0,0,.532.286,1.306,1.306,0,0,0,.7-.327l1.8-1.514.7.818-1.882,1.6a1.852,1.852,0,0,1-1.35.491,1.989,1.989,0,0,1-1.227-.736,1.8,1.8,0,0,1-.573-1.35,1.753,1.753,0,0,1,.655-1.186l.041-.041Zm3.314,3.6-.368,1.268a1.606,1.606,0,0,1-.082.245,1.231,1.231,0,0,1-.164.328c.164-.082.286-.123.368-.164s.164-.041.2-.081l1.309-.41.818.777-2.782.777L372,2054.323l-.777-.737,1.186-1.268.655-2.782Zm2.127,2.046.859.655-1.555,1.922v.041a.973.973,0,0,0-.245.572.949.949,0,0,0,.327.532.746.746,0,0,0,.614.164,1.113,1.113,0,0,0,.573-.449l1.514-1.841.859.7-1.555,1.923a1.89,1.89,0,0,1-1.227.736,2,2,0,0,1-1.391-.49,1.973,1.973,0,0,1-.818-1.186,1.614,1.614,0,0,1,.45-1.31l.041-.041Zm5.359,4.05,1.1.614-.123,2.864c0,.122-.041.246-.041.368s-.041.245-.041.368a3.822,3.822,0,0,1,.2-.409l.123-.245,1.186-2.209.859.49-2.086,3.642-1.1-.614.123-2.9c0-.123.041-.245.041-.368s.041-.2.041-.327l-.041.082c-.2.368-.286.572-.327.655l-1.145,2.086-.859-.491Zm6.832,3.723-.532.7c-.123-.123-.245-.2-.327-.287a1.23,1.23,0,0,0-.327-.164,1.6,1.6,0,0,0-1.186-.164,1.366,1.366,0,0,0-.818.7,1.185,1.185,0,0,0-.082.9,1.13,1.13,0,0,0,.614.613.308.308,0,0,0,.2.082.582.582,0,0,0,.245.081l.614-1.227.982.45-.941,1.923a4.293,4.293,0,0,1-.777-.164c-.246-.082-.45-.164-.655-.246a2.251,2.251,0,0,1-1.35-1.227,2.3,2.3,0,0,1,.082-1.719,1.864,1.864,0,0,1,1.268-1.146,2.555,2.555,0,0,1,1.8.164,2.173,2.173,0,0,1,.614.328A2.86,2.86,0,0,1,388.246,2060.173Zm2.168,1.513a1.789,1.789,0,0,0-.245.287,1.1,1.1,0,0,1-.164.2l-.736.9.982.368.082-1.187a1.083,1.083,0,0,1,.041-.286A.609.609,0,0,1,390.414,2061.687Zm-.368-.9,1.268.491-.123,4.5-1.1-.45.082-1.023-1.432-.572-.7.777-1.1-.45Zm2.455.9.982.287-.246,2.332a3.086,3.086,0,0,0-.082.451c-.041.2-.082.49-.123.777.164-.287.245-.531.327-.7a2.31,2.31,0,0,1,.164-.327l1.227-2.168,1.186.327-.2,2.373c-.041.123-.041.286-.082.491s-.041.45-.082.737c.082-.164.123-.328.2-.491l.245-.49,1.186-2.25.982.286-2.168,3.764-1.227-.368.164-2.373a1.873,1.873,0,0,1,.041-.409c.041-.2.082-.45.123-.777a3.157,3.157,0,0,1-.286.654,4.391,4.391,0,0,1-.246.45l-1.145,2.046-1.268-.327Zm7.364,2.454a1.455,1.455,0,0,1-.164.368c-.041.123-.082.164-.082.205l-.573,1.022,1.064.2-.164-1.186c-.041-.041-.041-.123-.041-.287S399.864,2064.223,399.864,2064.141Zm-.491-.777,1.309.2.818,4.418-1.145-.2-.164-1.023-1.514-.246-.532.9-1.145-.2Zm2.9.45,1.268.082,1.064,2.658a1.472,1.472,0,0,1,.164.369.962.962,0,0,1,.082.327c0-.163.041-.327.041-.491v-.246l.123-2.5,1.023.082-.368,4.172-1.268-.081-1.1-2.66-.123-.368a2.8,2.8,0,0,1-.123-.327v.123a2.216,2.216,0,0,1-.041.7l-.123,2.413-.982-.082Zm7.732.327-.164.86-.45-.123h-.327a1.793,1.793,0,0,0-1.186.368,1.215,1.215,0,0,0-.409.983,1.139,1.139,0,0,0,.327.817,1,1,0,0,0,.818.327h.2a.608.608,0,0,1,.286-.041v-1.391h1.064v2.128a6.648,6.648,0,0,1-.777.164,4.6,4.6,0,0,1-.7.082,2.658,2.658,0,0,1-1.759-.532,2.059,2.059,0,0,1-.655-1.6,1.865,1.865,0,0,1,.655-1.595,2.388,2.388,0,0,1,1.718-.614,3.876,3.876,0,0,1,.7.041A3.737,3.737,0,0,1,410.01,2064.141Zm.655-.163,1.1-.082.123,2.454v.041a1.059,1.059,0,0,0,.245.573.848.848,0,0,0,.614.164.543.543,0,0,0,.532-.286,1.194,1.194,0,0,0,.123-.737l-.123-2.332,1.064-.082.164,2.454a1.828,1.828,0,0,1-.368,1.391,2.169,2.169,0,0,1-1.35.573,1.812,1.812,0,0,1-1.432-.368,1.67,1.67,0,0,1-.573-1.228v-.041Zm4.05-.409,1.268-.245,1.718,2.291q.111.159.2.327a1.761,1.761,0,0,0,.2.287c-.041-.123-.082-.287-.123-.451a.6.6,0,0,0-.041-.245l-.491-2.454.982-.163.7,4.131-1.268.245-1.718-2.331a1.735,1.735,0,0,0-.2-.287,1.229,1.229,0,0,1-.164-.327v.123a4.285,4.285,0,0,0,.164.7l.45,2.373-.982.164Zm7.323-1.677,1.023-.368.777,2.291a2.043,2.043,0,0,1,.041,1.473,1.5,1.5,0,0,1-1.1.818c-.041.041-.123.041-.2.081a.359.359,0,0,1-.2.042l-.246-.9h.041c.041,0,.082-.041.123-.041.286-.123.491-.246.532-.45a2.038,2.038,0,0,0-.082-.941Zm3.641-.573a.91.91,0,0,1,.041.368.712.712,0,0,1,.041.2l.041,1.227.982-.408-.736-.941c-.041,0-.082-.082-.164-.2A1.575,1.575,0,0,0,425.678,2061.318Zm-.818-.45,1.227-.45,2.986,3.355-1.1.409-.655-.777-1.432.532V2065l-1.064.409Zm2.127-.777,3.191-1.637.409.818-1.1.573,1.473,2.946-.982.491-1.473-2.946-1.1.614Zm3.477-1.8.941-.531,2.046,3.682-.982.532Zm3.968-2.373,1.064-.736,1.923,1.718a1.125,1.125,0,0,1,.245.2l.368.368a4.68,4.68,0,0,0-.2-.449.444.444,0,0,1-.082-.287l-.941-2.495,1.023-.736,2.987,3.068-.859.572-1.636-1.881c-.082-.041-.123-.123-.245-.245a3.552,3.552,0,0,1-.327-.409,4.324,4.324,0,0,1,.2.491,1.443,1.443,0,0,1,.164.368l.9,2.373-.982.7-1.882-1.677a1.752,1.752,0,0,0-.286-.245l-.368-.368c.123.2.245.45.368.7.041.082.082.123.082.163l1.1,2.127-.818.573Zm5.891-3.722a1.214,1.214,0,0,0,.164.327c.041.164.082.2.082.245l.45,1.1.818-.7-1.023-.655c-.041,0-.123-.041-.245-.164A.629.629,0,0,1,440.324,2052.2Zm-.941-.123,1.023-.859,3.927,2.168-.9.778-.9-.532-1.146.982.368.982-.9.778Zm2.168-1.963.859-.9,2.741.818.368.123c.123.041.2.082.327.123a2.626,2.626,0,0,1-.368-.327.492.492,0,0,1-.164-.164l-1.882-1.677.7-.737,3.027,2.946-.9.9-2.741-.819-.368-.123c-.082-.041-.2-.082-.286-.123l.082.082c.286.246.45.409.532.491l1.759,1.6-.655.737Zm4.214-3.4,1.882,1.555.286-.368a1.326,1.326,0,0,0,.327-.941,1.346,1.346,0,0,0-1.391-1.146,1.249,1.249,0,0,0-.818.532Zm-1.35.287.941-1.187a2.8,2.8,0,0,1,1.473-1.064,1.83,1.83,0,0,1,1.555.45,3.984,3.984,0,0,1,.7.777,1.753,1.753,0,0,1,.245.9,1.6,1.6,0,0,1-.164.736,3.5,3.5,0,0,1-.532.859l-.941,1.186Zm2.618-3.437.655-.9,3.4,2.5-.655.859Zm2.209-1.922.941.614.246-.368a.87.87,0,0,0,.164-.491.519.519,0,0,0-.286-.368.487.487,0,0,0-.45-.123c-.164.041-.246.164-.368.328Zm-1.227.491.859-1.351a2.185,2.185,0,0,1,.9-.859,1.077,1.077,0,0,1,.982.122,1.187,1.187,0,0,1,.491.614,1.057,1.057,0,0,1-.082.777,1.453,1.453,0,0,1,.368-.164,2.169,2.169,0,0,1,.532-.041l1.432.123-.655,1.022-1.309-.122a1.1,1.1,0,0,0-.368,0c-.123,0-.164.122-.245.245l-.082.164,1.268.859-.573.941Zm1.923-3.192.491-.941,3.682,2-.491.941Z" transform="translate(-346.231 -1954.626)" fill="#fff"/>
      <path id="Path_3381" data-name="Path 3381" d="M0,0H122.73V122.73H0Z" fill="none"/>
    </g>
  </g>
</svg>
