<svg xmlns="http://www.w3.org/2000/svg" width="160" height="47" viewBox="0 0 160 47">
  <g id="Group_2416" data-name="Group 2416" transform="translate(-1096 -190)">
    <g id="Group_2404" data-name="Group 2404" transform="translate(5)">
      <g id="Group_2401" data-name="Group 2401">
        <g id="Rectangle_1050" data-name="Rectangle 1050" transform="translate(1091 190)" stroke="#a6a6a6" stroke-width="1">
          <rect width="160" height="47" rx="6" stroke="none"/>
          <rect x="0.5" y="0.5" width="159" height="46" rx="5.5" fill="none"/>
        </g>
        <g id="google-play-svgrepo-com" transform="translate(1105 199)">
          <g id="Group_2399" data-name="Group 2399">
            <path id="Path_4089" data-name="Path 4089" d="M67.623,49.619c3.577-1.964,6.288-3.46,6.522-3.577.748-.4,1.52-1.45,0-2.267-.491-.257-3.133-1.707-6.522-3.577l-4.7,4.745Z" transform="translate(-46.818 -29.909)" fill="#ffd900"/>
            <path id="Path_4090" data-name="Path 4090" d="M19.436,58.737,4.474,73.816a1.99,1.99,0,0,0,1.215-.3c.981-.537,11.385-6.219,18.445-10.1Z" transform="translate(-3.329 -43.702)" fill="#f43249"/>
            <path id="Path_4091" data-name="Path 4091" d="M19.368,15.035l4.7-4.722S6.674.821,5.622.261A1.822,1.822,0,0,0,4.384.026Z" transform="translate(-3.262)" fill="#00ee76"/>
            <path id="Path_4092" data-name="Path 4092" d="M16.107,15.11,1.122.1C.514.241,0,.779,0,1.877V28.412c0,1.006.4,1.73,1.145,1.8Z" transform="translate(0 -0.075)" fill="#00d3ff"/>
          </g>
          <path id="Path_4093" data-name="Path 4093" d="M163.224,31.145a4.933,4.933,0,1,0,4.909,4.932A4.855,4.855,0,0,0,163.224,31.145Zm0,7.9a3,3,0,1,1,2.758-2.992A2.851,2.851,0,0,1,163.224,39.048Zm-10.684-7.9a4.933,4.933,0,1,0,4.909,4.932A4.841,4.841,0,0,0,152.54,31.145Zm0,7.9a3,3,0,1,1,2.758-2.992,2.851,2.851,0,0,1-2.758,2.992Zm-12.694-6.382v2.08H144.8a4.322,4.322,0,0,1-1.122,2.619,5.067,5.067,0,0,1-3.834,1.52,5.566,5.566,0,0,1,0-11.128,5.24,5.24,0,0,1,3.741,1.5l1.472-1.473a7.235,7.235,0,0,0-5.213-2.1,7.621,7.621,0,1,0,0,15.242,6.76,6.76,0,0,0,7.107-7.037,7.1,7.1,0,0,0-.117-1.309Zm51.945,1.613a4.553,4.553,0,0,0-4.185-3.133A4.654,4.654,0,0,0,183,36.078a4.858,4.858,0,0,0,8.907,2.758l-1.659-1.122a2.788,2.788,0,0,1-2.408,1.356,2.439,2.439,0,0,1-2.362-1.5L192,34.838Zm-6.639,1.66a2.712,2.712,0,0,1,2.548-2.876,1.888,1.888,0,0,1,1.823,1.052Zm-5.307,4.745H182V26.236h-2.151Zm-3.506-8.439h-.07a3.359,3.359,0,0,0-2.572-1.1,4.927,4.927,0,0,0,0,9.842,3.3,3.3,0,0,0,2.572-1.122h.07v.7c0,1.894-1.006,2.9-2.619,2.9a2.7,2.7,0,0,1-2.455-1.753l-1.87.8a4.662,4.662,0,0,0,4.324,2.922c2.524,0,4.652-1.5,4.652-5.12v-8.86h-2.034v.8Zm-2.455,6.8a2.993,2.993,0,0,1,0-5.96,2.774,2.774,0,0,1,2.619,2.992A2.768,2.768,0,0,1,173.884,39.048Zm27.936-12.811h-5.143V40.684h2.151V35.213h2.992a4.494,4.494,0,1,0,0-8.977Zm.07,6.967h-3.04V28.247h3.04a2.515,2.515,0,0,1,2.524,2.478,2.545,2.545,0,0,1-2.524,2.479Zm13.232-2.081a3.976,3.976,0,0,0-3.81,2.221l1.894.8a2.049,2.049,0,0,1,1.964-1.052,2.082,2.082,0,0,1,2.267,1.87V35.1a4.618,4.618,0,0,0-2.244-.562c-2.057,0-4.138,1.145-4.138,3.25a3.318,3.318,0,0,0,3.553,3.179,2.99,2.99,0,0,0,2.735-1.426h.07V40.66h2.08V35.12C219.469,32.572,217.576,31.122,215.122,31.122Zm-.257,7.9c-.7,0-1.684-.351-1.684-1.215,0-1.122,1.215-1.543,2.267-1.543a3.859,3.859,0,0,1,1.964.491A2.588,2.588,0,0,1,214.865,39.024ZM227,31.45l-2.455,6.242h-.07l-2.548-6.242h-2.314l3.834,8.743-2.174,4.886h2.244l5.867-13.629Zm-19.263,9.234h2.151V26.236h-2.151Z" transform="translate(-98.327 -13.104)" fill="#fff"/>
        </g>
      </g>
      <text id="GET_IT_ON" data-name="GET IT ON" transform="translate(1139 205)" fill="#fff" font-size="9" font-family="AvenirNext-Medium, Avenir Next" font-weight="500"><tspan x="0" y="0">GET IT ON</tspan></text>
    </g>
  </g>
</svg>
