<svg id="google-play-badge-logo-svgrepo-com" xmlns="http://www.w3.org/2000/svg" xmlns:xlink="http://www.w3.org/1999/xlink" width="160" height="47.407" viewBox="0 0 160 47.407">
  <defs>
    <linearGradient id="linear-gradient" x1="0.908" y1="1.032" x2="-0.383" y2="0.36" gradientUnits="objectBoundingBox">
      <stop offset="0" stop-color="#00a0ff"/>
      <stop offset="0.007" stop-color="#00a1ff"/>
      <stop offset="0.26" stop-color="#00beff"/>
      <stop offset="0.512" stop-color="#00d2ff"/>
      <stop offset="0.76" stop-color="#00dfff"/>
      <stop offset="1" stop-color="#00e3ff"/>
    </linearGradient>
    <linearGradient id="linear-gradient-2" x1="1.077" y1="0.729" x2="-1.307" y2="0.729" gradientUnits="objectBoundingBox">
      <stop offset="0" stop-color="#ffe000"/>
      <stop offset="0.409" stop-color="#ffbd00"/>
      <stop offset="0.775" stop-color="orange"/>
      <stop offset="1" stop-color="#ff9c00"/>
    </linearGradient>
    <linearGradient id="linear-gradient-3" x1="0.864" y1="-0.023" x2="-0.499" y2="-1.789" gradientUnits="objectBoundingBox">
      <stop offset="0" stop-color="#ff3a44"/>
      <stop offset="1" stop-color="#c31162"/>
    </linearGradient>
    <linearGradient id="linear-gradient-4" x1="-0.186" y1="2.701" x2="0.423" y2="1.909" gradientUnits="objectBoundingBox">
      <stop offset="0" stop-color="#32a071"/>
      <stop offset="0.069" stop-color="#2da771"/>
      <stop offset="0.476" stop-color="#15cf74"/>
      <stop offset="0.801" stop-color="#06e775"/>
      <stop offset="1" stop-color="#00f076"/>
    </linearGradient>
  </defs>
  <path id="Path_2188" data-name="Path 2188" d="M154.074,47.407H5.926A5.868,5.868,0,0,1,0,41.481V5.926A5.868,5.868,0,0,1,5.926,0H154.074A5.868,5.868,0,0,1,160,5.926V41.481A5.868,5.868,0,0,1,154.074,47.407Z"/>
  <path id="Path_2189" data-name="Path 2189" d="M154.074.948a5.008,5.008,0,0,1,4.978,4.978V41.481a5.008,5.008,0,0,1-4.978,4.978H5.926A5.008,5.008,0,0,1,.948,41.481V5.926A5.008,5.008,0,0,1,5.926.948H154.074m0-.948H5.926A5.943,5.943,0,0,0,0,5.926V41.481a5.868,5.868,0,0,0,5.926,5.926H154.074A5.868,5.868,0,0,0,160,41.481V5.926A5.943,5.943,0,0,0,154.074,0Z" fill="#a6a6a6"/>
  <path id="Path_2190" data-name="Path 2190" d="M48.511,10.811a3.228,3.228,0,0,1-.83,2.37A3.674,3.674,0,0,1,41.4,10.574,3.642,3.642,0,0,1,45.074,6.9a3.156,3.156,0,0,1,1.422.356,2.581,2.581,0,0,1,1.067.83l-.593.593a2.21,2.21,0,0,0-1.9-.83,2.358,2.358,0,0,0-1.9.83,2.441,2.441,0,0,0-.83,2.015,2.441,2.441,0,0,0,.83,2.015,3.052,3.052,0,0,0,1.9.83,2.6,2.6,0,0,0,2.015-.83,1.963,1.963,0,0,0,.593-1.422H45.074v-.948h3.437v.474Zm5.452-2.963h-3.2V10.1h2.963v.83H50.763v2.252h3.2v.948H49.815V7.019h4.148Zm3.911,6.281h-.948V7.848H54.911v-.83h4.978v.83H57.874Zm5.452,0V7.019h.948V14.13Zm4.978,0h-.948V7.848H65.341v-.83H70.2v.83H68.185V14.13Zm11.259-.948a3.674,3.674,0,0,1-6.281-2.607,3.674,3.674,0,1,1,7.348,0A3.485,3.485,0,0,1,79.563,13.181Zm-4.5-.593a2.8,2.8,0,0,0,1.9.83,2.358,2.358,0,0,0,1.9-.83,2.859,2.859,0,0,0,.83-2.015,2.441,2.441,0,0,0-.83-2.015,2.8,2.8,0,0,0-1.9-.83,2.358,2.358,0,0,0-1.9.83,2.859,2.859,0,0,0-.83,2.015A2.441,2.441,0,0,0,75.059,12.589Zm6.874,1.541V7.019H83l3.437,5.57V7.019h.948V14.13h-.948L82.763,8.322V14.13h-.83Z" transform="translate(7.667 1.278)" fill="#fff" stroke="#fff" stroke-miterlimit="10" stroke-width="0.2"/>
  <path id="Path_2191" data-name="Path 2191" d="M73.1,22.67a4.986,4.986,0,0,0-5.1,5.1,5.059,5.059,0,0,0,5.1,5.1,4.986,4.986,0,0,0,5.1-5.1A4.917,4.917,0,0,0,73.1,22.67Zm0,8.059a2.942,2.942,0,0,1-2.844-3.081A2.942,2.942,0,0,1,73.1,24.567a2.871,2.871,0,0,1,2.844,3.081A2.942,2.942,0,0,1,73.1,30.73ZM62.078,22.67a4.986,4.986,0,0,0-5.1,5.1,5.059,5.059,0,0,0,5.1,5.1,4.986,4.986,0,0,0,5.1-5.1A4.917,4.917,0,0,0,62.078,22.67Zm0,8.059a2.942,2.942,0,0,1-2.844-3.081,2.942,2.942,0,0,1,2.844-3.081,2.871,2.871,0,0,1,2.844,3.081A2.942,2.942,0,0,1,62.078,30.73ZM48.922,24.211v2.133h5.1a4.482,4.482,0,0,1-1.185,2.726,5.246,5.246,0,0,1-3.911,1.541,5.518,5.518,0,0,1-5.57-5.689,5.591,5.591,0,0,1,5.57-5.689,5.877,5.877,0,0,1,3.911,1.541l1.541-1.541A7.6,7.6,0,0,0,49.041,17.1,8,8,0,0,0,41.1,24.922a8,8,0,0,0,7.941,7.822,6.821,6.821,0,0,0,5.452-2.252,7.135,7.135,0,0,0,1.9-4.978,4.444,4.444,0,0,0-.119-1.3H48.922ZM102.73,25.87a4.6,4.6,0,0,0-4.267-3.2,4.773,4.773,0,0,0-4.741,5.1,4.96,4.96,0,0,0,4.978,5.1,4.862,4.862,0,0,0,4.148-2.252l-1.659-1.185A2.889,2.889,0,0,1,98.7,30.848a2.571,2.571,0,0,1-2.489-1.541l6.756-2.844-.237-.593ZM95.856,27.53a2.879,2.879,0,0,1,2.607-2.963,2.1,2.1,0,0,1,1.9,1.067Zm-5.57,4.859h2.252V17.574H90.285ZM86.73,23.737A3.9,3.9,0,0,0,84,22.552a5.093,5.093,0,0,0-4.859,5.1A4.908,4.908,0,0,0,84,32.626a3.4,3.4,0,0,0,2.607-1.185h.119v.711c0,1.9-1.067,2.963-2.726,2.963a2.633,2.633,0,0,1-2.489-1.778l-1.9.83a4.889,4.889,0,0,0,4.5,2.963c2.607,0,4.741-1.541,4.741-5.215V22.907H86.73v.83ZM84.122,30.73a2.942,2.942,0,0,1-2.844-3.081,2.942,2.942,0,0,1,2.844-3.081,2.851,2.851,0,0,1,2.726,3.081A2.851,2.851,0,0,1,84.122,30.73Zm28.919-13.156h-5.333V32.389h2.252v-5.57h3.081a4.628,4.628,0,1,0,0-9.244Zm.119,7.111h-3.2v-5.1h3.2a2.6,2.6,0,0,1,2.607,2.489,2.712,2.712,0,0,1-2.607,2.607Zm13.63-2.133a3.984,3.984,0,0,0-3.911,2.252l2.015.83a2.094,2.094,0,0,1,2.015-1.067,2.227,2.227,0,0,1,2.37,1.9v.119a4.7,4.7,0,0,0-2.252-.593c-2.133,0-4.267,1.185-4.267,3.319a3.472,3.472,0,0,0,3.674,3.319,3.335,3.335,0,0,0,2.844-1.422h.119v1.185h2.133V26.7a4.485,4.485,0,0,0-4.741-4.148Zm-.237,8.178c-.711,0-1.778-.356-1.778-1.3,0-1.185,1.3-1.541,2.37-1.541a4.583,4.583,0,0,1,2.015.474A2.76,2.76,0,0,1,126.552,30.73ZM139,22.907l-2.489,6.4h-.119l-2.607-6.4h-2.37l3.911,9.007-2.252,4.978h2.252l6.044-13.985H139Zm-19.911,9.481h2.252V17.574h-2.252Z" transform="translate(7.611 3.167)" fill="#fff"/>
  <g id="Group_1617" data-name="Group 1617" transform="translate(11.852 8.471)">
    <path id="Path_2192" data-name="Path 2192" d="M10.474,7.5A2.317,2.317,0,0,0,10,9.159V35.352a2.345,2.345,0,0,0,.593,1.659l.119.119,14.7-14.7V22.2Z" transform="translate(-10 -7.082)" fill="url(#linear-gradient)"/>
    <path id="Path_2193" data-name="Path 2193" d="M27.759,25.874,22.9,21.015v-.356L27.759,15.8l.119.119,5.807,3.319c1.659.948,1.659,2.489,0,3.437Z" transform="translate(-7.611 -5.545)" fill="url(#linear-gradient-2)"/>
    <path id="Path_2194" data-name="Path 2194" d="M30.193,24.978,25.215,20,10.4,34.815c.593.593,1.422.593,2.489.119l17.3-9.956" transform="translate(-9.926 -4.767)" fill="url(#linear-gradient-3)"/>
    <path id="Path_2195" data-name="Path 2195" d="M30.193,17.4l-17.3-9.837a1.921,1.921,0,0,0-2.489.119l14.815,14.7Z" transform="translate(-9.926 -7.143)" fill="url(#linear-gradient-4)"/>
    <path id="Path_2196" data-name="Path 2196" d="M30.074,24.1,12.889,33.819a1.938,1.938,0,0,1-2.37,0l-.119.119.119.119a1.938,1.938,0,0,0,2.37,0Z" transform="translate(-9.926 -4.008)" opacity="0.2"/>
    <path id="Path_2197" data-name="Path 2197" d="M10.474,34.578A2.317,2.317,0,0,1,10,32.919v.119a2.345,2.345,0,0,0,.593,1.659v-.119h-.119Zm25.6-13.037-5.926,3.319.119.119,5.807-3.319A1.97,1.97,0,0,0,37.259,20C37.259,20.593,36.785,21.067,36.074,21.541Z" transform="translate(-10 -4.767)" opacity="0.12"/>
    <path id="Path_2198" data-name="Path 2198" d="M12.963,7.684,36.074,20.839c.711.474,1.185.948,1.185,1.541a1.97,1.97,0,0,0-1.185-1.659L12.963,7.565C11.3,6.617,10,7.328,10,9.225v.119C10,7.565,11.3,6.736,12.963,7.684Z" transform="translate(-10 -7.147)" fill="#fff" opacity="0.25"/>
  </g>
</svg>
