<svg xmlns="http://www.w3.org/2000/svg" width="606.504" height="390.584" viewBox="0 0 606.504 390.584">
  <g id="Group_1990" data-name="Group 1990" transform="translate(-360.055 -105)">
    <path id="Path_745" data-name="Path 745" d="M720.275,655.713A214.76,214.76,0,0,1,692.369,761.48q-4.588,8.2-9.883,16.017-2.986,4.42-6.187,8.7H254.38q-3.191-4.273-6.187-8.7c-23.964-35.4-37.789-77.126-37.789-121.784,0-128.308,114.143-232.335,254.936-232.335S720.275,527.405,720.275,655.713Z" transform="translate(183.325 -318.378)" fill="#ffeee5"/>
    <g id="Group_1982" data-name="Group 1982" transform="matrix(0.819, -0.574, 0.574, 0.819, 322, 303.422)">
      <g id="Group_1978" data-name="Group 1978" transform="translate(0 92.623)">
        <path id="Path_3320" data-name="Path 3320" d="M16.247,54.4c-2.737-3.274-7.818-3.387-11.139-6.068C1.2,45.179.752,39.484.622,34.458L.03,11.563a18.436,18.436,0,0,1,.8-7.319C1.744,1.946,3.885-.051,6.357,0c4.8.1,6.166,6.519,9.166,10.271,5.2,6.5,16.653,5.3,21.3,12.211,3.586,5.334,1.285,13.043,4.7,18.489C44.93,46.4,52.5,47.378,57.241,51.69c4.9,4.459,5.99,11.638,6.783,18.22.354,2.942.627,6.218-1.155,8.587-1.9,2.533-5.417,3.078-8.568,3.424-7.008.772-14.214,1.528-21.019-.32S20.069,74.674,18.8,67.74C17.963,63.211,19.2,57.938,16.247,54.4Z" transform="translate(0 0)" fill="#f87c39"/>
        <path id="Path_3321" data-name="Path 3321" d="M0,0,16.05,7.373" transform="translate(4.881 34.121)" fill="#d55917" stroke="#d55917" stroke-linecap="round" stroke-linejoin="round" stroke-width="0.429"/>
        <path id="Path_3322" data-name="Path 3322" d="M0,0A187.058,187.058,0,0,0,7.651,26.971" transform="translate(24.167 23.863)" fill="none" stroke="#d55917" stroke-linecap="round" stroke-linejoin="round" stroke-width="0.429"/>
        <path id="Path_3323" data-name="Path 3323" d="M0,0,9.6,2.267C15.03,3.552,20.465,4.835,25.927,6" transform="translate(27.846 68.968)" fill="none" stroke="#d55917" stroke-linecap="round" stroke-linejoin="round" stroke-width="0.429"/>
        <path id="Path_3324" data-name="Path 3324" d="M0,0A115.308,115.308,0,0,0,6.323,18.97" transform="translate(48.411 53.964)" fill="none" stroke="#cdc2dd" stroke-linecap="round" stroke-linejoin="round" stroke-width="0.429"/>
        <path id="Path_3325" data-name="Path 3325" d="M0,0A132.77,132.77,0,0,0,5.738,19.336" transform="translate(34.899 42.198)" fill="none" stroke="#d55917" stroke-linecap="round" stroke-linejoin="round" stroke-width="0.429"/>
        <path id="Path_3326" data-name="Path 3326" d="M0,0A123.6,123.6,0,0,0,16.17.983" transform="translate(23.764 61.061)" fill="none" stroke="#d55917" stroke-linecap="round" stroke-linejoin="round" stroke-width="0.429"/>
        <path id="Path_3327" data-name="Path 3327" d="M0,0A67.556,67.556,0,0,0,9.832,10.707" transform="translate(6.286 20.428)" fill="none" stroke="#d55917" stroke-linecap="round" stroke-linejoin="round" stroke-width="0.429"/>
        <path id="Path_3328" data-name="Path 3328" d="M0,0A152.254,152.254,0,0,1,3.081,16.315" transform="translate(14.303 16.354)" fill="none" stroke="#d55917" stroke-linecap="round" stroke-linejoin="round" stroke-width="0.429"/>
        <path id="Path_3329" data-name="Path 3329" d="M29.961,51.007A119.65,119.65,0,0,1,0,0,48.516,48.516,0,0,0,3.4,7.427q1.835,3.741,3.867,7.381a159.812,159.812,0,0,0,8.873,14.1A162.489,162.489,0,0,0,38,54.011a160.4,160.4,0,0,0,26.526,20.1q3.066,1.854,6.216,3.567c1.616.878,4.985,1.814,5.578,3.7.467,1.481-.914,1.812-2.131,1.76a7.62,7.62,0,0,1-3.664-1.541C56.287,72.365,41.923,63.045,29.961,51.007Z" transform="translate(6.252 9.308)" fill="#d55917"/>
      </g>
      <g id="Group_1979" data-name="Group 1979" transform="translate(16.67 155.123)">
        <path id="Path_3330" data-name="Path 3330" d="M.112,6.19C-.712,2.442,3.145.35,6.953.042c4.941-.4,10.328,2.155,13.913,3.484,4.855,1.8,10.448,5.072,14.274,7.132-6.8-.3-14.82.939-22.729,1.312a18.148,18.148,0,0,1-7.239-.825A8.135,8.135,0,0,1,.112,6.19Z" transform="translate(0 31.382)" fill="#d55917"/>
        <path id="Path_3331" data-name="Path 3331" d="M6.973.012A4.289,4.289,0,0,1,9.744,1.54a8.194,8.194,0,0,1,1.6,6.6,25.724,25.724,0,0,1-2.282,6.6q-3.791,8.5-7.024,17.231A120.461,120.461,0,0,1,.063,17.152C-.16,12.682.146,8.071,2,4,2.945,1.936,4.715-.176,6.973.012Z" transform="translate(33.169 10.433)" fill="#d55917"/>
        <path id="Path_3332" data-name="Path 3332" d="M2.542,12.068A15.334,15.334,0,0,1,.045,6.1C-.209,3.941.612,1.507,2.534.494,5.461-1.047,8.88,1.3,11.208,3.65A82.829,82.829,0,0,1,32.3,42.409c-4.8-5.16-11.747-9.621-17.062-14.255C10.075,23.644,6.1,17.934,2.542,12.068Z" transform="translate(2.901 0)" fill="#d55917"/>
        <path id="Path_3333" data-name="Path 3333" d="M88.27,68.492a345.089,345.089,0,0,1-38.558-18.6,146.243,146.243,0,0,1-13.823-8.6C20.981,30.577,9.581,15.66,0,0,6.849,9.686,23.567,27.887,33.093,35.2c21.5,16.5,35.26,23.526,60.388,33.667C91.945,69.827,89.948,69.177,88.27,68.492Z" transform="translate(32.465 38.293)" fill="#d55917"/>
        <path id="Path_3334" data-name="Path 3334" d="M13,2.662c2.851,2.208,3.569,6.164,3.882,9.757a98.282,98.282,0,0,1-2.2,30.784c-3.744-4.177-6.462-9.158-9-14.161C3.426,24.611,1.262,20.049.434,15.149S-.319,3.817,3.231.916C6.817-1.122,10.32.588,13,2.662Z" transform="translate(85.516 52.957)" fill="#d55917"/>
        <path id="Path_3335" data-name="Path 3335" d="M3.242,17.032a8.866,8.866,0,0,0,3.081,1.148,17.436,17.436,0,0,0,7.553-.739c9.6-2.646,18.935-8.147,25.142-16C37.34.216,35.137.035,33.06.006A89.506,89.506,0,0,0,15.777,1.719C10.884,2.611-2.59,6,.439,13.827A6.609,6.609,0,0,0,3.242,17.032Z" transform="translate(19.09 69.229)" fill="#d55917"/>
        <path id="Path_3336" data-name="Path 3336" d="M7.093.08A61.534,61.534,0,0,1,22.264,1.187c2.374.474,4.717,1.088,7.057,1.7l8.353,2.188A32.357,32.357,0,0,1,8.326,13C5.781,12.386,3.2,11.381,1.512,9.378s-2.145-5.218-.431-7.2C2.511.53,4.912.191,7.093.08Z" transform="translate(9.614 52.681)" fill="#d55917"/>
        <path id="Path_3337" data-name="Path 3337" d="M5.733,0A3.929,3.929,0,0,1,7.271.316c3.354,1.3,5.361,4.947,5.659,8.533s-.822,7.135-2.142,10.483A83.6,83.6,0,0,1,2.794,34.7c-1.236-1.1-1.578-2.867-1.809-4.5A101.537,101.537,0,0,1,.141,10.735c.177-3.367.65-7.012,3.018-9.413A3.97,3.97,0,0,1,5.733,0Z" transform="translate(48.309 25.994)" fill="#d55917"/>
        <path id="Path_3338" data-name="Path 3338" d="M12.905,40.9A55.721,55.721,0,0,1,2.942,24.091C1.112,19.325-2.981,3.316,3.616.284c1.642-.755,3.6.1,4.949,1.3,4.142,3.678,4.746,9.831,4.93,15.365.142,4.275.205,8.554.085,12.828C13.488,33.019,14.087,37.931,12.905,40.9Z" transform="translate(63.203 42.039)" fill="#d55917"/>
        <path id="Path_3339" data-name="Path 3339" d="M1.22,20.339A9.209,9.209,0,0,0,4.3,23.475a8.533,8.533,0,0,0,7.634.354,19.407,19.407,0,0,0,6.36-4.655A55.608,55.608,0,0,0,30.626,0C22.959.065,11.083,1.255,4.86,6.085.441,9.515-1.43,15.807,1.22,20.339Z" transform="translate(44.103 83.138)" fill="#d55917"/>
        <path id="Path_3340" data-name="Path 3340" d="M14.346,26.752c4.1-3.438,7.193-7.919,9.921-12.524A119.469,119.469,0,0,0,31.408.114C25.261-.59,19.277,2.093,13.75,4.871A33.724,33.724,0,0,0,5,10.536,17.79,17.79,0,0,0,1.4,15.6,12.4,12.4,0,0,0,.361,24.135a7.776,7.776,0,0,0,6.036,5.7C9.3,30.244,12.1,28.634,14.346,26.752Z" transform="translate(65.868 95.242)" fill="#d55917"/>
      </g>
      <g id="Group_1980" data-name="Group 1980" transform="translate(67.839 0)">
        <path id="Path_3341" data-name="Path 3341" d="M2.074,1.906C5.732-2.039,11.218.728,14.617,4.867c4.409,5.368,5.771,13.613,7.1,18.8,1.806,7.029,2,14.921,3.809,21.95C20.6,35.676,11.994,29.487,5.247,20.679A25.431,25.431,0,0,1,.415,11.688C-.423,8.365-.052,4.591,2.074,1.906Z" transform="translate(41.972 22.244)" fill="#d55917"/>
        <path id="Path_3342" data-name="Path 3342" d="M40.336,2.764a6.009,6.009,0,0,1,.455,4.409c-.785,3.181-3.387,5.659-6.322,7.114a36.037,36.037,0,0,1-9.427,2.649C16.5,18.552,8.416,20.047,0,22.216A159.6,159.6,0,0,1,15.084,8.5C20.051,4.674,25.606,1.344,31.778.229,34.9-.336,38.747.014,40.336,2.764Z" transform="translate(66.917 45.795)" fill="#d55917"/>
        <path id="Path_3343" data-name="Path 3343" d="M10.746,9.912c1.239-2.783,2.6-5.626,4.878-7.643S21.363-.749,24.065.656c4.11,2.137,4.139,7.951,3.3,12.508A115.569,115.569,0,0,1,0,68.454C.584,58.171,1.286,47.2,2.377,37.38,3.438,27.829,6.835,18.69,10.746,9.912Z" transform="translate(66.917 0)" fill="#d55917"/>
        <path id="Path_3344" data-name="Path 3344" d="M10.55,156.88a483.1,483.1,0,0,1-9.39-59.245A204.659,204.659,0,0,1,.018,74.851C.442,49.129,11.28,17.071,19.815,0,13.413,15.381,5.606,49.957,4.8,66.765c-1.823,37.926,1.084,59.382,9.482,96.412C11.946,162.176,11.1,159.359,10.55,156.88Z" transform="translate(50.18 61.417)" fill="#d55917"/>
        <path id="Path_3345" data-name="Path 3345" d="M45.323,13c-.265,5.046-4.245,9.034-8.131,12.263A137.766,137.766,0,0,1,0,47.321c1.817-7.648,5.381-14.756,9.109-21.676,3.3-6.131,6.825-12.266,11.8-17.134S33.356-1.407,39.531.361C44.744,2.863,45.572,8.26,45.323,13Z" transform="translate(56.555 138.844)" fill="#cdc2dd"/>
        <path id="Path_3346" data-name="Path 3346" d="M.02,9.349a12.477,12.477,0,0,0,1.14,4.462c1.5,3.244,4.14,5.817,6.885,8.106,10.71,8.933,24.5,15.291,38.5,16.162.071-2.911-1.482-5.593-3.108-8.006A125.352,125.352,0,0,0,27.661,11.545c-4.934-4.92-19.6-17.726-26.19-7.982A9.257,9.257,0,0,0,.02,9.349Z" transform="translate(5.728 79.274)" fill="#d55917"/>
        <path id="Path_3347" data-name="Path 3347" d="M15.561,5.276A86.194,86.194,0,0,1,26.405,23.624c1.351,3.111,2.516,6.3,3.681,9.484q2.079,5.68,4.156,11.363A45.34,45.34,0,0,1,1.678,17.013C.348,13.6-.56,9.818.4,6.28S4.693-.358,8.338.033C11.381.36,13.689,2.854,15.561,5.276Z" transform="translate(24.257 50.109)" fill="#d55917"/>
        <path id="Path_3348" data-name="Path 3348" d="M42.289,2.07a5.487,5.487,0,0,1,.868,2.019c1.179,4.9-1.414,10.124-5.305,13.332s-8.869,4.754-13.777,5.908A117.174,117.174,0,0,1,0,26.4c.276-2.3,2.039-4.109,3.741-5.683A142.234,142.234,0,0,1,25.466,4.205C29.483,1.721,34.056-.647,38.711.161A5.544,5.544,0,0,1,42.289,2.07Z" transform="translate(58.166 74.915)" fill="#d55917"/>
        <path id="Path_3349" data-name="Path 3349" d="M0,44.086c2.017-8.609,6.429-17.6,11.4-24.9C15.42,13.273,30.58-4.228,39.339.943c2.18,1.288,2.756,4.224,2.455,6.739-.925,7.7-7.526,13.314-13.75,17.949-4.806,3.577-9.682,7.068-14.7,10.345C9.542,38.459,4.368,43.071,0,44.086Z" transform="translate(52.526 103.791)" fill="#d55917"/>
        <path id="Path_3350" data-name="Path 3350" d="M1.162,8A12.939,12.939,0,0,0,.013,14.06c.158,3.7,2.6,7.031,5.694,9.07a27.154,27.154,0,0,0,10.438,3.6,77.975,77.975,0,0,0,31.922-1.125c-6.2-8.775-17.055-21.5-27.589-24.8C13-1.539,4.261,1.334,1.162,8Z" transform="translate(3.134 120.837)" fill="#d55917"/>
        <path id="Path_3351" data-name="Path 3351" d="M10.851,24.141c7.234,1.976,14.861,1.956,22.342,1.416A167.029,167.029,0,0,0,55.147,22.5c-4.1-7.637-11.97-12.382-19.583-16.525C31.271,3.638,26.857,1.344,22.055.433a24.947,24.947,0,0,0-8.708-.1A17.384,17.384,0,0,0,2.691,5.952C.077,9.112-.891,13.787.953,17.451S6.893,23.059,10.851,24.141Z" transform="translate(0 159.658)" fill="#d55917"/>
      </g>
      <g id="Group_1981" data-name="Group 1981" transform="translate(32.276 20.251)">
        <path id="Path_3352" data-name="Path 3352" d="M14.1,91.57C12.339,84.52,4.637,80.576,1.537,74c-3.651-7.741-.1-16.8,3.428-24.594q8.041-17.76,16.085-35.521c1.736-3.836,3.553-7.782,6.658-10.625S35.577-1.05,39.327.864c7.288,3.72,4.608,14.565,6.421,22.544,3.143,13.829,21.586,20.476,23.573,34.517,1.534,10.836-7.712,20.942-6.518,31.821,1.19,10.847,12.064,17.962,16.131,28.089,4.2,10.475.541,22.28-3.13,32.952-1.642,4.775-3.656,9.993-8.145,12.3-4.8,2.469-10.585.695-15.668-1.111-11.313-4.022-22.916-8.21-31.972-16.093s-15.1-20.419-11.91-31.991C10.2,106.338,16,99.175,14.1,91.57Z" transform="translate(0 0)" fill="#f87c39"/>
        <path id="Path_3353" data-name="Path 3353" d="M0,0,19.122,23.208" transform="translate(11.74 52.054)" fill="none" stroke="#d55917" stroke-linecap="round" stroke-linejoin="round" stroke-width="0.731"/>
        <path id="Path_3354" data-name="Path 3354" d="M8.295,0A318.207,318.207,0,0,0,0,47" transform="translate(40.612 50.649)" fill="none" stroke="#d55917" stroke-linecap="round" stroke-linejoin="round" stroke-width="0.731"/>
        <path id="Path_3355" data-name="Path 3355" d="M0,0,13.021,10.595c7.375,6,14.751,12,22.257,17.838" transform="translate(21.068 122.494)" fill="none" stroke="#d55917" stroke-linecap="round" stroke-linejoin="round" stroke-width="0.731"/>
        <path id="Path_3356" data-name="Path 3356" d="M4.391,0A196.27,196.27,0,0,0,0,33.761" transform="translate(59.324 114.767)" fill="none" stroke="#d55917" stroke-linecap="round" stroke-linejoin="round" stroke-width="0.731"/>
        <path id="Path_3357" data-name="Path 3357" d="M5.559,0A226.038,226.038,0,0,0,0,33.89" transform="translate(46.184 86.708)" fill="none" stroke="#d55917" stroke-linecap="round" stroke-linejoin="round" stroke-width="0.731"/>
        <path id="Path_3358" data-name="Path 3358" d="M0,0A210.426,210.426,0,0,0,24.047,13.51" transform="translate(20.681 107.347)" fill="none" stroke="#d55917" stroke-linecap="round" stroke-linejoin="round" stroke-width="0.731"/>
        <path id="Path_3359" data-name="Path 3359" d="M0,0A115.172,115.172,0,0,0,7.121,23.706" transform="translate(24.056 32.112)" fill="none" stroke="#d55917" stroke-linecap="round" stroke-linejoin="round" stroke-width="0.731"/>
        <path id="Path_3360" data-name="Path 3360" d="M7.387,0A258.708,258.708,0,0,1,0,27.287" transform="translate(31.976 31.82)" fill="none" stroke="#d55917" stroke-linecap="round" stroke-linejoin="round" stroke-width="0.731"/>
        <path id="Path_3361" data-name="Path 3361" d="M10.984,100.4A203.689,203.689,0,0,1,2.933,0c-.764,4.413-.322,9.431-.3,13.9q.033,7.1.447,14.181A271.271,271.271,0,0,0,6.208,56.278a276.578,276.578,0,0,0,14.871,54.691A273.237,273.237,0,0,0,46.81,161.45q3.324,5.117,6.879,10.079c1.823,2.545,6.292,6.48,5.8,9.8-.384,2.617-2.745,2.1-4.571,1.114-2.011-1.081-3.286-3.124-4.472-5.078C35.471,152.663,20.38,127.719,10.984,100.4Z" transform="translate(29.328 15.048)" fill="#d55917"/>
      </g>
    </g>
    <g id="Group_1983" data-name="Group 1983" transform="matrix(-0.819, -0.574, 0.574, -0.819, 843.861, 538.097)">
      <g id="Group_1978-2" data-name="Group 1978" transform="translate(0 95.198)">
        <path id="Path_3320-2" data-name="Path 3320" d="M16.247,28.345c-2.737,3.274-7.818,3.387-11.139,6.068C1.2,37.571.751,43.266.622,48.292Q.326,59.738.03,71.187a18.436,18.436,0,0,0,.8,7.319c.914,2.3,3.054,4.3,5.526,4.243,4.8-.1,6.166-6.519,9.166-10.271,5.2-6.5,16.653-5.3,21.3-12.211,3.586-5.334,1.285-13.043,4.7-18.489C44.93,36.35,52.5,35.372,57.241,31.06c4.9-4.459,5.99-11.638,6.783-18.22.354-2.942.627-6.218-1.155-8.587C60.964,1.719,57.451,1.175,54.3.829,47.291.057,40.086-.7,33.281,1.149S20.069,8.076,18.8,15.01C17.963,19.539,19.2,24.812,16.247,28.345Z" transform="translate(0 9.692)" fill="#f87c39"/>
        <path id="Path_3321-2" data-name="Path 3321" d="M0,7.373,16.05,0" transform="translate(4.881 50.947)" fill="#d55917" stroke="#d55917" stroke-linecap="round" stroke-linejoin="round" stroke-width="0.429"/>
        <path id="Path_3322-2" data-name="Path 3322" d="M0,26.971A187.057,187.057,0,0,1,7.651,0" transform="translate(24.167 41.607)" fill="none" stroke="#d55917" stroke-linecap="round" stroke-linejoin="round" stroke-width="0.429"/>
        <path id="Path_3323-2" data-name="Path 3323" d="M0,6,9.6,3.732C15.03,2.447,20.465,1.163,25.927,0" transform="translate(27.846 17.476)" fill="none" stroke="#d55917" stroke-linecap="round" stroke-linejoin="round" stroke-width="0.429"/>
        <path id="Path_3324-2" data-name="Path 3324" d="M0,18.97A115.307,115.307,0,0,1,6.323,0" transform="translate(48.411 19.507)" fill="none" stroke="#cdc2dd" stroke-linecap="round" stroke-linejoin="round" stroke-width="0.429"/>
        <path id="Path_3325-2" data-name="Path 3325" d="M0,19.336A132.773,132.773,0,0,1,5.738,0" transform="translate(34.899 30.907)" fill="none" stroke="#d55917" stroke-linecap="round" stroke-linejoin="round" stroke-width="0.429"/>
        <path id="Path_3326-2" data-name="Path 3326" d="M0,.985A123.6,123.6,0,0,1,16.17,0" transform="translate(23.764 30.396)" fill="none" stroke="#d55917" stroke-linecap="round" stroke-linejoin="round" stroke-width="0.429"/>
        <path id="Path_3327-2" data-name="Path 3327" d="M0,10.707A67.556,67.556,0,0,1,9.832,0" transform="translate(6.286 61.307)" fill="none" stroke="#d55917" stroke-linecap="round" stroke-linejoin="round" stroke-width="0.429"/>
        <path id="Path_3328-2" data-name="Path 3328" d="M0,16.315A152.257,152.257,0,0,0,3.081,0" transform="translate(14.303 59.773)" fill="none" stroke="#d55917" stroke-linecap="round" stroke-linejoin="round" stroke-width="0.429"/>
        <path id="Path_3329-2" data-name="Path 3329" d="M29.961,32.127A119.65,119.65,0,0,0,0,83.134a48.517,48.517,0,0,1,3.4-7.427q1.835-3.741,3.867-7.381a159.81,159.81,0,0,1,8.873-14.1A162.488,162.488,0,0,1,38,29.123,160.4,160.4,0,0,1,64.53,9.028Q67.6,7.174,70.746,5.46c1.616-.878,4.985-1.814,5.578-3.7C76.791.284,75.41-.047,74.193.005A7.62,7.62,0,0,0,70.53,1.546C56.287,10.769,41.923,20.09,29.961,32.127Z" transform="translate(6.253 0)" fill="#d55917"/>
      </g>
      <g id="Group_1979-2" data-name="Group 1979" transform="translate(16.67 0)">
        <path id="Path_3330-2" data-name="Path 3330" d="M.112,5.82c-.824,3.749,3.032,5.84,6.841,6.148,4.941.4,10.328-2.155,13.913-3.484,4.855-1.8,10.448-5.072,14.274-7.132-6.8.3-14.82-.939-22.729-1.312A18.148,18.148,0,0,0,5.173.866,8.135,8.135,0,0,0,.112,5.82Z" transform="translate(0 81.748)" fill="#d55917"/>
        <path id="Path_3331-2" data-name="Path 3331" d="M6.973,31.964a4.289,4.289,0,0,0,2.77-1.528,8.194,8.194,0,0,0,1.6-6.6,25.724,25.724,0,0,0-2.282-6.6Q5.269,8.733,2.036,0A120.466,120.466,0,0,0,.063,14.824C-.16,19.294.146,23.9,2,27.977,2.945,30.04,4.715,32.152,6.973,31.964Z" transform="translate(33.169 82.731)" fill="#d55917"/>
        <path id="Path_3332-2" data-name="Path 3332" d="M2.542,30.34a15.334,15.334,0,0,0-2.5,5.968c-.254,2.159.567,4.593,2.489,5.607,2.926,1.541,6.345-.808,8.674-3.157A82.829,82.829,0,0,0,32.3,0C27.5,5.16,20.557,9.621,15.243,14.255,10.075,18.765,6.1,24.474,2.542,30.34Z" transform="translate(2.901 82.731)" fill="#d55917"/>
        <path id="Path_3333-2" data-name="Path 3333" d="M88.27.859a345.088,345.088,0,0,0-38.558,18.6,146.234,146.234,0,0,0-13.823,8.6C20.981,38.774,9.581,53.691,0,69.351c6.849-9.686,23.567-27.887,33.093-35.2,21.5-16.5,35.26-23.526,60.388-33.667C91.945-.476,89.948.174,88.27.859Z" transform="translate(32.465 17.495)" fill="#d55917"/>
        <path id="Path_3334-2" data-name="Path 3334" d="M13,40.54c2.851-2.208,3.569-6.164,3.881-9.757A98.283,98.283,0,0,0,14.679,0c-3.744,4.177-6.462,9.158-9,14.161C3.426,18.591,1.262,23.153.434,28.053s-.753,11.332,2.8,14.233C6.817,44.324,10.32,42.614,13,40.54Z" transform="translate(85.516 28.981)" fill="#d55917"/>
        <path id="Path_3335-2" data-name="Path 3335" d="M3.242,1.312A8.866,8.866,0,0,1,6.323.165,17.436,17.436,0,0,1,13.876.9c9.6,2.646,18.935,8.147,25.142,16-1.678,1.225-3.881,1.406-5.959,1.435a89.5,89.5,0,0,1-17.283-1.713C10.884,15.733-2.59,12.347.439,4.516A6.609,6.609,0,0,1,3.242,1.312Z" transform="translate(19.09 37.567)" fill="#d55917"/>
        <path id="Path_3336-2" data-name="Path 3336" d="M7.093,13.751a61.534,61.534,0,0,0,15.171-1.107c2.374-.474,4.716-1.088,7.057-1.7l8.353-2.188A32.357,32.357,0,0,0,8.326.836C5.781,1.445,3.2,2.451,1.512,4.454s-2.145,5.218-.431,7.2C2.511,13.3,4.912,13.64,7.093,13.751Z" transform="translate(9.614 58.627)" fill="#d55917"/>
        <path id="Path_3337-2" data-name="Path 3337" d="M5.733,34.7a3.928,3.928,0,0,0,1.537-.314c3.354-1.3,5.361-4.947,5.659-8.533s-.822-7.135-2.142-10.483A83.6,83.6,0,0,0,2.794,0C1.558,1.1,1.216,2.867.985,4.5A101.538,101.538,0,0,0,.141,23.963c.177,3.367.65,7.012,3.018,9.412A3.97,3.97,0,0,0,5.733,34.7Z" transform="translate(48.309 64.448)" fill="#d55917"/>
        <path id="Path_3338-2" data-name="Path 3338" d="M12.905,0A55.722,55.722,0,0,0,2.942,16.812c-1.829,4.765-5.922,20.774.674,23.807,1.642.755,3.6-.1,4.949-1.3,4.142-3.678,4.746-9.831,4.93-15.365.142-4.275.205-8.554.085-12.828C13.488,7.884,14.087,2.972,12.905,0Z" transform="translate(63.203 42.197)" fill="#d55917"/>
        <path id="Path_3339-2" data-name="Path 3339" d="M1.22,4.217A9.209,9.209,0,0,1,4.3,1.08,8.533,8.533,0,0,1,11.938.727,19.407,19.407,0,0,1,18.3,5.381,55.608,55.608,0,0,1,30.626,24.555C22.959,24.491,11.083,23.3,4.86,18.47.441,15.04-1.43,8.748,1.22,4.217Z" transform="translate(44.103 17.446)" fill="#d55917"/>
        <path id="Path_3340-2" data-name="Path 3340" d="M14.346,3.146c4.1,3.438,7.193,7.919,9.921,12.524a119.472,119.472,0,0,1,7.141,14.115c-6.147.7-12.131-1.979-17.658-4.758A33.725,33.725,0,0,1,5,19.361,17.791,17.791,0,0,1,1.4,14.3,12.4,12.4,0,0,1,.361,5.763,7.776,7.776,0,0,1,6.4.065C9.3-.346,12.1,1.264,14.346,3.146Z" transform="translate(65.868 0)" fill="#d55917"/>
      </g>
      <g id="Group_1980-2" data-name="Group 1980" transform="translate(67.839 55.668)">
        <path id="Path_3341-2" data-name="Path 3341" d="M2.074,43.711c3.657,3.945,9.144,1.178,12.543-2.961,4.409-5.368,5.771-13.613,7.1-18.8,1.806-7.029,2-14.921,3.809-21.95C20.6,9.941,11.993,16.13,5.247,24.938A25.431,25.431,0,0,0,.415,33.929C-.423,37.252-.052,41.026,2.074,43.711Z" transform="translate(41.972 156.733)" fill="#d55917"/>
        <path id="Path_3342-2" data-name="Path 3342" d="M40.336,19.452a6.009,6.009,0,0,0,.455-4.409c-.785-3.181-3.387-5.659-6.322-7.114A36.037,36.037,0,0,0,25.043,5.28C16.5,3.664,8.416,2.169,0,0A159.6,159.6,0,0,0,15.084,13.715c4.967,3.826,10.522,7.157,16.694,8.271C34.9,22.552,38.747,22.2,40.336,19.452Z" transform="translate(66.917 156.584)" fill="#d55917"/>
        <path id="Path_3343-2" data-name="Path 3343" d="M10.746,58.543c1.239,2.783,2.6,5.626,4.878,7.643S21.363,69.2,24.066,67.8c4.11-2.137,4.139-7.951,3.3-12.508A115.568,115.568,0,0,0,0,0C.584,10.284,1.286,21.254,2.377,31.074,3.438,40.625,6.835,49.765,10.746,58.543Z" transform="translate(66.917 156.14)" fill="#d55917"/>
        <path id="Path_3344-2" data-name="Path 3344" d="M10.55,6.3a483.106,483.106,0,0,0-9.39,59.245A204.659,204.659,0,0,0,.018,88.325c.425,25.723,11.262,57.78,19.8,74.852C13.413,147.8,5.606,113.22,4.8,96.412,2.974,58.486,5.882,37.03,14.279,0,11.946,1,11.1,3.818,10.55,6.3Z" transform="translate(50.18 0)" fill="#d55917"/>
        <path id="Path_3345-2" data-name="Path 3345" d="M45.323,34.326c-.265-5.046-4.245-9.034-8.131-12.263A137.765,137.765,0,0,0,0,0C1.817,7.648,5.381,14.756,9.109,21.676c3.3,6.131,6.825,12.266,11.8,17.134s12.443,9.918,18.618,8.15C44.744,44.458,45.572,39.061,45.323,34.326Z" transform="translate(56.555 38.43)" fill="#cdc2dd"/>
        <path id="Path_3346-2" data-name="Path 3346" d="M.02,28.73a12.477,12.477,0,0,1,1.14-4.462c1.5-3.244,4.14-5.817,6.885-8.106C18.755,7.229,32.55.871,46.548,0c.071,2.911-1.482,5.593-3.108,8.006A125.352,125.352,0,0,1,27.661,26.534c-4.934,4.92-19.6,17.726-26.19,7.982A9.257,9.257,0,0,1,.02,28.73Z" transform="translate(5.728 107.242)" fill="#d55917"/>
        <path id="Path_3347-2" data-name="Path 3347" d="M15.561,39.2A86.2,86.2,0,0,0,26.405,20.847c1.351-3.111,2.516-6.3,3.681-9.484Q32.165,5.683,34.242,0A45.34,45.34,0,0,0,1.678,27.458C.348,30.873-.56,34.652.4,38.191s4.3,6.637,7.94,6.246C11.381,44.111,13.689,41.617,15.561,39.2Z" transform="translate(24.257 130.015)" fill="#d55917"/>
        <path id="Path_3348-2" data-name="Path 3348" d="M42.289,24.334a5.487,5.487,0,0,0,.868-2.019c1.179-4.9-1.414-10.124-5.305-13.332S28.982,4.229,24.075,3.075A117.175,117.175,0,0,0,0,0C.276,2.3,2.039,4.109,3.741,5.683A142.235,142.235,0,0,0,25.466,22.2c4.017,2.485,8.59,4.852,13.245,4.044A5.544,5.544,0,0,0,42.289,24.334Z" transform="translate(58.166 123.276)" fill="#d55917"/>
        <path id="Path_3349-2" data-name="Path 3349" d="M0,0C2.017,8.609,6.429,17.6,11.4,24.9,15.42,30.813,30.58,48.314,39.339,43.143c2.18-1.288,2.756-4.224,2.455-6.739-.925-7.7-7.526-13.314-13.75-17.949-4.806-3.577-9.682-7.068-14.7-10.345C9.542,5.627,4.368,1.015,0,0Z" transform="translate(52.526 76.717)" fill="#d55917"/>
        <path id="Path_3350-2" data-name="Path 3350" d="M1.162,19.868A12.939,12.939,0,0,1,.013,13.812c.158-3.7,2.6-7.031,5.694-9.07a27.155,27.155,0,0,1,10.438-3.6A77.975,77.975,0,0,1,48.067,2.263c-6.2,8.775-17.055,21.5-27.589,24.8C13,29.41,4.261,26.537,1.162,19.868Z" transform="translate(3.134 75.886)" fill="#d55917"/>
        <path id="Path_3351-2" data-name="Path 3351" d="M10.851,1.729C18.086-.248,25.713-.227,33.193.313A167.027,167.027,0,0,1,55.147,3.369c-4.1,7.637-11.97,12.382-19.583,16.525-4.293,2.338-8.707,4.631-13.509,5.542a24.947,24.947,0,0,1-8.708.1A17.384,17.384,0,0,1,2.691,19.917C.077,16.757-.891,12.082.953,8.418S6.893,2.81,10.851,1.729Z" transform="translate(0 39.067)" fill="#d55917"/>
      </g>
      <g id="Group_1981-2" data-name="Group 1981" transform="translate(32.276 61.715)">
        <path id="Path_3352-2" data-name="Path 3352" d="M14.1,72.733C12.339,79.782,4.637,83.727,1.537,90.3c-3.651,7.741-.1,16.8,3.428,24.594q8.041,17.76,16.085,35.521c1.736,3.836,3.553,7.782,6.658,10.625s7.869,4.314,11.619,2.4c7.288-3.72,4.608-14.565,6.421-22.544,3.143-13.829,21.586-20.476,23.573-34.517,1.534-10.836-7.712-20.942-6.518-31.821C63.994,63.71,74.868,56.6,78.935,46.469c4.2-10.475.541-22.28-3.13-32.952-1.642-4.775-3.656-9.993-8.145-12.3-4.8-2.469-10.585-.695-15.668,1.111-11.313,4.022-22.916,8.21-31.972,16.093S4.915,38.837,8.11,50.408C10.2,57.965,16,65.128,14.1,72.733Z" transform="translate(0 33.993)" fill="#f87c39"/>
        <path id="Path_3353-2" data-name="Path 3353" d="M0,23.208,19.122,0" transform="translate(11.74 123.034)" fill="none" stroke="#d55917" stroke-linecap="round" stroke-linejoin="round" stroke-width="0.731"/>
        <path id="Path_3354-2" data-name="Path 3354" d="M8.295,47A318.209,318.209,0,0,1,0,0" transform="translate(40.612 100.643)" fill="none" stroke="#d55917" stroke-linecap="round" stroke-linejoin="round" stroke-width="0.731"/>
        <path id="Path_3355-2" data-name="Path 3355" d="M0,28.433,13.021,17.838c7.375-6,14.751-12,22.257-17.838" transform="translate(21.068 47.369)" fill="none" stroke="#d55917" stroke-linecap="round" stroke-linejoin="round" stroke-width="0.731"/>
        <path id="Path_3356-2" data-name="Path 3356" d="M4.391,33.761A196.271,196.271,0,0,1,0,0" transform="translate(59.324 49.768)" fill="none" stroke="#d55917" stroke-linecap="round" stroke-linejoin="round" stroke-width="0.731"/>
        <path id="Path_3357-2" data-name="Path 3357" d="M5.559,33.89A226.038,226.038,0,0,1,0,0" transform="translate(46.184 77.698)" fill="none" stroke="#d55917" stroke-linecap="round" stroke-linejoin="round" stroke-width="0.731"/>
        <path id="Path_3358-2" data-name="Path 3358" d="M0,13.51A210.416,210.416,0,0,1,24.047,0" transform="translate(20.681 77.439)" fill="none" stroke="#d55917" stroke-linecap="round" stroke-linejoin="round" stroke-width="0.731"/>
        <path id="Path_3359-2" data-name="Path 3359" d="M0,23.706A115.172,115.172,0,0,1,7.121,0" transform="translate(24.056 142.479)" fill="none" stroke="#d55917" stroke-linecap="round" stroke-linejoin="round" stroke-width="0.731"/>
        <path id="Path_3360-2" data-name="Path 3360" d="M7.387,27.287A258.711,258.711,0,0,0,0,0" transform="translate(31.976 139.189)" fill="none" stroke="#d55917" stroke-linecap="round" stroke-linejoin="round" stroke-width="0.731"/>
        <path id="Path_3361-2" data-name="Path 3361" d="M10.984,82.85a203.689,203.689,0,0,0-8.052,100.4c-.764-4.413-.322-9.431-.3-13.9q.033-7.1.447-14.181A271.274,271.274,0,0,1,6.208,126.97,276.578,276.578,0,0,1,21.079,72.279,273.24,273.24,0,0,1,46.81,21.8q3.324-5.117,6.879-10.079c1.823-2.545,6.292-6.48,5.8-9.8C59.109-.7,56.748-.181,54.921.8,52.91,1.884,51.635,3.926,50.45,5.88,35.471,30.585,20.38,55.528,10.984,82.85Z" transform="translate(29.328 0)" fill="#d55917"/>
      </g>
    </g>
    <g id="Layer_1" data-name="Layer 1" transform="translate(489.114 200.906)">
      <g id="Group_1967" data-name="Group 1967" transform="translate(21.257 167.543)">
        <path id="Path_3232" data-name="Path 3232" d="M270.078,1408.739c2.615,2.213.476,8.6-.28,11.445a30.508,30.508,0,0,1-4.083,9.6,12.292,12.292,0,0,1-2.608,3.119,10.635,10.635,0,0,1-3.086,1.741,8.934,8.934,0,0,1-4.022.821,6.934,6.934,0,0,1-4.541-1.989c-.741-.728-1.813-1.493-1.591-2.669a4,4,0,0,1,.591-1.364c.674-1.1,1.343-2.207,2.055-3.285,1.4-2.1,2.842-4.161,4.376-6.161C258.737,1417.862,267.38,1406.88,270.078,1408.739Z" transform="translate(-249.838 -1408.528)" fill="#96793b"/>
      </g>
      <path id="Path_3233" data-name="Path 3233" d="M399.914,1154.672a25.991,25.991,0,0,0-.128-5.362c-.229-3.006-.457-6.01-.831-9-.161-1.735-.116-3.382-.229-5.142a7.735,7.735,0,0,1-.055-1.574.826.826,0,0,0,.09-.631.057.057,0,0,0,0-.012c.475-.276.949-.7,1.253-.9a10.993,10.993,0,0,0,1.525-1.356c.609-1.4,1.238-2.807,1.781-4.241a12.476,12.476,0,0,0,.941-3.361c.046-.6.039-1.2.073-1.791a24.506,24.506,0,0,0-.15-5.311,41.355,41.355,0,0,1-.257-4.469c-.143-1.7-.459-3.372-.615-5.067-.114-1.342-.127-2.672-.171-4.023-.087-2.165-.273-4.341-.294-6.514-.16-2.889-.507-5.766-.69-8.653-.008-2.828.088-5.692.055-8.524-.02-2.045.159-4.086.188-6.131a.862.862,0,0,0,.66-.316,26.819,26.819,0,0,1,5.315.052,9.386,9.386,0,0,0,1.587.023,12.91,12.91,0,0,0,1.952,0c4.778-.61,4.272-6.281,3.773-9.856-.246-1.537-.377-3.085-.684-4.611a38.447,38.447,0,0,0-.835-5.011c-.205-1.731-.281-3.577-.516-5.321-.461-4.648-.91-9.3-1.31-13.947a60.456,60.456,0,0,0-1.427-11.4c-.463-1.989-.749-4.019-1.379-5.965-.4-1.148-.952-2.149-1.368-3.316-.56-1.089-1.034-2.217-1.556-3.322a20.814,20.814,0,0,0-3.1-3.84,8.058,8.058,0,0,0-1.483-1.366c-.491-.272-1.331-1.319-1.961-1.161a30.471,30.471,0,0,0-3.562-1.99c-1.5-.76-2.993-1.552-4.523-2.256a58.689,58.689,0,0,0-6.926-3.17c-2.269-.961-4.5-2.016-6.753-3.009-1.712-.895-3.519-1.591-5.194-2.552a5.413,5.413,0,0,1-2.707-2.285c-.786-1.357-1.323-2.967-2.253-4.268a6.537,6.537,0,0,0-6.619-2.421,29.961,29.961,0,0,1-5.3-.1c-1.474-.193-2.881-.34-4.417-.449-.91-.029-1.856-.156-2.791-.177a.543.543,0,0,0,.015-.33c-.351-.984-1.563-.047-2.208.2-1.38.594-1.867,2.071-2.713,3.193a13.589,13.589,0,0,1-2.553,2.906c-1.679,1.368-3.828,1.634-5.83,2.357a30.486,30.486,0,0,0-3.671,1.575c-1.22.559-2.551,1-3.77,1.579-3.266,1.4-6.454,2.987-9.767,4.279a52.993,52.993,0,0,0-12.839,7.036c-1.957,1.443-3.347,3.47-4.993,5.227-1.23,1.306-2.358,2.7-3.528,4.059q-3.084,3.625-6.149,7.268a.584.584,0,0,0,.744.878,30.891,30.891,0,0,0-2.456,5.285c-1.183,3.8-.946,7.837-1.075,11.771a23.007,23.007,0,0,0,.2,2.8,35.785,35.785,0,0,0,1.581,4.264c1.309,3.363,3.686,6.234,4.711,9.715.694,2.89,1.278,5.817,1.774,8.748a47.553,47.553,0,0,1,.5,9.664,28.7,28.7,0,0,1-.8,3.862c-.073.651-.736,1.784.213,2.05.955.068,1.384-1.7,1.835-2.373.782-1.411,1.491-2.916,2.31-4.315.675-1.291,1.389-2.564,2.1-3.841.042.59.079,1.179.119,1.768a94.561,94.561,0,0,1,.354,11.223c.053,4.446.276,8.9-.032,13.38.037,3.476-.11,7.047-.285,10.541-.133,2.423-.022,4.855-.211,7.277a48.241,48.241,0,0,0-.315,6.8,29.227,29.227,0,0,0,2.619,10.682,22.343,22.343,0,0,0,1.818,3.493,5.71,5.71,0,0,1,1.429,3.335c.024,1.284-.261,2.545-.295,3.828q-.111,2.722-.371,5.434c-.081,1.624-.285,3.233-.444,4.849-.031,1.276-.121,2.552-.185,3.827h93.056Z" transform="translate(-260.087 -889.138)" fill="#d9b978"/>
      <g id="Group_1968" data-name="Group 1968" transform="translate(0 20.14)">
        <path id="Path_3234" data-name="Path 3234" d="M178.2,741.77a12.577,12.577,0,0,1-.476,5.336c-.878,2.653-3.176,4.412-4.9,6.5a35.866,35.866,0,0,0-4.284,5.925c-.241.444-.484.881-.716,1.317-.367,2.79-.469,5.607-.572,8.422-.119,3.877-.3,7.752-.337,11.631-.171,5.266-.874,10.489-1.275,15.739-.392,6.077-.811,12.155-1.633,18.189-.242,2.054-.383,4.119-.535,6.183a29.868,29.868,0,0,1,2.171,4.526,37.51,37.51,0,0,1,2.674,8.985c.561,2.819,1.423,5.778.514,8.613-.727,1.935-2.239,3.451-3.426,5.111-1.735,2.143-3.355,4.376-5.1,6.508-.936,1.219-1.937,2.38-2.876,3.6a17.359,17.359,0,0,1-3.038,3.2c-2.312,1.635-5.068,3.228-8,2.895a14.66,14.66,0,0,1-10.476-4.627,18.884,18.884,0,0,1-4.455-11.047,25.414,25.414,0,0,1,.237-7.244q.756-6.847,2.023-13.616c.382-3,1.3-5.9,1.8-8.879.664-3.486,1.126-7.007,1.835-10.484.562-3.909,1.272-7.793,2.066-11.662.538-2.578.786-5.313,1.055-7.88.531-4.017,1.478-7.984,1.691-12.041a87.765,87.765,0,0,0,.982-9.6c-.035-1.694-.071-3.4-.184-5.084a.592.592,0,0,1,.166-.8l.037-.016c-.006-.016-.011-.033-.018-.049a15.035,15.035,0,0,0-1.311-2.291c-1.3-2.258-2.828-4.28-3.679-6.745-1.239-3.427-1.637-7.377.04-10.729a10.386,10.386,0,0,1,1.49-2.085,8.785,8.785,0,0,1,1.492-.949,5.531,5.531,0,0,1,1.581-.73c.031-.274.129-.569.175-.8a13.049,13.049,0,0,1,.888-2.693,8.717,8.717,0,0,1,4.464-4.482,8.472,8.472,0,0,1,1.639-.7.571.571,0,0,1,.09-.405c2.215-3.811,6.754-4.134,10.524-2.652a13.192,13.192,0,0,1,2.415,1.5c.015-1.737-.047-3.478.042-5.215-.019-2.43.319-4.839.465-7.261a30.432,30.432,0,0,1,.626-3.621c.433-2.61,1.409-5.675,4.276-6.413,2.322-.45,2.993.685,3.756,2.651a14.778,14.778,0,0,1,.1,3.349c.115,3.024-.238,6.031-.282,9.052-.131,1.824.026,3.547-.039,5.353-.1,2.625-.156,5.3-.159,7.9,0-.025,0-.05,0-.076,0,.418,0,.825,0,1.226.77.2,1.595.551,1.953.623a5.946,5.946,0,0,1,3.243,3.121A10.438,10.438,0,0,1,178.2,741.77Z" transform="translate(-131.29 -683.789)" fill="#ffc28f"/>
        <path id="Path_3235" data-name="Path 3235" d="M919.023,1571.419c-.117-3.316-.459-6.638-.5-9.961a56.174,56.174,0,0,1,.128-8.192c.078-3.4.109-6.81.166-10.214a47.158,47.158,0,0,0-.227-7.519c-.12-2.809-.252-5.731-.507-8.55-.2-1.943-.22-4.035-.25-6.009-.217-3.171-.29-6.354-.487-9.527-.288-3.838-.579-7.618-.963-11.473a42.6,42.6,0,0,0-.854-6.907c-.179-.948-.19-2.1-1.065-2.7a3.4,3.4,0,0,0-1.779-.181,49.032,49.032,0,0,0-4.935.095c-1.283.054-3.333-.038-3.623,1.62-.391,1.743.066,3.537.21,5.288.232,2.282,2.664,37.764,2.6,39.466-.047,2.912-.15,5.943-1.328,8.647a38.263,38.263,0,0,1-2.056,4.134c-1.415,2.052-2.472,2.719-2.332,5.458.128,2.4-.108,4.809.069,7.209.106,1.684.425,3.34.591,5.017.131,2.221.4,4.387.547,6.6h16.711A18.344,18.344,0,0,0,919.023,1571.419Z" transform="translate(-763.152 -1328.12)" fill="#ffc28f"/>
        <path id="Path_3236" data-name="Path 3236" d="M538.926,614.728a6.012,6.012,0,0,0-7.555-1.489c-.134-1.545-.615-2.994-.756-4.559a42.472,42.472,0,0,0-1.258-9.059,16.333,16.333,0,0,0-1.3-3.865c-3.363-4.954-11.715-6.176-17.285-6.558-2.314-.219-4.621-.562-6.95-.581a78.535,78.535,0,0,1-10.064-.516c-2.112-.409-4.146-1.185-6.291-1.438a18.84,18.84,0,0,0-6.735.235,14.119,14.119,0,0,0-9.346,8.913,44.579,44.579,0,0,0-2.008,8.17c-.221,2.159.089,4.338-.017,6.5a10.622,10.622,0,0,1-1.054,4.092,5.752,5.752,0,0,0-.991-.108,2.41,2.41,0,0,0-1.057.353,3.574,3.574,0,0,0-1.379.676,4.116,4.116,0,0,0-1.839,3.194c0,.009,0,.018-.006.027a9.808,9.808,0,0,0,1.4,7.146,22.812,22.812,0,0,0,2.262,2.541c1.206,1.328,2.859,1.381,4.528,1.373,2.149-.063,4.149,5.794,4.873,7.561a23.445,23.445,0,0,0,1.555,3.1,28.326,28.326,0,0,0,1.84,3.193,21.1,21.1,0,0,0,9.418,8.06c.9.384,1.418.364,1.72,1.091-.137,1.3-.249,2.6-.367,3.9.019.54-.347,1.324.2,1.689a2.8,2.8,0,0,0,.555,1.34,8.355,8.355,0,0,0,1.552,1.953,19.21,19.21,0,0,0,4.573,3.343,29.749,29.749,0,0,1,3.338,5.875,5.447,5.447,0,0,0,.736,1.38,1.645,1.645,0,0,0,1.357.657c.866-.081,1.351-1.01,1.678-1.816l2.8-6.889c.211-.3.414-.593.613-.864a13.26,13.26,0,0,0,1.817-3.287,34.085,34.085,0,0,0,.345-6.779,42.612,42.612,0,0,0,5.742-2.677,38.881,38.881,0,0,0,4.79-4.134,36.945,36.945,0,0,0,5.483-8.309c2.1-3.761,2.833-8.054,4.724-11.918,1.173-.339,2.423-.377,3.572-.8a8.107,8.107,0,0,0,5.361-7.14C539.5,617.15,539.749,615.721,538.926,614.728Z" transform="translate(-403.393 -586.476)" fill="#ffc28f"/>
      </g>
      <g id="Group_1969" data-name="Group 1969" transform="translate(60.329 0)">
        <path id="Path_3237" data-name="Path 3237" d="M543.567,492.667a11.274,11.274,0,0,1-1.294,6.821,12.653,12.653,0,0,1-3,4.34,11.148,11.148,0,0,1-1.259.943c.173.341.308.65.4.848a7.792,7.792,0,0,1,.333,4.395c0,.6-.576,1.218-.233,1.772a7.4,7.4,0,0,1,1.268,2.916,7.269,7.269,0,0,1-.86,4.426c-.571,1.1-1.5,1.98-2.081,3.072a13.543,13.543,0,0,0-.6,2.481c-.141,1.092-.35,2.635-1.834,2.342-.574-.118-.817-.7-.961-1.208-.562-1.654.183-3.626-.832-5.14-.988-1.863-1.932-3.646-2.761-5.565a26.09,26.09,0,0,1-1.39-5.145,19.154,19.154,0,0,1-.642-4.793c-.249.229-.507.447-.769.66a11.168,11.168,0,0,1-2.727,1.66,18.429,18.429,0,0,1-3.065,1.258,19.212,19.212,0,0,1-4.256.811,13.573,13.573,0,0,1-2.966.177,32.692,32.692,0,0,1-12.565-3.233c-2.711-1.366-5.266-3.019-8.023-4.3a25.349,25.349,0,0,0-3.87-1.755,8.809,8.809,0,0,0-3.273-.793,2.76,2.76,0,0,0-1.573.267,6.907,6.907,0,0,0-.625.635c-.023.047-.044.094-.065.142a19.581,19.581,0,0,0-.34,2.284,26.914,26.914,0,0,1-.5,3.455,28.1,28.1,0,0,1-4.005,8.833,16.149,16.149,0,0,0-2.213,6.761c-.187,1.99-.088,3.991-.109,5.986-.027.939.061,1.88.032,2.817a.988.988,0,0,1-1.338.937c-.429-.165-.6-.639-.745-1.037-.7-1.745-.282-3.79-1.277-5.432a9.627,9.627,0,0,0-1.447-1.56,6.052,6.052,0,0,1-2.017-1.97,11.924,11.924,0,0,1-1.273-12.008,18.78,18.78,0,0,1-.886-5.079,18.154,18.154,0,0,1,.989-7.963,12.561,12.561,0,0,1,4-5.236,20.075,20.075,0,0,1,2.216-3.049,15.382,15.382,0,0,1,3.5-2.522c2.674-1.485,5.678-2.152,8.552-3.125a45.992,45.992,0,0,0,5.131-2.658,51.91,51.91,0,0,1,7.8-4.058,27.594,27.594,0,0,1,10.574-1.912,17.109,17.109,0,0,1,7.927,3,19.957,19.957,0,0,1,3.25,3.206c.287.3.585.594.9.867.4.156.813.3,1.229.416a17.6,17.6,0,0,0,2.93.2c1.564.034,3.124-.143,4.689-.126a10.151,10.151,0,0,1,3.2.248C540.732,483.891,542.991,486.362,543.567,492.667Z" transform="translate(-467.738 -474.154)" fill="#5e4343"/>
      </g>
      <g id="Group_1970" data-name="Group 1970" transform="translate(63.734 8.937)">
        <path id="Path_3238" data-name="Path 3238" d="M569.961,532.531c-1.162-.609.842-2.274,1.385-2.74a5.548,5.548,0,0,1,1.94-1.021,24.554,24.554,0,0,1,5-1.327c1.534.054,3.07-.013,4.6.106,2.521.277,5.026.708,7.555.92,1.529,0,3.061.046,4.588-.057A15.088,15.088,0,0,0,602,526.152c.922-.669,1.874-1.3,2.748-2.036a.585.585,0,1,1,.72.923c-.46.384-.942.753-1.436,1.094a15.177,15.177,0,0,1-6.465,3.066,30.375,30.375,0,0,1-7.313.428c-2.742-.226-5.454-.749-8.2-.967-1.31-.016-2.62-.035-3.929-.044a29.971,29.971,0,0,0-5.387,1.62,6.413,6.413,0,0,0-1.912,1.771C570.684,532.36,570.369,532.7,569.961,532.531Z" transform="translate(-554.744 -523.993)" fill="#402626"/>
        <path id="Path_3239" data-name="Path 3239" d="M749.941,579.681c-3.2-1.408-4.934-4.565-6.986-7.2A14.591,14.591,0,0,0,733.8,567.9a18.156,18.156,0,0,0-4.519-.273.585.585,0,0,1-.023-1.17,15.856,15.856,0,0,1,3.944.179,22.486,22.486,0,0,1,3.879.721,16.977,16.977,0,0,1,6.889,4.518c.8,1.032,1.494,2.1,2.293,3.1a12.647,12.647,0,0,0,2.713,2.805c.5.319,1.017.6,1.539.879A.585.585,0,0,1,749.941,579.681Z" transform="translate(-685.311 -558.796)" fill="#402626"/>
        <path id="Path_3240" data-name="Path 3240" d="M663.164,578.006a24.819,24.819,0,0,1-13.149-4.474,39.717,39.717,0,0,1-4.286-2.97c-2.9-1.47-6.013-2.821-9.317-2.791a.6.6,0,0,1-.427-.709c.19-.642,1-.434,1.5-.428a23.273,23.273,0,0,1,8.963,3.008c1.615,1.366,3.472,2.391,5.207,3.59a25.628,25.628,0,0,0,6.592,2.86,22.474,22.474,0,0,0,5.043.753A.585.585,0,0,1,663.164,578.006Z" transform="translate(-609.208 -558.957)" fill="#402626"/>
        <path id="Path_3241" data-name="Path 3241" d="M487.017,634.527a.59.59,0,0,1,.128-1.072,14.8,14.8,0,0,0,1.878-.441,16.624,16.624,0,0,0,7-6.145.608.608,0,0,1,1.1.5,19,19,0,0,1-5.377,5.468,9.381,9.381,0,0,1-3.211,1.522C488.013,634.428,487.5,634.717,487.017,634.527Z" transform="translate(-486.728 -608.175)" fill="#402626"/>
        <path id="Path_3242" data-name="Path 3242" d="M823.467,668.854a13.736,13.736,0,0,1-4.17-2.01,8.471,8.471,0,0,1-1.122-1.407c-.289-.439-.525-.914-.8-1.364a.594.594,0,0,1,.265-.969c.578-.15.832.507,1.052.911a6.621,6.621,0,0,0,1.768,2.256,20.114,20.114,0,0,0,3.072,1.387C824.444,667.747,824.386,668.977,823.467,668.854Z" transform="translate(-757.96 -638.142)" fill="#402626"/>
      </g>
      <path id="Path_3243" data-name="Path 3243" d="M477.849,774.278a2.565,2.565,0,0,1-.78-3.145,2.817,2.817,0,0,0,.45-1.305,1.841,1.841,0,0,0-2.011-1.631c-.212.217-.393.522-.758.439-.615-.141-.584-.847-.15-1.189a1.549,1.549,0,0,1,1.424-.436,3.07,3.07,0,0,1,2.441,1.872,2.457,2.457,0,0,1,.086,1.824c-.177.559-.6,1.04-.582,1.655.021.7,1.243,1.133.7,1.854A.589.589,0,0,1,477.849,774.278Z" transform="translate(-412.778 -714.479)" fill="#e08057"/>
      <path id="Path_3244" data-name="Path 3244" d="M850.716,754.574a.589.589,0,0,1,.151-.813c1.8-1.222-.528-3.334,1.25-5.011.7-.742,1.241-1.248,2.318-.932.483.05,1.078.385,1,.946a.6.6,0,0,1-1.058.239c-.19-.044-.384-.074-.578-.1l-.088-.007c-1.919,1.252-.8,2.135-.974,3.878C852.8,753.546,851.489,755.5,850.716,754.574Z" transform="translate(-721.632 -698.668)" fill="#e08057"/>
      <path id="Path_3245" data-name="Path 3245" d="M638.826,832.551c.85.19,1.82.772,1.812,1.749-.295,2.482-2.644,3.994-4.677,5.066a10.9,10.9,0,0,1-3.019.866,8.622,8.622,0,0,1-2.943.191,11.07,11.07,0,0,1-5.8-2.408,3.572,3.572,0,0,1-1.828-2.578,2.625,2.625,0,0,1,1.773-2.644c1.889-.453,3.776.356,5.661.465a14.44,14.44,0,0,0,3.323-.077c.405-.065.856-.065,1.216-.144.265-.01.612-.092.938-.11A7.537,7.537,0,0,1,638.826,832.551Z" transform="translate(-534.316 -768.207)" fill="#fff"/>
      <g id="Group_1971" data-name="Group 1971" transform="translate(86.993 85.879)">
        <path id="Path_3246" data-name="Path 3246" d="M635.549,954.222a29.549,29.549,0,0,1-2.969.557,33.828,33.828,0,0,1-7.749-.186c-1.782-.28-3.581-.6-5.341-1.005a10.63,10.63,0,0,0-1.59-.347c-.471-.068-1.037-.306-1.458.03l0,0a1.323,1.323,0,0,1,.239.389c-.04.374-.074.748-.11,1.121.029.035.057.068.087.1,3.851,3.631,10.885,6.3,16.163,6.432a4.147,4.147,0,0,0,2.7-.319c0-.016.012-.033.016-.049a33.443,33.443,0,0,0,.346-6.686A.5.5,0,0,0,635.549,954.222Z" transform="translate(-616.44 -953.095)" fill="#e08057"/>
      </g>
      <g id="Group_1972" data-name="Group 1972" transform="translate(53.529 245.235)">
        <path id="Path_3247" data-name="Path 3247" d="M448.886,1850.886a.944.944,0,0,1-.2.574,1.709,1.709,0,0,1-1.717,1.325,9.439,9.439,0,0,1-2.365.245c-2.543-.126-5.091.011-7.637-.1-1.99-.31-3.987-.626-5.98-.9-1.515-.364-1.188-2.255-1.009-3.416.094-.928-.27-2.509,1.193-2.29,1.67.178,3.344.543,4.978.852a25.488,25.488,0,0,0,4.688.884,32.741,32.741,0,0,0,6.454.747c.339.019.6-.2.93-.219a.594.594,0,0,1,.6.573C448.837,1849.739,448.881,1850.311,448.886,1850.886Z" transform="translate(-429.817 -1845.5)" fill="#402626"/>
        <path id="Path_3248" data-name="Path 3248" d="M569.873,1852.365c0,1.263.185,3.049-1.4,3.4-1.709.375-3.482.153-5.21.378-2.149.039-4.257.428-6.4.42-1.238-.008-3-.525-2.921-2.044a22.963,22.963,0,0,1-.143-2.463c-.062-1.16,3.317-.589,4.123-.739,1.542,0,3.056-.285,4.59-.386a36.953,36.953,0,0,0,5.551-.428C569.566,1850.191,569.762,1851.1,569.873,1852.365Z" transform="translate(-531.556 -1848.893)" fill="#402626"/>
        <path id="Path_3249" data-name="Path 3249" d="M757.917,1845.84c1.145.121,5.06-.513,4.652,1.4-.2,1.17.332,3.469-1,4.014a16.357,16.357,0,0,1-2.74.208c-1.826.065-3.655.185-5.483.156-.727.025-1.423-.448-1.126-1.242a15.041,15.041,0,0,0,.5-2.077c.1-.5.186-.994.3-1.485a.591.591,0,0,1,.554-.734A33.723,33.723,0,0,1,757.917,1845.84Z" transform="translate(-694.353 -1845.109)" fill="#402626"/>
        <path id="Path_3250" data-name="Path 3250" d="M836.916,1842.17c.428.667.164,1.543.144,2.285-.025,1.074.05,2.871-1.43,2.874-1.312.1-2.59.4-3.9.555-1.148.131-2.308.083-3.456.211a6.92,6.92,0,0,1-2.682-.007c-.732-.3-.668-1.276-.505-1.909.065-.75.141-1.5.193-2.248-.006-.428.088-1.055.632-1.055,1.77-.1,3.526-.486,5.3-.642.665-.079,1.372-.128,2.035-.167C834.24,1842.069,836.2,1841.419,836.916,1842.17Z" transform="translate(-754.129 -1841.808)" fill="#402626"/>
      </g>
      <path id="Path_3251" data-name="Path 3251" d="M565.222,703.827c1.439.091,2.876-.167,4.316-.211,1.3-.251,2.984.008,3.925-1.1,1.061-1.89-2.755-2.064-3.879-1.978-1.377.2-2.8.181-4.184.442a2.369,2.369,0,0,0-1.666.718C562.874,702.773,564.132,703.822,565.222,703.827Zm-.507-1.478a.577.577,0,0,0-.017.124l-.052-.04A.242.242,0,0,1,564.715,702.349Z" transform="translate(-485.958 -659.927)" fill="#402626"/>
      <path id="Path_3252" data-name="Path 3252" d="M720.551,703.172a21.521,21.521,0,0,0,4.4.2,11.12,11.12,0,0,0,3.3-.4c1.343-.573,1.557-1.661.075-2.226a7.987,7.987,0,0,0-3.729-.3,6.834,6.834,0,0,0-2.018-.1,7.491,7.491,0,0,0-2.751.423C718.589,701.478,719.477,702.88,720.551,703.172Z" transform="translate(-613.802 -659.761)" fill="#402626"/>
      <path id="Path_3253" data-name="Path 3253" d="M674.612,756.476c-.31.316-.989.662-.611,1.219.566.686,1.266-.234,1.678-.65a3.9,3.9,0,0,0,1.49-2.889,7.162,7.162,0,0,0-1.149-3.3,6.983,6.983,0,0,1-.561-6.14.585.585,0,0,0-1.112-.367,8.17,8.17,0,0,0,.615,7C676.128,753.546,676.681,754.614,674.612,756.476Z" transform="translate(-576.548 -695.579)" fill="#e08057"/>
      <path id="Path_3254" data-name="Path 3254" d="M300.078,1353.094a.845.845,0,0,0-.487.823c-.025.424-.107.845-.165,1.267-.389,2.773-.485,5.6-.785,8.386-.145,1.563-1.238,2.973-.919,4.578.039.452.284.949.794.97,1.5-.032,1.232-1.784,1.145-2.828a9.563,9.563,0,0,1,.147-1.714c.078-.372.353-.826.033-1.152.239-2.431.354-4.868.639-7.295.092-.726.217-1.45.282-2.179a.609.609,0,0,0-.06-.675A.587.587,0,0,0,300.078,1353.094Z" transform="translate(-267.832 -1195.469)" fill="#e08057"/>
      <path id="Path_3255" data-name="Path 3255" d="M593.158,750.817c.242-1.1-.927-2.059-1.932-2.186-.8-.369-1.617.264-2.169.8a2.035,2.035,0,0,0,.944,3.313A2.527,2.527,0,0,0,593.158,750.817Z" transform="translate(-506.536 -699.324)" fill="#402626"/>
      <path id="Path_3256" data-name="Path 3256" d="M733.12,745.376c-.828-.588-1.926,0-2.616.561a2.051,2.051,0,0,0,1.614,3.283c1.963.112,3.379-2.834,1.194-3.668A.588.588,0,0,0,733.12,745.376Z" transform="translate(-622.707 -696.543)" fill="#402626"/>
      <path id="Path_3257" data-name="Path 3257" d="M225.236,837.082a7.261,7.261,0,0,0-1.317.017c-.165-.009-.329-.013-.494-.016a.571.571,0,0,0-.446-.134,3.776,3.776,0,0,1-2.17-2.159q-.145-.292-.308-.571c-.049-.091-.1-.18-.148-.267a.547.547,0,0,0-.112-.161,18.068,18.068,0,0,0-2.942-3.31.585.585,0,0,0-.8.856,15.058,15.058,0,0,1,3.069,3.612c.078.158.16.317.246.476a6.875,6.875,0,0,1,.545,1.669,9.111,9.111,0,0,1-1.583-.184,4.942,4.942,0,0,0-3.271.281,3.792,3.792,0,0,0-1.292,1.567,20.293,20.293,0,0,0-6.661-6.062,13.953,13.953,0,0,0-1.822-.922,8.446,8.446,0,0,0-1.056-.007c-.529,0-1.431-.041-1.342.721a.6.6,0,0,0,.743.471c.47-.02.94-.019,1.41-.034a22.274,22.274,0,0,1,3.872,2.418c1.587,1.314,3.325,2.69,4.181,4.642,1.313,2.539,3.055,5.878,1.02,8.5a2.517,2.517,0,0,1-3.687.593.523.523,0,0,0-.106-.062,5.75,5.75,0,0,0-.348-1.425c-1.026-2.367-4.655-4.962-7.011-5.949a13.69,13.69,0,0,0-3.618-1.346c-.5.011-1.005.039-1.51.01-.472.062-1.109-.192-1.448.235a.6.6,0,0,0,.411.937c.833-.009,1.667.019,2.5-.012a18.974,18.974,0,0,1,7.05,3.666c1.064.942,2.315,1.889,2.686,3.331a9.934,9.934,0,0,1-.071,3.894,2.082,2.082,0,0,1-2.525,1.779,3.185,3.185,0,0,1-2.167-1.8,4.419,4.419,0,0,0-.632-1.747c-.992-.964-2.41-1.362-3.454-2.272-.37-.288-.866-.815-1.314-.35a.591.591,0,0,0,.031.827c.213.172.427.343.643.51a.589.589,0,0,0,.3.461c.79.691,1.479,1.493,2.2,2.257a5.422,5.422,0,0,0,.914,1.537,25.215,25.215,0,0,0,3.564,2.588,5.052,5.052,0,0,1,1.716,3.664c.043.484-.162,1.236.522,1.324.926.011.637-1.2.6-1.8a5.54,5.54,0,0,0-1.186-3.095,4.506,4.506,0,0,0-.869-.949,3.151,3.151,0,0,0,2.869-3.153,16.841,16.841,0,0,0,.189-1.707,7.015,7.015,0,0,0,.835.319c2.543.531,4.437-1.6,4.925-3.918a.585.585,0,0,0,.236-.227c.208-.409.677-.434,1.084-.5a1.858,1.858,0,0,1,1.034.471,5.128,5.128,0,0,0-.149.658,9.854,9.854,0,0,0-1.355,1.763,18.464,18.464,0,0,0-1.538,3.3,4.072,4.072,0,0,0-.4,1.375c-.057.527-.106,1.053-.155,1.581a.585.585,0,1,0,1.167.071c.054-.586.1-1.173.178-1.758.833-2.449,1.947-5.159,4.26-6.578.221-.223.619-.375.839-.607a6.2,6.2,0,0,1,1.984.971.585.585,0,0,0,.641-.979,12.592,12.592,0,0,0-1.3-.764c-1.463-.691-3.134-.7-4.635-1.282a5.285,5.285,0,0,1-2.533-2.38c-.768-1.169-1.148-2.722.085-3.668,0,.06.007.119.009.177a3.114,3.114,0,0,0,.535,1.508,5.012,5.012,0,0,0,3.9,2.245.585.585,0,0,0,.059-1.168c-1.607-.079-3.42-1.359-3.34-3.1h0a8.919,8.919,0,0,1,1.74.189,13.386,13.386,0,0,0,3.207.107,22.6,22.6,0,0,0,2.768-.017.594.594,0,0,0,.737-.21A.628.628,0,0,0,225.236,837.082Z" transform="translate(-184.987 -766.456)" fill="#e08057"/>
      <path id="Path_3258" data-name="Path 3258" d="M934.122,1524.548a15.644,15.644,0,0,1-4.128-2.15.6.6,0,0,0-.99.146c-.27.662.575.93.975,1.262a16.443,16.443,0,0,0,3.8,1.861A.585.585,0,0,0,934.122,1524.548Z" transform="translate(-785.922 -1334.272)" fill="#e08057"/>
      <path id="Path_3259" data-name="Path 3259" d="M669.081,1847.066a1.3,1.3,0,0,1,.734.109c.378.226.421.747.42,1.188q0,1.58,0,3.16a2.054,2.054,0,0,1-.2,1.089c-.356.579-1.152.655-1.831.668l-11.348.221a1.73,1.73,0,0,1-1.507-.471,1.7,1.7,0,0,1-.232-.8q-.188-1.585-.375-3.169c-.17-1.436.812-1.336,1.9-1.385,1.367-.06,2.732-.135,4.1-.2Z" transform="translate(-560.862 -1600.883)" fill="#fce6ba"/>
      <g id="Group_1973" data-name="Group 1973" transform="translate(42.76 97.654)">
        <path id="Path_3260" data-name="Path 3260" d="M376.986,1325.612a39.074,39.074,0,0,1,1.905-4.271c.786-1.593,1.568-3.184,2.32-4.794a18.275,18.275,0,0,0,1.676-4.532c.185-.653.191-1.757-.708-1.8-.5,0-.785.45-.961.853a20.074,20.074,0,0,0-.947,3.026,15.274,15.274,0,0,1-1.077,3.546c-2.428,5.238-5.184,10.3-7.332,15.673-.5,1.145-.994,2.293-1.517,3.428-.136.441-.654.89-.39,1.362a5.049,5.049,0,0,0-.1,2.429c.074.516-.141,1.328.459,1.634,1.959.6,1.9-2.92,2.274-4.139.339-1.447,1.266-2.806,1.673-4.25.323-1.2.574-2.412.979-3.587A32.2,32.2,0,0,1,376.986,1325.612Z" transform="translate(-369.755 -1257.951)" fill="#96793b"/>
        <path id="Path_3261" data-name="Path 3261" d="M431.179,1193.342c-.047.509-.4,1.364.326,1.54.825.125.728-.868.835-1.411.063-.427.13-.87.192-1.307.136-1,.331-2.032.414-3.052.028-1.19-.013-2.383-.067-3.572a22.175,22.175,0,0,0-2.47-9.376.585.585,0,0,0-.973.65,21.316,21.316,0,0,1,2.265,8.516c.062,1.146.071,2.292.089,3.438-.053,1.069-.259,2.068-.4,3.149C431.318,1192.389,431.246,1192.867,431.179,1193.342Z" transform="translate(-418.651 -1147.727)" fill="#96793b"/>
        <path id="Path_3262" data-name="Path 3262" d="M406.239,1045.267a7.123,7.123,0,0,0,3.216,1.124c2.136.078,4.075-.9,5.974-1.766,2.049-1.085,4.109-2.143,6.167-3.211,1.461-.571,2.766-1.3,4.228-1.9,1.761-.681,3.587-1.592,4.471-3.355.522-1.075,1.365-2.271.982-3.512-.153-.539-.788-1.219-1.3-.66a.593.593,0,0,0,.07.823.67.67,0,0,1,.156.333,1.61,1.61,0,0,1-.146.81,8.61,8.61,0,0,1-1.53,2.672c-1.1,1.132-2.688,1.576-4.1,2.213-.609.271-1.2.591-1.8.869-3.328,1.352-6.339,3.362-9.657,4.735-3.464,1.461-4.476.729-7.543-.9a.59.59,0,0,0-.776.287C404.311,1044.673,405.729,1044.874,406.239,1045.267Z" transform="translate(-398.351 -1029.443)" fill="#96793b"/>
        <path id="Path_3263" data-name="Path 3263" d="M793.194,1055.586a.584.584,0,0,0-1.148-.147c-.914,1.443-2.162,2.532-3.891,1.584-1.929-.972-3.841-1.988-5.852-2.789-2.513-1.277-4.983-2.636-7.554-3.8-2.242-1.064-4.6-2-6.478-3.693a4.428,4.428,0,0,1-1.281-1.812c-.021-.505.014-1.012.025-1.518a.585.585,0,0,0-.94-.7,1.672,1.672,0,0,0-.242,1.118,9.78,9.78,0,0,0,0,1.226,5.176,5.176,0,0,0,1.063,1.968c2.621,2.711,6.293,3.836,9.585,5.517,2.634,1.338,5.222,2.767,7.957,3.893,1.565.7,3.011,1.826,4.734,2.09a3.218,3.218,0,0,0,2.5-.843,8.294,8.294,0,0,0,1.115-1.252A1.516,1.516,0,0,0,793.194,1055.586Z" transform="translate(-694.791 -1038.234)" fill="#96793b"/>
        <path id="Path_3264" data-name="Path 3264" d="M918.216,1214.856a2.594,2.594,0,0,0,.16-1.572,25.1,25.1,0,0,1-.169-5.024c.248-1.4.844-2.846.513-4.278a.968.968,0,0,0-.993-.753c-.693.025-1.057.714-1.209,1.31-.537,2.224.088,4.5.311,6.727.06.874.081,1.785.159,2.665a116.5,116.5,0,0,1,.1,12.95c-.235,2.446-.336,5.059-.506,7.537a70.1,70.1,0,0,0-.562,7.411c-.088,1.661-.179,3.414-.272,5.1-.094,1.816.148,3.627.049,5.445-.023.816-.032,1.632-.069,2.447-.007.374-.239.806.143,1.081,1.149.572,1.026-1.145,1.051-1.839.03-1.3.089-2.6.051-3.9a51.379,51.379,0,0,1,.117-6.556c.116-1.641.145-3.294.221-5,.155-1.83.453-3.645.537-5.482.068-2.793.443-5.613.5-8.42C918.484,1221.421,918.328,1218.137,918.216,1214.856Z" transform="translate(-817.765 -1170.151)" fill="#96793b"/>
        <path id="Path_3265" data-name="Path 3265" d="M486.652,1691.4a18.434,18.434,0,0,1-6.455,1.127c-1.411,0-2.809.147-4.233.076a41.566,41.566,0,0,0-5.948-.11,54.24,54.24,0,0,1-7.955.073c-1.827-.025-3.645.064-5.473.133-1.451.075-2.888.143-4.32.211.352-.512.257-1.495.37-2.036.1-.982.2-1.965.3-2.948a61.942,61.942,0,0,0,.026-10.821c-.16-1.129-.293-2.259-.363-3.4-.16-1.472-.513-2.917-.611-4.394a23.241,23.241,0,0,1,2.479-1.184,17.377,17.377,0,0,0,2.624-1.516,19.07,19.07,0,0,0,2.567-1.891,41.133,41.133,0,0,0,4.475-3.045,2.4,2.4,0,0,0,.731-1.12c.158-.923-.934-1.177-1.566-.734a4.225,4.225,0,0,0-1.5,1.623c-.516.627-1.344.988-1.8,1.664a21.762,21.762,0,0,0-2.6,1.921c-.885.569-1.791,1.125-2.674,1.7a35.046,35.046,0,0,0-3.473,1.656,41.329,41.329,0,0,1-3.943,1.751c-1.5.5-2.965,1.112-4.449,1.664-.695.244-1.387.495-2.088.721a.585.585,0,0,0,.354,1.115c1.228-.4,2.443-.84,3.643-1.315,1.464-.6,3.021-1.071,4.473-1.723a15.109,15.109,0,0,0,1.619-.707c.141,1.408.481,2.8.6,4.209.056,1.159.247,2.305.376,3.456a74.914,74.914,0,0,1,.067,9.086c-.209,1.844-.354,3.7-.59,5.539a.714.714,0,0,0-.08.774c-4.989.233-9.914.455-15.017.822-4.325-.084-8.62.607-12.917.974-2.847.057-5.7-.5-8.555-.648-1.6-.1-3.3-.295-4.917-.4a38.4,38.4,0,0,0-4.608-.429c-1-.023-2-.065-3-.076a9.328,9.328,0,0,1-4.049-.343.728.728,0,0,1-.38-.246.589.589,0,0,0-.827-.02c-.974,1.435,2.589,1.87,3.712,1.842a60.971,60.971,0,0,1,6.389.105c4.362.563,8.786.774,13.176,1.239a22.053,22.053,0,0,0,6.013-.156c1.671-.2,3.352-.315,5.026-.486a42.046,42.046,0,0,1,4.842-.187c2.381-.165,4.771-.228,7.145-.469,6.109-.231,12.212-.644,18.344-.753a63.812,63.812,0,0,0,9.316-.128c2.1-.066,4.188.187,6.283.184,1.845-.064,3.69-.075,5.525-.29a11.946,11.946,0,0,0,3.845-.817c.451-.1,1.014-.394.827-.939A.588.588,0,0,0,486.652,1691.4Z" transform="translate(-391.947 -1544.701)" fill="#96793b"/>
        <path id="Path_3266" data-name="Path 3266" d="M697.313,1895.484a73.526,73.526,0,0,1,.063-7.539.585.585,0,0,0-1.134-.285,71.346,71.346,0,0,0-.095,8.226c0,1.236-.045,2.469-.081,3.7h1.184C697.276,1898.222,697.312,1896.853,697.313,1895.484Z" transform="translate(-637.555 -1731.502)" fill="#96793b"/>
        <path id="Path_3267" data-name="Path 3267" d="M679.344,1743.571c-.1-.61-.984-.727-1.471-.535-1.44.427-1.678,2.738-.074,3.1A1.655,1.655,0,0,0,679.344,1743.571Z" transform="translate(-621.654 -1613.097)" fill="#96793b"/>
        <path id="Path_3268" data-name="Path 3268" d="M671.071,1489.317c-.1-.611-.984-.727-1.471-.536-1.44.427-1.678,2.738-.074,3.1A1.655,1.655,0,0,0,671.071,1489.317Z" transform="translate(-614.864 -1404.433)" fill="#96793b"/>
        <path id="Path_3269" data-name="Path 3269" d="M671.071,1273.466c-.1-.611-.984-.727-1.471-.536-1.44.427-1.678,2.738-.074,3.1A1.655,1.655,0,0,0,671.071,1273.466Z" transform="translate(-614.864 -1227.287)" fill="#96793b"/>
        <path id="Path_3270" data-name="Path 3270" d="M549.675,1317.41c2.7,1.189,5.315-2.922,2.238-4.213C549.422,1311.915,546.715,1316.3,549.675,1317.41Z" transform="translate(-516.351 -1260.211)" fill="#96793b"/>
        <path id="Path_3271" data-name="Path 3271" d="M489.085,1281.852a69.651,69.651,0,0,0,.66,8.563,13.352,13.352,0,0,0,.862,3.693c2.4,3.268,6.745,3.994,10.553,4.111,1.085.009,2.162-.114,3.248-.082a26.635,26.635,0,0,0,5.7-1.1c2.326-.693,5.175-1.583,5.74-4.284a13.652,13.652,0,0,0,.26-4.356c-.087-2.506-.247-5.012-.119-7.519,0-.317-.049-.623-.08-.935.016-.4-.042-.882-.529-.939a.587.587,0,0,0-.645.516,19.621,19.621,0,0,1,.023,3.067c.018,1.834.1,3.666.17,5.5.125,2.862.4,6.009-2.919,7.058a28.16,28.16,0,0,1-7.21,1.8c-1.354.023-2.7.121-4.057.1-2.692-.156-5.517-.526-7.741-2.176a3.874,3.874,0,0,1-1.89-3.253,88.4,88.4,0,0,1-.966-13.022l.142.082a12.262,12.262,0,0,0,2.914,1.176c1.52.625,3.109,1.259,4.647,1.864a10.929,10.929,0,0,0,4.326,1.078c3.274-.027,5.842-2.3,8.619-3.731,3.286-1.836,5.362-1.615,5.34-6.086-.047-5.059.225-5.3-4.961-5.772-.379-.03-.757.01-1.136.007-.419-.092-1-.066-1.059.472a.589.589,0,0,0,.517.647,28.951,28.951,0,0,1,3.446.266c1.213.124,1.962.1,1.956,1.551,0,1.828.4,3.838-.478,5.525a5.329,5.329,0,0,1-2.026,1.267c-.826.422-1.646.854-2.479,1.265-1.536.795-2.93,1.9-4.541,2.574a6.927,6.927,0,0,1-6.179.209c-1.953-.758-3.888-1.57-5.843-2.314a9.726,9.726,0,0,1-3.209-1.487.723.723,0,0,0-.309-.339c-.428-1.409-.024-2.982-.02-4.444.025-1.441.525-3.286,2.21-3.451.131-.025.313-.076.464-.1,2.4-.489,4.874-.511,7.3-.843l2.438-.292a.585.585,0,1,0-.178-1.157l-2.384.287c-1.6.246-3.223.3-4.838.443-.935.2-1.885.249-2.817.471a4.156,4.156,0,0,0-1.881.751c-1.791,1.592-1.411,4.213-1.646,6.37a8.059,8.059,0,0,0,.231,2.416,1.773,1.773,0,0,0,.214.35c-.011.392.066.829.042,1.142Q489.028,1280.318,489.085,1281.852Z" transform="translate(-467.197 -1222.118)" fill="#96793b"/>
        <path id="Path_3272" data-name="Path 3272" d="M742.964,1272.971c-.022,4.471,2.054,4.251,5.34,6.086,2.777,1.433,5.344,3.7,8.619,3.731a10.928,10.928,0,0,0,4.326-1.078c1.538-.605,3.126-1.239,4.647-1.864a12.264,12.264,0,0,0,2.914-1.176l.142-.082a88.406,88.406,0,0,1-.966,13.022,3.874,3.874,0,0,1-1.89,3.253c-2.224,1.65-5.049,2.021-7.74,2.176-1.354.021-2.7-.077-4.057-.1a28.16,28.16,0,0,1-7.209-1.8c-3.323-1.049-3.043-4.2-2.919-7.058.073-1.833.153-3.665.17-5.5a19.651,19.651,0,0,1,.023-3.067.587.587,0,0,0-.645-.516c-.487.057-.546.542-.529.939a9.268,9.268,0,0,0-.08.935c.128,2.508-.032,5.013-.119,7.519a13.656,13.656,0,0,0,.26,4.356c.566,2.7,3.413,3.591,5.74,4.284a26.634,26.634,0,0,0,5.7,1.1c1.086-.032,2.163.091,3.247.082,3.808-.117,8.157-.843,10.553-4.111a13.352,13.352,0,0,0,.862-3.693,69.6,69.6,0,0,0,.66-8.563q.055-1.533.109-3.069c-.024-.313.054-.75.042-1.142a1.771,1.771,0,0,0,.214-.35,8.057,8.057,0,0,0,.231-2.416c-.235-2.157.145-4.778-1.646-6.37a4.155,4.155,0,0,0-1.881-.751c-.932-.222-1.882-.271-2.817-.471-1.615-.145-3.234-.2-4.837-.443l-2.384-.287a.585.585,0,1,0-.178,1.157l2.438.292c2.429.332,4.9.353,7.3.843.151.026.333.077.464.1,1.685.165,2.185,2.01,2.211,3.451,0,1.461.409,3.034-.02,4.444a.725.725,0,0,0-.309.339,9.724,9.724,0,0,1-3.209,1.487c-1.955.744-3.89,1.556-5.843,2.314a6.927,6.927,0,0,1-6.179-.209c-1.61-.672-3-1.78-4.54-2.574-.833-.41-1.652-.843-2.479-1.265a5.329,5.329,0,0,1-2.026-1.267c-.88-1.686-.479-3.7-.478-5.525-.006-1.451.743-1.427,1.956-1.551a28.952,28.952,0,0,1,3.446-.266.589.589,0,0,0,.518-.647c-.059-.537-.641-.563-1.06-.472-.379,0-.757-.036-1.136-.007C742.738,1267.667,743.011,1267.913,742.964,1272.971Z" transform="translate(-676.025 -1222.118)" fill="#96793b"/>
        <path id="Path_3273" data-name="Path 3273" d="M813.557,1317.41c2.96-1.114.254-5.495-2.238-4.213C808.242,1314.488,810.854,1318.6,813.557,1317.41Z" transform="translate(-731.002 -1260.211)" fill="#96793b"/>
        <path id="Path_3274" data-name="Path 3274" d="M515.94,1225.914c1.046.058,2.094.045,3.139.089a8.122,8.122,0,0,0,3.645-.261c1.463-.644,1.607-2.7.855-3.932-.674-.722-1.81-.511-2.7-.524a41.545,41.545,0,0,1-4.308.135c-1.146-.085-2.373-.233-3.534-.266-1.417-.006-2.836.062-4.252-.014a33.156,33.156,0,0,0-4.688-.152c-.346.01-.681-.13-1.011.015a4.125,4.125,0,0,0-.968.113c-1.354.5-1.572,2.379-1.212,3.6a2.6,2.6,0,0,0,2.316,1.482c2.421-.084,4.766.058,7.138-.06C512.224,1226.194,514.076,1225.749,515.94,1225.914Z" transform="translate(-477.259 -1184.685)" fill="#96793b"/>
        <path id="Path_3275" data-name="Path 3275" d="M687.684,1177.712c-.062-1.178-.134-2.355-.2-3.532-.185-3.582-.267-7.159-.3-10.763-.4-6.794-.464-13.6-.516-20.412,0-1.832-.1-3.657-.179-5.485-.037-2.974,0-5.988-.006-8.968-.089-4.456,0-8.911-.025-13.368a151.215,151.215,0,0,1,.131-15.818c.075-2.1-.176-4.181-.278-6.271-.045-2.51.075-5.024,0-7.533a110.6,110.6,0,0,0-.641-11.087,40.621,40.621,0,0,0-.627-5.46c-.1-.418-.211-.835-.318-1.253a.77.77,0,0,0-.29-.125.875.875,0,0,0-.845.41c.014.055.028.11.042.166a37.739,37.739,0,0,1,.953,7.629c.745,5.755.535,11.562.563,17.349a53.273,53.273,0,0,1,.186,7.939c-.183,4.459-.315,8.928-.057,13.385.047,5.176-.039,10.351.046,15.527-.024,3.491-.073,6.983.14,10.469.113,6.125.059,12.266.352,18.39.237,5.3.253,10.613.536,15.915.045,1.3.221,2.6.162,3.892a.585.585,0,0,0,1.084.439A3.945,3.945,0,0,0,687.684,1177.712Z" transform="translate(-627.315 -1058.865)" fill="#96793b"/>
        <path id="Path_3276" data-name="Path 3276" d="M691.011,1069.6h.019" transform="translate(-633.406 -1060.488)" fill="none"/>
        <path id="Path_3277" data-name="Path 3277" d="M707.913,1028.7a.588.588,0,0,0-.6.565,2.916,2.916,0,0,1-.088.5c-.414,1.424-.99,2.8-1.515,4.183a5.862,5.862,0,0,1-1.4,2.4c-.949.841-1.784-.23-2.375-.942a12.356,12.356,0,0,1-1.215-2.8,4.878,4.878,0,0,0-.881-1.314.536.536,0,0,0-.449.193.764.764,0,0,0-.124.433,2.2,2.2,0,0,0,.059.6,17.018,17.018,0,0,1,1.029,2.416,5.481,5.481,0,0,0,2.462,2.775c2.45.746,3.553-2.122,4.222-3.959.315-.8.639-1.591.9-2.409C708.127,1030.682,709.07,1028.858,707.913,1028.7Z" transform="translate(-640.173 -1026.919)" fill="#96793b"/>
        <path id="Path_3278" data-name="Path 3278" d="M595.982,1023.718a.679.679,0,0,0-.4-.345c-.977,1.194-1.875,2.426-2.778,3.708-1.08,1.193-1.647,3.049-3.366,3.475-1.2.5-1.948-.49-2.335-1.5a33.744,33.744,0,0,0-1.629-3.17c-.871-1.379-1.69-2.791-2.634-4.122-.4-.674-1.215-1.395-1.3-2.171a.585.585,0,0,0-1.061-.491c-.4.786.2,1.56.6,2.215a55.573,55.573,0,0,1,4.279,6.774c.664,1.269,1.057,2.9,2.45,3.579,1.66.631,3.529-.475,4.485-1.828.724-1.151,1.567-2.213,2.354-3.322.43-.593.942-1.264,1.422-1.867A1.289,1.289,0,0,0,595.982,1023.718Z" transform="translate(-542.582 -1018.764)" fill="#96793b"/>
      </g>
      <g id="Group_1974" data-name="Group 1974" transform="translate(193.945 88.468)">
        <path id="Path_3279" data-name="Path 3279" d="M1394.341,1509.055l.01.018Z" transform="translate(-1361.807 -1411.954)" fill="#d9b978"/>
        <path id="Path_3280" data-name="Path 3280" d="M1336.178,1025.567c-.025-2.914-.115-5.826-.094-8.741.032-1.481-.246-2.854-.3-4.343a49.28,49.28,0,0,0-1.2-6.968,37.544,37.544,0,0,0-2.056-6.546,16.79,16.79,0,0,0-2.48-4.433,15.223,15.223,0,0,0-3.335-3.543,13.568,13.568,0,0,0-2.941-1.752,1.349,1.349,0,0,0-.465-.242,1.453,1.453,0,0,0-.421-.156h0c-1.387-.532-2.8-.949-4.147-1.592-1-.539-2.07-1.149-3.119-1.638-1.177-.647-2.308-1.377-3.5-2.009a28.914,28.914,0,0,0-3.119-1.481c-1.224-.55-2.366-1.257-3.553-1.876-1.031-.51-2.07-1.01-3.075-1.574-3.054-1.586-6.206-3-8.733-5.439-.906-.823-1.849-1.6-2.791-2.386a15.334,15.334,0,0,0-2.287-1.891,15.135,15.135,0,0,0-6.571-1.4,25.539,25.539,0,0,0-8.885,1.351c-.157.049-.314.1-.47.154a.567.567,0,0,0-.719-.324,20.578,20.578,0,0,0-2.148,1.313c-2.139,1.506-3.558,3.749-5.271,5.682a19.767,19.767,0,0,1-3.289,2.806c-1.315.825-2.76,1.433-4.125,2.172-2.266,1.4-4.54,2.773-6.867,4.063-2.346,1.5-4.6,2.925-7.006,4.365-1.972,1.178-3.8,2.577-5.755,3.783a23.642,23.642,0,0,0-3.366,2.246,22.844,22.844,0,0,0-2.609,3.646c-.965,1.335-1.833,2.736-2.707,4.133-1.405,2.391-3.033,4.643-4.475,7.014-1.456,2.265-2.659,4.679-4.242,6.877-1.394,2-2.929,3.971-4.344,5.981-.247.332-.527.728-.813,1.121a.569.569,0,0,0,.169.783.685.685,0,0,0,.212.074q-.9,1.4-1.795,2.8a.572.572,0,0,0,.168.783.562.562,0,0,0,.416.076,9.026,9.026,0,0,0-1.174,4c.12,1.276,1.018,2.3,1.692,3.336.665.954,1.334,1.9,2.02,2.845a33.453,33.453,0,0,0,4.789,5.195c1.694,1.4,3.7,2.344,5.412,3.721.979.662,1.886,1.412,2.8,2.162a1.318,1.318,0,0,0,1.438.168,16.842,16.842,0,0,1,1.831,1.267c.915.9,1.894.03,2.594-.672a20.231,20.231,0,0,0,1.842-1.814c1.108-1.118,2.247-2.2,3.372-3.3a49.222,49.222,0,0,1,1.443,5.239c.318,1.984.923,3.937,1.282,5.915a46.862,46.862,0,0,0,1.061,5.213c.116.693.156,1.4.322,2.083.161.57.357,1.127.55,1.686l-.021.014a.514.514,0,0,1-.078.041c.172.564.337,1.13.49,1.7a49.777,49.777,0,0,1,1.869,8.312,64.49,64.49,0,0,1,1.083,8.688c.142,6.189-.358,12.366-.806,18.532-.18,2.385-.544,4.747-.96,7.1-.469,2.934-.671,5.914-1.426,8.795-.605,2.808-1.123,5.635-1.647,8.464-.339,1.614-.437,3.265-.819,4.872-.224,1.025-.292,2.07-.424,3.109a1.551,1.551,0,0,0,.947,2.006c.222.123.442.25.665.376a27.452,27.452,0,0,0-.008,4.112c.074.6.153,1.189.243,1.782a.576.576,0,0,0,.151.754,1.71,1.71,0,0,0,1.235.395c.42.023.884.064,1.314.092,1.974.2,3.95.453,5.936.49.693.018,1.385,0,2.076-.03l.232.037,6.433-.18c1.545-.019,3.09-.071,4.634-.129l67.113-1.874-.675-17.373h0c.014-1.177-.006-2.353-.075-3.528-.336-5.118-1.271-10.17-2-15.241-.551-3.592-1.282-7.154-1.8-10.753-.539-4.076-1.172-8.137-1.87-12.188q.775-4.206,1.551-8.409c.69-4,1.592-7.971,2-12.012.476-6.414.809-12.857,1.513-19.252a1.016,1.016,0,0,0,.757-.094,5.131,5.131,0,0,0,1.759-.214,2.411,2.411,0,0,0,.881-.374l0,0a.49.49,0,0,0,.155-.154l0,0a.721.721,0,0,0,.152-.519c.029-.248.025-.513.052-.719q.134-2.151.167-4.31C1336.171,1033.724,1336.238,1029.646,1336.178,1025.567Z" transform="translate(-1212.904 -967.533)" fill="#d9b978"/>
      </g>
      <path id="Path_3281" data-name="Path 3281" d="M1465.148,612.421c1.034,3.316,1.636,7.087.245,10.386-.676,1.379-1.526,2.67-2.259,4.021-.7,1.3-1.261,2.677-2.035,3.94a19.661,19.661,0,0,1-6.958,7.059,45.633,45.633,0,0,1-4.283,2.485,23.065,23.065,0,0,0-4.309,2.073,7.178,7.178,0,0,0-2.015,2.786,27.185,27.185,0,0,0,.134,5.084c-.094,3.549-.061,7.1-.081,10.653a71.345,71.345,0,0,1-.065,9.188c-.09,1.571-.127,3.15-.342,4.712-.124,1.6-.143,3.217-.372,4.81-.33,2.254-.351,4.552-.724,6.8a35.339,35.339,0,0,0-.768,4c-.155.749.111,2.31-.979,2.289-.6-.124-.644-.873-.923-1.312a15.78,15.78,0,0,1-1.217-2.773,45.627,45.627,0,0,0-2.4-4.343c-1.069-2-1.92-4.1-2.886-6.144a51.951,51.951,0,0,1-4.046-7.809c-.508-1.279-1.239-2.452-1.795-3.705-.963-2.3-1.83-4.633-2.682-6.975a14.8,14.8,0,0,1-1.019-4.944,18.862,18.862,0,0,0-.535-7.379,21.024,21.024,0,0,0-2.5-1.283c-1.9-.605-3.85-1.041-5.7-1.778a22.954,22.954,0,0,1-6.472-4.147,21.963,21.963,0,0,1-3.069-3.271,29.912,29.912,0,0,1-2.681-4.8,23.045,23.045,0,0,1-2.381-10.87,49.15,49.15,0,0,1,1.311-13.518,37.114,37.114,0,0,1,2.713-8.617c1.611-3.356,2.745-6.921,4.391-10.257a46.02,46.02,0,0,1,5.388-7.344c1.656-1.937,3.366-3.91,6.175-3.578a24.971,24.971,0,0,1,4.334.488,22.7,22.7,0,0,1,6.115,2.72,30.191,30.191,0,0,1,5.514,3.942c1.12.955,2.333,1.8,3.368,2.854a18.69,18.69,0,0,1,2.651,3.778c1.022,1.767,2.006,3.559,2.991,5.347a35.082,35.082,0,0,1,5.48,1.392,33.632,33.632,0,0,1,6.877,3.291,22.908,22.908,0,0,1,6.161,6.547A23.872,23.872,0,0,1,1465.148,612.421Z" transform="translate(-1172.484 -559.236)" fill="#ffc28f"/>
      <path id="Path_3282" data-name="Path 3282" d="M1130.5,889.712a.567.567,0,0,1-.615.952l-.192-.169c-1.1,1.25-2.265,2.45-3.339,3.728-1.285,1.353-2.463,2.8-3.745,4.155a66.211,66.211,0,0,1-7.673,8.9,20.4,20.4,0,0,1-5.374,3.309,10.236,10.236,0,0,1-3.431.947,8.868,8.868,0,0,1-3.808.027,17.658,17.658,0,0,1-1.7-.475,1.916,1.916,0,0,1-1.052-.446,31.825,31.825,0,0,1-4.164-2.9.553.553,0,0,1-.218-.478,9.95,9.95,0,0,1-3.2-2.844c-.3-.577-.59-1.14-.861-1.662-.093-.151-.182-.305-.269-.46a17.616,17.616,0,0,1-2.221-7.4c-.323-3.062.261-6.116.509-9.155.053-1.559.165-3.116.313-4.668.324-3.235.256-6.493.612-9.722.23-2.456.567-4.9.822-7.355.261-1.534.6-3.052.8-4.6.719-5.147,1.533-10.281,2.636-15.361.508-2.509,1.235-4.968,1.789-7.467.366-1.621.694-3.247,1.112-4.855a48.932,48.932,0,0,0,1.044-5.355.474.474,0,0,1-.047-.215,30.909,30.909,0,0,0,.1-3.18c-.1-.885-.283-1.759-.448-2.635a19.747,19.747,0,0,0-.851-3.9c-.663-1.65-1.713-3.1-2.388-4.751a22.19,22.19,0,0,1-2.2-5.143c-.554-2.567-.677-11.069,3.183-10.844a3.759,3.759,0,0,1,4.072-3.755,4.463,4.463,0,0,1,4.047-2.653c1.928.121,3.522,1.447,4.947,2.636.148.112.3.227.445.341.009-.126.02-.251.031-.377-.029-2.328.014-4.657-.173-6.979a45.812,45.812,0,0,1-.191-5.246c.121-1.26.187-2.622.343-3.86a5.545,5.545,0,0,1,1-2.74,2.077,2.077,0,0,1,3.044-.058,4.411,4.411,0,0,1,.9,1.7,14.671,14.671,0,0,1,.124,1.72c.257,4.856.631,9.658,1.115,14.461.11,1.168.175,2.387.261,3.58.4.375.8.765,1.19,1.149,1.119,1.112,2.444,2.2,2.855,3.794.667,3.595-.754,7.2-1.841,10.563a42.111,42.111,0,0,0-1.967,11.08c-.362,3.395-.422,6.8-.588,10.2-.179,3.133-.424,6.26-.44,9.4-.293,5.82-.617,11.649-.469,17.477.106,4.016.454,8.022.719,12.029.091,2.015.31,3.966.311,5.973-.01.209,0,.429.006.649,3.343,2.834,6.651,5.707,10.026,8.5,1.41,1.219,2.832,2.422,4.226,3.659a.509.509,0,0,1,.63.016.578.578,0,0,1,.169.7C1130.444,889.659,1130.472,889.685,1130.5,889.712Z" transform="translate(-916.894 -718.883)" fill="#ffc28f"/>
      <path id="Path_3283" data-name="Path 3283" d="M1829.438,1474.573c-.4-3.785-.683-7.572-1.043-11.366-.262-5.036-.7-10.061-1.1-15.088-.228-3.33-.318-6.666-.546-10-.29-7.1-.993-14.174-1-21.285-.006-2.852-.184-5.7-.18-8.556.1-2.986.171-5.973.241-8.96.2-3.289.819-11.189.835-11.314-.037-1.121-2.339-.211-3.017-.064-.647.162-3.821-.069-3.9-.026a22.017,22.017,0,0,0-1.148,2.145c-.655,1.994-1.56,3.9-2.223,5.891a26.4,26.4,0,0,0-1.506,4.932,121.418,121.418,0,0,0-1.531,13.414,70.953,70.953,0,0,0-.537,12.537q.115,1.686.385,3.354c.034.168.054.367.1.55,0,0,0,0,0,0,.1.762.2,1.524.346,2.278.694,4.614,1.7,9.169,2.57,13.752,1.019,5.946,2.173,11.863,3.223,17.8.334,2.331.722,4.657,1.284,6.945.227,1.57.432,3.138.713,4.7.117.969.159,1.956.239,2.927v.007c0,.009,0,.016,0,.025.012.219.344,8.21.36,8.427h8.273C1830.106,1485.855,1829.613,1476.326,1829.438,1474.573Z" transform="translate(-1511.179 -1223.692)" fill="#ffc28f"/>
      <path id="Path_3284" data-name="Path 3284" d="M1550.309,954.516c-.012.425.1.837.094,1.261-.156,1.276-1.823.932-2.741.94a47.509,47.509,0,0,1-6.28-1.439,43.994,43.994,0,0,1-9.082-4.708c-1.093-.633-2.318-1.445-2.545-2.781a4.532,4.532,0,0,1,0-1.06.836.836,0,0,1,1.068-.91c2.709.565,5.36,1.56,8.155,1.592a23.046,23.046,0,0,0,6.19-.706c.609-.18,1.3-.352,1.9-.476.7-.161,2.9-1.067,2.931.162a.55.55,0,0,1-.123.311,1.46,1.46,0,0,1,.076.177,4.677,4.677,0,0,1,.134,1.729C1550.142,950.579,1550.255,952.546,1550.309,954.516Z" transform="translate(-1278.967 -861.194)" fill="#e08057"/>
      <g id="Group_1975" data-name="Group 1975" transform="translate(220.671 8.937)">
        <path id="Path_3285" data-name="Path 3285" d="M1441.989,569.4a13.728,13.728,0,0,1-.281,5.456,14.613,14.613,0,0,1-.968,1.954,10.112,10.112,0,0,0-.589,1.543,6.838,6.838,0,0,1,.149.844,23.992,23.992,0,0,1,.177,3.471c-.234,5.136-2.525,8.191-6.558,11.117a10.979,10.979,0,0,0-2.08,2.179c-.454.644-1.065,1.154-1.555,1.768a8.954,8.954,0,0,1-4.908,2.49,8.125,8.125,0,0,0-2.3.384c-1.572.662-2.808,1.133-4.427,1.663a16.4,16.4,0,0,1-5.039.861c-.978.039-1.363-.667-1.608-1.569a4.51,4.51,0,0,1,.778-3.668c.945-1.363,2.411-1.994,3.555-3.122a32.881,32.881,0,0,0,3.994-5.187c.81-1.261,1.484-2.6,2.27-3.878.744-1.237,1.106-2.7,2.137-3.758.973-.9,2.31-1.3,3.215-2.3l.06-.06c0-.177,0-.354,0-.532-.184-2.341-.118-4.6-.27-6.933a29.9,29.9,0,0,0-.263-3.484c-.694-2.977-3.217-5.167-5.924-6.3a32.206,32.206,0,0,0-6.961-2.628,93.375,93.375,0,0,1-9.48-3.371,79.859,79.859,0,0,1-8.743-5.479,40.137,40.137,0,0,1-5.865-4.776,32.252,32.252,0,0,1-2.4-2.24,10.153,10.153,0,0,1-.69-.853,30.171,30.171,0,0,0-5.4,7.682c-.487,1.249-1.039,2.473-1.5,3.733a36.628,36.628,0,0,1-1.1,3.53q-1.369,5.477-2.39,11.009c-.3,2.5-.656,4.993-1.033,7.485a15.091,15.091,0,0,1-.546,3,35.06,35.06,0,0,0,7.456,12.748,28.057,28.057,0,0,0,5,4.321c1.59,1.094,3.677,1.769,4.437,3.712a11.474,11.474,0,0,1,.276,2.6c.266,1.818-.992,2.1-2.51,1.961a45.731,45.731,0,0,1-7.56-1.079,24.99,24.99,0,0,1-7.248-3.468c-1.987-1.67-4.468-2.792-5.933-5.019-.175-.327-.446-.571-.631-.881-.124-.267-.234-.539-.343-.811a2.772,2.772,0,0,1-.425-.436,21.719,21.719,0,0,1-2.57-2.731,22.27,22.27,0,0,1-1.8-4.284c-.437-1.586-.636-3.225-.927-4.842-.2-1.992-.6-3.971-.69-5.972a19.217,19.217,0,0,1,.276-3.516c.155-1.938.465-3.87.774-5.785.233-1.076.406-2.166.713-3.224a3.569,3.569,0,0,1,.408-1.1c.216-1.047.43-2.091.625-3.138.558-2.62,1.216-5.216,1.776-7.835a44.769,44.769,0,0,1,4.39-10.437,61.41,61.41,0,0,1,3.685-5.419c1.173-1.161,2.337-2.347,3.62-3.386a19.218,19.218,0,0,1,2.9-1.735,8.087,8.087,0,0,1,3.822-.872c.377-.008.757-.04,1.133-.016a1.836,1.836,0,0,1,.311-.143c.561-.232,1.089-.548,1.631-.808a22,22,0,0,1,6.06-2.588,26.211,26.211,0,0,1,5.081-1.031,33.257,33.257,0,0,1,9.444.211,25.124,25.124,0,0,1,5.833,2.3,31.141,31.141,0,0,1,6.818,4.507,36.1,36.1,0,0,1,5.1,4.69c2.943,3.643,5.794,7.507,7.46,11.912,1.427,4.081,3.033,8.1,4.721,12.085A63.2,63.2,0,0,1,1441.989,569.4Z" transform="translate(-1361.953 -523.993)" fill="#5e4343"/>
      </g>
      <path id="Path_3286" data-name="Path 3286" d="M1427.7,844.934a.573.573,0,0,1-.55-.583c.018-.588.069-1.169.126-1.754.122-1.914.315-3.872.481-5.756.114-1.212.232-2.284.36-3.467.029-.393.007-.887.343-1.157a.572.572,0,0,1,.82.788c-.114,1.323-.275,2.64-.4,3.952h0c-.147,1.712-.322,3.392-.43,5.081-.051.843-.157,1.537-.17,2.347a.574.574,0,0,1-.568.55Z" transform="translate(-1194.787 -767.903)" fill="#402626"/>
      <path id="Path_3287" data-name="Path 3287" d="M1399.181,668.364c-1.572-.066,1.561-6.385,1.943-7.223.632-1.456,1.1-2.983,1.586-4.492,1.29-3.634,2.025-7.449,3.573-10.993a25.657,25.657,0,0,1,2.438-5.3,8.069,8.069,0,0,1,1.285-1.77.571.571,0,0,1,.818.657c-2.356,3.114-3.544,6.9-4.866,10.526-.693,2.15-1.131,4.384-1.93,6.5a44.271,44.271,0,0,1-2.517,6.694,25.847,25.847,0,0,0-1.536,4.142c-.126.474-.064,1.262-.7,1.262A.875.875,0,0,1,1399.181,668.364Z" transform="translate(-1171.474 -609.04)" fill="#402626"/>
      <path id="Path_3288" data-name="Path 3288" d="M1398.844,612.071a.571.571,0,0,1-.383-.7c.264-.735.594-1.445.905-2.161.753-1.668,1.539-3.325,2.33-4.977.992-1.986,1.99-3.971,3.08-5.906a32.775,32.775,0,0,1,4.355-5.48,11.7,11.7,0,0,1,3.9-3.059c.893-.214,1.083.957.156,1.163-1.672.812-2.78,2.273-4.065,3.555-.981,1.082-1.871,2.246-2.747,3.413a84.262,84.262,0,0,0-4.411,8.387c-.67,1.429-1.357,2.85-1.967,4.305-.324.5-.342,1.483-.993,1.484A.788.788,0,0,1,1398.844,612.071Z" transform="translate(-1171.22 -569.028)" fill="#402626"/>
      <path id="Path_3289" data-name="Path 3289" d="M1610.687,626.08a19.344,19.344,0,0,0-1.693-1.953,37.673,37.673,0,0,0-4.13-2.817,37.435,37.435,0,0,1-4.139-3.109,40.427,40.427,0,0,1-3.767-3.34c-1.316-1.15-2.752-2.147-4.109-3.242a30.4,30.4,0,0,0-6.607-4.112c-.51-.247-1.017-.5-1.547-.695a7.567,7.567,0,0,1-1.384-.446.574.574,0,0,1-.091-.8c.366-.441.906-.034,1.351.029a27.113,27.113,0,0,1,4.58,2.147,27.987,27.987,0,0,1,5.107,3.554c1.1.813,2.183,1.644,3.234,2.521,1,.916,1.914,1.905,3,2.715,1.283,1.05,2.567,2.1,3.875,3.12.974.621,1.947,1.247,2.921,1.87a13.229,13.229,0,0,1,4.312,3.879.574.574,0,0,1-.475.906A.541.541,0,0,1,1610.687,626.08Z" transform="translate(-1322.774 -581.839)" fill="#402626"/>
      <path id="Path_3290" data-name="Path 3290" d="M1538.044,565.818c-.186-.555.319-.751.745-.9,1.082-.53,2-1.224,3.117-1.673a18.983,18.983,0,0,1,5.093-1.8,16.26,16.26,0,0,1,7.14.3,8.862,8.862,0,0,1,2.793.9,21.433,21.433,0,0,1,2.482,1.687.572.572,0,0,1,.192.778c-.406.607-1.051.031-1.45-.281a8.554,8.554,0,0,0-4.338-2,14.739,14.739,0,0,0-9.967.781,27.435,27.435,0,0,0-3.3,1.611c-.425.218-1.359.934-1.984.934A.523.523,0,0,1,1538.044,565.818Z" transform="translate(-1285.765 -545.576)" fill="#402626"/>
      <path id="Path_3291" data-name="Path 3291" d="M1719.777,848.412c.137-1.093.391-2.169.56-3.258a42.13,42.13,0,0,0,1.1-10.448c-.04-.574-.072-1.148-.143-1.719a.567.567,0,0,1,1.128-.114c.073.658.122,1.32.152,1.982a40.717,40.717,0,0,1-.851,9.166c-.26,1.153-.427,2.32-.657,3.478-.18.517.024,1.477-.74,1.5A.569.569,0,0,1,1719.777,848.412Z" transform="translate(-1434.943 -768.132)" fill="#402626"/>
      <path id="Path_3292" data-name="Path 3292" d="M1549.03,848.717a9.548,9.548,0,0,1-3.389-.959,8.942,8.942,0,0,1-2.611-1.245,5.358,5.358,0,0,1-1.255-.952,2.272,2.272,0,0,1,.944-3.711,5.914,5.914,0,0,1,2.645-.137,10.214,10.214,0,0,0,1.613.072,29.487,29.487,0,0,0,6.567-.418c1.36-.19,3.877-.523,5.021.285,2.077,1.887-.571,4.243-2.236,5.274a11.408,11.408,0,0,1-6.293,1.891A8.051,8.051,0,0,1,1549.03,848.717Z" transform="translate(-1288.362 -775.331)" fill="#fff"/>
      <path id="Path_3293" data-name="Path 3293" d="M1711.013,815.2a.568.568,0,0,1-.548-.584,1.52,1.52,0,0,1,.2-.558c.416-.931.906-1.68,1.287-2.6.475-.962.652-2.054,1.106-3.013a.566.566,0,0,1,.922.651,21.588,21.588,0,0,1-1.942,4.72c-.151.318-.312.628-.458.948A.578.578,0,0,1,1711.013,815.2Z" transform="translate(-1427.301 -748.33)" fill="#e08057"/>
      <path id="Path_3294" data-name="Path 3294" d="M1177.421,899.968c-.571-.458.338-1.751.521-2.318a18.669,18.669,0,0,1,2.5-4.165c.286-.447.838-.743,1.014-1.244-.342-.729-.578-1.209-1.471-.977a7.651,7.651,0,0,1-2.971.179c-2.058-.193-4.83-2.656-2.794-4.578,1.136-.922,2.629-1.2,3.944-1.779a5.556,5.556,0,0,1,2.687-1c1.394.157,2.666,1.086,3.94,1.582.073.038.193.069.269.1a.573.573,0,0,1,.44.655c-.31,1.01-1.492.057-2.09-.158-1.092-.372-2.216-1.441-3.4-.875-.625.282-1.187.689-1.837.914a13.54,13.54,0,0,0-3.2,1.4c-1.072,1.094.863,2.341,1.856,2.536,1.192.367,2.384-.061,3.574-.163,1.144-.143,2.083,1.183,2.191,2.2a1.938,1.938,0,0,1-.72,1.294,10,10,0,0,0-1.216,1.569,17.775,17.775,0,0,0-2.192,4.144,3.251,3.251,0,0,1-.234.592A.574.574,0,0,1,1177.421,899.968Z" transform="translate(-986.626 -810.58)" fill="#e08057"/>
      <path id="Path_3295" data-name="Path 3295" d="M1174.165,927.949a8.3,8.3,0,0,1-1.312-.54.567.567,0,0,1,.442-1.042,6.269,6.269,0,0,0,1.256.508,2.574,2.574,0,0,0,1.14-.284c.951-.475,1.118-1.6,1.254-2.558a7.466,7.466,0,0,0-1.212-4.58.587.587,0,0,1,1.148-.246C1178.8,921.962,1178.806,928.457,1174.165,927.949Z" transform="translate(-985.825 -839.032)" fill="#e08057"/>
      <path id="Path_3296" data-name="Path 3296" d="M1128.021,912.21a2.967,2.967,0,0,1-1.811-2.563,6.021,6.021,0,0,1,.018-1.416,1.136,1.136,0,0,0-.044-.777,3.843,3.843,0,0,0-.976-1.1c-.656-.37-1.227-.867-1.861-1.27a2.707,2.707,0,0,1-1.11-.948c-.433-.7-.076-1.7.874-1.43.452.128.687.572.926.922a26.414,26.414,0,0,0,2.612,2.493,2.552,2.552,0,0,1,.688,2.367c-.134,1.043.16,2.806,1.534,2.667,1.425,0,1.79-1.769,2.117-2.874a8.655,8.655,0,0,0,.3-2.943,3.847,3.847,0,0,0-1.189-1.988,25.546,25.546,0,0,0-1.935-1.806,16.943,16.943,0,0,0-3.493-2.78c-.407.013-.815.01-1.219.052a.571.571,0,0,1-.241-1.067,3.038,3.038,0,0,1,1.043-.105,1.5,1.5,0,0,1,1.016.156,17.769,17.769,0,0,1,3.614,2.868c1.644,1.479,3.787,3.067,3.589,5.531C1132.192,908.717,1131.473,913.011,1128.021,912.21Z" transform="translate(-944.399 -821.696)" fill="#e08057"/>
      <path id="Path_3297" data-name="Path 3297" d="M1156.6,883.4c-1.029-.8-1.759-1.923-2.81-2.7-.377-.274-.668-.7-1.144-.8a.622.622,0,0,1-.637-.457.606.606,0,0,1,.83-.661,2.359,2.359,0,0,1,1.273.7c1.244.9,2.057,2.077,3.21,3.038A.567.567,0,0,1,1156.6,883.4Z" transform="translate(-968.97 -806.201)" fill="#e08057"/>
      <path id="Path_3298" data-name="Path 3298" d="M1202.98,882.92c-.7-.359-.31-1.236.41-1.146a.867.867,0,0,1,.6.722A.578.578,0,0,1,1202.98,882.92Z" transform="translate(-1010.513 -808.678)" fill="#e08057"/>
      <path id="Path_3299" data-name="Path 3299" d="M1373.01,1290.551a.645.645,0,0,1,.088-1c.223-.369.394-.768.58-1.155a31.775,31.775,0,0,0,1.34-4.064c.19-.535.367-1.072.532-1.616a28.155,28.155,0,0,0,1.423-6.225,43.674,43.674,0,0,0,.5-7.359.566.566,0,0,1,1.132.035,34.751,34.751,0,0,1-.428,6.587,25.4,25.4,0,0,1-1.31,6.484c-.3,1.093-.68,2.153-1.027,3.228a18.137,18.137,0,0,1-1.428,4.019C1374.158,1290,1373.718,1291.038,1373.01,1290.551Z" transform="translate(-1150.19 -1126.144)" fill="#96793b"/>
      <path id="Path_3300" data-name="Path 3300" d="M1367.064,1150.9a.576.576,0,0,1-.55-.583c-.1-2.126-.009-4.345-.312-6.444a33.185,33.185,0,0,0-2.2-7.7,34.821,34.821,0,0,0-4.269-6.807c-.323-.354-.8-.719-.343-1.2a.573.573,0,0,1,.8.031,30.564,30.564,0,0,1,5.159,8.313,29.133,29.133,0,0,1,2.174,9.586c.053,1.416.081,2.834.12,4.25A.569.569,0,0,1,1367.064,1150.9Z" transform="translate(-1139.026 -1010.779)" fill="#96793b"/>
      <path id="Path_3301" data-name="Path 3301" d="M1509.126,1063.884c-.266-.086-.373-.4-.51-.613-.128-.168-.266-.329-.36-.431a27.649,27.649,0,0,0-5.54-4.917c-3.1-2.509-6.295-4.87-9.162-7.652-1.008-1.128-2.487-2.133-2.92-3.636-.053-2.008,2.079-3.619,3.089-5.175a28.621,28.621,0,0,1-5.175,1.357c-1.8.276-1.454-2.059-1.41-3.2a31.25,31.25,0,0,0-1.641-10.091c-.257-.78-.471-1.573-.755-2.343-.161-.464-.621-1.139.006-1.447a.57.57,0,0,1,.749.285,21.805,21.805,0,0,1,.8,2.275,31.844,31.844,0,0,1,1.764,7.876,25.683,25.683,0,0,1,.206,3.422,8.291,8.291,0,0,0,.036,2.1,25.593,25.593,0,0,0,5.029-1.294,3.877,3.877,0,0,1,1.838-.45c.707.232.521.844.124,1.281a26.173,26.173,0,0,1-1.61,2.1c-.537.736-2.245,2.44-1.848,3.348a27.584,27.584,0,0,0,4.376,4.478,32.221,32.221,0,0,0,2.814,2.345,21.04,21.04,0,0,0,1.784,1.442c1.387,1.117,2.772,2.226,4.233,3.245a26.37,26.37,0,0,1,3.436,3.242,7.53,7.53,0,0,1,1.271,1.539.6.6,0,0,1,.107.589A.572.572,0,0,1,1509.126,1063.884Z" transform="translate(-1241.796 -926.787)" fill="#96793b"/>
      <path id="Path_3302" data-name="Path 3302" d="M1635.315,1052.529a.57.57,0,0,1-.435-.673c.2-.814.446-1.616.681-2.419a41.626,41.626,0,0,1,1.813-4.992c1.749-3.61,3.809-7.074,5.479-10.722l0,.01-.007.015c.919-1.74-.314-2.528-1.38-3.718-.824-.8-1.628-1.627-2.374-2.5-.428-.447-.865-1.105-.126-1.509a1.133,1.133,0,0,1,.6-.065c.816.084,1.626.241,2.431.4.683.057,1.516.332,2.081-.186a15.045,15.045,0,0,0-.462-2.779c-.12-.845-.27-1.688-.374-2.536-.1-1.669-.282-3.33-.445-4.994-.12-.886-.191-1.781-.311-2.665-.035-.458-.243-1.11.391-1.237.682-.09.714.675.739,1.166.224,1.783.385,3.561.587,5.341a32.462,32.462,0,0,0,.413,3.937c.1,1.382.779,2.748.533,4.139-.932,1.789-3.305.837-4.863.651.853.914,1.755,1.8,2.6,2.712a4.618,4.618,0,0,1,1.371,2.084,3.663,3.663,0,0,1-.367,2.182c-.433,1.007-.963,1.969-1.445,2.953-.514,1.031-1.032,2.064-1.6,3.068a42.7,42.7,0,0,0-3.768,8.236c-.359,1.019-.647,2.057-.951,3.094C1636.032,1051.968,1635.922,1052.653,1635.315,1052.529Z" transform="translate(-1365.258 -915.519)" fill="#96793b"/>
      <path id="Path_3303" data-name="Path 3303" d="M1482.549,1229.635c.13.878.3,2.417-.5,3.005a10.548,10.548,0,0,1-2.1.363c-2.308.292-4.616.387-6.912.485-2.768.184-5.533.508-8.286.758a1.818,1.818,0,0,1-1.73-2.3c0-.784-.414-1.939.714-2.117.885-.02,1.75-.229,2.627-.333,1.264-.011,2.528.072,3.792-.018,1.548-.092,3.092-.255,4.631-.433,1.758-.069,3.507-.213,5.256-.386C1481,1228.687,1482.29,1228.359,1482.549,1229.635Z" transform="translate(-1224.165 -1093.354)" fill="#96793b"/>
      <path id="Path_3304" data-name="Path 3304" d="M1844.761,1238.567a.573.573,0,0,1-.364-.714q.35-1.236.7-2.47a38.431,38.431,0,0,0,1.123-4.017,41.091,41.091,0,0,0,.431-4.96,40.494,40.494,0,0,0-1.17-8.8c-.521-2.732-.923-5.486-1.518-8.2-.322-1.057-.468-2.124-.761-3.179a.574.574,0,0,1,.354-.719c.681-.2.822.617.927,1.107a20.4,20.4,0,0,0,.5,2.221c.626,2.651,1.04,5.351,1.5,8.037a38.41,38.41,0,0,1,1.182,7.5,21.6,21.6,0,0,1-.1,5.225,14.257,14.257,0,0,1-.852,4.291c-.437,1.432-.82,2.881-1.235,4.32A.569.569,0,0,1,1844.761,1238.567Z" transform="translate(-1536.214 -1074.34)" fill="#96793b"/>
      <path id="Path_3305" data-name="Path 3305" d="M1828.137,1119.974c-.319-1.97-.628-3.938-1.113-5.874-.286-1.286-.308-2.607-.6-3.894-.239-1.248-.414-2.506-.7-3.746-.01-.466-.369-.96-.131-1.4a.575.575,0,0,1,1.048.284c.475,2.083.819,4.2,1.171,6.307a16.37,16.37,0,0,0,.374,2.5c.48,1.839.733,3.725,1.054,5.6A.566.566,0,0,1,1828.137,1119.974Z" transform="translate(-1521.725 -991.724)" fill="#96793b"/>
      <g id="Group_1976" data-name="Group 1976" transform="translate(242.445 41.518)">
        <path id="Path_3306" data-name="Path 3306" d="M1505.733,745.872a2.744,2.744,0,0,0-1.127.376,2.679,2.679,0,0,0-1.245,3.057,3,3,0,0,0,2.1,1.456,2.051,2.051,0,0,0,.367.034c1.844,0,2.963-2.615,1.779-4.047A2.257,2.257,0,0,0,1505.733,745.872Z" transform="translate(-1499.683 -738.668)" fill="#413419"/>
        <path id="Path_3307" data-name="Path 3307" d="M1638.07,750.761a2.043,2.043,0,0,0,.366.034c1.845,0,2.963-2.615,1.779-4.047a2.257,2.257,0,0,0-1.87-.876,2.747,2.747,0,0,0-1.128.376,2.679,2.679,0,0,0-1.245,3.057A3,3,0,0,0,1638.07,750.761Z" transform="translate(-1608.517 -738.668)" fill="#413419"/>
        <path id="Path_3308" data-name="Path 3308" d="M1484.838,708.534h.087c.442,0,.882-.038,1.323-.076a12.456,12.456,0,0,1,1.613-.07c.577-.021,1.156-.015,1.736-.008.839.01,1.678.02,2.513-.052,2.59-.08,2.038-2.538-.283-2.519a21.275,21.275,0,0,0-3.858-.046,11.715,11.715,0,0,0-3.085.31c-.6.207-1.383.522-1.5,1.22C1483.315,708.08,1484.142,708.541,1484.838,708.534Z" transform="translate(-1483.381 -705.699)" fill="#413419"/>
      </g>
      <path id="Path_3309" data-name="Path 3309" d="M1640.68,1795.132a.57.57,0,0,0,.6-.532q.036-2.171.068-4.341c0-3.323.057-6.658-.218-9.971-.188-3.389-.439-6.769-.694-10.153a.566.566,0,0,0-1.13.08c.369,5.255.848,10.509.909,15.778.034,2.8-.008,5.723-.066,8.541A.573.573,0,0,0,1640.68,1795.132Z" transform="translate(-1368.901 -1537.327)" fill="#96793b"/>
      <path id="Path_3310" data-name="Path 3310" d="M1631.911,1491.274a.569.569,0,1,0-1.128.144c.039,2.833.255,5.674.309,8.512a46.88,46.88,0,0,0,.181,4.777c-.069,2.858.02,5.742.122,8.6-.056,3.345-.285,6.834-.118,10.2.259,3.917.567,7.829.8,11.75a.566.566,0,0,0,1.129-.08c-.235-4.532-.7-9.055-.871-13.589.066-4.237.287-8.572.042-12.822a72.14,72.14,0,0,0-.175-7.4C1632.277,1498.009,1631.954,1494.655,1631.911,1491.274Z" transform="translate(-1361.902 -1308.469)" fill="#96793b"/>
      <path id="Path_3311" data-name="Path 3311" d="M1618.77,1246.338a34.848,34.848,0,0,0-1.13-4.418.567.567,0,0,0-1.072.365,4.44,4.44,0,0,1,.276.892,32.764,32.764,0,0,1,.857,3.645,37.888,37.888,0,0,0,.393,4.608,41.537,41.537,0,0,0,.712,5.069c.1,1.761.252,3.5.26,5.27-.059,1.544-.06,3.246.04,4.824q-.061,2.4-.1,4.791-.044,2.355-.091,4.709a.567.567,0,1,0,1.132.065q.046-2.428.093-4.857c.044-2.442.141-4.88,0-7.322a64.183,64.183,0,0,0-.2-7.516,43.821,43.821,0,0,1-.691-4.851,20.671,20.671,0,0,1-.322-2.886A11.217,11.217,0,0,0,1618.77,1246.338Z" transform="translate(-1350.216 -1103.941)" fill="#96793b"/>
      <path id="Path_3312" data-name="Path 3312" d="M1653.441,1925.608h0Z" transform="translate(-1380.503 -1665.347)" fill="#413419"/>
      <path id="Path_3313" data-name="Path 3313" d="M1453.969,1351.282c-1.449.22-2.916.351-4.37.582a23.33,23.33,0,0,1-6.177.447,10.579,10.579,0,0,1-1.628-1.109.569.569,0,0,0-.217-.243c-.079-.741-.118-1.487-.19-2.228-.127-1.106-.087-2.218-.175-3.326-.282-2.154-.575-4.317-.688-6.488-.237-2.9-.6-5.8-.714-8.712a50.325,50.325,0,0,1-.214-5.788c-.055-1.985-.292-3.963-.291-5.952-.017-1.655.028-3.31-.107-4.982-.135-2.585-.029-5.175-.117-7.784a45.575,45.575,0,0,0,.016-5.542c-.078-3.41-.109-6.866-.269-10.286-.08-2.119-.013-4.135-.058-6.295-.023-1.967-.117-3.932-.036-5.9-.134-3.818.084-7.677-.106-11.51-.014-1.44.107-3,.1-4.455-.1-1.884-.145-3.945-.322-5.856-.291-3.326-.8-6.615-1.1-9.947a64.643,64.643,0,0,0-2.6-11.588,16.423,16.423,0,0,0-2.089-4.242,5.269,5.269,0,0,0-1.482-1.712c-.144-.144-.28-.3-.427-.438a.566.566,0,0,0-.755.843,9.165,9.165,0,0,0,1.01.94,17.754,17.754,0,0,1,2.439,4.251,65.045,65.045,0,0,1,2.733,11.679c.354,3.644.873,7.264,1.211,10.915.087,1.693.163,3.389.254,5.083.018,1.359-.1,2.852-.1,4.245.048,2.313.16,4.52.055,6.856-.05,2.185.1,4.291.015,6.508.105,4.938.044,9.895.284,14.845.127,2.284-.015,4.573.163,6.853a41.148,41.148,0,0,1-.06,4.387c-.01,1.6.088,3.118.029,4.731-.012,1.728.1,3.454.178,5.178,0,1.881.006,3.766.1,5.645.059,1.157.189,2.313.21,3.473a26.17,26.17,0,0,0,.088,3.954c.217,2.41.207,4.84.523,7.242.257,2.114.312,4.244.573,6.357.123,1.592.461,3.165.49,4.762,0,1.2.162,2.573.259,3.816.06.365.022.781.115,1.147,0,.007,0,.015,0,.022a2.193,2.193,0,0,1-1.141,1.116,5.137,5.137,0,0,1-1.459.235,4.447,4.447,0,0,0-1.492-.092c-4.751.2-9.51.109-14.257.355-2.53-.145-5.058-.082-7.588.021-4.37.074-8.74.393-13.108.15a48.645,48.645,0,0,1-8.967-1.392q-1.419-.382-2.841-.753a.566.566,0,1,0-.246,1.105c1.055.278,2.111.546,3.16.843a32.223,32.223,0,0,0,6.008,1.022,48.632,48.632,0,0,0,5.192.415c4.64-.032,9.281-.231,13.92-.358,1.541-.067,3.078.039,4.619.081,2.584-.188,5.172-.119,7.758-.217,1.954.068,3.9-.106,5.848-.132a.558.558,0,0,0,.392.141l1.6-.068a4.359,4.359,0,0,0,1.745-.253,3.6,3.6,0,0,0,1.626-1.262,1.821,1.821,0,0,0,.145-.234c.284.194.585.36.781.5.45.219.927.8,1.463.545l.13.016a5.77,5.77,0,0,0,.682.07c3.673,0,7.322-1.048,11-1.213a.572.572,0,0,0,.543-.59C1455.926,1350.8,1454.587,1351.288,1453.969,1351.282Z" transform="translate(-1163.455 -1092.66)" fill="#96793b"/>
      <path id="Path_3314" data-name="Path 3314" d="M1783.5,1902.681a21.09,21.09,0,0,1-3.241.875c-1.907.389-3.83.655-5.757.923-1.978.17-3.978.273-5.959.451a4.377,4.377,0,0,0-1.553.246.576.576,0,0,0,.056,1,.542.542,0,0,0,.573-.028q2.791-.259,5.591-.427a52.446,52.446,0,0,0,10.389-1.854c.42-.113.857-.416.651-.9A.574.574,0,0,0,1783.5,1902.681Z" transform="translate(-1473.473 -1646.493)" fill="#96793b"/>
      <path id="Path_3315" data-name="Path 3315" d="M1463.462,1743.681a24.122,24.122,0,0,0,3.17-.042c1.3-.041,2.6.048,3.908.083,1.069,0,2.115-.136,3.181-.2.994.06,1.969.142,2.965.143,1.79-.036,3.661.064,5.493.005,1.093-.027,2.268.114,2.328-1.334.169-1.2.758-3.241-.815-3.69a18,18,0,0,0-2.43-.025c-1.854-.006-3.636-.04-5.526.038a10.514,10.514,0,0,1-2.205.021,9.428,9.428,0,0,0-3.1-.142c-1.32.138-2.642-.105-3.968,0-.64-.008-1.277.079-1.916.038-.777-.049-1.834-.3-2.424.422a4.041,4.041,0,0,0-.652,2.514A2.119,2.119,0,0,0,1463.462,1743.681Zm-.837-2.326c.071-.564-.078-1.5.589-1.724,1.852.192,3.71-.073,5.564.066a22.812,22.812,0,0,0,2.533-.062,17.666,17.666,0,0,1,2.616.216c2.1-.016,4.117-.175,6.24-.1.7-.012,1.4.013,2.1-.009a3.385,3.385,0,0,1,1.271.06,7.883,7.883,0,0,1-.2,2.689c-2.1.139-4.165-.009-6.281.047-1.1.009-2.32-.109-3.442-.151-2.639.352-5.285.015-7.931.151C1464.687,1742.56,1462.378,1743,1462.625,1741.355Z" transform="translate(-1222.948 -1511.773)" fill="#96793b"/>
      <path id="Path_3316" data-name="Path 3316" d="M1755.546,1724.311c2.056.565,4.175-.306,6.224-.545a26.317,26.317,0,0,0,4.532-.591c.582-.1,2.324-.115,2.528-.722a.57.57,0,0,0-.352-.72.7.7,0,0,0-.549.027c-.836.3-1.753.209-2.608.452-1.463.375-2.993.287-4.486.549-1.193.135-5.373,1.518-5.5-.354a4.012,4.012,0,0,1-.08-.932c.014-.23.024-.583.259-.691a51.3,51.3,0,0,1,6.458-.819c1.458-.126,2.883-.481,4.336-.656.353-.045.715-.1,1.077-.122a.563.563,0,0,0,.55-.168.571.571,0,0,0-.04-.8c-.441-.34-1.047-.069-1.554-.053-.892.114-1.78.254-2.664.412-1.54.315-3.135.318-4.695.538a15.775,15.775,0,0,0-2.166.305c-.756.132-1.68.08-2.253.664a3.307,3.307,0,0,0-.264,2.826A1.95,1.95,0,0,0,1755.546,1724.311Z" transform="translate(-1463.125 -1495.006)" fill="#96793b"/>
      <path id="Path_3317" data-name="Path 3317" d="M1830.01,1566.016a23.323,23.323,0,0,0,3.534,1.778.567.567,0,0,0,.351-1.078,23.1,23.1,0,0,1-3.2-1.613,12.7,12.7,0,0,1-2.177-1.431.567.567,0,0,0-.732.866A12.827,12.827,0,0,0,1830.01,1566.016Z" transform="translate(-1523.422 -1368.198)" fill="#e08057"/>
      <path id="Path_3318" data-name="Path 3318" d="M1594.043,762.8c-.236.54-1.2,1.135-.6,1.733a.621.621,0,0,0,.364.135c.488,0,.816-.761,1.111-1.121a5.676,5.676,0,0,0,.7-2.395c.123-1.139-.57-2.1-1.017-3.085a11.555,11.555,0,0,1-.771-3.034,26.494,26.494,0,0,1,.02-3.6.566.566,0,1,0-1.132-.04c-.18,2.661-.122,5.418,1.191,7.835A3.479,3.479,0,0,1,1594.043,762.8Z" transform="translate(-1330.601 -701.235)" fill="#e08057"/>
      <path id="Path_3319" data-name="Path 3319" d="M1236.248,1354.43a.843.843,0,0,0-.4.87c.02.424-.016.852-.028,1.277-.09,2.8.118,5.617.118,8.422.023,1.569-.911,3.089-.423,4.651.087.445.384.913.893.879,1.49-.193,1.034-1.905.835-2.935a9.537,9.537,0,0,1-.038-1.72c.038-.378.262-.859-.091-1.148-.023-2.443-.17-4.878-.146-7.322.013-.732.06-1.464.047-2.2a.609.609,0,0,0-.131-.665A.587.587,0,0,0,1236.248,1354.43Z" transform="translate(-1037.403 -1196.547)" fill="#e08057"/>
    </g>
  </g>
</svg>
