<svg xmlns="http://www.w3.org/2000/svg" xmlns:xlink="http://www.w3.org/1999/xlink" width="526.569" height="365.045" viewBox="0 0 526.569 365.045">
  <defs>
    <clipPath id="clip-path">
      <path id="Path_3951" data-name="Path 3951" d="M426.867,215.039c-26.755,13.557-50.684,32.2-70.009,56.985-47.2,60.527-56.914,149.008-10.417,212.763,43.413,59.525,118.231,74.908,187.144,58.73,60.208-14.134,111.148-52,174.279-55.665,15.61-.906,31.547-1.2,46.807-4.934,60.161-14.737,92.42-80.384,87.52-138.639-6.728-79.995-71.424-121.274-142.376-141.163C616.111,179.652,508.375,173.737,426.867,215.039Z" transform="translate(-316.11 -184.738)" fill="none"/>
    </clipPath>
    <clipPath id="clip-path-2">
      <path id="Path_4084" data-name="Path 4084" d="M426.867,213.921c-26.755,13.558-50.684,32.2-70.009,56.985-47.2,60.527-56.914,149.008-10.417,212.763,43.413,59.525,118.231,74.908,187.144,58.73,60.208-14.134,111.148-52,174.279-55.665,15.61-.906,31.547-1.2,46.807-4.934,60.161-14.737,92.42-80.384,87.52-138.639-6.728-80-71.424-121.274-142.376-141.163C616.111,178.534,508.375,172.619,426.867,213.921Z" transform="translate(-316.11 -183.619)" fill="none"/>
    </clipPath>
    <clipPath id="clip-path-3">
      <path id="Path_3957" data-name="Path 3957" d="M2145.042,365.32s-23.988,18.45-14.453,28.645c0,0-1.706,13.262,11.786,12.125,0,0,.635,8.74,9.4,6.587,0,0,3.088,9.724,12.449,5.491s11.83-20.257,26.993-29.606c2.107-1.3,52.131-26.389,52.131-26.389l-19.711-28.75L2164.6,364.649S2156.161,357.506,2145.042,365.32Z" transform="translate(-2128.349 -333.423)" fill="#ffd1c1"/>
    </clipPath>
    <clipPath id="clip-path-4">
      <path id="Path_3962" data-name="Path 3962" d="M271.164,648.824s11.814-12.247,19.487-7.086,27.21,20.881,25.83,25.134c-2.133,6.577-6.839,4.755-6.839,4.755s5.352,6.44,1.24,11.01-8.733,3.864-8.733,3.864-1.772,8.965-7.586,9.058c0,0-8.217,11.728-16.013,7.7s-27.013-21.484-26.828-27.658l-45.887-10.826,18.125-33.059S268.207,649.5,271.164,648.824Z" transform="translate(-205.836 -631.72)" fill="#ffd1c1"/>
    </clipPath>
    <clipPath id="clip-path-5">
      <path id="Path_3967" data-name="Path 3967" d="M374.282,1264.967s11.157,6.933,16.911-9.215c0,0,6.868,1.3,6.682-6.5,0,0,6.125-.186,6.5-9.837a10.771,10.771,0,0,0,2.784-12.25s2.227-5.754-2.227-8.352-23.944-3.712-28.955,2.227-16.148,30.626-16.148,30.626l-38.793,45.66,29.883,24.129Z" transform="translate(-321.032 -1216.714)" fill="#ffd1c1"/>
    </clipPath>
    <clipPath id="clip-path-6">
      <path id="Path_3972" data-name="Path 3972" d="M2470.33,1112.426s-36.854-13.726-39.232-17.436-1.728-12.35-7.412-15.357-19.373-5.625-22.657-4.166-1.189,5.782-1.189,5.782-8.348,1.533-5,9.978c0,0-3.216,3.725-.015,9.679,0,0-3.949,4.5.269,9.066s30.706,5.288,30.706,5.288,27.175,28.984,32.231,26.112S2470.33,1112.426,2470.33,1112.426Z" transform="translate(-2393.15 -1075.052)" fill="#ffd1c1"/>
    </clipPath>
  </defs>
  <g id="Group_2397" data-name="Group 2397" transform="translate(-316.11 -183.619)">
    <path id="Path_3948" data-name="Path 3948" d="M426.867,215.039c-26.755,13.557-50.684,32.2-70.009,56.985-47.2,60.527-56.914,149.008-10.417,212.763,43.413,59.525,118.231,74.908,187.144,58.73,60.208-14.134,111.148-52,174.279-55.665,15.61-.906,31.547-1.2,46.807-4.934,60.161-14.737,92.42-80.384,87.52-138.639-6.728-79.995-71.424-121.274-142.376-141.163C616.111,179.652,508.375,173.737,426.867,215.039Z" transform="translate(0 -0.875)" fill="#f7f7f7"/>
    <path id="Path_3949" data-name="Path 3949" d="M426.867,215.039c-26.755,13.557-50.684,32.2-70.009,56.985-47.2,60.527-56.914,149.008-10.417,212.763,43.413,59.525,118.231,74.908,187.144,58.73,60.208-14.134,111.148-52,174.279-55.665,15.61-.906,31.547-1.2,46.807-4.934,60.161-14.737,92.42-80.384,87.52-138.639-6.728-79.995-71.424-121.274-142.376-141.163C616.111,179.652,508.375,173.737,426.867,215.039Z" transform="translate(0 -0.875)" fill="none"/>
    <g id="Group_2244" data-name="Group 2244" transform="translate(316.11 183.862)">
      <g id="Group_2243" data-name="Group 2243" transform="translate(0 0)" clip-path="url(#clip-path)">
        <path id="Path_3950" data-name="Path 3950" d="M227.132,1147.254a110.793,110.793,0,0,1,145.647-69.748c40.53,15.716,68.576,53.668,107.553,72.914,41.731,20.606,93.238,17.049,134.417-4.638,31.923-16.812,58.326-43.595,91.956-56.66,32.018-12.439,67.487-11.26,101.8-9.685-7.205,26.244-25.169,47.816-44.259,67.212-31.061,31.56-67.859,59.958-111.181,69.124-29.216,6.182-59.652,3.242-89.152,7.879-33.511,5.268-64.631,20.085-96.734,31.046s-67.428,18.067-99.689,7.58c-16.279-5.292-30.82-14.774-45.077-24.247C285.231,1213.325,251.457,1184.689,227.132,1147.254Z" transform="translate(-246.452 -877.885)" fill="#d6d6d6" opacity="0.48"/>
      </g>
    </g>
    <g id="Group_2394" data-name="Group 2394" transform="translate(316.11 183.619)">
      <g id="Group_2393" data-name="Group 2393" transform="translate(0)" clip-path="url(#clip-path-2)">
        <g id="Group_2392" data-name="Group 2392" transform="translate(-23.944 32.528)">
          <g id="Group_2251" data-name="Group 2251" transform="translate(417.445)">
            <g id="Group_2245" data-name="Group 2245" transform="translate(2.78 15.988)">
              <path id="Path_3952" data-name="Path 3952" d="M2152.334,430.766s-14.022-12.211-10.661-18.247,9.561-6.832,11.568-3.554S2166,422.094,2166,422.094Z" transform="translate(-2141.153 -407.057)" fill="#ffb2a0"/>
            </g>
            <g id="Group_2250" data-name="Group 2250">
              <path id="Path_3953" data-name="Path 3953" d="M2145.042,365.32s-23.988,18.45-14.453,28.645c0,0-1.706,13.262,11.786,12.125,0,0,.635,8.74,9.4,6.587,0,0,3.088,9.724,12.449,5.491s11.83-20.257,26.993-29.606c2.107-1.3,52.131-26.389,52.131-26.389l-19.711-28.75L2164.6,364.649S2156.161,357.506,2145.042,365.32Z" transform="translate(-2128.349 -333.423)" fill="#ffd1c1"/>
              <g id="Group_2249" data-name="Group 2249" clip-path="url(#clip-path-3)">
                <g id="Group_2246" data-name="Group 2246" transform="translate(-1.659 50.308)">
                  <path id="Path_3954" data-name="Path 3954" d="M2122.591,567.615s.961,5.906,4.985,2.5l5.485-5s-7.174,10.809-3.256,14.84,9.021,2.073,13.822-2.426c0,0-5.626,8.971-2.534,11.636,0,0,3.506,3.264,8.583-2.839,0,0-1.447,6.577,1.974,9.924s6.384,3.666,10.7.375h0s-3.954,7.079-10.7,5.969-8.116-6.29-8.116-6.29-8.42-1.145-12.26-6.264c0,0-8.7-7.059-9.3-12.481,0,0-3.214-4.219.619-9.944" transform="translate(-2120.711 -565.114)" fill="#ffb2a0"/>
                </g>
                <g id="Group_2247" data-name="Group 2247" transform="translate(55.777 39.05)">
                  <path id="Path_3955" data-name="Path 3955" d="M2385.226,534.966s6.5-4.988,2.653-14.559c0,0,6.678,5.074,16.373.232a110.986,110.986,0,0,1,19.7-7.374l-.058,3.558s-33.974,14.216-38.665,18.142" transform="translate(-2385.226 -513.266)" fill="#ffb2a0"/>
                </g>
                <g id="Group_2248" data-name="Group 2248" transform="translate(36.252 27.276)">
                  <path id="Path_3956" data-name="Path 3956" d="M2295.3,462.991s10.023,7.4,12.547,10.178c0,0-.409-9.7-9.04-14.128l-3.507,3.95" transform="translate(-2295.304 -459.041)" fill="#ffb2a0"/>
                </g>
              </g>
            </g>
          </g>
          <g id="Group_2257" data-name="Group 2257" transform="translate(0 57.299)">
            <g id="Group_2252" data-name="Group 2252" transform="translate(81.224)">
              <path id="Path_3958" data-name="Path 3958" d="M579.9,618.593s10.5-21.73,13.313-21.279,10.072,6.648,9.348,12.4-7.759,20.41-7.759,20.41Z" transform="translate(-579.905 -597.307)" fill="#ffb2a0"/>
            </g>
            <g id="Group_2256" data-name="Group 2256" transform="translate(0 7.472)">
              <path id="Path_3959" data-name="Path 3959" d="M271.164,648.824s11.814-12.247,19.487-7.086,27.21,20.881,25.83,25.134c-2.133,6.577-6.839,4.755-6.839,4.755s5.352,6.44,1.24,11.01-8.733,3.864-8.733,3.864-1.772,8.965-7.586,9.058c0,0-8.217,11.728-16.013,7.7s-27.013-21.484-26.828-27.658l-45.887-10.826,18.125-33.059S268.207,649.5,271.164,648.824Z" transform="translate(-205.836 -631.72)" fill="#ffd1c1"/>
              <g id="Group_2255" data-name="Group 2255" clip-path="url(#clip-path-4)">
                <g id="Group_2253" data-name="Group 2253" transform="translate(70.829 28.424)">
                  <path id="Path_3960" data-name="Path 3960" d="M570.157,762.624s-2.165,6.342-5.386,7.891S555.94,767,555.94,767s9.108,10.8,7.856,15.034-15.835-.995-15.835-.995,7.85,7.953,6.793,9.878-5.035,5.2-6.4,4.722-10.669-5.8-10.669-5.8,8.26,7.983,6.793,9.879-12.445,5.817-12.445,5.817,5.831,5.525,10.794,3.59,18.354-14.383,18.354-14.383,14.5-17.8,15.825-20.817S570.157,762.624,570.157,762.624Z" transform="translate(-532.034 -762.624)" fill="#ffb2a0"/>
                </g>
                <g id="Group_2254" data-name="Group 2254" transform="translate(21.949 6.808)">
                  <path id="Path_3961" data-name="Path 3961" d="M338.344,711.789s-5.618-9.32,4.621-19.225,29.754-25.148,29.754-25.148-4.818-5.958-11.033-3.911-19.4,14.648-19.4,14.648l-35.367,19.774,22.2,2.779s5.163,9.651,9.225,11.083" transform="translate(-306.922 -663.076)" fill="#ffb2a0"/>
                </g>
              </g>
            </g>
          </g>
          <g id="Group_2263" data-name="Group 2263" transform="translate(25.013 177.462)">
            <g id="Group_2258" data-name="Group 2258" transform="translate(54.813)">
              <path id="Path_3963" data-name="Path 3963" d="M573.6,1169.373s-1.17-18.661,3.577-18.661,6.6,2.27,7.637,5.367,1.239,11.972,1.239,11.972Z" transform="translate(-573.469 -1150.713)" fill="#ffb2a0"/>
            </g>
            <g id="Group_2262" data-name="Group 2262" transform="translate(0 14.331)">
              <path id="Path_3964" data-name="Path 3964" d="M374.282,1264.967s11.157,6.933,16.911-9.215c0,0,6.868,1.3,6.682-6.5,0,0,6.125-.186,6.5-9.837a10.771,10.771,0,0,0,2.784-12.25s2.227-5.754-2.227-8.352-23.944-3.712-28.955,2.227-16.148,30.626-16.148,30.626l-38.793,45.66,29.883,24.129Z" transform="translate(-321.032 -1216.714)" fill="#ffd1c1"/>
              <g id="Group_2261" data-name="Group 2261" clip-path="url(#clip-path-5)">
                <g id="Group_2259" data-name="Group 2259" transform="translate(5.647 17.064)">
                  <path id="Path_3965" data-name="Path 3965" d="M386.849,1295.3s6.765,19.307,24.7,21.974h0s.853,6.89-8.625,11.93c-6.722,3.574-7.945,9.4-7.945,9.4s-41.913,20.318-47.943,11.928l29.758-38.975Z" transform="translate(-347.039 -1295.301)" fill="#ffb2a0"/>
                </g>
                <g id="Group_2260" data-name="Group 2260" transform="translate(67.896)">
                  <path id="Path_3966" data-name="Path 3966" d="M645.75,1216.714s4.98,5.577,3.027,8.8-13.376.391-10.74,1.757,11.033,1.074,11.423,2.637,2.343,6.639-2.343,7.42-12.888.293-12.2.781,11.033.879,11.326,1.855-1.074,6.834-2.734,7.616-9.275,1.562-9.763,1.757,9.471,2.246,9.471,2.246,4.491-2.148,6.444-5.663a22.547,22.547,0,0,0,2.441-6.151s3.32-8.5,1.562-13.572C653.659,1226.2,656.393,1218.264,645.75,1216.714Z" transform="translate(-633.724 -1216.714)" fill="#ffb2a0"/>
                </g>
              </g>
            </g>
          </g>
          <g id="Group_2269" data-name="Group 2269" transform="translate(474.943 155.309)">
            <g id="Group_2264" data-name="Group 2264" transform="translate(19.496)">
              <path id="Path_3968" data-name="Path 3968" d="M2482.937,1063.665s3.812-14.645,9.334-14.965,5.708,5.908,5.122,7.172-4.7,12.217-4.7,12.217Z" transform="translate(-2482.937 -1048.688)" fill="#ffb2a0"/>
            </g>
            <g id="Group_2268" data-name="Group 2268" transform="translate(0 5.725)">
              <path id="Path_3969" data-name="Path 3969" d="M2470.33,1112.426s-36.854-13.726-39.232-17.436-1.728-12.35-7.412-15.357-19.373-5.625-22.657-4.166-1.189,5.782-1.189,5.782-8.348,1.533-5,9.978c0,0-3.216,3.725-.015,9.679,0,0-3.949,4.5.269,9.066s30.706,5.288,30.706,5.288,27.175,28.984,32.231,26.112S2470.33,1112.426,2470.33,1112.426Z" transform="translate(-2393.15 -1075.052)" fill="#ffd1c1"/>
              <g id="Group_2267" data-name="Group 2267" clip-path="url(#clip-path-6)">
                <g id="Group_2265" data-name="Group 2265" transform="translate(-4.548 -2.139)">
                  <path id="Path_3970" data-name="Path 3970" d="M2386.79,1067.338s-1.684,3.171.129,4.6,5.7,2.331,5.7,2.331-9.843.388-10.361,3.5-.13,3.756,2.589,4.792,6.087,1.943,6.087,1.943-10.49,1.943-9.843,7.512,6.605,5.181,6.605,5.181-9.584,1.813-5.828,7.9c0,0-7.382.388-7.9-5.051s-3.368-19.427-.519-25.385,13.858-9.454,13.858-9.454l-.518,2.139" transform="translate(-2372.202 -1065.199)" fill="#ffb2a0"/>
                </g>
                <g id="Group_2266" data-name="Group 2266" transform="translate(10.585 6.496)">
                  <path id="Path_3971" data-name="Path 3971" d="M2464.2,1104.97s2.144,8.865.307,13.258-7.589,15.017-11.343,16.216-11.263,3.036-11.263,3.036l21.408,2.4,8.067,6.389s-2.476-10.463-2.556-13.1,2.316-15.177,2.316-15.177-2.316-4.154-2.875-5.272-1.713-5.832-4.061-7.746" transform="translate(-2441.899 -1104.97)" fill="#ffb2a0"/>
                </g>
              </g>
            </g>
          </g>
          <g id="Group_2391" data-name="Group 2391" transform="translate(124.285 61.719)">
            <g id="Group_2335" data-name="Group 2335">
              <g id="Group_2270" data-name="Group 2270" transform="translate(16.578 94.801)">
                <path id="Path_3973" data-name="Path 3973" d="M971.344,1237.1a27.183,27.183,0,0,0-.134-5.606c-.239-3.144-.478-6.284-.869-9.409-.169-1.814-.121-3.536-.239-5.376a8.087,8.087,0,0,1-.057-1.646.864.864,0,0,0,.094-.66.048.048,0,0,0,0-.012c.5-.289.992-.734,1.31-.945a11.565,11.565,0,0,0,1.595-1.418c.636-1.461,1.295-2.935,1.862-4.435a13.04,13.04,0,0,0,.984-3.514c.048-.622.041-1.249.076-1.873a25.643,25.643,0,0,0-.156-5.553,43.277,43.277,0,0,1-.269-4.672c-.149-1.773-.48-3.526-.643-5.3-.119-1.4-.133-2.794-.179-4.207-.091-2.263-.285-4.538-.307-6.812-.167-3.021-.53-6.029-.721-9.047-.008-2.956.092-5.951.058-8.912-.022-2.138.166-4.272.2-6.41a.9.9,0,0,0,.69-.331,28.082,28.082,0,0,1,5.558.054,9.779,9.779,0,0,0,1.659.024,13.493,13.493,0,0,0,2.041,0c5-.638,4.467-6.568,3.945-10.3-.257-1.608-.394-3.226-.716-4.822a40.251,40.251,0,0,0-.873-5.239c-.215-1.809-.294-3.74-.54-5.563-.481-4.86-.952-9.72-1.37-14.583a63.217,63.217,0,0,0-1.492-11.921c-.484-2.079-.784-4.2-1.442-6.237-.423-1.2-.995-2.246-1.43-3.467-.586-1.138-1.081-2.318-1.627-3.473a21.759,21.759,0,0,0-3.239-4.015,8.418,8.418,0,0,0-1.55-1.428c-.514-.284-1.391-1.38-2.051-1.214a31.8,31.8,0,0,0-3.724-2.08c-1.573-.794-3.129-1.623-4.73-2.359a61.307,61.307,0,0,0-7.242-3.314c-2.372-1-4.7-2.108-7.061-3.146-1.79-.935-3.68-1.664-5.431-2.669a5.659,5.659,0,0,1-2.831-2.389c-.822-1.419-1.383-3.1-2.355-4.462-1.509-2.254-4.347-2.949-6.92-2.531a31.376,31.376,0,0,1-5.542-.1c-1.54-.2-3.012-.356-4.618-.469-.952-.03-1.941-.164-2.918-.185a.569.569,0,0,0,.015-.345c-.367-1.028-1.634-.049-2.309.209-1.443.621-1.952,2.165-2.837,3.338a14.2,14.2,0,0,1-2.669,3.038c-1.756,1.431-4,1.708-6.1,2.464a31.851,31.851,0,0,0-3.839,1.647c-1.276.584-2.667,1.044-3.941,1.651-3.415,1.467-6.748,3.123-10.212,4.474a55.417,55.417,0,0,0-13.424,7.358c-2.046,1.508-3.5,3.628-5.221,5.465-1.286,1.365-2.465,2.823-3.689,4.244q-3.225,3.791-6.429,7.6a.61.61,0,0,0,.777.918,32.307,32.307,0,0,0-2.568,5.526c-1.237,3.971-.989,8.195-1.124,12.307a24.047,24.047,0,0,0,.208,2.931,37.411,37.411,0,0,0,1.653,4.459c1.369,3.516,3.854,6.519,4.925,10.158.726,3.021,1.337,6.082,1.855,9.146a49.7,49.7,0,0,1,.523,10.1,30,30,0,0,1-.834,4.038c-.076.681-.769,1.865.222,2.143,1,.072,1.448-1.772,1.918-2.481.818-1.475,1.559-3.049,2.415-4.511.706-1.35,1.453-2.682,2.2-4.017.044.616.082,1.233.124,1.849a98.833,98.833,0,0,1,.37,11.734c.055,4.649.289,9.31-.034,13.99.038,3.634-.115,7.368-.3,11.021-.139,2.533-.023,5.076-.221,7.608a50.449,50.449,0,0,0-.33,7.115A30.55,30.55,0,0,0,872,1211.422a23.333,23.333,0,0,0,1.9,3.652,5.968,5.968,0,0,1,1.494,3.487c.025,1.343-.273,2.661-.308,4q-.116,2.847-.388,5.681c-.085,1.7-.3,3.38-.465,5.07-.032,1.335-.127,2.669-.193,4h97.3C971.342,1237.245,971.344,1237.173,971.344,1237.1Z" transform="translate(-854.568 -1054.266)" fill="#d9b978"/>
              </g>
              <g id="Group_2271" data-name="Group 2271" transform="translate(49.316 21.058)">
                <path id="Path_3974" data-name="Path 3974" d="M1084.888,744.188a6.286,6.286,0,0,0-7.9-1.557c-.14-1.615-.643-3.13-.791-4.767a44.412,44.412,0,0,0-1.315-9.472,17.1,17.1,0,0,0-1.364-4.04c-3.516-5.18-12.25-6.458-18.073-6.857-2.42-.229-4.831-.588-7.267-.608a82.142,82.142,0,0,1-10.522-.54c-2.208-.427-4.336-1.239-6.577-1.5a19.709,19.709,0,0,0-7.042.246,14.763,14.763,0,0,0-9.772,9.32c-1.136,2.72-1.5,5.676-2.1,8.542-.231,2.257.093,4.536-.018,6.8a11.114,11.114,0,0,1-1.1,4.278,6,6,0,0,0-1.036-.113,2.519,2.519,0,0,0-1.1.369,3.738,3.738,0,0,0-1.442.707,4.3,4.3,0,0,0-1.923,3.34c0,.01,0,.019-.006.029a10.254,10.254,0,0,0,1.462,7.472,23.835,23.835,0,0,0,2.365,2.656c1.261,1.388,2.99,1.444,4.735,1.436,2.246-.066,4.338,6.058,5.095,7.905a24.538,24.538,0,0,0,1.625,3.24,29.623,29.623,0,0,0,1.924,3.338,22.066,22.066,0,0,0,9.848,8.427c.945.4,1.482.381,1.8,1.141-.143,1.358-.26,2.718-.384,4.08.02.565-.363,1.384.21,1.766a2.937,2.937,0,0,0,.58,1.4,8.744,8.744,0,0,0,1.624,2.042,20.08,20.08,0,0,0,4.781,3.5,31.1,31.1,0,0,1,3.49,6.143,5.706,5.706,0,0,0,.769,1.443,1.719,1.719,0,0,0,1.419.687c.9-.084,1.412-1.056,1.755-1.9l2.927-7.2c.22-.313.433-.62.641-.9a13.869,13.869,0,0,0,1.9-3.437,35.668,35.668,0,0,0,.361-7.087,44.507,44.507,0,0,0,6-2.8,40.6,40.6,0,0,0,5.008-4.322,38.62,38.62,0,0,0,5.733-8.688c2.2-3.932,2.962-8.421,4.94-12.461,1.226-.355,2.533-.394,3.735-.836a8.475,8.475,0,0,0,5.6-7.465C1085.487,746.72,1085.749,745.226,1084.888,744.188Z" transform="translate(-1005.338 -714.648)" fill="#ffc28f"/>
              </g>
              <g id="Group_2273" data-name="Group 2273" transform="translate(50.233)">
                <g id="Group_2272" data-name="Group 2272">
                  <path id="Path_3975" data-name="Path 3975" d="M1088.849,637.022a11.788,11.788,0,0,1-1.353,7.132,13.23,13.23,0,0,1-3.136,4.537,11.692,11.692,0,0,1-1.316.986c.18.356.322.68.416.886a8.148,8.148,0,0,1,.349,4.595c0,.628-.6,1.273-.244,1.853a7.737,7.737,0,0,1,1.326,3.049,7.6,7.6,0,0,1-.9,4.628c-.6,1.152-1.565,2.07-2.176,3.212a14.164,14.164,0,0,0-.622,2.594c-.148,1.142-.365,2.755-1.918,2.448-.6-.123-.854-.733-1-1.264-.588-1.73.191-3.791-.87-5.375-1.033-1.948-2.019-3.812-2.887-5.819a27.308,27.308,0,0,1-1.453-5.38,20.038,20.038,0,0,1-.671-5.012c-.26.239-.53.467-.8.69a11.669,11.669,0,0,1-2.851,1.735,19.256,19.256,0,0,1-3.2,1.315,20.113,20.113,0,0,1-4.45.848,14.2,14.2,0,0,1-3.1.185,34.183,34.183,0,0,1-13.138-3.38c-2.834-1.429-5.506-3.157-8.389-4.5a26.485,26.485,0,0,0-4.046-1.835,9.209,9.209,0,0,0-3.422-.829,2.885,2.885,0,0,0-1.645.279,7.218,7.218,0,0,0-.653.664c-.024.049-.047.1-.068.148a20.419,20.419,0,0,0-.356,2.388,28.133,28.133,0,0,1-.526,3.613c-.681,3.357-2.427,6.345-4.187,9.236a16.886,16.886,0,0,0-2.314,7.069c-.2,2.081-.092,4.173-.113,6.258-.029.982.063,1.966.034,2.946a1.033,1.033,0,0,1-1.4.979c-.448-.172-.632-.668-.779-1.084-.727-1.825-.295-3.963-1.335-5.679a10.047,10.047,0,0,0-1.514-1.631,6.331,6.331,0,0,1-2.109-2.06,12.468,12.468,0,0,1-1.33-12.555,19.64,19.64,0,0,1-.927-5.31,18.984,18.984,0,0,1,1.035-8.326,13.131,13.131,0,0,1,4.186-5.475,21.013,21.013,0,0,1,2.317-3.188,16.1,16.1,0,0,1,3.656-2.637c2.8-1.553,5.938-2.25,8.942-3.268a48.162,48.162,0,0,0,5.365-2.779,54.224,54.224,0,0,1,8.151-4.243,28.845,28.845,0,0,1,11.056-2,17.887,17.887,0,0,1,8.289,3.135,20.881,20.881,0,0,1,3.4,3.353c.3.313.611.621.94.906.423.163.85.313,1.285.435a18.4,18.4,0,0,0,3.063.208c1.635.036,3.267-.149,4.9-.131a10.61,10.61,0,0,1,3.343.259C1085.885,627.846,1088.247,630.43,1088.849,637.022Z" transform="translate(-1009.564 -617.665)" fill="#5e4343"/>
                </g>
              </g>
              <g id="Group_2279" data-name="Group 2279" transform="translate(53.793 9.344)">
                <g id="Group_2274" data-name="Group 2274" transform="translate(15.538)">
                  <path id="Path_3976" data-name="Path 3976" d="M1097.892,669.625c-1.215-.637.881-2.377,1.448-2.865a5.808,5.808,0,0,1,2.029-1.068,25.7,25.7,0,0,1,5.227-1.388c1.6.056,3.21-.013,4.812.111,2.636.289,5.255.74,7.9.962,1.6,0,3.2.048,4.8-.06a15.775,15.775,0,0,0,7.29-2.361c.964-.7,1.96-1.363,2.873-2.129a.612.612,0,0,1,.753.965c-.481.4-.985.787-1.5,1.144a15.873,15.873,0,0,1-6.76,3.206,31.775,31.775,0,0,1-7.646.448c-2.867-.236-5.7-.783-8.57-1.011-1.37-.017-2.74-.037-4.109-.046a31.341,31.341,0,0,0-5.633,1.694,6.71,6.71,0,0,0-2,1.852C1098.648,669.446,1098.319,669.8,1097.892,669.625Z" transform="translate(-1097.52 -660.698)" fill="#402626"/>
                </g>
                <g id="Group_2275" data-name="Group 2275" transform="translate(45.366 7.95)">
                  <path id="Path_3977" data-name="Path 3977" d="M1257.1,711.2c-3.344-1.472-5.159-4.773-7.3-7.532a15.258,15.258,0,0,0-9.568-4.786,19.009,19.009,0,0,0-4.725-.286.612.612,0,0,1-.024-1.223,16.564,16.564,0,0,1,4.124.187,23.538,23.538,0,0,1,4.056.754,17.756,17.756,0,0,1,7.2,4.724c.837,1.079,1.562,2.194,2.4,3.246a13.224,13.224,0,0,0,2.837,2.933c.52.333,1.064.629,1.609.919A.612.612,0,0,1,1257.1,711.2Z" transform="translate(-1234.888 -697.313)" fill="#402626"/>
                </g>
                <g id="Group_2276" data-name="Group 2276" transform="translate(27.98 7.987)">
                  <path id="Path_3978" data-name="Path 3978" d="M1183.256,709.413a25.95,25.95,0,0,1-13.749-4.678,41.532,41.532,0,0,1-4.481-3.1c-3.032-1.537-6.287-2.949-9.741-2.918a.621.621,0,0,1-.447-.742c.2-.671,1.042-.454,1.573-.448a24.332,24.332,0,0,1,9.371,3.145c1.689,1.428,3.63,2.5,5.444,3.753a26.789,26.789,0,0,0,6.892,2.99,23.5,23.5,0,0,0,5.273.787A.612.612,0,0,1,1183.256,709.413Z" transform="translate(-1154.82 -697.483)" fill="#402626"/>
                </g>
                <g id="Group_2277" data-name="Group 2277" transform="translate(0 19.231)">
                  <path id="Path_3979" data-name="Path 3979" d="M1026.263,757.588a.616.616,0,0,1,.134-1.12,15.425,15.425,0,0,0,1.964-.461,17.383,17.383,0,0,0,7.316-6.425.636.636,0,0,1,1.152.523,19.868,19.868,0,0,1-5.622,5.717,9.8,9.8,0,0,1-3.357,1.591C1027.3,757.483,1026.771,757.786,1026.263,757.588Z" transform="translate(-1025.96 -749.265)" fill="#402626"/>
                </g>
                <g id="Group_2278" data-name="Group 2278" transform="translate(61.962 26.077)">
                  <path id="Path_3980" data-name="Path 3980" d="M1317.852,786.828a14.365,14.365,0,0,1-4.361-2.1,8.879,8.879,0,0,1-1.173-1.471c-.3-.459-.548-.956-.834-1.426a.621.621,0,0,1,.278-1.013c.6-.157.87.53,1.1.952a6.925,6.925,0,0,0,1.849,2.359,21,21,0,0,0,3.212,1.45C1318.874,785.67,1318.813,786.956,1317.852,786.828Z" transform="translate(-1311.321 -780.792)" fill="#402626"/>
                </g>
              </g>
              <g id="Group_2280" data-name="Group 2280" transform="translate(51.46 54.901)">
                <path id="Path_3981" data-name="Path 3981" d="M1018.944,878.131a2.683,2.683,0,0,1-.816-3.288,2.95,2.95,0,0,0,.471-1.365c-.116-.943-1.107-1.957-2.1-1.7-.222.227-.411.545-.793.459-.643-.147-.61-.885-.156-1.243a1.62,1.62,0,0,1,1.49-.456,3.21,3.21,0,0,1,2.552,1.958,2.567,2.567,0,0,1,.09,1.907c-.185.585-.626,1.088-.609,1.731.022.733,1.3,1.185.737,1.938A.616.616,0,0,1,1018.944,878.131Z" transform="translate(-1015.213 -870.508)" fill="#e08057"/>
              </g>
              <g id="Group_2281" data-name="Group 2281" transform="translate(122.016 51.289)">
                <path id="Path_3982" data-name="Path 3982" d="M1340.261,861.039a.616.616,0,0,1,.158-.85c1.884-1.277-.552-3.486,1.307-5.24.733-.776,1.3-1.305,2.423-.974.5.052,1.128.4,1.05.989a.623.623,0,0,1-1.106.25c-.2-.046-.4-.077-.6-.1l-.092-.007c-2.007,1.309-.836,2.232-1.018,4.054C1342.436,859.964,1341.069,862.011,1340.261,861.039Z" transform="translate(-1340.156 -853.874)" fill="#e08057"/>
              </g>
              <g id="Group_2282" data-name="Group 2282" transform="translate(79.224 67.175)">
                <path id="Path_3983" data-name="Path 3983" d="M1160.285,927.136c.889.2,1.9.807,1.894,1.829-.308,2.595-2.765,4.176-4.891,5.3a11.372,11.372,0,0,1-3.157.906,9.01,9.01,0,0,1-3.077.2,11.573,11.573,0,0,1-6.062-2.518,3.734,3.734,0,0,1-1.911-2.7,2.745,2.745,0,0,1,1.854-2.764c1.976-.473,3.948.372,5.919.486a15.083,15.083,0,0,0,3.474-.081c.424-.068.9-.068,1.272-.15.277-.011.64-.1.981-.116A7.882,7.882,0,0,1,1160.285,927.136Z" transform="translate(-1143.081 -927.036)" fill="#fff"/>
              </g>
              <g id="Group_2284" data-name="Group 2284" transform="translate(78.112 89.793)">
                <g id="Group_2283" data-name="Group 2283">
                  <path id="Path_3984" data-name="Path 3984" d="M1157.939,1032.38a30.938,30.938,0,0,1-3.1.583,35.362,35.362,0,0,1-8.1-.195c-1.863-.292-3.744-.622-5.584-1.051a11.1,11.1,0,0,0-1.662-.363c-.492-.072-1.085-.32-1.524.031l0,0a1.392,1.392,0,0,1,.25.406c-.041.391-.077.782-.115,1.173.03.036.06.07.091.1,4.026,3.8,11.381,6.582,16.9,6.725a4.336,4.336,0,0,0,2.822-.333c.005-.017.012-.034.017-.051a34.98,34.98,0,0,0,.361-6.99A.524.524,0,0,0,1157.939,1032.38Z" transform="translate(-1137.96 -1031.202)" fill="#e08057"/>
                </g>
              </g>
              <g id="Group_2289" data-name="Group 2289" transform="translate(43.124 256.412)">
                <g id="Group_2285" data-name="Group 2285" transform="translate(0 0.844)">
                  <path id="Path_3985" data-name="Path 3985" d="M996.759,1807.224a.99.99,0,0,1-.211.6,1.787,1.787,0,0,1-1.8,1.385,9.838,9.838,0,0,1-2.472.257c-2.659-.132-5.323.012-7.985-.106-2.081-.324-4.168-.655-6.252-.936-1.584-.38-1.242-2.358-1.055-3.571.1-.971-.282-2.623,1.247-2.395,1.746.186,3.5.567,5.205.891a26.731,26.731,0,0,0,4.9.924,34.254,34.254,0,0,0,6.748.781c.355.02.629-.211.972-.228a.621.621,0,0,1,.626.6C996.708,1806.025,996.755,1806.623,996.759,1807.224Z" transform="translate(-976.821 -1802.436)" fill="#402626"/>
                </g>
                <g id="Group_2286" data-name="Group 2286" transform="translate(23.242 1.619)">
                  <path id="Path_3986" data-name="Path 3986" d="M1100.681,1808.017c0,1.321.193,3.187-1.465,3.555-1.787.392-3.64.16-5.448.4-2.246.041-4.451.448-6.693.44-1.295-.008-3.14-.549-3.054-2.138a23.893,23.893,0,0,1-.149-2.575c-.064-1.214,3.468-.616,4.31-.773,1.612,0,3.195-.3,4.8-.4a38.731,38.731,0,0,0,5.8-.448C1100.361,1805.744,1100.565,1806.694,1100.681,1808.017Z" transform="translate(-1083.86 -1806.005)" fill="#402626"/>
                </g>
                <g id="Group_2287" data-name="Group 2287" transform="translate(60.432 0.754)">
                  <path id="Path_3987" data-name="Path 3987" d="M1261.166,1802.033c1.2.127,5.291-.536,4.864,1.463-.214,1.224.347,3.629-1.043,4.2a17.067,17.067,0,0,1-2.865.218c-1.909.068-3.822.193-5.733.163-.759.027-1.488-.468-1.177-1.3a15.747,15.747,0,0,0,.519-2.171c.1-.52.195-1.039.314-1.553a.617.617,0,0,1,.579-.767A35.189,35.189,0,0,1,1261.166,1802.033Z" transform="translate(-1255.138 -1802.024)" fill="#402626"/>
                </g>
                <g id="Group_2288" data-name="Group 2288" transform="translate(74.088)">
                  <path id="Path_3988" data-name="Path 3988" d="M1330.5,1798.929c.448.7.172,1.614.151,2.389-.026,1.123.052,3-1.5,3-1.373.1-2.709.413-4.073.581-1.2.137-2.412.087-3.613.221a7.236,7.236,0,0,1-2.8-.007c-.766-.31-.7-1.334-.528-2,.068-.784.147-1.564.2-2.35-.006-.448.092-1.1.66-1.1,1.852-.1,3.687-.508,5.54-.671.7-.082,1.434-.134,2.129-.174C1327.7,1798.825,1329.748,1798.144,1330.5,1798.929Z" transform="translate(-1318.027 -1798.551)" fill="#402626"/>
                </g>
              </g>
              <g id="Group_2290" data-name="Group 2290" transform="translate(68.177 42.439)">
                <path id="Path_3989" data-name="Path 3989" d="M1094.059,816.577c1.5.1,3.007-.175,4.513-.221,1.364-.263,3.12.009,4.1-1.154,1.109-1.977-2.881-2.159-4.056-2.068-1.44.208-2.924.189-4.375.462a2.477,2.477,0,0,0-1.742.75C1091.6,815.475,1092.918,816.572,1094.059,816.577Zm-.53-1.546a.606.606,0,0,0-.018.13l-.054-.042A.255.255,0,0,1,1093.529,815.031Z" transform="translate(-1092.204 -813.116)" fill="#402626"/>
              </g>
              <g id="Group_2291" data-name="Group 2291" transform="translate(97.383 42.401)">
                <path id="Path_3990" data-name="Path 3990" d="M1228.094,815.929a22.487,22.487,0,0,0,4.6.209,11.634,11.634,0,0,0,3.452-.423c1.4-.6,1.627-1.737.078-2.328a8.351,8.351,0,0,0-3.9-.312,7.156,7.156,0,0,0-2.11-.1,7.841,7.841,0,0,0-2.877.442C1226.042,814.158,1226.971,815.623,1228.094,815.929Z" transform="translate(-1226.708 -812.94)" fill="#402626"/>
              </g>
              <g id="Group_2292" data-name="Group 2292" transform="translate(88.872 50.584)">
                <path id="Path_3991" data-name="Path 3991" d="M1188.329,863.713c-.324.331-1.034.692-.639,1.274.592.718,1.323-.244,1.754-.68a4.081,4.081,0,0,0,1.557-3.021,7.488,7.488,0,0,0-1.2-3.447,7.3,7.3,0,0,1-.586-6.42.612.612,0,0,0-1.162-.383,8.542,8.542,0,0,0,.643,7.322C1189.914,860.65,1190.493,861.767,1188.329,863.713Z" transform="translate(-1187.513 -850.624)" fill="#e08057"/>
              </g>
              <g id="Group_2293" data-name="Group 2293" transform="translate(72.878 51.439)">
                <path id="Path_3992" data-name="Path 3992" d="M1118.7,856.965c.252-1.153-.97-2.153-2.021-2.286-.835-.386-1.691.277-2.267.834a2.128,2.128,0,0,0,.987,3.464A2.643,2.643,0,0,0,1118.7,856.965Z" transform="translate(-1113.855 -854.564)" fill="#402626"/>
              </g>
              <g id="Group_2294" data-name="Group 2294" transform="translate(99.417 50.804)">
                <path id="Path_3993" data-name="Path 3993" d="M1239.26,851.893c-.865-.615-2.013,0-2.735.586a2.145,2.145,0,0,0,1.688,3.433c2.053.117,3.532-2.964,1.248-3.836A.613.613,0,0,0,1239.26,851.893Z" transform="translate(-1236.076 -851.638)" fill="#402626"/>
              </g>
              <g id="Group_2295" data-name="Group 2295" transform="translate(136.703 196.49)">
                <path id="Path_3994" data-name="Path 3994" d="M1413.2,1525.045a16.376,16.376,0,0,1-4.316-2.248.628.628,0,0,0-1.036.152c-.282.692.6.973,1.02,1.32a17.212,17.212,0,0,0,3.973,1.946A.612.612,0,0,0,1413.2,1525.045Z" transform="translate(-1407.793 -1522.587)" fill="#e08057"/>
              </g>
              <g id="Group_2296" data-name="Group 2296" transform="translate(85.289 257.397)">
                <path id="Path_3995" data-name="Path 3995" d="M1186.027,1803.092a1.354,1.354,0,0,1,.768.113c.395.237.44.782.439,1.242q0,1.652,0,3.3a2.153,2.153,0,0,1-.212,1.139c-.372.6-1.2.684-1.914.7l-11.865.231a1.809,1.809,0,0,1-1.575-.492,1.778,1.778,0,0,1-.243-.834l-.392-3.314c-.177-1.5.849-1.4,1.991-1.447,1.429-.063,2.858-.141,4.286-.211Z" transform="translate(-1171.01 -1803.086)" fill="#fce6ba"/>
              </g>
              <g id="Group_2316" data-name="Group 2316" transform="translate(31.863 102.105)">
                <g id="Group_2297" data-name="Group 2297" transform="translate(0 54.641)">
                  <path id="Path_3996" data-name="Path 3996" d="M932.523,1355.652a40.793,40.793,0,0,1,1.992-4.465c.822-1.666,1.64-3.33,2.425-5.013a19.108,19.108,0,0,0,1.752-4.739c.194-.683.2-1.837-.741-1.886-.525,0-.82.471-1,.892a21.022,21.022,0,0,0-.99,3.164,15.987,15.987,0,0,1-1.126,3.708c-2.538,5.477-5.421,10.77-7.666,16.387-.521,1.2-1.04,2.4-1.586,3.584-.142.462-.684.93-.407,1.425a5.278,5.278,0,0,0-.107,2.54c.077.539-.147,1.389.479,1.708,2.048.63,1.988-3.053,2.378-4.327.354-1.513,1.324-2.934,1.75-4.444.338-1.252.6-2.522,1.023-3.75A33.688,33.688,0,0,1,932.523,1355.652Z" transform="translate(-924.962 -1339.549)" fill="#96793b"/>
                </g>
                <g id="Group_2298" data-name="Group 2298" transform="translate(11.17 29.461)">
                  <path id="Path_3997" data-name="Path 3997" d="M978.333,1241.816c-.049.532-.413,1.426.341,1.61.863.131.761-.907.873-1.475.066-.447.136-.909.2-1.366.142-1.051.346-2.124.433-3.191.029-1.244-.013-2.492-.07-3.735a23.188,23.188,0,0,0-2.582-9.8.612.612,0,0,0-1.018.68,22.291,22.291,0,0,1,2.368,8.905c.065,1.2.074,2.4.093,3.595-.055,1.117-.27,2.163-.421,3.292C978.479,1240.819,978.4,1241.319,978.333,1241.816Z" transform="translate(-976.405 -1223.583)" fill="#96793b"/>
                </g>
                <g id="Group_2299" data-name="Group 2299" transform="translate(6.532 2.44)">
                  <path id="Path_3998" data-name="Path 3998" d="M956.762,1113.244a7.449,7.449,0,0,0,3.362,1.176c2.234.081,4.261-.946,6.247-1.847,2.143-1.135,4.3-2.241,6.448-3.357,1.528-.6,2.892-1.361,4.421-1.989,1.841-.712,3.75-1.664,4.675-3.508.546-1.124,1.427-2.374,1.027-3.673-.16-.564-.824-1.274-1.36-.69a.621.621,0,0,0,.073.861.7.7,0,0,1,.163.349,1.685,1.685,0,0,1-.153.847,9,9,0,0,1-1.6,2.793c-1.147,1.185-2.81,1.648-4.284,2.314-.637.284-1.25.619-1.884.908-3.479,1.414-6.628,3.515-10.1,4.951-3.621,1.527-4.68.763-7.887-.943a.617.617,0,0,0-.811.3C954.747,1112.622,956.229,1112.833,956.762,1113.244Z" transform="translate(-955.047 -1099.138)" fill="#96793b"/>
                </g>
                <g id="Group_2300" data-name="Group 2300" transform="translate(74.253 4.448)">
                  <path id="Path_3999" data-name="Path 3999" d="M1295.564,1122.082a.611.611,0,0,0-1.2-.154c-.955,1.508-2.26,2.647-4.069,1.656-2.016-1.016-4.016-2.078-6.119-2.916-2.628-1.335-5.21-2.756-7.9-3.969-2.344-1.113-4.806-2.088-6.774-3.861a4.629,4.629,0,0,1-1.339-1.895c-.022-.529.014-1.059.026-1.588a.612.612,0,0,0-.983-.728,1.746,1.746,0,0,0-.253,1.169,10.136,10.136,0,0,0,0,1.282,5.406,5.406,0,0,0,1.112,2.058c2.741,2.835,6.58,4.011,10.023,5.769,2.754,1.4,5.46,2.893,8.32,4.07,1.636.736,3.149,1.91,4.949,2.186a3.365,3.365,0,0,0,2.613-.881,8.675,8.675,0,0,0,1.166-1.309A1.591,1.591,0,0,0,1295.564,1122.082Z" transform="translate(-1266.929 -1108.386)" fill="#96793b"/>
                </g>
                <g id="Group_2301" data-name="Group 2301" transform="translate(102.346 34.584)">
                  <path id="Path_4000" data-name="Path 4000" d="M1398.992,1259.335a2.712,2.712,0,0,0,.168-1.644,26.215,26.215,0,0,1-.177-5.253c.259-1.466.882-2.976.537-4.473a1.012,1.012,0,0,0-1.038-.787c-.725.026-1.106.746-1.264,1.37-.561,2.325.091,4.707.326,7.034.063.913.085,1.866.167,2.787a121.81,121.81,0,0,1,.1,13.54c-.246,2.558-.351,5.29-.529,7.88a73.387,73.387,0,0,0-.587,7.749c-.092,1.737-.188,3.57-.285,5.337-.1,1.9.155,3.792.051,5.693-.024.853-.033,1.707-.072,2.558-.007.391-.25.843.15,1.13,1.2.6,1.073-1.2,1.1-1.923.031-1.361.094-2.721.054-4.083a53.735,53.735,0,0,1,.122-6.854c.121-1.716.151-3.444.232-5.23.161-1.913.473-3.811.561-5.732.071-2.921.463-5.869.52-8.8C1399.272,1266.2,1399.109,1262.765,1398.992,1259.335Z" transform="translate(-1396.308 -1247.176)" fill="#96793b"/>
                </g>
                <g id="Group_2302" data-name="Group 2302" transform="translate(5.069 120.148)">
                  <path id="Path_4001" data-name="Path 4001" d="M1042.261,1674.473c-2.109.958-4.466,1.021-6.749,1.178-1.475,0-2.937.154-4.426.08a43.531,43.531,0,0,0-6.219-.115,56.736,56.736,0,0,1-8.318.077c-1.91-.027-3.811.066-5.722.138-1.517.078-3.019.15-4.516.221.368-.536.269-1.563.386-2.129.11-1.027.209-2.054.313-3.082a64.724,64.724,0,0,0,.028-11.314c-.167-1.181-.306-2.362-.38-3.552-.167-1.539-.536-3.05-.639-4.594a24.233,24.233,0,0,1,2.592-1.238,18.2,18.2,0,0,0,2.743-1.585,19.929,19.929,0,0,0,2.684-1.977,42.94,42.94,0,0,0,4.679-3.184,2.508,2.508,0,0,0,.765-1.171c.166-.965-.976-1.231-1.638-.768a4.419,4.419,0,0,0-1.565,1.7c-.54.655-1.4,1.033-1.878,1.74a22.842,22.842,0,0,0-2.724,2.008c-.925.595-1.872,1.176-2.8,1.777a36.7,36.7,0,0,0-3.632,1.732,43.12,43.12,0,0,1-4.123,1.831c-1.573.522-3.1,1.162-4.652,1.74-.726.255-1.45.517-2.183.754a.612.612,0,0,0,.37,1.166c1.284-.414,2.555-.878,3.809-1.375,1.531-.627,3.159-1.12,4.677-1.8a15.824,15.824,0,0,0,1.693-.738c.147,1.471.5,2.923.624,4.4.058,1.212.259,2.411.393,3.614a78.25,78.25,0,0,1,.069,9.5c-.219,1.929-.37,3.868-.617,5.792a.746.746,0,0,0-.083.809c-5.217.244-10.366.476-15.7.859-4.522-.088-9.012.634-13.506,1.019-2.977.059-5.96-.527-8.946-.677-1.675-.1-3.447-.308-5.141-.415a40.162,40.162,0,0,0-4.818-.448c-1.044-.024-2.091-.068-3.135-.079a9.751,9.751,0,0,1-4.234-.358.761.761,0,0,1-.4-.258.617.617,0,0,0-.865-.021c-1.018,1.5,2.707,1.955,3.882,1.927a63.731,63.731,0,0,1,6.68.11c4.561.588,9.186.809,13.776,1.3a23.058,23.058,0,0,0,6.287-.163c1.747-.207,3.5-.33,5.255-.509a44,44,0,0,1,5.063-.2c2.49-.172,4.988-.238,7.471-.491,6.387-.242,12.769-.673,19.18-.787a66.7,66.7,0,0,0,9.741-.134c2.192-.069,4.379.2,6.569.193,1.929-.067,3.858-.078,5.777-.3a12.5,12.5,0,0,0,4.021-.854c.472-.1,1.061-.412.864-.982A.615.615,0,0,0,1042.261,1674.473Z" transform="translate(-948.309 -1641.237)" fill="#96793b"/>
                </g>
                <g id="Group_2303" data-name="Group 2303" transform="translate(61.178 162.822)">
                  <path id="Path_4002" data-name="Path 4002" d="M1208.015,1846.4a76.791,76.791,0,0,1,.066-7.882.611.611,0,0,0-1.186-.3,74.609,74.609,0,0,0-.1,8.6c.005,1.291-.046,2.582-.084,3.871h1.238C1207.977,1849.264,1208.014,1847.832,1208.015,1846.4Z" transform="translate(-1206.711 -1837.767)" fill="#96793b"/>
                </g>
                <g id="Group_2304" data-name="Group 2304" transform="translate(57.545 135.773)">
                  <path id="Path_4003" data-name="Path 4003" d="M1192.757,1713.843c-.1-.638-1.029-.76-1.538-.56-1.506.446-1.755,2.862-.078,3.238A1.731,1.731,0,0,0,1192.757,1713.843Z" transform="translate(-1189.983 -1713.195)" fill="#96793b"/>
                </g>
                <g id="Group_2305" data-name="Group 2305" transform="translate(55.994 88.104)">
                  <path id="Path_4004" data-name="Path 4004" d="M1185.613,1494.309c-.1-.638-1.029-.76-1.538-.56-1.506.446-1.755,2.863-.078,3.238A1.731,1.731,0,0,0,1185.613,1494.309Z" transform="translate(-1182.839 -1493.661)" fill="#96793b"/>
                </g>
                <g id="Group_2306" data-name="Group 2306" transform="translate(55.994 47.636)">
                  <path id="Path_4005" data-name="Path 4005" d="M1185.613,1307.935c-.1-.638-1.029-.76-1.538-.559-1.506.446-1.755,2.862-.078,3.238A1.731,1.731,0,0,0,1185.613,1307.935Z" transform="translate(-1182.839 -1307.287)" fill="#96793b"/>
                </g>
                <g id="Group_2307" data-name="Group 2307" transform="translate(33.489 55.158)">
                  <path id="Path_4006" data-name="Path 4006" d="M1080.548,1346.575c2.827,1.243,5.557-3.055,2.34-4.4C1080.282,1340.829,1077.453,1345.41,1080.548,1346.575Z" transform="translate(-1079.194 -1341.927)" fill="#96793b"/>
                </g>
                <g id="Group_2308" data-name="Group 2308" transform="translate(22.26 46.455)">
                  <path id="Path_4007" data-name="Path 4007" d="M1028.105,1317.85a72.783,72.783,0,0,0,.69,8.953,13.964,13.964,0,0,0,.9,3.862c2.505,3.417,7.052,4.176,11.034,4.3,1.134.009,2.26-.119,3.4-.086a27.792,27.792,0,0,0,5.963-1.153c2.433-.724,5.411-1.654,6-4.479a14.289,14.289,0,0,0,.272-4.554c-.091-2.62-.258-5.24-.125-7.863a9.711,9.711,0,0,0-.083-.978c.017-.415-.044-.923-.553-.982a.614.614,0,0,0-.675.54,20.542,20.542,0,0,1,.024,3.207c.019,1.918.1,3.833.178,5.75.131,2.992.423,6.283-3.052,7.38a29.432,29.432,0,0,1-7.538,1.88c-1.415.024-2.826.127-4.241.1-2.814-.162-5.768-.55-8.093-2.275a4.051,4.051,0,0,1-1.977-3.4,92.4,92.4,0,0,1-1.01-13.615l.149.086a12.806,12.806,0,0,0,3.047,1.229c1.59.654,3.251,1.316,4.859,1.949a11.434,11.434,0,0,0,4.523,1.127c3.424-.029,6.108-2.4,9.011-3.9,3.436-1.919,5.607-1.688,5.584-6.364-.049-5.289.236-5.546-5.187-6.035-.4-.031-.792.01-1.187.007-.438-.1-1.047-.068-1.108.494a.615.615,0,0,0,.541.676,30.3,30.3,0,0,1,3.6.279c1.268.13,2.052.1,2.045,1.622,0,1.911.421,4.014-.5,5.777a5.572,5.572,0,0,1-2.119,1.325c-.864.441-1.722.893-2.592,1.322-1.606.831-3.064,1.989-4.748,2.692a7.243,7.243,0,0,1-6.46.218c-2.041-.792-4.065-1.641-6.109-2.42a10.166,10.166,0,0,1-3.355-1.555.756.756,0,0,0-.324-.354c-.447-1.473-.025-3.118-.02-4.646.027-1.507.549-3.436,2.311-3.609.137-.026.327-.08.485-.107,2.514-.511,5.1-.534,7.637-.881l2.549-.305a.612.612,0,1,0-.186-1.21l-2.493.3c-1.677.257-3.37.312-5.058.463-.978.209-1.971.26-2.946.492a4.349,4.349,0,0,0-1.967.786c-1.872,1.664-1.475,4.405-1.721,6.66a8.409,8.409,0,0,0,.241,2.526,1.859,1.859,0,0,0,.223.366c-.011.41.069.867.045,1.194Q1028.045,1316.246,1028.105,1317.85Z" transform="translate(-1027.479 -1301.849)" fill="#96793b"/>
                </g>
                <g id="Group_2309" data-name="Group 2309" transform="translate(69.966 46.455)">
                  <path id="Path_4008" data-name="Path 4008" d="M1247.209,1308.565c-.023,4.675,2.148,4.444,5.583,6.364,2.9,1.5,5.588,3.872,9.011,3.9a11.437,11.437,0,0,0,4.523-1.127c1.608-.633,3.269-1.3,4.859-1.949a12.811,12.811,0,0,0,3.047-1.229l.149-.086a92.4,92.4,0,0,1-1.01,13.615,4.052,4.052,0,0,1-1.976,3.4c-2.325,1.725-5.279,2.112-8.093,2.275-1.415.022-2.826-.081-4.242-.1a29.433,29.433,0,0,1-7.538-1.88c-3.474-1.1-3.182-4.388-3.051-7.38.076-1.917.159-3.832.178-5.75a20.572,20.572,0,0,1,.024-3.207.614.614,0,0,0-.675-.54c-.509.059-.57.567-.553.982a9.783,9.783,0,0,0-.083.978c.133,2.622-.033,5.242-.125,7.863a14.279,14.279,0,0,0,.273,4.554c.591,2.824,3.569,3.755,6,4.479a27.8,27.8,0,0,0,5.963,1.153c1.136-.033,2.262.095,3.4.086,3.982-.122,8.528-.882,11.033-4.3a13.956,13.956,0,0,0,.9-3.862,72.807,72.807,0,0,0,.69-8.953q.058-1.6.114-3.209c-.025-.327.056-.784.044-1.194a1.861,1.861,0,0,0,.224-.366,8.421,8.421,0,0,0,.241-2.526c-.246-2.255.151-5-1.721-6.66a4.347,4.347,0,0,0-1.967-.786c-.975-.232-1.968-.283-2.946-.492-1.688-.151-3.382-.206-5.058-.463l-2.493-.3a.612.612,0,1,0-.186,1.21l2.549.305c2.54.347,5.123.37,7.637.881.158.027.348.081.485.107,1.762.173,2.284,2.1,2.311,3.609,0,1.528.427,3.173-.021,4.646a.756.756,0,0,0-.323.354,10.167,10.167,0,0,1-3.355,1.555c-2.044.778-4.068,1.627-6.109,2.42a7.243,7.243,0,0,1-6.46-.218c-1.684-.7-3.141-1.861-4.748-2.692-.87-.429-1.728-.881-2.592-1.322a5.574,5.574,0,0,1-2.119-1.325c-.92-1.763-.5-3.865-.5-5.777-.007-1.517.777-1.492,2.045-1.622a30.3,30.3,0,0,1,3.6-.279.616.616,0,0,0,.542-.676c-.062-.562-.67-.589-1.108-.494-.4,0-.792-.038-1.188-.007C1246.973,1303.019,1247.259,1303.276,1247.209,1308.565Z" transform="translate(-1247.186 -1301.849)" fill="#96793b"/>
                </g>
                <g id="Group_2310" data-name="Group 2310" transform="translate(82.525 55.158)">
                  <path id="Path_4009" data-name="Path 4009" d="M1308.819,1346.575c3.095-1.164.265-5.745-2.34-4.4C1303.261,1343.52,1305.991,1347.818,1308.819,1346.575Z" transform="translate(-1305.025 -1341.927)" fill="#96793b"/>
                </g>
                <g id="Group_2311" data-name="Group 2311" transform="translate(24.559 37.904)">
                  <path id="Path_4010" data-name="Path 4010" d="M1053.951,1267.67c1.094.061,2.189.047,3.282.093a8.483,8.483,0,0,0,3.811-.273c1.53-.673,1.68-2.82.894-4.112-.7-.755-1.892-.534-2.828-.548a43.59,43.59,0,0,1-4.5.141c-1.2-.089-2.482-.244-3.695-.278-1.482-.006-2.965.065-4.445-.014a34.623,34.623,0,0,0-4.9-.159c-.361.01-.712-.136-1.057.016a4.248,4.248,0,0,0-1.011.117c-1.416.525-1.644,2.487-1.267,3.766a2.714,2.714,0,0,0,2.421,1.549c2.531-.088,4.983.06,7.464-.063C1050.066,1267.963,1052,1267.5,1053.951,1267.67Z" transform="translate(-1038.066 -1262.466)" fill="#96793b"/>
                </g>
                <g id="Group_2312" data-name="Group 2312" transform="translate(58.838 9.161)">
                  <path id="Path_4011" data-name="Path 4011" d="M1200.22,1245.195c-.065-1.231-.14-2.462-.209-3.693-.193-3.745-.279-7.485-.312-11.253-.422-7.1-.484-14.225-.54-21.342,0-1.915-.1-3.823-.188-5.735-.039-3.109,0-6.261-.005-9.377-.093-4.659,0-9.318-.027-13.978a158.184,158.184,0,0,1,.137-16.538c.079-2.192-.183-4.372-.291-6.557-.047-2.625.078-5.253,0-7.876a115.675,115.675,0,0,0-.67-11.592,42.464,42.464,0,0,0-.656-5.709c-.1-.437-.221-.873-.333-1.31a.8.8,0,0,0-.3-.13.915.915,0,0,0-.884.428c.015.058.029.116.045.174a39.5,39.5,0,0,1,1,7.976c.779,6.017.56,12.089.589,18.14a55.672,55.672,0,0,1,.194,8.3c-.191,4.662-.329,9.334-.059,14,.049,5.412-.042,10.823.048,16.235-.026,3.65-.076,7.3.146,10.946.118,6.4.061,12.825.368,19.228.247,5.544.264,11.1.561,16.64.047,1.356.23,2.715.17,4.07a.612.612,0,0,0,1.133.459A4.142,4.142,0,0,0,1200.22,1245.195Z" transform="translate(-1195.938 -1130.092)" fill="#96793b"/>
                </g>
                <g id="Group_2313" data-name="Group 2313" transform="translate(60.23 9.531)">
                  <path id="Path_4012" data-name="Path 4012" d="M1202.347,1131.8h.02" transform="translate(-1202.347 -1131.799)" fill="none"/>
                </g>
                <g id="Group_2314" data-name="Group 2314" transform="translate(61.776 1.863)">
                  <path id="Path_4013" data-name="Path 4013" d="M1218.518,1096.483a.615.615,0,0,0-.631.591,3.072,3.072,0,0,1-.092.524c-.433,1.489-1.035,2.923-1.584,4.374a6.127,6.127,0,0,1-1.469,2.507c-.992.88-1.865-.24-2.483-.984a12.966,12.966,0,0,1-1.271-2.929,5.091,5.091,0,0,0-.921-1.374.559.559,0,0,0-.469.2.8.8,0,0,0-.13.453,2.29,2.29,0,0,0,.061.627A17.808,17.808,0,0,1,1210.6,1103a5.729,5.729,0,0,0,2.573,2.9c2.562.78,3.715-2.219,4.415-4.139.329-.834.668-1.663.939-2.519C1218.742,1098.555,1219.727,1096.647,1218.518,1096.483Z" transform="translate(-1209.466 -1096.482)" fill="#96793b"/>
                </g>
                <g id="Group_2315" data-name="Group 2315" transform="translate(39.482)">
                  <path id="Path_4014" data-name="Path 4014" d="M1123.143,1093.083a.71.71,0,0,0-.418-.361c-1.021,1.249-1.96,2.536-2.9,3.876-1.129,1.248-1.722,3.188-3.52,3.634-1.254.528-2.037-.512-2.442-1.571a35.2,35.2,0,0,0-1.7-3.314c-.911-1.442-1.767-2.918-2.754-4.311-.422-.7-1.27-1.458-1.363-2.27a.612.612,0,0,0-1.11-.514c-.419.822.21,1.631.624,2.316a58.15,58.15,0,0,1,4.474,7.082c.694,1.327,1.1,3.028,2.562,3.742,1.736.66,3.69-.5,4.689-1.911.758-1.2,1.639-2.314,2.462-3.473.45-.62.984-1.322,1.487-1.952A1.351,1.351,0,0,0,1123.143,1093.083Z" transform="translate(-1106.792 -1087.903)" fill="#96793b"/>
                </g>
              </g>
              <g id="Group_2317" data-name="Group 2317" transform="translate(140.988 60.817)">
                <path id="Path_4015" data-name="Path 4015" d="M1435.164,913.336s4.409-13.9,3.565-14.962-4.45-.8-6.046,1.1c-.717.851-5.152,9.05-5.152,9.05Z" transform="translate(-1427.531 -897.755)" fill="#ffc28f"/>
              </g>
              <g id="Group_2318" data-name="Group 2318" transform="translate(124.639 67.353)">
                <path id="Path_4016" data-name="Path 4016" d="M1378.716,969.89l14.291,74.3a20.963,20.963,0,0,1-6.292,18.7h0a21.281,21.281,0,0,1-24.666,3.411h0a14.208,14.208,0,0,1-7.538-13.171c-.023.355,9.08-92.347,5.451-94.169-2.97-1.491-2.892-5.963-2.892-5.963-7.685-3.043-2.328-5.977-4.116-9.483-1.98-3.881.753-10.588.788-11.649.092-2.837,8.634-4.457,13.407-3.91,2.08.238,10.115,4.319,10.522,6.867.343,2.142,3.156,5.069.748,15.888-.242,1.089-1.216,7.156-1,8.25l1.3,10.926" transform="translate(-1352.234 -927.854)" fill="#ffc28f"/>
              </g>
              <g id="Group_2319" data-name="Group 2319" transform="translate(128.584 91.631)">
                <path id="Path_4017" data-name="Path 4017" d="M1376.857,1047.945c-2.044,0-3.4-.549-4.046-1.643-.732-.484-2.637-2.11-2.382-5.827a.868.868,0,1,1,1.733.118c-.228,3.336,1.666,4.3,1.685,4.309l.279.136.13.283c.78,1.7,6.363.653,9.891-.59a.869.869,0,0,1,.578,1.638,34.646,34.646,0,0,1-5.075,1.31A16.846,16.846,0,0,1,1376.857,1047.945Z" transform="translate(-1370.405 -1039.666)" fill="#e08057"/>
              </g>
              <g id="Group_2320" data-name="Group 2320" transform="translate(141.746 59.162)">
                <path id="Path_4018" data-name="Path 4018" d="M1438.848,905.126a.869.869,0,0,1-.818-1.159c1.225-3.457,3.01-9.6,2.586-11.357-.155-.641-.853-.731-1.146-.74-2.046-.067-5.037,2.4-6.752,7.964a.869.869,0,0,1-1.66-.512,16.826,16.826,0,0,1,3.945-7.076,6.434,6.434,0,0,1,4.521-2.112,2.769,2.769,0,0,1,2.78,2.069c.685,2.838-2.3,11.38-2.637,12.344A.869.869,0,0,1,1438.848,905.126Z" transform="translate(-1431.019 -890.132)" fill="#e08057"/>
              </g>
              <g id="Group_2321" data-name="Group 2321" transform="translate(148.612 59.442)">
                <path id="Path_4019" data-name="Path 4019" d="M1464.2,898.053a.869.869,0,0,1-.838-.644,3.5,3.5,0,0,0-.231-.569c-.521-1.1-.86-2.235.271-4.889a.868.868,0,1,1,1.6.681c-.917,2.153-.63,2.762-.3,3.467a5.015,5.015,0,0,1,.338.861.869.869,0,0,1-.84,1.093Z" transform="translate(-1462.642 -891.422)" fill="#e08057"/>
              </g>
              <g id="Group_2322" data-name="Group 2322" transform="translate(124.761 66.587)">
                <path id="Path_4020" data-name="Path 4020" d="M1358.28,935.984a10.226,10.226,0,0,1-5.049-1.1l-.395-.24-.021-.461c-.047-1.018-.172-6.172,2-7.611.346-.23,1.4-.928,6.133-1.6,2.45-.348,5.084-.57,6.606-.635,3.093-.14,7.975,3.664,8.521,4.1a.869.869,0,0,1-1.08,1.361c-1.344-1.066-5.292-3.811-7.366-3.723-6.348.273-11.021,1.4-11.853,1.949-.913.606-1.26,3.5-1.236,5.57a12.039,12.039,0,0,0,7.495.168.869.869,0,1,1,.426,1.684A17.016,17.016,0,0,1,1358.28,935.984Z" transform="translate(-1352.796 -924.327)" fill="#e08057"/>
              </g>
              <g id="Group_2323" data-name="Group 2323" transform="translate(123.279 75.53)">
                <path id="Path_4021" data-name="Path 4021" d="M1351.456,976.714c-1.671,0-3.142-.229-3.772-.922a6.946,6.946,0,0,1-1.453-6.588,11.524,11.524,0,0,1,1.383-3.3.868.868,0,1,1,1.452.953,9.92,9.92,0,0,0-1.157,2.8,5.2,5.2,0,0,0,1.062,4.966c.554.558,4.441.432,8.317-.271a.868.868,0,0,1,.31,1.709A37.469,37.469,0,0,1,1351.456,976.714Z" transform="translate(-1345.971 -965.513)" fill="#e08057"/>
              </g>
              <g id="Group_2324" data-name="Group 2324" transform="translate(124.399 84.357)">
                <path id="Path_4022" data-name="Path 4022" d="M1358.011,1015.226c-.58,0-1.2-.016-1.855-.053a5,5,0,0,1-4.073-2.011c-1.721-2.469-.6-6.227-.547-6.386a.868.868,0,0,1,1.661.509c-.018.061-.918,3.125.314,4.887a3.326,3.326,0,0,0,2.742,1.266c5.589.311,8.076-.929,8.1-.942a.869.869,0,0,1,.81,1.537C1365.061,1014.088,1362.855,1015.226,1358.011,1015.226Z" transform="translate(-1351.13 -1006.163)" fill="#e08057"/>
              </g>
              <g id="Group_2325" data-name="Group 2325" transform="translate(131.322 98.818)">
                <path id="Path_4023" data-name="Path 4023" d="M1383.883,1104.574l-.071,0a.869.869,0,0,1-.8-.936c.764-9.438,1.323-29.821,1.328-30.026a.868.868,0,0,1,.868-.845h.024a.868.868,0,0,1,.845.892c-.005.205-.565,20.635-1.333,30.12A.868.868,0,0,1,1383.883,1104.574Z" transform="translate(-1383.014 -1072.764)" fill="#e08057"/>
              </g>
              <g id="Group_2326" data-name="Group 2326" transform="translate(13.407 63.349)">
                <path id="Path_4024" data-name="Path 4024" d="M843.635,925s-4.409-13.9-3.565-14.962,4.449-.8,6.046,1.1c.717.851,5.152,9.05,5.152,9.05Z" transform="translate(-839.963 -909.416)" fill="#ffc28f"/>
              </g>
              <g id="Group_2327" data-name="Group 2327" transform="translate(0 69.885)">
                <path id="Path_4025" data-name="Path 4025" d="M792.8,981.552l-14.291,74.3a20.964,20.964,0,0,0,6.292,18.7h0a21.281,21.281,0,0,0,24.666,3.411h0A14.207,14.207,0,0,0,817,1064.795c.023.355-9.08-92.347-5.451-94.169,2.97-1.491,2.892-5.963,2.892-5.963,7.685-3.043,2.327-5.977,4.116-9.483,1.98-3.881-.753-10.588-.788-11.649-.092-2.837-8.633-4.457-13.407-3.91-2.08.238-10.115,4.319-10.522,6.867-.343,2.142-3.155,5.069-.748,15.888.243,1.089,1.217,7.156,1,8.25l-1.3,10.925" transform="translate(-778.219 -939.516)" fill="#ffc28f"/>
              </g>
              <g id="Group_2328" data-name="Group 2328" transform="translate(22.217 94.164)">
                <path id="Path_4026" data-name="Path 4026" d="M888.986,1059.607a16.832,16.832,0,0,1-2.793-.265,34.608,34.608,0,0,1-5.075-1.31.869.869,0,0,1,.578-1.638c3.528,1.243,9.111,2.29,9.891.59l.13-.283.279-.136c.068-.036,1.909-1.036,1.685-4.308a.869.869,0,0,1,1.733-.119c.254,3.717-1.65,5.344-2.383,5.827C892.386,1059.058,891.031,1059.607,888.986,1059.607Z" transform="translate(-880.539 -1051.328)" fill="#e08057"/>
              </g>
              <g id="Group_2329" data-name="Group 2329" transform="translate(12.568 61.695)">
                <path id="Path_4027" data-name="Path 4027" d="M839.658,916.789a.869.869,0,0,1-.819-.579c-.342-.965-3.322-9.507-2.637-12.344a2.769,2.769,0,0,1,2.78-2.069,6.438,6.438,0,0,1,4.522,2.112,16.829,16.829,0,0,1,3.945,7.076.868.868,0,0,1-1.66.512c-1.715-5.563-4.7-8.023-6.752-7.964-.293.009-.991.1-1.145.74-.425,1.76,1.361,7.9,2.586,11.356a.869.869,0,0,1-.819,1.159Z" transform="translate(-836.1 -901.795)" fill="#e08057"/>
              </g>
              <g id="Group_2330" data-name="Group 2330" transform="translate(14.665 61.975)">
                <path id="Path_4028" data-name="Path 4028" d="M846.628,909.715a.87.87,0,0,1-.84-1.093,5,5,0,0,1,.338-.861c.332-.705.62-1.314-.3-3.467a.869.869,0,1,1,1.6-.681c1.131,2.654.792,3.785.271,4.889a3.458,3.458,0,0,0-.231.569A.87.87,0,0,1,846.628,909.715Z" transform="translate(-845.759 -903.085)" fill="#e08057"/>
              </g>
              <g id="Group_2331" data-name="Group 2331" transform="translate(17.335 69.12)">
                <path id="Path_4029" data-name="Path 4029" d="M876.176,947.647A17.019,17.019,0,0,1,872,947.1a.869.869,0,0,1,.426-1.684,12.036,12.036,0,0,0,7.5-.168c.024-2.067-.323-4.964-1.236-5.57-.322-.214-1.495-.772-5.417-1.329-2.392-.34-4.956-.556-6.437-.62-2.081-.085-6.024,2.657-7.366,3.723a.869.869,0,0,1-1.08-1.361c.546-.433,5.428-4.229,8.521-4.1,1.523.065,4.156.287,6.607.635,4.734.673,5.787,1.372,6.133,1.6,2.168,1.439,2.043,6.593,2,7.611l-.021.461-.394.24A10.226,10.226,0,0,1,876.176,947.647Z" transform="translate(-858.056 -935.99)" fill="#e08057"/>
              </g>
              <g id="Group_2332" data-name="Group 2332" transform="translate(30.081 78.062)">
                <path id="Path_4030" data-name="Path 4030" d="M923.807,988.37c-.614,0-1.334-.031-2.181-.1-2.135-.179-4.075-.528-4.157-.543a.868.868,0,1,1,.31-1.709c3.877.7,7.764.828,8.318.27,2.869-3.161-.066-7.72-.1-7.765a.869.869,0,0,1,1.452-.953,11.538,11.538,0,0,1,1.382,3.3,6.946,6.946,0,0,1-1.453,6.588C926.977,987.9,926.19,988.37,923.807,988.37Z" transform="translate(-916.755 -977.175)" fill="#e08057"/>
              </g>
              <g id="Group_2333" data-name="Group 2333" transform="translate(26.807 86.89)">
                <path id="Path_4031" data-name="Path 4031" d="M909.29,1026.891c-4.844,0-7.049-1.138-7.151-1.192a.868.868,0,1,1,.815-1.534c.019.01,2.507,1.25,8.095.939a3.326,3.326,0,0,0,2.743-1.266c1.238-1.77.323-4.857.313-4.888a.869.869,0,0,1,1.661-.508c.049.159,1.174,3.917-.547,6.386a5,5,0,0,1-4.074,2.011C910.489,1026.875,909.871,1026.891,909.29,1026.891Z" transform="translate(-901.678 -1017.828)" fill="#e08057"/>
              </g>
              <g id="Group_2334" data-name="Group 2334" transform="translate(31.31 101.35)">
                <path id="Path_4032" data-name="Path 4032" d="M924.614,1116.234a.868.868,0,0,1-.865-.8c-.768-9.485-1.328-29.914-1.334-30.12a.869.869,0,0,1,1.736-.047c.005.2.564,20.588,1.328,30.026a.869.869,0,0,1-.8.936C924.661,1116.234,924.638,1116.234,924.614,1116.234Z" transform="translate(-922.415 -1084.424)" fill="#e08057"/>
              </g>
            </g>
            <g id="Group_2390" data-name="Group 2390" transform="translate(184.766 9.447)">
              <g id="Group_2339" data-name="Group 2339" transform="translate(6.33 83.156)">
                <g id="Group_2336" data-name="Group 2336" transform="translate(25.127 101.526)">
                  <path id="Path_4033" data-name="Path 4033" d="M1774.021,1511.713l.011.019Z" transform="translate(-1774.021 -1511.713)" fill="#d9b978"/>
                </g>
                <g id="Group_2337" data-name="Group 2337">
                  <path id="Path_4034" data-name="Path 4034" d="M1658.3,1123.912c1.771,1.468,3.871,2.45,5.658,3.89,1.024.692,1.973,1.476,2.925,2.261a1.379,1.379,0,0,0,1.5.176,17.653,17.653,0,0,1,1.915,1.325c.957.944,1.98.031,2.712-.7a21.061,21.061,0,0,0,1.926-1.9c1.158-1.168,2.35-2.3,3.526-3.454a51.457,51.457,0,0,1,1.509,5.478c.333,2.074.965,4.116,1.341,6.185a49.01,49.01,0,0,0,1.109,5.45c.122.724.163,1.462.337,2.178.168.6.374,1.179.575,1.763a.192.192,0,0,1-.022.015.56.56,0,0,1-.082.043c.18.59.353,1.181.513,1.777a52.092,52.092,0,0,1,1.954,8.69,67.538,67.538,0,0,1,1.133,9.084c.148,6.471-.375,12.929-.844,19.377-.189,2.493-.568,4.963-1,7.424-.49,3.067-.7,6.183-1.491,9.2-.633,2.936-1.174,5.892-1.723,8.85-.354,1.688-.457,3.414-.856,5.094-.234,1.071-.305,2.165-.443,3.251a1.622,1.622,0,0,0,.99,2.1c.233.128.463.261.695.393a28.7,28.7,0,0,0-.008,4.3c.077.622.16,1.244.253,1.864a.6.6,0,0,0,.158.788,1.788,1.788,0,0,0,1.291.413c.44.024.924.067,1.374.1,2.064.214,4.13.474,6.207.512.724.019,1.448,0,2.17-.031l.242.038,6.727-.187c1.615-.02,3.23-.075,4.845-.136l70.172-1.96-.706-18.164h0c.014-1.23-.006-2.461-.079-3.688-.352-5.352-1.329-10.634-2.1-15.936-.576-3.756-1.341-7.48-1.879-11.244-.564-4.262-1.225-8.507-1.956-12.743q.811-4.4,1.622-8.793c.722-4.181,1.665-8.334,2.088-12.559.5-6.706.846-13.443,1.582-20.13a1.06,1.06,0,0,0,.792-.1,5.36,5.36,0,0,0,1.838-.223,2.514,2.514,0,0,0,.921-.391l0,0a.509.509,0,0,0,.162-.161l0,0a.753.753,0,0,0,.159-.543c.03-.259.027-.537.054-.752q.14-2.249.175-4.506c.023-4.264.094-8.529.031-12.793-.026-3.046-.12-6.091-.1-9.14.033-1.548-.257-2.984-.311-4.541a51.543,51.543,0,0,0-1.249-7.286,39.242,39.242,0,0,0-2.149-6.844,17.546,17.546,0,0,0-2.594-4.635,15.91,15.91,0,0,0-3.487-3.7,14.211,14.211,0,0,0-3.075-1.831,1.408,1.408,0,0,0-.486-.253,1.519,1.519,0,0,0-.44-.163h0c-1.449-.556-2.929-.992-4.336-1.665-1.044-.563-2.165-1.2-3.261-1.712-1.231-.677-2.413-1.44-3.655-2.1a30.215,30.215,0,0,0-3.261-1.549c-1.28-.575-2.474-1.314-3.715-1.962-1.078-.533-2.165-1.056-3.215-1.645-3.193-1.658-6.489-3.134-9.131-5.687-.947-.86-1.933-1.677-2.919-2.494a10.69,10.69,0,0,0-9.262-3.444,26.716,26.716,0,0,0-9.29,1.413c-.164.051-.329.1-.492.161a.593.593,0,0,0-.752-.339,21.46,21.46,0,0,0-2.245,1.373c-2.236,1.575-3.721,3.92-5.512,5.941a20.68,20.68,0,0,1-3.439,2.934c-1.374.862-2.885,1.5-4.313,2.271-2.369,1.46-4.747,2.9-7.18,4.248-2.453,1.564-4.807,3.059-7.325,4.564-2.062,1.232-3.973,2.694-6.017,3.955a24.709,24.709,0,0,0-3.519,2.349,23.871,23.871,0,0,0-2.728,3.812c-1.009,1.4-1.916,2.861-2.83,4.321" transform="translate(-1658.301 -1044.141)" fill="#d9b978"/>
                </g>
                <g id="Group_2338" data-name="Group 2338" transform="translate(0 79.771)">
                  <path id="Path_4035" data-name="Path 4035" d="M1658.3,1411.519" transform="translate(-1658.301 -1411.519)" fill="#d9b978"/>
                </g>
              </g>
              <g id="Group_2340" data-name="Group 2340" transform="translate(32.513 10.092)">
                <path id="Path_4036" data-name="Path 4036" d="M1847.03,743.825c1.082,3.467,1.711,7.41.257,10.86-.707,1.441-1.6,2.792-2.363,4.2-.734,1.361-1.319,2.8-2.127,4.12a20.552,20.552,0,0,1-7.275,7.381,47.692,47.692,0,0,1-4.478,2.6,24.137,24.137,0,0,0-4.506,2.167,7.51,7.51,0,0,0-2.107,2.913,28.43,28.43,0,0,0,.14,5.316c-.1,3.711-.064,7.426-.085,11.139a74.5,74.5,0,0,1-.068,9.607c-.094,1.643-.132,3.294-.357,4.927-.13,1.676-.149,3.363-.389,5.029-.345,2.357-.367,4.76-.757,7.11a36.955,36.955,0,0,0-.8,4.187c-.162.783.115,2.416-1.024,2.394-.622-.13-.673-.913-.964-1.372a16.451,16.451,0,0,1-1.273-2.9,47.727,47.727,0,0,0-2.5-4.541c-1.117-2.088-2.007-4.286-3.017-6.424a54.391,54.391,0,0,1-4.231-8.165c-.531-1.337-1.294-2.564-1.876-3.874-1.008-2.405-1.914-4.844-2.8-7.293a15.475,15.475,0,0,1-1.065-5.169,19.723,19.723,0,0,0-.56-7.716,21.962,21.962,0,0,0-2.617-1.342c-1.982-.633-4.026-1.089-5.963-1.859a24.01,24.01,0,0,1-6.767-4.336,22.963,22.963,0,0,1-3.209-3.42,31.257,31.257,0,0,1-2.8-5.022,24.1,24.1,0,0,1-2.49-11.365,51.386,51.386,0,0,1,1.371-14.134,38.8,38.8,0,0,1,2.837-9.01c1.684-3.509,2.87-7.236,4.591-10.724a48.084,48.084,0,0,1,5.634-7.678c1.732-2.026,3.519-4.088,6.456-3.741a26.122,26.122,0,0,1,4.532.51,23.737,23.737,0,0,1,6.394,2.844,31.568,31.568,0,0,1,5.765,4.122c1.171,1,2.439,1.883,3.521,2.983a19.551,19.551,0,0,1,2.772,3.951c1.069,1.847,2.1,3.72,3.127,5.59a36.693,36.693,0,0,1,5.73,1.456,35.169,35.169,0,0,1,7.19,3.442,23.953,23.953,0,0,1,6.442,6.845A24.965,24.965,0,0,1,1847.03,743.825Z" transform="translate(-1778.884 -707.652)" fill="#ffc28f"/>
              </g>
              <g id="Group_2341" data-name="Group 2341" transform="translate(56.839 79.074)">
                <path id="Path_4037" data-name="Path 4037" d="M1912.44,1034.5c-.013.444.1.875.1,1.318-.163,1.334-1.907.974-2.866.984a49.656,49.656,0,0,1-6.567-1.5,46,46,0,0,1-9.5-4.922c-1.143-.662-2.424-1.511-2.661-2.907a4.7,4.7,0,0,1,0-1.108.874.874,0,0,1,1.116-.951c2.832.591,5.6,1.631,8.526,1.665a24.1,24.1,0,0,0,6.473-.738c.636-.189,1.359-.368,1.987-.5.73-.169,3.03-1.115,3.064.171a.573.573,0,0,1-.128.325,1.522,1.522,0,0,1,.08.185,4.893,4.893,0,0,1,.14,1.807C1912.266,1030.381,1912.383,1032.438,1912.44,1034.5Z" transform="translate(-1890.913 -1025.34)" fill="#e08057"/>
              </g>
              <g id="Group_2343" data-name="Group 2343" transform="translate(25.385)">
                <g id="Group_2342" data-name="Group 2342">
                  <path id="Path_4038" data-name="Path 4038" d="M1829.739,708.652a14.339,14.339,0,0,1-.294,5.7,15.312,15.312,0,0,1-1.012,2.043,10.528,10.528,0,0,0-.617,1.614,7.057,7.057,0,0,1,.156.883,25.064,25.064,0,0,1,.185,3.629c-.245,5.37-2.64,8.565-6.857,11.623a11.487,11.487,0,0,0-2.175,2.278c-.474.673-1.113,1.207-1.625,1.849a9.368,9.368,0,0,1-5.132,2.6,8.474,8.474,0,0,0-2.407.4c-1.644.692-2.936,1.185-4.629,1.739a17.149,17.149,0,0,1-5.269.9c-1.022.041-1.425-.7-1.681-1.64a4.719,4.719,0,0,1,.814-3.835c.988-1.425,2.52-2.085,3.717-3.264a34.372,34.372,0,0,0,4.176-5.424c.847-1.319,1.551-2.722,2.374-4.055.777-1.294,1.156-2.825,2.234-3.93,1.018-.938,2.415-1.356,3.362-2.4l.063-.063c0-.185,0-.37,0-.556-.192-2.448-.122-4.815-.282-7.249a31.387,31.387,0,0,0-.275-3.643c-.726-3.113-3.363-5.4-6.194-6.585a33.685,33.685,0,0,0-7.278-2.748,97.6,97.6,0,0,1-9.912-3.525,83.419,83.419,0,0,1-9.142-5.729,42,42,0,0,1-6.133-4.994,33.778,33.778,0,0,1-2.514-2.343,10.465,10.465,0,0,1-.721-.892,31.547,31.547,0,0,0-5.647,8.032c-.509,1.306-1.087,2.586-1.566,3.9a38.174,38.174,0,0,1-1.151,3.691q-1.432,5.726-2.5,11.511c-.309,2.617-.686,5.221-1.081,7.826a15.751,15.751,0,0,1-.57,3.139,36.654,36.654,0,0,0,7.8,13.329,29.318,29.318,0,0,0,5.229,4.518c1.662,1.144,3.844,1.85,4.639,3.881a12.026,12.026,0,0,1,.289,2.719c.279,1.9-1.038,2.192-2.624,2.05a47.784,47.784,0,0,1-7.9-1.128,26.142,26.142,0,0,1-7.579-3.626c-2.078-1.746-4.672-2.919-6.2-5.248-.183-.341-.466-.6-.661-.921-.13-.279-.244-.563-.359-.848a2.9,2.9,0,0,1-.444-.456,22.7,22.7,0,0,1-2.687-2.855,23.311,23.311,0,0,1-1.886-4.479c-.457-1.658-.665-3.372-.969-5.063-.211-2.082-.627-4.152-.722-6.244a20.065,20.065,0,0,1,.288-3.677c.162-2.027.486-4.047.81-6.048.244-1.124.424-2.265.745-3.371a3.728,3.728,0,0,1,.427-1.151c.226-1.094.45-2.187.654-3.281.583-2.74,1.271-5.454,1.857-8.192a46.81,46.81,0,0,1,4.591-10.913,64.032,64.032,0,0,1,3.852-5.667c1.227-1.214,2.443-2.454,3.785-3.54a20.069,20.069,0,0,1,3.037-1.814,8.457,8.457,0,0,1,4-.912c.395-.008.792-.042,1.185-.016a1.911,1.911,0,0,1,.325-.149c.587-.243,1.138-.573,1.705-.844a23.023,23.023,0,0,1,6.336-2.706,27.4,27.4,0,0,1,5.312-1.078,34.769,34.769,0,0,1,9.874.221,26.258,26.258,0,0,1,6.1,2.4,32.573,32.573,0,0,1,7.129,4.712,37.767,37.767,0,0,1,5.328,4.9c3.077,3.808,6.058,7.849,7.8,12.455,1.492,4.267,3.171,8.474,4.936,12.636C1827.434,702.006,1828.983,705.215,1829.739,708.652Z" transform="translate(-1746.056 -661.172)" fill="#5e4343"/>
                </g>
              </g>
              <g id="Group_2344" data-name="Group 2344" transform="translate(37.608 57.762)">
                <path id="Path_4039" data-name="Path 4039" d="M1802.924,940.625a.6.6,0,0,1-.575-.61c.018-.614.072-1.223.132-1.834.127-2,.33-4.048.5-6.018.119-1.267.243-2.388.376-3.625.03-.411.007-.928.358-1.21a.6.6,0,0,1,.857.824c-.119,1.384-.287,2.76-.414,4.132h0c-.154,1.79-.337,3.547-.449,5.313-.053.882-.164,1.607-.178,2.454a.6.6,0,0,1-.594.575Z" transform="translate(-1802.349 -927.189)" fill="#402626"/>
              </g>
              <g id="Group_2345" data-name="Group 2345" transform="translate(32.282 21.47)">
                <path id="Path_4040" data-name="Path 4040" d="M1778.28,791.265c-1.644-.069,1.632-6.677,2.031-7.552.661-1.522,1.148-3.119,1.658-4.7,1.349-3.8,2.117-7.788,3.736-11.494a26.849,26.849,0,0,1,2.549-5.542,8.445,8.445,0,0,1,1.344-1.851.6.6,0,0,1,.855.687c-2.463,3.255-3.706,7.217-5.088,11.005-.724,2.248-1.183,4.584-2.018,6.8a46.232,46.232,0,0,1-2.632,7,27.021,27.021,0,0,0-1.606,4.331c-.133.5-.067,1.319-.728,1.319A.9.9,0,0,1,1778.28,791.265Z" transform="translate(-1777.822 -760.051)" fill="#402626"/>
              </g>
              <g id="Group_2346" data-name="Group 2346" transform="translate(32.224 12.329)">
                <path id="Path_4041" data-name="Path 4041" d="M1777.983,741.286a.6.6,0,0,1-.4-.737c.276-.768.621-1.511.946-2.259.787-1.745,1.609-3.477,2.437-5.2,1.036-2.076,2.081-4.152,3.22-6.176a34.279,34.279,0,0,1,4.554-5.73,12.235,12.235,0,0,1,4.076-3.2c.934-.223,1.133,1,.163,1.216-1.748.849-2.907,2.376-4.25,3.717-1.025,1.131-1.956,2.348-2.873,3.568a88.115,88.115,0,0,0-4.611,8.769c-.7,1.494-1.42,2.98-2.057,4.5-.339.527-.358,1.551-1.038,1.551A.812.812,0,0,1,1777.983,741.286Z" transform="translate(-1777.554 -717.954)" fill="#402626"/>
              </g>
              <g id="Group_2347" data-name="Group 2347" transform="translate(66.846 15.256)">
                <path id="Path_4042" data-name="Path 4042" d="M1965.848,753.09a20.175,20.175,0,0,0-1.77-2.042,39.347,39.347,0,0,0-4.317-2.945,39.166,39.166,0,0,1-4.328-3.251,42.289,42.289,0,0,1-3.939-3.493c-1.376-1.2-2.877-2.244-4.3-3.39a31.761,31.761,0,0,0-6.908-4.3c-.533-.258-1.063-.518-1.617-.727a7.863,7.863,0,0,1-1.447-.466.6.6,0,0,1-.1-.833c.383-.462.948-.036,1.413.03a28.366,28.366,0,0,1,4.788,2.245,29.259,29.259,0,0,1,5.34,3.716c1.149.851,2.283,1.719,3.381,2.635,1.047.958,2,1.992,3.134,2.839,1.342,1.1,2.684,2.2,4.051,3.263,1.018.649,2.036,1.3,3.054,1.955a13.84,13.84,0,0,1,4.508,4.056.6.6,0,0,1-.5.947A.566.566,0,0,1,1965.848,753.09Z" transform="translate(-1937.003 -731.433)" fill="#402626"/>
              </g>
              <g id="Group_2348" data-name="Group 2348" transform="translate(58.392 6.972)">
                <path id="Path_4043" data-name="Path 4043" d="M1898.107,698.13c-.194-.58.333-.786.779-.945,1.131-.554,2.095-1.28,3.259-1.749a19.843,19.843,0,0,1,5.325-1.88,17,17,0,0,1,7.466.317,9.271,9.271,0,0,1,2.92.945,22.4,22.4,0,0,1,2.595,1.764.6.6,0,0,1,.2.813c-.425.635-1.1.033-1.517-.294a8.939,8.939,0,0,0-4.535-2.093,15.408,15.408,0,0,0-10.421.817,28.663,28.663,0,0,0-3.453,1.684c-.444.227-1.421.976-2.075.976A.547.547,0,0,1,1898.107,698.13Z" transform="translate(-1898.066 -693.281)" fill="#402626"/>
              </g>
              <g id="Group_2349" data-name="Group 2349" transform="translate(92.471 57.814)">
                <path id="Path_4044" data-name="Path 4044" d="M2055.015,944.212c.144-1.143.41-2.267.586-3.407a44.048,44.048,0,0,0,1.153-10.925c-.042-.6-.076-1.2-.15-1.8a.593.593,0,0,1,1.179-.119c.076.688.127,1.38.158,2.072a42.565,42.565,0,0,1-.889,9.584c-.272,1.205-.447,2.426-.687,3.636-.187.54.025,1.545-.774,1.566A.6.6,0,0,1,2055.015,944.212Z" transform="translate(-2055.013 -927.431)" fill="#402626"/>
              </g>
              <g id="Group_2350" data-name="Group 2350" transform="translate(58.985 59.459)">
                <path id="Path_4045" data-name="Path 4045" d="M1909.017,942.932a9.976,9.976,0,0,1-3.543-1,9.359,9.359,0,0,1-2.731-1.3,5.6,5.6,0,0,1-1.312-1,2.376,2.376,0,0,1,.987-3.881,6.184,6.184,0,0,1,2.766-.143,10.693,10.693,0,0,0,1.686.075,30.826,30.826,0,0,0,6.866-.437c1.422-.2,4.054-.547,5.25.3,2.172,1.973-.6,4.436-2.337,5.515a11.93,11.93,0,0,1-6.58,1.978A8.479,8.479,0,0,1,1909.017,942.932Z" transform="translate(-1900.798 -935.004)" fill="#fff"/>
              </g>
              <g id="Group_2351" data-name="Group 2351" transform="translate(90.725 53.29)">
                <path id="Path_4046" data-name="Path 4046" d="M2047.548,913.877a.593.593,0,0,1-.573-.611,1.582,1.582,0,0,1,.214-.583c.435-.973.947-1.757,1.345-2.715.5-1.006.682-2.147,1.157-3.15a.593.593,0,0,1,.965.681,22.586,22.586,0,0,1-2.031,4.934c-.158.333-.326.657-.479.992A.6.6,0,0,1,2047.548,913.877Z" transform="translate(-2046.975 -906.597)" fill="#e08057"/>
              </g>
              <g id="Group_2352" data-name="Group 2352" transform="translate(27.42 139.6)">
                <path id="Path_4047" data-name="Path 4047" d="M1755.64,1327.047a.674.674,0,0,1,.092-1.042c.233-.386.412-.8.607-1.208a33.212,33.212,0,0,0,1.4-4.249c.2-.56.384-1.121.557-1.69a29.464,29.464,0,0,0,1.487-6.509,45.682,45.682,0,0,0,.527-7.694.592.592,0,0,1,1.183.037,36.368,36.368,0,0,1-.448,6.887,26.584,26.584,0,0,1-1.37,6.779c-.31,1.142-.711,2.251-1.074,3.375a18.97,18.97,0,0,1-1.493,4.2C1756.84,1326.472,1756.38,1327.556,1755.64,1327.047Z" transform="translate(-1755.428 -1304.09)" fill="#96793b"/>
              </g>
              <g id="Group_2353" data-name="Group 2353" transform="translate(24.87 113.246)">
                <path id="Path_4048" data-name="Path 4048" d="M1751.9,1206.637a.6.6,0,0,1-.575-.61c-.1-2.223-.009-4.543-.326-6.738a34.671,34.671,0,0,0-2.3-8.047,36.375,36.375,0,0,0-4.463-7.117c-.338-.37-.834-.751-.359-1.253a.6.6,0,0,1,.838.033,31.945,31.945,0,0,1,5.394,8.692,30.429,30.429,0,0,1,2.273,10.023c.056,1.481.085,2.963.125,4.444A.594.594,0,0,1,1751.9,1206.637Z" transform="translate(-1743.683 -1182.716)" fill="#96793b"/>
              </g>
              <g id="Group_2354" data-name="Group 2354" transform="translate(48.347 94.058)">
                <path id="Path_4049" data-name="Path 4049" d="M1877.629,1134.293c-.279-.09-.391-.414-.533-.641-.134-.176-.278-.344-.376-.451a28.919,28.919,0,0,0-5.792-5.141c-3.242-2.624-6.582-5.092-9.579-8-1.054-1.179-2.6-2.23-3.053-3.8-.056-2.1,2.174-3.784,3.23-5.411a29.957,29.957,0,0,1-5.411,1.419c-1.887.289-1.521-2.153-1.475-3.351a32.67,32.67,0,0,0-1.716-10.551c-.269-.816-.492-1.644-.789-2.45-.168-.485-.649-1.191.007-1.513a.6.6,0,0,1,.783.3,22.917,22.917,0,0,1,.84,2.379,33.287,33.287,0,0,1,1.844,8.235,26.764,26.764,0,0,1,.216,3.578,8.647,8.647,0,0,0,.038,2.2,26.83,26.83,0,0,0,5.258-1.353,4.051,4.051,0,0,1,1.921-.47c.739.243.544.882.13,1.34a27.631,27.631,0,0,1-1.684,2.2c-.562.769-2.348,2.55-1.932,3.5a28.871,28.871,0,0,0,4.576,4.682,33.728,33.728,0,0,0,2.942,2.451,21.944,21.944,0,0,0,1.865,1.508c1.451,1.168,2.9,2.327,4.427,3.392a27.613,27.613,0,0,1,3.592,3.39,7.885,7.885,0,0,1,1.329,1.609.624.624,0,0,1,.111.615A.6.6,0,0,1,1877.629,1134.293Z" transform="translate(-1851.807 -1094.349)" fill="#96793b"/>
              </g>
              <g id="Group_2355" data-name="Group 2355" transform="translate(76.552 91.484)">
                <path id="Path_4050" data-name="Path 4050" d="M1982.169,1124.921a.6.6,0,0,1-.455-.7c.21-.851.466-1.689.712-2.529a43.656,43.656,0,0,1,1.9-5.22c1.829-3.774,3.983-7.4,5.729-11.211l0,.01-.007.016c.961-1.818-.328-2.643-1.443-3.887-.862-.836-1.7-1.7-2.481-2.616-.448-.467-.905-1.155-.132-1.578a1.189,1.189,0,0,1,.627-.067c.853.088,1.7.252,2.542.419.715.06,1.585.347,2.176-.194a15.766,15.766,0,0,0-.483-2.906c-.125-.884-.282-1.765-.391-2.652-.11-1.745-.3-3.482-.465-5.221-.126-.927-.2-1.862-.325-2.787-.037-.478-.254-1.161.408-1.293.713-.095.747.705.773,1.219.234,1.865.4,3.724.614,5.584a34.143,34.143,0,0,0,.431,4.116c.11,1.445.815,2.873.558,4.328-.975,1.87-3.456.875-5.085.682.893.955,1.836,1.878,2.723,2.835a4.828,4.828,0,0,1,1.434,2.18,3.834,3.834,0,0,1-.384,2.281c-.453,1.054-1.007,2.059-1.511,3.087-.537,1.079-1.079,2.157-1.669,3.208a44.657,44.657,0,0,0-3.939,8.612c-.376,1.065-.677,2.151-.995,3.235C1982.919,1124.334,1982.8,1125.05,1982.169,1124.921Z" transform="translate(-1981.699 -1082.495)" fill="#96793b"/>
              </g>
              <g id="Group_2356" data-name="Group 2356" transform="translate(44.32 132.11)">
                <path id="Path_4051" data-name="Path 4051" d="M1853.754,1270.632c.137.917.316,2.527-.522,3.142a11.011,11.011,0,0,1-2.2.379c-2.413.305-4.826.4-7.227.508-2.894.192-5.786.531-8.664.792a1.9,1.9,0,0,1-1.81-2.405c0-.819-.433-2.027.746-2.213.926-.021,1.83-.24,2.747-.348,1.321-.011,2.643.075,3.964-.018,1.619-.1,3.233-.267,4.843-.453,1.838-.072,3.666-.222,5.5-.4C1852.138,1269.641,1853.483,1269.3,1853.754,1270.632Z" transform="translate(-1833.257 -1269.592)" fill="#96793b"/>
              </g>
              <g id="Group_2357" data-name="Group 2357" transform="translate(115.605 127.766)">
                <path id="Path_4052" data-name="Path 4052" d="M2163.221,1284.19a.6.6,0,0,1-.381-.746q.366-1.293.731-2.583a40.1,40.1,0,0,0,1.174-4.2,42.988,42.988,0,0,0,.451-5.186,42.329,42.329,0,0,0-1.224-9.2c-.545-2.857-.965-5.736-1.587-8.578-.337-1.105-.49-2.221-.8-3.324a.6.6,0,0,1,.371-.752c.712-.207.859.646.969,1.158a21.59,21.59,0,0,0,.519,2.322c.655,2.772,1.087,5.594,1.571,8.4a40.154,40.154,0,0,1,1.235,7.839,22.626,22.626,0,0,1-.1,5.463,14.935,14.935,0,0,1-.892,4.486c-.458,1.5-.858,3.013-1.292,4.517A.594.594,0,0,1,2163.221,1284.19Z" transform="translate(-2161.56 -1249.589)" fill="#96793b"/>
              </g>
              <g id="Group_2358" data-name="Group 2358" transform="translate(112.296 108.893)">
                <path id="Path_4053" data-name="Path 4053" d="M2149.054,1178.528c-.333-2.06-.656-4.118-1.164-6.142-.3-1.344-.322-2.726-.625-4.071-.25-1.3-.434-2.62-.727-3.916-.011-.488-.386-1-.137-1.466a.6.6,0,0,1,1.1.3c.5,2.178.856,4.391,1.225,6.594a17.17,17.17,0,0,0,.39,2.618c.5,1.923.767,3.895,1.1,5.852A.592.592,0,0,1,2149.054,1178.528Z" transform="translate(-2146.316 -1162.669)" fill="#96793b"/>
              </g>
              <g id="Group_2362" data-name="Group 2362" transform="translate(48.151 34.067)">
                <g id="Group_2359" data-name="Group 2359" transform="translate(3.724 7.532)">
                  <path id="Path_4054" data-name="Path 4054" d="M1870.655,852.751a2.867,2.867,0,0,0-1.179.393,2.8,2.8,0,0,0-1.3,3.2,3.138,3.138,0,0,0,2.192,1.523,2.13,2.13,0,0,0,.383.035c1.929,0,3.1-2.734,1.86-4.231A2.359,2.359,0,0,0,1870.655,852.751Z" transform="translate(-1868.053 -852.75)" fill="#413419"/>
                </g>
                <g id="Group_2360" data-name="Group 2360" transform="translate(28.587 7.532)">
                  <path id="Path_4055" data-name="Path 4055" d="M1984.869,857.863a2.133,2.133,0,0,0,.384.035c1.929,0,3.1-2.734,1.86-4.231a2.359,2.359,0,0,0-1.955-.916,2.871,2.871,0,0,0-1.179.393,2.8,2.8,0,0,0-1.3,3.2A3.138,3.138,0,0,0,1984.869,857.863Z" transform="translate(-1982.556 -852.75)" fill="#413419"/>
                </g>
                <g id="Group_2361" data-name="Group 2361">
                  <path id="Path_4056" data-name="Path 4056" d="M1852.426,821.028h.091c.462,0,.923-.04,1.383-.079a13.083,13.083,0,0,1,1.687-.073c.6-.022,1.209-.015,1.815-.008.877.01,1.754.021,2.627-.054,2.708-.083,2.131-2.654-.3-2.634a22.3,22.3,0,0,0-4.034-.049,12.254,12.254,0,0,0-3.226.324c-.623.216-1.446.546-1.566,1.276C1850.833,820.553,1851.7,821.035,1852.426,821.028Z" transform="translate(-1850.902 -818.064)" fill="#413419"/>
                </g>
              </g>
              <g id="Group_2363" data-name="Group 2363" transform="translate(77.384 233.534)">
                <path id="Path_4057" data-name="Path 4057" d="M1986.97,1763.37a.6.6,0,0,0,.626-.556q.038-2.27.07-4.538c0-3.475.06-6.962-.228-10.426-.2-3.543-.458-7.077-.725-10.616a.592.592,0,0,0-1.181.083c.386,5.495.886,10.988.951,16.5.036,2.926-.009,5.985-.07,8.93A.6.6,0,0,0,1986.97,1763.37Z" transform="translate(-1985.531 -1736.693)" fill="#96793b"/>
              </g>
              <g id="Group_2364" data-name="Group 2364" transform="translate(75.785 181.252)">
                <path id="Path_4058" data-name="Path 4058" d="M1979.354,1496.454a.594.594,0,1,0-1.179.151c.041,2.963.266,5.933.323,8.9a49.014,49.014,0,0,0,.189,4.995c-.072,2.988.021,6,.127,9-.058,3.5-.3,7.146-.122,10.667.271,4.1.593,8.186.834,12.285a.592.592,0,0,0,1.181-.083c-.246-4.739-.737-9.468-.91-14.209.069-4.43.3-8.963.044-13.406a75.283,75.283,0,0,0-.182-7.733C1979.737,1503.5,1979.4,1499.989,1979.354,1496.454Z" transform="translate(-1978.169 -1495.913)" fill="#96793b"/>
              </g>
              <g id="Group_2365" data-name="Group 2365" transform="translate(73.115 134.528)">
                <path id="Path_4059" data-name="Path 4059" d="M1968.208,1285.746a36.352,36.352,0,0,0-1.181-4.619.592.592,0,0,0-1.122.382,4.6,4.6,0,0,1,.288.932,34.2,34.2,0,0,1,.9,3.811,39.744,39.744,0,0,0,.411,4.818,43.374,43.374,0,0,0,.744,5.3c.1,1.841.264,3.662.272,5.51-.062,1.615-.063,3.394.041,5.044q-.062,2.506-.107,5.01-.047,2.463-.1,4.924a.593.593,0,1,0,1.183.068q.049-2.539.1-5.079c.047-2.554.147-5.1,0-7.655a67.086,67.086,0,0,0-.208-7.858,45.8,45.8,0,0,1-.722-5.072,21.533,21.533,0,0,1-.337-3.018A11.7,11.7,0,0,0,1968.208,1285.746Z" transform="translate(-1965.873 -1280.731)" fill="#96793b"/>
              </g>
              <g id="Group_2366" data-name="Group 2366" transform="translate(80.034 262.779)">
                <path id="Path_4060" data-name="Path 4060" d="M1997.738,1871.381h0Z" transform="translate(-1997.738 -1871.381)" fill="#413419"/>
              </g>
              <g id="Group_2367" data-name="Group 2367" transform="translate(30.45 131.951)">
                <path id="Path_4061" data-name="Path 4061" d="M1837.345,1397.978c-1.515.229-3.049.367-4.569.608a24.372,24.372,0,0,1-6.458.467,11.016,11.016,0,0,1-1.7-1.16.589.589,0,0,0-.227-.254c-.082-.775-.123-1.554-.2-2.33-.133-1.157-.091-2.319-.183-3.478-.3-2.252-.6-4.514-.719-6.784-.248-3.036-.632-6.061-.746-9.108a52.433,52.433,0,0,1-.223-6.052c-.057-2.075-.305-4.143-.3-6.223-.018-1.73.029-3.46-.112-5.209-.141-2.7-.031-5.41-.122-8.139a47.743,47.743,0,0,0,.016-5.794c-.081-3.566-.114-7.179-.281-10.755-.084-2.216-.014-4.325-.061-6.582-.024-2.057-.122-4.111-.038-6.167-.14-3.992.088-8.027-.111-12.034-.015-1.506.112-3.134.1-4.657-.1-1.97-.152-4.125-.336-6.122-.3-3.477-.839-6.917-1.151-10.4a67.6,67.6,0,0,0-2.722-12.116,17.182,17.182,0,0,0-2.184-4.436,5.513,5.513,0,0,0-1.549-1.79c-.151-.151-.293-.31-.447-.458a.592.592,0,0,0-.789.881,9.518,9.518,0,0,0,1.056.983,18.579,18.579,0,0,1,2.551,4.444,68.011,68.011,0,0,1,2.858,12.212c.371,3.81.913,7.595,1.266,11.412.091,1.77.171,3.543.265,5.314.019,1.422-.1,2.982-.1,4.438.051,2.419.168,4.725.058,7.168-.053,2.285.1,4.487.015,6.8.111,5.163.045,10.346.3,15.522.133,2.388-.016,4.781.17,7.166a42.973,42.973,0,0,1-.063,4.587c-.011,1.668.092,3.26.03,4.947-.012,1.806.1,3.611.186,5.414,0,1.967.006,3.938.1,5.9.061,1.21.2,2.418.22,3.63a27.333,27.333,0,0,0,.092,4.135c.226,2.52.216,5.06.547,7.572.268,2.21.327,4.437.6,6.646.128,1.665.482,3.309.513,4.979,0,1.258.169,2.69.271,3.99.063.382.023.818.121,1.2,0,.008,0,.016,0,.023a2.292,2.292,0,0,1-1.193,1.166,5.356,5.356,0,0,1-1.526.245,4.655,4.655,0,0,0-1.56-.1c-4.967.212-9.943.114-14.906.371-2.645-.151-5.289-.085-7.934.022-4.569.078-9.139.411-13.706.157a50.886,50.886,0,0,1-9.376-1.455q-1.484-.4-2.971-.788a.592.592,0,1,0-.257,1.156c1.1.291,2.207.572,3.3.882a33.689,33.689,0,0,0,6.282,1.069,50.819,50.819,0,0,0,5.429.434c4.852-.033,9.7-.241,14.553-.375,1.611-.07,3.218.041,4.829.084,2.7-.2,5.408-.124,8.112-.227,2.043.071,4.078-.11,6.114-.139a.591.591,0,0,0,.411.148l1.677-.072a4.551,4.551,0,0,0,1.824-.265,3.763,3.763,0,0,0,1.7-1.318,1.829,1.829,0,0,0,.152-.245c.3.2.612.375.817.525.471.229.969.837,1.53.57l.136.017a6,6,0,0,0,.713.073c3.841,0,7.656-1.1,11.5-1.268a.6.6,0,0,0,.568-.617C1839.391,1397.477,1837.99,1397.983,1837.345,1397.978Z" transform="translate(-1769.384 -1268.862)" fill="#96793b"/>
              </g>
              <g id="Group_2368" data-name="Group 2368" transform="translate(101.273 258.472)">
                <path id="Path_4062" data-name="Path 4062" d="M2113.09,1851.594a22.113,22.113,0,0,1-3.389.915c-1.994.407-4,.685-6.02.965-2.067.177-4.158.286-6.23.471a4.6,4.6,0,0,0-1.625.257.6.6,0,0,0,.059,1.046.566.566,0,0,0,.6-.029q2.919-.27,5.846-.446a54.825,54.825,0,0,0,10.862-1.939c.439-.118.9-.435.68-.944A.6.6,0,0,0,2113.09,1851.594Z" transform="translate(-2095.551 -1851.545)" fill="#96793b"/>
              </g>
              <g id="Group_2369" data-name="Group 2369" transform="translate(44.041 227.696)">
                <path id="Path_4063" data-name="Path 4063" d="M1834.067,1715.245a25.182,25.182,0,0,0,3.315-.044c1.363-.043,2.722.05,4.086.087,1.118,0,2.211-.142,3.326-.209,1.039.063,2.059.148,3.1.149,1.871-.038,3.827.067,5.743.006,1.143-.028,2.372.119,2.434-1.395.177-1.25.793-3.389-.852-3.859a18.853,18.853,0,0,0-2.54-.026c-1.939-.007-3.8-.042-5.778.039a11,11,0,0,1-2.306.021,9.864,9.864,0,0,0-3.244-.149c-1.38.145-2.762-.11-4.148,0-.67-.008-1.335.083-2,.039-.812-.051-1.917-.311-2.535.442a4.225,4.225,0,0,0-.681,2.628A2.215,2.215,0,0,0,1834.067,1715.245Zm-.875-2.432c.074-.59-.082-1.568.616-1.8,1.936.2,3.879-.077,5.818.068a23.945,23.945,0,0,0,2.648-.065,18.466,18.466,0,0,1,2.735.226c2.195-.017,4.3-.183,6.524-.1.732-.012,1.466.014,2.2-.01a3.554,3.554,0,0,1,1.329.063,8.239,8.239,0,0,1-.207,2.812c-2.2.145-4.355-.009-6.567.049-1.153.01-2.426-.114-3.6-.157-2.759.367-5.526.015-8.293.157C1835.348,1714.074,1832.934,1714.538,1833.192,1712.814Z" transform="translate(-1831.976 -1709.807)" fill="#96793b"/>
              </g>
              <g id="Group_2370" data-name="Group 2370" transform="translate(98.909 223.865)">
                <path id="Path_4064" data-name="Path 4064" d="M2086.16,1698.714c2.151.59,4.366-.32,6.507-.57a27.493,27.493,0,0,0,4.738-.618c.609-.1,2.431-.12,2.643-.755a.6.6,0,0,0-.368-.752.734.734,0,0,0-.574.028c-.875.312-1.833.219-2.726.473-1.53.392-3.13.3-4.69.574-1.248.141-5.618,1.587-5.748-.37a4.2,4.2,0,0,1-.083-.974c.015-.24.025-.609.271-.722a53.684,53.684,0,0,1,6.753-.856c1.525-.132,3.015-.5,4.534-.686.369-.047.748-.106,1.126-.127a.588.588,0,0,0,.575-.176.6.6,0,0,0-.042-.836c-.461-.356-1.095-.072-1.624-.056-.932.118-1.861.265-2.786.43-1.61.329-3.277.333-4.909.562a16.5,16.5,0,0,0-2.265.319c-.79.138-1.757.084-2.355.7a3.454,3.454,0,0,0-.277,2.955A2.04,2.04,0,0,0,2086.16,1698.714Z" transform="translate(-2084.665 -1692.167)" fill="#96793b"/>
              </g>
              <g id="Group_2371" data-name="Group 2371" transform="translate(68.634 42.532)">
                <path id="Path_4065" data-name="Path 4065" d="M1946.708,869.541c-.247.565-1.257,1.187-.632,1.812a.647.647,0,0,0,.38.141c.51,0,.854-.8,1.162-1.172a5.932,5.932,0,0,0,.729-2.5c.128-1.192-.6-2.193-1.063-3.226a12.038,12.038,0,0,1-.806-3.172,27.735,27.735,0,0,1,.021-3.759.592.592,0,1,0-1.183-.042c-.189,2.782-.127,5.665,1.245,8.192A3.637,3.637,0,0,1,1946.708,869.541Z" transform="translate(-1945.236 -857.048)" fill="#e08057"/>
              </g>
              <g id="Group_2372" data-name="Group 2372" transform="translate(11.603 63.268)">
                <path id="Path_4066" data-name="Path 4066" d="M1685.88,971.233s-3.939-17.4-3.2-18.358,3.492.343,4.885,2.056c.625.769,4.977,11.948,4.977,11.948Z" transform="translate(-1682.585 -952.549)" fill="#ffc28f"/>
              </g>
              <g id="Group_2373" data-name="Group 2373" transform="translate(0 73.803)">
                <path id="Path_4067" data-name="Path 4067" d="M1641.865,1039.048l-12.466,67.188a19.859,19.859,0,0,0-.239,3.785,19.565,19.565,0,0,0,5.727,13.128h0a18.066,18.066,0,0,0,21.517,3.085h0c4.225-2.322,4.574-4.173,4.365-9.126.02.321-5.711-86.292-2.545-87.939,2.591-1.349,2.523-5.392,2.523-5.392,6.7-2.752,2.031-5.4,3.591-8.575,1.727-3.509.11-8.627.08-9.587-.08-2.565-8.3-4.977-12.463-4.483-1.814.215-8.823,3.906-9.179,6.209-.3,1.937-2.752,4.584-.652,14.367.211.985,1.061,6.471.872,7.461l-1.132,9.88" transform="translate(-1629.147 -1001.066)" fill="#ffc28f"/>
              </g>
              <g id="Group_2374" data-name="Group 2374" transform="translate(19.27 95.644)">
                <path id="Path_4068" data-name="Path 4068" d="M1725.416,1108.62q-.671,0-1.419-.04a42.812,42.812,0,0,1-5.406-.671.868.868,0,0,1,.339-1.7c3.955.785,9.751,1.1,10.537-.31a27.453,27.453,0,0,0-.11-3.316.869.869,0,1,1,1.733-.114c.1,1.511.142,2.606.124,3.255a1.936,1.936,0,0,1-.167.9C1730.395,1107.961,1728.545,1108.62,1725.416,1108.62Z" transform="translate(-1717.892 -1101.653)" fill="#e08057"/>
              </g>
              <g id="Group_2375" data-name="Group 2375" transform="translate(10.754 62.138)">
                <path id="Path_4069" data-name="Path 4069" d="M1681.984,965.215a.869.869,0,0,1-.847-.679c-.007-.033-.744-3.34-1.4-6.9-1.359-7.347-1.064-8.615-.967-9.032a1.494,1.494,0,0,1,1.432-1.258h.047c2.535,0,6.718,6.049,8.642,12.521a.869.869,0,0,1-1.665.5c-2.014-6.772-5.617-10.766-6.789-11.233-.273,1.9,1.307,10.147,2.4,15.028a.868.868,0,0,1-.658,1.037A.877.877,0,0,1,1681.984,965.215Z" transform="translate(-1678.672 -947.346)" fill="#e08057"/>
              </g>
              <g id="Group_2376" data-name="Group 2376" transform="translate(12.981 64.781)">
                <path id="Path_4070" data-name="Path 4070" d="M1689.8,965.679a.893.893,0,0,1-.218-.028.869.869,0,0,1-.624-1.058,4.665,4.665,0,0,1,.3-.789c.284-.625.53-1.165-.261-3.089a.869.869,0,1,1,1.607-.66c1,2.422.7,3.456.235,4.468a3.175,3.175,0,0,0-.2.5A.869.869,0,0,1,1689.8,965.679Z" transform="translate(-1688.933 -959.516)" fill="#e08057"/>
              </g>
              <g id="Group_2377" data-name="Group 2377" transform="translate(15.011 72.997)">
                <path id="Path_4071" data-name="Path 4071" d="M1716.25,1008.31a22.7,22.7,0,0,1-5.732-.747.869.869,0,0,1,.441-1.68,20.257,20.257,0,0,0,7.466.556c.128-1.542,0-3.563-.7-4.047-1.412-.972-9.276-3.191-11.687-3.3-1.579-.061-4.723,2.011-6.339,3.339a.869.869,0,0,1-1.1-1.341c.48-.4,4.773-3.851,7.519-3.733,2.573.115,10.788,2.359,12.594,3.6,1.973,1.357,1.483,5.533,1.365,6.356l-.085.6-.591.128A16.114,16.114,0,0,1,1716.25,1008.31Z" transform="translate(-1698.279 -997.355)" fill="#e08057"/>
              </g>
              <g id="Group_2378" data-name="Group 2378" transform="translate(26.129 81.968)">
                <path id="Path_4072" data-name="Path 4072" d="M1755.738,1048.076c-.539,0-1.168-.028-1.906-.092-1.869-.162-3.568-.48-3.64-.493a.869.869,0,0,1,.321-1.708c3.28.616,6.618.745,7.144.275,2.426-2.771.344-5.9.254-6.027a.868.868,0,0,1,1.429-.987,6.7,6.7,0,0,1-.383,8.165C1758.589,1047.63,1757.876,1048.076,1755.738,1048.076Z" transform="translate(-1749.484 -1038.671)" fill="#e08057"/>
              </g>
              <g id="Group_2379" data-name="Group 2379" transform="translate(23.273 89.066)">
                <path id="Path_4073" data-name="Path 4073" d="M1743.086,1079.719c-4.264,0-6.215-1.044-6.305-1.094a.869.869,0,0,1,.838-1.522c.015.007,2.164,1.11,6.99.834a2.775,2.775,0,0,0,2.273-1.057c.917-1.3.522-3.623.292-4.409a.868.868,0,0,1,1.666-.492c.044.148,1.052,3.64-.535,5.9a4.449,4.449,0,0,1-3.6,1.8C1744.135,1079.7,1743.594,1079.719,1743.086,1079.719Z" transform="translate(-1736.331 -1071.358)" fill="#e08057"/>
              </g>
              <g id="Group_2380" data-name="Group 2380" transform="translate(27.201 102.142)">
                <path id="Path_4074" data-name="Path 4074" d="M1756.449,1160.512a.869.869,0,0,1-.865-.8c-.67-8.578-1.159-27.054-1.163-27.239a.869.869,0,1,1,1.737-.045c0,.185.492,18.615,1.159,27.149a.87.87,0,0,1-.8.934Z" transform="translate(-1754.42 -1131.581)" fill="#e08057"/>
              </g>
              <g id="Group_2381" data-name="Group 2381" transform="translate(122.738 51.471)">
                <path id="Path_4075" data-name="Path 4075" d="M2201.066,916.9s3.94-17.4,3.2-18.358-3.492.343-4.885,2.056c-.625.769-4.976,11.948-4.976,11.948Z" transform="translate(-2194.408 -898.219)" fill="#ffc28f"/>
              </g>
              <g id="Group_2382" data-name="Group 2382" transform="translate(108.307 62.006)">
                <path id="Path_4076" data-name="Path 4076" d="M2151.218,984.717l12.466,67.187a19.882,19.882,0,0,1,.239,3.785,19.564,19.564,0,0,1-5.728,13.128h0a18.067,18.067,0,0,1-21.517,3.085h0c-4.225-2.323-4.574-4.173-4.365-9.126-.02.321,5.711-86.292,2.544-87.939-2.591-1.348-2.523-5.392-2.523-5.392-6.7-2.752-2.03-5.4-3.59-8.575-1.727-3.509-.11-8.627-.081-9.587.08-2.565,8.3-4.977,12.463-4.483,1.814.216,8.823,3.906,9.178,6.209.3,1.937,2.752,4.584.652,14.367-.211.985-1.061,6.471-.872,7.461l1.132,9.88" transform="translate(-2127.948 -946.736)" fill="#ffc28f"/>
              </g>
              <g id="Group_2383" data-name="Group 2383" transform="translate(111.683 83.847)">
                <path id="Path_4077" data-name="Path 4077" d="M2149.315,1054.29c-3.192,0-5.052-.685-5.67-2.082l.009,0c-.244-.574-.169-1.715-.014-4.07a.869.869,0,0,1,1.734.114,27.476,27.476,0,0,0-.111,3.317c.786,1.413,6.583,1.1,10.537.31a.869.869,0,0,1,.339,1.7,42.931,42.931,0,0,1-5.406.671Q2149.986,1054.29,2149.315,1054.29Z" transform="translate(-2143.496 -1047.323)" fill="#e08057"/>
              </g>
              <g id="Group_2384" data-name="Group 2384" transform="translate(123.288 50.342)">
                <path id="Path_4078" data-name="Path 4078" d="M2203.882,910.886a.87.87,0,0,1-.849-1.058c1.09-4.881,2.67-13.127,2.4-15.028-1.172.468-4.776,4.461-6.79,11.234a.868.868,0,1,1-1.665-.5c1.925-6.472,6.107-12.521,8.642-12.521h.048a1.494,1.494,0,0,1,1.432,1.258c.1.417.392,1.685-.967,9.032-.658,3.559-1.4,6.866-1.4,6.9A.868.868,0,0,1,2203.882,910.886Z" transform="translate(-2196.94 -893.017)" fill="#e08057"/>
              </g>
              <g id="Group_2385" data-name="Group 2385" transform="translate(128.978 52.984)">
                <path id="Path_4079" data-name="Path 4079" d="M2224.611,911.35a.87.87,0,0,1-.841-.652,3.128,3.128,0,0,0-.2-.5c-.46-1.012-.76-2.046.235-4.468a.869.869,0,0,1,1.607.66c-.791,1.924-.545,2.463-.261,3.089a4.7,4.7,0,0,1,.3.789.87.87,0,0,1-.842,1.086Z" transform="translate(-2223.144 -905.187)" fill="#e08057"/>
              </g>
              <g id="Group_2386" data-name="Group 2386" transform="translate(107.348 61.2)">
                <path id="Path_4080" data-name="Path 4080" d="M2127.5,953.979a16.145,16.145,0,0,1-3.149-.267l-.591-.128-.085-.6c-.119-.823-.609-5,1.364-6.357,1.807-1.243,10.022-3.488,12.595-3.6,2.748-.123,7.04,3.338,7.52,3.732a.869.869,0,0,1-1.1,1.342c-1.615-1.328-4.764-3.407-6.339-3.339-2.411.107-10.275,2.327-11.687,3.3-.7.484-.828,2.5-.7,4.047a20.259,20.259,0,0,0,7.467-.556.869.869,0,0,1,.441,1.68A22.7,22.7,0,0,1,2127.5,953.979Z" transform="translate(-2123.53 -943.024)" fill="#e08057"/>
              </g>
              <g id="Group_2387" data-name="Group 2387" transform="translate(107.094 70.17)">
                <path id="Path_4081" data-name="Path 4081" d="M2127.178,993.742c-2.139,0-2.851-.445-3.22-.867a6.7,6.7,0,0,1-.383-8.165.869.869,0,0,1,1.428.99c-.088.129-2.17,3.253.262,6.031.519.463,3.858.335,7.138-.282a.868.868,0,0,1,.321,1.707c-.071.014-1.771.331-3.64.493C2128.347,993.713,2127.717,993.742,2127.178,993.742Z" transform="translate(-2122.36 -984.336)" fill="#e08057"/>
              </g>
              <g id="Group_2388" data-name="Group 2388" transform="translate(108.157 77.268)">
                <path id="Path_4082" data-name="Path 4082" d="M2133.366,1025.388c-.508,0-1.048-.015-1.622-.048a4.449,4.449,0,0,1-3.6-1.8c-1.586-2.257-.578-5.749-.534-5.9a.868.868,0,0,1,1.666.492c-.229.786-.625,3.109.292,4.409a2.774,2.774,0,0,0,2.273,1.057c4.827.277,6.975-.826,7-.837a.869.869,0,0,1,.832,1.525C2139.581,1024.343,2137.63,1025.388,2133.366,1025.388Z" transform="translate(-2127.257 -1017.026)" fill="#e08057"/>
              </g>
              <g id="Group_2389" data-name="Group 2389" transform="translate(114.195 90.345)">
                <path id="Path_4083" data-name="Path 4083" d="M2155.934,1106.182l-.068,0a.869.869,0,0,1-.8-.934c.667-8.534,1.155-26.964,1.159-27.149a.869.869,0,0,1,1.737.045c0,.186-.493,18.661-1.163,27.24A.868.868,0,0,1,2155.934,1106.182Z" transform="translate(-2155.064 -1077.25)" fill="#e08057"/>
              </g>
            </g>
          </g>
        </g>
      </g>
    </g>
    <g id="Group_2396" data-name="Group 2396" transform="translate(395.374 184.627)">
      <path id="Path_4085" data-name="Path 4085" d="M802.595,219.78h0a31.519,31.519,0,0,0-31.52-31.519h-58.4a31.519,31.519,0,0,0-31.519,31.519h0a31.52,31.52,0,0,0,31.519,31.52h58.4c.128,0,.255-.008.383-.01l21.865,11.868a3.772,3.772,0,0,0,5.293-4.738l-6.266-15.386A31.435,31.435,0,0,0,802.595,219.78Z" transform="translate(-681.152 -188.261)" fill="#f2c50c"/>
      <g id="Group_2395" data-name="Group 2395" transform="translate(21.077 23.443)">
        <circle id="Ellipse_175" data-name="Ellipse 175" cx="8.077" cy="8.077" r="8.077" fill="#fff"/>
        <circle id="Ellipse_176" data-name="Ellipse 176" cx="8.077" cy="8.077" r="8.077" transform="translate(31.568 0)" fill="#fff"/>
        <circle id="Ellipse_177" data-name="Ellipse 177" cx="8.077" cy="8.077" r="8.077" transform="translate(63.136 0)" fill="#fff"/>
      </g>
    </g>
  </g>
</svg>
