<svg xmlns="http://www.w3.org/2000/svg" xmlns:xlink="http://www.w3.org/1999/xlink" width="421.495" height="352.824" viewBox="0 0 421.495 352.824">
  <defs>
    <linearGradient id="linear-gradient" x1="0.308" y1="-0.287" x2="0.888" y2="1.87" gradientUnits="objectBoundingBox">
      <stop offset="0" stop-color="#f4b5bd"/>
      <stop offset="1" stop-color="#ec4457"/>
    </linearGradient>
    <linearGradient id="linear-gradient-2" x1="0.566" y1="-0.385" x2="0.491" y2="0.855" xlink:href="#linear-gradient"/>
    <linearGradient id="linear-gradient-3" x1="0.664" y1="0.29" x2="-1.271" y2="1.662" gradientUnits="objectBoundingBox">
      <stop offset="0" stop-color="#f7cbce"/>
      <stop offset="1" stop-color="#f08ea3"/>
    </linearGradient>
    <linearGradient id="linear-gradient-4" x1="1.677" y1="-1.085" x2="-0.007" y2="1.145" xlink:href="#linear-gradient-3"/>
    <linearGradient id="linear-gradient-5" x1="0.468" y1="-0.091" x2="0.573" y2="1.386" gradientUnits="objectBoundingBox">
      <stop offset="0" stop-color="#b9f5fc"/>
      <stop offset="1" stop-color="#3483f6"/>
    </linearGradient>
    <linearGradient id="linear-gradient-6" x1="1.833" y1="2.924" x2="-0.233" y2="-0.69" xlink:href="#linear-gradient-5"/>
    <linearGradient id="linear-gradient-7" x1="2.279" y1="-1.161" x2="-0.092" y2="1.24" xlink:href="#linear-gradient-5"/>
    <linearGradient id="linear-gradient-8" x1="0.721" y1="-2.991" x2="0.39" y2="2.095" xlink:href="#linear-gradient-5"/>
    <linearGradient id="linear-gradient-9" x1="0.35" y1="-0.479" x2="0.634" y2="1.379" gradientUnits="objectBoundingBox">
      <stop offset="0" stop-color="#fdf286"/>
      <stop offset="1" stop-color="#f29857"/>
    </linearGradient>
    <linearGradient id="linear-gradient-10" x1="0.81" y1="-1.969" x2="0.531" y2="0.337" xlink:href="#linear-gradient-9"/>
    <linearGradient id="linear-gradient-11" x1="0.748" y1="0.834" x2="-0.894" y2="-1.458" xlink:href="#linear-gradient-3"/>
    <linearGradient id="linear-gradient-12" x1="-0.081" y1="-0.43" x2="0.204" y2="-0.087" xlink:href="#linear-gradient-3"/>
    <linearGradient id="linear-gradient-13" x1="0.337" y1="-0.126" x2="0.648" y2="1.464" xlink:href="#linear-gradient-5"/>
    <linearGradient id="linear-gradient-14" x1="4.69" y1="-1.516" x2="-0.219" y2="0.806" xlink:href="#linear-gradient-5"/>
    <linearGradient id="linear-gradient-15" x1="3.562" y1="-4.525" x2="-0.027" y2="1.377" xlink:href="#linear-gradient-5"/>
    <linearGradient id="linear-gradient-16" x1="0.354" y1="1.545" x2="0.624" y2="-0.702" xlink:href="#linear-gradient-3"/>
    <linearGradient id="linear-gradient-17" x1="0.5" y1="2.24" x2="0.5" y2="1.117" xlink:href="#linear-gradient-3"/>
    <linearGradient id="linear-gradient-18" x1="0.499" y1="0.604" x2="0.52" y2="-1.626" xlink:href="#linear-gradient-3"/>
    <linearGradient id="linear-gradient-19" x1="0.76" y1="0.18" x2="0.259" y2="1.099" gradientUnits="objectBoundingBox">
      <stop offset="0" stop-color="#ccfb90"/>
      <stop offset="0.989" stop-color="#50b9b6"/>
    </linearGradient>
  </defs>
  <g id="Group_381" data-name="Group 381" transform="translate(-54.447 -86.307)">
    <g id="OBJECTS" transform="translate(54.447 86.307)">
      <g id="Group_380" data-name="Group 380">
        <g id="Group_378" data-name="Group 378">
          <path id="Path_610" data-name="Path 610" d="M252.161,434.5c-.234-.043-.473-.093-.707-.141q-3.328-.653-6.634-1.43c-.984-.228-1.962-.462-2.946-.712q-5.3-1.314-10.555-2.921-1.052-.317-2.1-.652-1.557-.49-3.11-1.012c-.7-.228-1.391-.462-2.088-.707-.81-.277-1.615-.559-2.426-.848-.929-.332-1.864-.674-2.794-1.022-.87-.321-1.74-.653-2.6-.99l-.174-.065q-2.913-1.125-5.792-2.333c-.625-.261-1.257-.527-1.882-.8s-1.272-.549-1.9-.827c-.418-.179-.837-.363-1.25-.554-.4-.175-.805-.359-1.207-.544-.446-.2-.892-.4-1.338-.609-.63-.288-1.256-.582-1.887-.88q-.9-.425-1.811-.859c-.065-.028-.125-.06-.184-.087-.587-.282-1.169-.571-1.757-.854-1.25-.615-2.5-1.246-3.735-1.882l-1.828-.946q-4.665-2.447-9.243-5.1-1.8-1.044-3.583-2.109c-.7-.414-1.392-.838-2.083-1.262-.625-.38-1.245-.767-1.87-1.159q-3.915-2.439-7.755-5.03c-.45-.305-.9-.609-1.354-.919q-1.151-.782-2.3-1.587c-.387-.266-.773-.539-1.159-.81q-.6-.424-1.2-.854c-.489-.343-.979-.7-1.462-1.05q-7.2-5.2-14.067-10.886c-.376-.31-.751-.621-1.126-.935q-1.631-1.355-3.23-2.741-5.621-4.829-10.973-9.962-.766-.734-1.523-1.468c-.505-.489-1.011-.984-1.512-1.479-.413-.408-.827-.816-1.239-1.23q-.881-.873-1.746-1.762c-.495-.5-.989-1.005-1.479-1.511q-1.974-2.032-3.9-4.106c-.5-.532-1-1.077-1.495-1.614-1-1.082-1.974-2.169-2.948-3.269-.282-.315-.566-.63-.843-.952l-.8-.913c-.462-.528-.925-1.06-1.375-1.589s-.914-1.06-1.365-1.6-.9-1.066-1.348-1.6q-3.092-3.7-6.031-7.5-4.551-5.855-8.727-11.909-3.337-4.812-6.422-9.743-5.726-9.145-10.577-18.609a221.136,221.136,0,0,1-11.659-26.981q-1.575-4.429-2.919-8.891C51.6,226.88,51.282,191.1,65.012,158.648c43.637-103.109,160.934-82.441,219.27-22.066q3.206,3.312,6.16,6.775c.392.452.773.9,1.148,1.354,21.082,25.356,80.88,10.832,126.644,24.5q3.792,1.133,7.439,2.534c22.832,8.8,41.114,26.183,47.515,61.6C492.622,340.919,408.212,464.763,252.161,434.5Z" transform="translate(-54.447 -86.307)" fill="#b8f4fc"/>
          <g id="Group_361" data-name="Group 361" transform="translate(177.103 47.874)" opacity="0.51">
            <rect id="Rectangle_197" data-name="Rectangle 197" width="63.421" height="133.393" rx="4.322" transform="translate(47.141 238.215) rotate(-85.884)" fill="#78c8d3"/>
            <rect id="Rectangle_198" data-name="Rectangle 198" width="119.29" height="91.412" rx="4.047" transform="matrix(0.077, -0.997, 0.997, 0.077, 125.036, 173.877)" fill="#78c8d3"/>
            <path id="Path_611" data-name="Path 611" d="M408.759,167.635l-.141,2.241a6.668,6.668,0,0,1-7.079,6.231l-53.687-3.4a1.827,1.827,0,0,0-1.337.457l-13.855,12.2a1.849,1.849,0,0,1-3.067-1.507l.657-10.418a1.846,1.846,0,0,0-1.729-1.964l-50.152-3.18a6.671,6.671,0,0,1-6.232-7.081l1.392-21.968q.587.677,1.148,1.354C296.923,167.352,362.273,149.707,408.759,167.635Z" transform="translate(-214.637 -130.068)" fill="#78c8d3"/>
            <rect id="Rectangle_199" data-name="Rectangle 199" width="33.435" height="94.808" rx="2.99" transform="translate(10.633 76.61) rotate(-85.969)" fill="#78c8d3"/>
          </g>
          <g id="Group_372" data-name="Group 372" transform="translate(171.034 10.819)">
            <g id="Group_364" data-name="Group 364" transform="translate(46.013 205.401)">
              <rect id="Rectangle_201" data-name="Rectangle 201" width="133.714" height="63.574" rx="4.332" transform="matrix(0.997, 0.072, -0.072, 0.997, 4.563, 0)" fill="#f3f9fd"/>
              <g id="Group_363" data-name="Group 363" transform="translate(18.317 17.963)">
                <path id="Path_620" data-name="Path 620" d="M371.763,318.556l-47.271-3.4a3.924,3.924,0,0,1-3.632-4.194h0a3.923,3.923,0,0,1,4.2-3.632l47.271,3.4a3.923,3.923,0,0,1,3.632,4.2h0A3.924,3.924,0,0,1,371.763,318.556Z" transform="translate(-319.112 -307.317)" fill="#a0beed"/>
                <path id="Path_621" data-name="Path 621" d="M373.616,326.168l-52.071-3.747a1.517,1.517,0,0,1-1.4-1.622h0a1.517,1.517,0,0,1,1.622-1.4l52.072,3.747a1.518,1.518,0,0,1,1.4,1.622h0A1.518,1.518,0,0,1,373.616,326.168Z" transform="translate(-319.167 -306.379)" fill="#d6e9fc"/>
                <path id="Path_622" data-name="Path 622" d="M373.167,332.415l-52.072-3.747a1.517,1.517,0,0,1-1.4-1.622h0a1.518,1.518,0,0,1,1.622-1.4l52.072,3.747a1.518,1.518,0,0,1,1.4,1.622h0A1.517,1.517,0,0,1,373.167,332.415Z" transform="translate(-319.202 -305.894)" fill="#d6e9fc"/>
                <path id="Path_623" data-name="Path 623" d="M346.882,336.8l-26.237-1.888a1.516,1.516,0,0,1-1.4-1.622h0a1.515,1.515,0,0,1,1.622-1.4l26.237,1.887a1.517,1.517,0,0,1,1.4,1.622h0A1.516,1.516,0,0,1,346.882,336.8Z" transform="translate(-319.237 -305.408)" fill="#d6e9fc"/>
              </g>
            </g>
            <g id="Group_365" data-name="Group 365" transform="translate(125.036 83.768)">
              <rect id="Rectangle_202" data-name="Rectangle 202" width="91.412" height="119.29" rx="4.047" transform="translate(9.173) rotate(4.41)" fill="#f3f9fd"/>
              <path id="Path_624" data-name="Path 624" d="M408.658,204.125l-56.292-4.342a5.171,5.171,0,0,1-4.758-5.553h0a5.171,5.171,0,0,1,5.553-4.758l56.292,4.341a5.171,5.171,0,0,1,4.758,5.553h0A5.172,5.172,0,0,1,408.658,204.125Z" transform="translate(-327.74 -172.879)" fill="#a0beed"/>
              <path id="Path_625" data-name="Path 625" d="M409.787,230.111l-62.555-4.824a2.03,2.03,0,0,1-1.868-2.18h0a2.029,2.029,0,0,1,2.179-1.868l62.556,4.825a2.029,2.029,0,0,1,1.868,2.179h0A2.03,2.03,0,0,1,409.787,230.111Z" transform="translate(-327.913 -170.41)" fill="#d6e9fc"/>
              <path id="Path_626" data-name="Path 626" d="M409.09,239.15l-62.556-4.824a2.029,2.029,0,0,1-1.867-2.18h0a2.029,2.029,0,0,1,2.179-1.868L409.4,235.1a2.029,2.029,0,0,1,1.868,2.179h0A2.03,2.03,0,0,1,409.09,239.15Z" transform="translate(-327.968 -169.708)" fill="#d6e9fc"/>
              <path id="Path_627" data-name="Path 627" d="M408.393,248.189l-62.556-4.825a2.029,2.029,0,0,1-1.868-2.179h0a2.03,2.03,0,0,1,2.18-1.868l62.556,4.825a2.029,2.029,0,0,1,1.868,2.179h0A2.03,2.03,0,0,1,408.393,248.189Z" transform="translate(-328.022 -169.005)" fill="#d6e9fc"/>
              <path id="Path_628" data-name="Path 628" d="M407.7,257.228,345.14,252.4a2.029,2.029,0,0,1-1.868-2.179h0a2.03,2.03,0,0,1,2.18-1.868l62.556,4.824a2.03,2.03,0,0,1,1.868,2.18h0A2.03,2.03,0,0,1,407.7,257.228Z" transform="translate(-328.076 -168.303)" fill="#d6e9fc"/>
              <path id="Path_629" data-name="Path 629" d="M407,266.267l-62.556-4.825a2.029,2.029,0,0,1-1.868-2.179h0a2.03,2.03,0,0,1,2.18-1.868l62.556,4.824a2.029,2.029,0,0,1,1.867,2.18h0A2.029,2.029,0,0,1,407,266.267Z" transform="translate(-328.13 -167.601)" fill="#d6e9fc"/>
              <path id="Path_630" data-name="Path 630" d="M382.816,273.494l-39.07-3.013a2.029,2.029,0,0,1-1.868-2.179h0a2.029,2.029,0,0,1,2.18-1.868l39.069,3.012a2.03,2.03,0,0,1,1.868,2.18h0A2.029,2.029,0,0,1,382.816,273.494Z" transform="translate(-328.184 -166.898)" fill="#d6e9fc"/>
              <path id="Path_631" data-name="Path 631" d="M374.273,215.605l-22.991-1.773a5.171,5.171,0,0,1-4.758-5.553h0a5.171,5.171,0,0,1,5.553-4.758l22.991,1.773a5.171,5.171,0,0,1,4.758,5.553h0A5.17,5.17,0,0,1,374.273,215.605Z" transform="translate(-327.824 -171.788)" fill="#a0beed"/>
            </g>
            <g id="Group_366" data-name="Group 366" transform="translate(57.488)">
              <path id="Path_632" data-name="Path 632" d="M406.4,111.253l-3.411,53.73a6.665,6.665,0,0,1-7.075,6.231l-53.688-3.407a1.848,1.848,0,0,0-1.34.457l-13.856,12.2a1.849,1.849,0,0,1-3.067-1.5l.662-10.42a1.849,1.849,0,0,0-1.729-1.962L272.738,163.4a6.668,6.668,0,0,1-6.231-7.076l3.41-53.73a6.667,6.667,0,0,1,7.076-6.231l123.171,7.818A6.667,6.667,0,0,1,406.4,111.253Z" transform="translate(-266.493 -96.346)" fill="url(#linear-gradient)"/>
              <text id="INFO" transform="translate(28.906 41.708) rotate(3.632)" fill="#fff" font-size="28" font-family="Montserrat-Black, Montserrat" font-weight="800" letter-spacing="0.08em"><tspan x="0" y="0">INFO</tspan></text>
            </g>
            <g id="Group_368" data-name="Group 368" transform="translate(10.633 72.085)">
              <rect id="Rectangle_203" data-name="Rectangle 203" width="94.807" height="33.435" rx="2.99" transform="translate(2.35) rotate(4.031)" fill="#f3f9fd"/>
              <g id="Group_367" data-name="Group 367" transform="translate(16.267 12.593)">
                <path id="Path_633" data-name="Path 633" d="M301.073,181.822l-61.239-4.315a1.3,1.3,0,0,1-1.2-1.383h0a1.3,1.3,0,0,1,1.384-1.2l61.239,4.316a1.3,1.3,0,0,1,1.2,1.383h0A1.294,1.294,0,0,1,301.073,181.822Z" transform="translate(-238.071 -174.919)" fill="#a0beed"/>
                <path id="Path_634" data-name="Path 634" d="M277.213,187.53l-37.9-2.671a1.3,1.3,0,0,1-1.2-1.383h0a1.3,1.3,0,0,1,1.383-1.2l37.9,2.671a1.3,1.3,0,0,1,1.2,1.384h0A1.294,1.294,0,0,1,277.213,187.53Z" transform="translate(-238.111 -174.348)" fill="#a0beed"/>
              </g>
            </g>
          </g>
          <g id="Group_377" data-name="Group 377" transform="translate(2.46 23.409)">
            <path id="Path_641" data-name="Path 641" d="M185.07,122.467c-4.813-18.511-43.437-20.917-49.764,2.777s-3.734,19.067-12.62,43.131,5.553,48.314,32.58,50.906,49.962-13.519,46.454-31.749-8.691-35.817-9.247-47.108A28.55,28.55,0,0,0,185.07,122.467Z" transform="translate(-51.809 -108.028)" fill="url(#linear-gradient-2)"/>
            <g id="Group_375" data-name="Group 375" transform="translate(0 65.992)">
              <path id="Path_642" data-name="Path 642" d="M345.359,239.1c-3.621,1.876-8.95,4.007-13.964,5.987-6.122,2.419-11.773,4.6-13.246,5.769l-13.458-30.108a39.791,39.791,0,0,1,2.23-5.1c4.078-7.879,10.837-15.628,14.1-14.035,3.975,1.946-.652,14.812-.652,14.812s11.293-5.372,14.073-9.44,8.977-10.554,12.121-7.961-4.813,12.5-8.978,17.493c5.367-1.669,11.941-11.848,16.106-8.977s-4.9,15.639-9.809,18.695c9.163-2.5,13.421-11.387,16.846-8.054S353.413,234.934,345.359,239.1Z" transform="translate(-37.464 -166.997)" fill="url(#linear-gradient-3)"/>
              <path id="Path_643" data-name="Path 643" d="M331.4,243.845c-6.122,2.419-11.773,4.6-13.246,5.769l-13.458-30.108a39.791,39.791,0,0,1,2.23-5.1Z" transform="translate(-37.464 -165.755)" fill="url(#linear-gradient-4)"/>
              <path id="Path_644" data-name="Path 644" d="M217.7,410.18c-43.3-15.465-83.18-44.823-113.121-80.745l3.47-38.563L210.92,311.7Z" transform="translate(-53.013 -159.814)" fill="#330e49"/>
              <path id="Path_645" data-name="Path 645" d="M337.795,254.089c-.038.3-3.143,2.457-8.14,5.671-13.719,8.8-41.707,25.531-59.771,33.665-2.578,1.159-4.949,2.142-7.052,2.9a25.9,25.9,0,0,1-7.036,1.762c-4.84.184-10.925-4.094-16.879-9.875-11.816-11.462-23.11-28.814-23.11-28.814s-.995,5.927-3.018,13.323c-.512,1.892-1.1,3.878-1.746,5.883a21.5,21.5,0,0,0-.843,4.585,74.453,74.453,0,0,0-.147,9.673c.13,3.431.4,7.026.7,10.462.761,8.445,1.729,15.883,1.4,17.346-.277,1.23-17.977,1.469-39.038,1.322-31.3-.228-70.043-1.322-70.043-1.322s.392-7.362.919-17.346c.169-3.263.359-6.8.55-10.462.163-3.176.337-6.438.511-9.673.185-3.562.37-7.1.544-10.468.657-12.534,1.18-22.714,1.18-23.132l-1.594-4.47L88.737,198.983c10.821-13.257,58.211-23.621,58.211-23.621l31.952,4.2s34.872,9.5,46.536,20.979,34.056,50.718,38.5,49.978c3.349-.56,31.13-17.755,45.933-26.09,4.828-2.719,8.276-4.5,9.048-4.454C322.063,220.158,337.98,252.664,337.795,254.089Z" transform="translate(-54.243 -168.789)" fill="url(#linear-gradient-5)"/>
              <path id="Path_646" data-name="Path 646" d="M254.484,293.617a25.9,25.9,0,0,1-7.036,1.762c-4.84.184-10.925-4.094-16.879-9.875-11.816-11.462-23.11-28.814-23.11-28.814,1.066-20.919-11.707-44.383-11.289-46.324s13.464,24.367,27.075,46.683C232.26,271.838,246.148,285.852,254.484,293.617Z" transform="translate(-45.897 -166.077)" fill="url(#linear-gradient-6)"/>
              <path id="Path_647" data-name="Path 647" d="M102.037,317.639s3.7-69.972,3.7-71.081l-1.594-4.47,17.39-27.683c-2.839,38.259,7.161,68.988,25.672,85.094,8.575,7.461,17.624,14.285,24.871,19.462C140.776,318.733,102.037,317.639,102.037,317.639Z" transform="translate(-53.21 -165.755)" fill="url(#linear-gradient-7)"/>
              <path id="Path_648" data-name="Path 648" d="M211.612,265.7c-.512,1.892-1.1,3.878-1.746,5.883a21.5,21.5,0,0,0-.843,4.585H103.874c.185-3.562.37-7.1.544-10.468Z" transform="translate(-53.067 -161.769)" fill="#fff" opacity="0.25"/>
              <path id="Path_649" data-name="Path 649" d="M209.655,294.855H102.89c.169-3.263.359-6.8.55-10.462H208.953C209.083,287.824,209.355,291.419,209.655,294.855Z" transform="translate(-53.144 -160.317)" fill="#fff" opacity="0.25"/>
              <path id="Path_650" data-name="Path 650" d="M147.133,169.263c-4.361.556-7.763,4.72-5.4,9.858s8.261,12.565,21.381,11.593,12.843-11.454,10.9-15.411-8.951-3.54-8.951-3.54Z" transform="translate(-50.186 -169.263)" fill="url(#linear-gradient-8)"/>
              <g id="Group_374" data-name="Group 374" transform="translate(25.516 89.503)">
                <g id="Group_373" data-name="Group 373">
                  <path id="Path_651" data-name="Path 651" d="M197.377,299.681,177.5,325.249l-23.48,30.207-13.562,17.438a3.058,3.058,0,0,1-4.29.539L81.587,331a3.062,3.062,0,0,1-.539-4.29l6.906-8.879,35.063-45.1,14.958-19.238a3.055,3.055,0,0,1,4.285-.539L196.844,295.4A3.049,3.049,0,0,1,197.377,299.681Z" transform="translate(-80.407 -252.313)" fill="url(#linear-gradient-9)"/>
                  <path id="Path_652" data-name="Path 652" d="M176.953,323.776l-23.48,30.206L87.41,316.354l35.062-45.095Z" transform="translate(-79.863 -250.841)" fill="url(#linear-gradient-10)"/>
                  <path id="Path_653" data-name="Path 653" d="M167.509,281.3l-12.344-9.6a4.122,4.122,0,0,1-.723-5.784h0a4.122,4.122,0,0,1,5.784-.724l12.343,9.6a4.121,4.121,0,0,1,.724,5.784h0A4.122,4.122,0,0,1,167.509,281.3Z" transform="translate(-74.722 -251.38)" fill="#330e49"/>
                </g>
                <path id="Path_654" data-name="Path 654" d="M149.879,332.586c2.708,4.583,14.785,4.655,14.231,9.234s-12.219,7.5-21.31.206c4.926,6.113,10.343,6.319,9.853,10.278s-7.771,7.427-19.3-2.36a52.955,52.955,0,0,1-10.446-13.051c-5.394-9-8.788-18.331-9.962-20.13l17.08-19.44a21.08,21.08,0,0,1,7.281.614c10.984,2.6,24.676,11.55,24.785,15.906.141,5.351-13.964-.55-14.29-.685.2.277,6.444,9.054,10.407,11.517,4.024,2.495,15.269.136,15.133,5.692S159.873,338,149.879,332.586Z" transform="translate(-77.879 -248.824)" fill="url(#linear-gradient-11)"/>
                <path id="Path_655" data-name="Path 655" d="M137.307,297.937l-14.4,38.956c-5.394-9-8.788-18.331-9.962-20.13l17.08-19.44A21.08,21.08,0,0,1,137.307,297.937Z" transform="translate(-77.879 -248.824)" fill="url(#linear-gradient-12)"/>
                <path id="Path_656" data-name="Path 656" d="M160.056,333.734c-16.94-1.391-20.829-10.74-20.829-10.74" transform="translate(-75.837 -246.821)" fill="none" stroke="#d16b83" stroke-linecap="round" stroke-linejoin="round" stroke-width="1.009"/>
                <path id="Path_657" data-name="Path 657" d="M148.661,345.633c-13.727-9.918-14.93-13.621-14.93-13.621" transform="translate(-76.264 -246.12)" fill="none" stroke="#d16b83" stroke-linecap="round" stroke-linejoin="round" stroke-width="1.009"/>
              </g>
              <path id="Path_658" data-name="Path 658" d="M118.516,328.86c-.647-.36-4.442-2.671-9.87-6.177-9.825-6.363-24.991-16.667-36.421-26.444-6.531-5.59-11.844-11.007-14.236-15.417-2.246-4.138-1.3-11.414,1.371-19.972C67.244,235.516,90.2,198.915,90.2,198.915c9.717-13.328,29.988-3.333,34.431,11.936s-22.769,50.815-21.659,55.258c.81,3.246,20.168,19.995,30.957,29.527a88.835,88.835,0,0,1,7.085,6.569C142.122,304.15,121.017,330.251,118.516,328.86Z" transform="translate(-56.73 -167.443)" fill="url(#linear-gradient-13)"/>
              <path id="Path_659" data-name="Path 659" d="M320.42,219.891c2.985,5.276.694,13.606.694,13.606" transform="translate(-36.242 -165.329)" fill="none" stroke="#d16b83" stroke-linecap="round" stroke-linejoin="round" stroke-width="1.009"/>
              <path id="Path_660" data-name="Path 660" d="M77.885,276.931a21.066,21.066,0,0,1-5.66,14.394c-6.531-5.59-11.844-11.007-14.236-15.417-2.246-4.138-1.3-11.414,1.371-19.972A21.161,21.161,0,0,1,77.885,276.931Z" transform="translate(-56.73 -162.528)" fill="url(#linear-gradient-14)"/>
              <path id="Path_661" data-name="Path 661" d="M259.056,285.651c-6.177,2.778-11.2,4.557-14.089,4.665-4.84.184-10.925-4.094-16.879-9.875a20.268,20.268,0,0,1,30.968,5.21Z" transform="translate(-43.416 -161.015)" fill="url(#linear-gradient-15)"/>
              <path id="Path_662" data-name="Path 662" d="M114.773,321.437c-.647-.36-4.442-2.671-9.87-6.177,7.738-8.255,18.663-19.918,25.281-27.047a88.835,88.835,0,0,1,7.085,6.569C138.379,296.728,117.274,322.829,114.773,321.437Z" transform="translate(-52.987 -160.021)" fill="#fff" opacity="0.25"/>
              <path id="Path_663" data-name="Path 663" d="M321.852,250.873c-.038.3-3.143,2.457-8.14,5.671L293.924,221.21c4.828-2.719,8.276-4.5,9.048-4.454C306.12,216.941,322.037,249.448,321.852,250.873Z" transform="translate(-38.3 -165.573)" fill="#fff" opacity="0.25"/>
            </g>
            <g id="Group_376" data-name="Group 376" transform="translate(86.5 19.531)">
              <path id="Path_664" data-name="Path 664" d="M171.418,161.116l-1.071,13.165-.223,2.757s-.739,7.031-9.347,7.031c-13.143,0-15.367-9.9-15.367-9.9s.925-8.609.925-21.566l23.273,7.9Z" transform="translate(-136.34 -124.096)" fill="url(#linear-gradient-16)"/>
              <path id="Path_665" data-name="Path 665" d="M171.319,160.614l-1.071,13.165a19.42,19.42,0,0,1-16.237-2.333c-9.07-5.649-8.238-15.089-5.335-11.659l20.832.212Z" transform="translate(-136.241 -123.594)" fill="url(#linear-gradient-17)"/>
              <path id="Path_666" data-name="Path 666" d="M182.834,153.046c-.473,7.368-3.111,17.993-16.313,17.993-10.245,0-15.438-5.514-18-10.211v-.006a22.016,22.016,0,0,1-2.36-6.535s-9.207-.321-9.163-6.156,4.583-6.106,7.221-5.417,2.867,7.222,3.7,7.222c.12,0,.245-.255.38-.712.075-.261.157-.587.234-.973a107.989,107.989,0,0,0,1.511-16.6c7.466,5.122,16.613-2.447,16.911-2.7-.147.207-3.6,5.074-.065,5.96,3.61.9,16.014-8.766,16.014-8.766v20.914C182.9,148.25,183,150.447,182.834,153.046Z" transform="translate(-136.994 -126.151)" fill="url(#linear-gradient-18)"/>
              <path id="Path_667" data-name="Path 667" d="M139.743,145.261c2.082-2.036,4.767,1.3,3.98,3.841" transform="translate(-136.78 -124.715)" fill="none" stroke="#d16b83" stroke-linecap="round" stroke-miterlimit="10" stroke-width="1.009"/>
              <path id="Path_668" data-name="Path 668" d="M165.493,143.069l3.119,8.5a2.487,2.487,0,0,1-1.232,3.085l-2.488,1.232" transform="translate(-134.826 -124.836)" fill="none" stroke="#d16b83" stroke-linecap="round" stroke-linejoin="round" stroke-width="1.009"/>
              <path id="Path_669" data-name="Path 669" d="M159.947,146.158a1.527,1.527,0,1,1-1.527-1.527A1.527,1.527,0,0,1,159.947,146.158Z" transform="translate(-135.448 -124.715)" fill="#330e49"/>
              <path id="Path_670" data-name="Path 670" d="M175.454,146.158a1.527,1.527,0,1,1-1.527-1.527A1.527,1.527,0,0,1,175.454,146.158Z" transform="translate(-134.243 -124.715)" fill="#330e49"/>
              <path id="Path_671" data-name="Path 671" d="M154.316,140.6a6.932,6.932,0,0,1,7.532-.486" transform="translate(-135.648 -125.135)" fill="none" stroke="#330e49" stroke-linecap="round" stroke-linejoin="round" stroke-width="1.514"/>
              <path id="Path_672" data-name="Path 672" d="M177.307,140.6a6.932,6.932,0,0,0-7.532-.486" transform="translate(-134.447 -125.135)" fill="none" stroke="#330e49" stroke-linecap="round" stroke-linejoin="round" stroke-width="1.514"/>
              <path id="Path_558" data-name="Path 558" d="M159.518,158.976c4.218,3.293,7.775.834,7.775.834" transform="translate(-135.244 -123.6)" fill="none" stroke="#c47182" stroke-linecap="round" stroke-linejoin="round" stroke-width="0.956"/>
            </g>
          </g>
        </g>
        <path id="Path_673" data-name="Path 673" d="M239.8,415.493q-3.328-.653-6.634-1.43c-.984-.228-1.962-.462-2.946-.712q-5.3-1.314-10.555-2.921-1.052-.317-2.1-.652-1.557-.49-3.11-1.012c-.7-.228-1.391-.462-2.088-.707-.81-.277-1.615-.559-2.426-.848-.929-.332-1.864-.674-2.794-1.022-.87-.321-1.74-.653-2.6-.99l-.174-.065a138.74,138.74,0,0,1,3.643-26.009c8.63-35.725,29.853-53.36,42.219-49.547,11.147,3.43-9.652,37.633-21.708,55.867,10.25-13.431,29.451-33.312,49.88-27.287,22.148,6.531-16.5,29.946-38.564,41.909,17.347-8.124,46.961-18.934,64.144-8.036C325.884,405.927,266.624,406.879,239.8,415.493Z" transform="translate(-42.798 -67.445)" fill="url(#linear-gradient-19)"/>
        <g id="Group_379" data-name="Group 379" transform="translate(169.568 270.393)" opacity="0.25">
          <path id="Path_674" data-name="Path 674" d="M240.131,339.1a88.149,88.149,0,0,0-11.474,16.878c-5.807,11.007-9.516,22.991-12,35.15-1.153,5.633-2.044,11.309-2.779,17.008-.7-.228-1.391-.462-2.088-.707,1.686-12.86,4.155-25.676,8.57-37.906,4.192-11.6,10.086-22.632,18.233-31.962C239.516,336.5,241.044,338.048,240.131,339.1Z" transform="translate(-211.79 -337.205)" fill="#fff"/>
          <path id="Path_675" data-name="Path 675" d="M267.1,366.272a84.536,84.536,0,0,0-14.8,6.8,89.436,89.436,0,0,0-22.169,18.234,87.068,87.068,0,0,0-11.414,16.4q-1.052-.317-2.1-.652,1.82-3.442,3.942-6.716a91.385,91.385,0,0,1,19.93-21.832,89.435,89.435,0,0,1,26.035-14.333C267.847,363.717,268.413,365.816,267.1,366.272Z" transform="translate(-211.415 -335.115)" fill="#fff"/>
          <path id="Path_676" data-name="Path 676" d="M284.689,392.248a113.14,113.14,0,0,0-16.868,2.349,116.5,116.5,0,0,0-28.6,10.255q-4.046,2.081-7.918,4.47c-.984-.228-1.962-.462-2.946-.712a118.983,118.983,0,0,1,25.872-12.491,117.167,117.167,0,0,1,30.457-6.047C286.091,389.986,286.081,392.162,284.689,392.248Z" transform="translate(-210.503 -333.097)" fill="#fff"/>
        </g>
      </g>
    </g>
  </g>
</svg>
