<svg xmlns="http://www.w3.org/2000/svg" width="500.08" height="418.61" viewBox="0 0 500.08 418.61">
  <g id="Group_2410" data-name="Group 2410" transform="translate(-50 -211.695)">
    <g id="Group_2409" data-name="Group 2409" transform="translate(-778.231 -602.695)">
      <path id="Path_610" data-name="Path 610" d="M1062.805,1227.5c-.277-.051-.561-.11-.839-.167q-3.948-.775-7.871-1.7c-1.167-.271-2.328-.548-3.5-.845q-6.288-1.559-12.523-3.465-1.248-.376-2.492-.773-1.847-.582-3.69-1.2c-.831-.271-1.65-.548-2.477-.839-.961-.329-1.916-.663-2.879-1.006-1.1-.393-2.211-.8-3.315-1.212-1.032-.381-2.064-.775-3.085-1.174l-.207-.078q-3.456-1.335-6.872-2.768c-.742-.31-1.491-.625-2.233-.949s-1.509-.651-2.254-.981c-.5-.212-.993-.431-1.483-.657-.475-.208-.955-.426-1.432-.646-.529-.237-1.058-.475-1.588-.722-.748-.342-1.49-.691-2.239-1.044q-1.068-.5-2.149-1.02c-.077-.033-.148-.071-.218-.1-.7-.335-1.387-.678-2.084-1.013-1.483-.73-2.966-1.478-4.432-2.233l-2.169-1.123q-5.535-2.9-10.966-6.051-2.135-1.239-4.251-2.5c-.831-.491-1.652-.994-2.472-1.5-.741-.451-1.477-.91-2.219-1.375q-4.644-2.894-9.2-5.968c-.534-.362-1.068-.722-1.606-1.09q-1.366-.928-2.729-1.883c-.459-.316-.917-.639-1.375-.961q-.712-.5-1.424-1.013c-.58-.407-1.161-.831-1.734-1.246q-8.542-6.17-16.689-12.916-.669-.552-1.336-1.11-1.935-1.607-3.832-3.252-6.669-5.73-13.019-11.82-.908-.87-1.807-1.742c-.6-.58-1.2-1.167-1.794-1.755-.49-.484-.982-.968-1.47-1.459q-1.045-1.035-2.071-2.091-.881-.889-1.755-1.793-2.342-2.41-4.627-4.871c-.593-.632-1.186-1.278-1.773-1.915-1.187-1.284-2.342-2.573-3.5-3.878-.334-.374-.672-.748-1-1.13l-.949-1.083c-.548-.626-1.1-1.257-1.631-1.885s-1.085-1.258-1.62-1.9-1.068-1.264-1.6-1.9q-3.669-4.39-7.156-8.9-5.4-6.947-10.354-14.129-3.959-5.709-7.62-11.56-6.793-10.85-12.549-22.078a262.438,262.438,0,0,1-13.833-32.012q-1.869-5.255-3.463-10.549c-12.509-41.306-12.886-83.757,3.4-122.26,51.773-122.333,190.94-97.812,260.153-26.18q3.8,3.93,7.309,8.038c.465.536.917,1.068,1.362,1.606,25.013,30.084,95.96,12.852,150.257,29.068q4.5,1.344,8.826,3.006c27.089,10.441,48.78,31.065,56.374,73.086C1348.1,1116.474,1247.952,1263.408,1062.805,1227.5Z" fill="#f7f7f7"/>
      <g id="Group_361" data-name="Group 361" transform="translate(1041.345 879.04)" opacity="0.51">
        <rect id="Rectangle_197" data-name="Rectangle 197" width="75.246" height="158.264" rx="10.126" transform="matrix(0.072, -0.997, 0.997, 0.072, 43.315, 271.741)" fill="#d7d7d7"/>
        <rect id="Rectangle_198" data-name="Rectangle 198" width="141.527" height="108.452" rx="9.481" transform="matrix(0.077, -0.997, 0.997, 0.077, 135.733, 195.407)" fill="#bababa"/>
        <path id="Path_611" data-name="Path 611" d="M1520.938,975.734l-.167,2.659a7.911,7.911,0,0,1-8.4,7.393h0l-63.7-4.034a2.169,2.169,0,0,0-1.587.542l-16.438,14.474a2.194,2.194,0,0,1-3.639-1.788l.779-12.361a2.19,2.19,0,0,0-2.041-2.33h-.01l-59.5-3.773a7.915,7.915,0,0,1-7.394-8.4l1.651-26.064q.7.8,1.362,1.606C1388.25,975.4,1465.785,954.463,1520.938,975.734Z" transform="translate(-1303.238 -942.052)" fill="#bababa"/>
        <rect id="Rectangle_199" data-name="Rectangle 199" width="39.669" height="112.485" rx="7.005" transform="matrix(0.07, -0.998, 0.998, 0.07, 0, 80.005)" fill="#bababa"/>
      </g>
      <g id="Group_372" data-name="Group 372" transform="translate(1034.144 824.191)">
        <g id="Group_364" data-name="Group 364" transform="translate(41.96 243.694)">
          <rect id="Rectangle_201" data-name="Rectangle 201" width="75.397" height="158.581" rx="10.145" transform="matrix(0.072, -0.997, 0.997, 0.072, 0, 75.201)" fill="#fff"/>
          <g id="Group_363" data-name="Group 363" transform="translate(21.754 21.315)">
            <path id="Path_620" data-name="Path 620" d="M1425.119,1370.376l-56.085-4.034a4.655,4.655,0,0,1-4.309-4.976h0a4.654,4.654,0,0,1,4.975-4.31h.008l56.085,4.034a4.655,4.655,0,0,1,4.31,4.976v.008h0A4.655,4.655,0,0,1,1425.119,1370.376Z" transform="translate(-1362.656 -1357.045)" fill="#edc9a0"/>
            <path id="Path_621" data-name="Path 621" d="M1426.369,1395.569l-61.78-4.445a1.8,1.8,0,0,1-1.661-1.924h0a1.8,1.8,0,0,1,1.924-1.661l61.781,4.445a1.8,1.8,0,0,1,1.661,1.925h0A1.8,1.8,0,0,1,1426.369,1395.569Z" transform="translate(-1361.772 -1372.094)" fill="#edc9a0"/>
            <path id="Path_622" data-name="Path 622" d="M1425.234,1411.341l-61.781-4.445a1.8,1.8,0,0,1-1.661-1.924h0a1.8,1.8,0,0,1,1.925-1.661l61.78,4.445a1.8,1.8,0,0,1,1.661,1.924h0A1.8,1.8,0,0,1,1425.234,1411.341Z" transform="translate(-1361.212 -1379.878)" fill="#edc9a0"/>
            <path id="Path_623" data-name="Path 623" d="M1393.445,1424.9l-31.129-2.24a1.8,1.8,0,0,1-1.661-1.924h0a1.8,1.8,0,0,1,1.924-1.661h0l31.129,2.239a1.8,1.8,0,0,1,1.661,1.924h0A1.8,1.8,0,0,1,1393.445,1424.9Z" transform="translate(-1360.651 -1387.661)" fill="#edc9a0"/>
          </g>
        </g>
        <g id="Group_365" data-name="Group 365" transform="translate(135.734 99.382)">
          <rect id="Rectangle_202" data-name="Rectangle 202" width="141.532" height="108.456" rx="9.481" transform="translate(0 141.113) rotate(-85.59)" fill="#fff"/>
          <path id="Path_624" data-name="Path 624" d="M1621.827,1086.231l-66.787-5.152a6.134,6.134,0,0,1-5.645-6.588h0a6.135,6.135,0,0,1,6.588-5.646l66.788,5.151a6.135,6.135,0,0,1,5.645,6.588h0A6.137,6.137,0,0,1,1621.827,1086.231Z" transform="translate(-1525.823 -1049.16)" fill="#edc9a0"/>
          <path id="Path_625" data-name="Path 625" d="M1620.178,1159.593l-74.219-5.724a2.408,2.408,0,0,1-2.216-2.586h0a2.407,2.407,0,0,1,2.584-2.217h0l74.22,5.725a2.407,2.407,0,0,1,2.216,2.584v0h0A2.408,2.408,0,0,1,1620.178,1159.593Z" transform="translate(-1523.039 -1088.76)" fill="#edc9a0"/>
          <path id="Path_626" data-name="Path 626" d="M1618.416,1182.414l-74.22-5.724a2.408,2.408,0,0,1-2.215-2.585v0h0a2.407,2.407,0,0,1,2.584-2.216h0l74.217,5.721a2.407,2.407,0,0,1,2.217,2.584h0a2.409,2.409,0,0,1-2.583,2.22Z" transform="translate(-1522.169 -1100.025)" fill="#edc9a0"/>
          <path id="Path_627" data-name="Path 627" d="M1616.655,1205.238l-74.22-5.725a2.407,2.407,0,0,1-2.217-2.584h0a2.409,2.409,0,0,1,2.587-2.216l74.22,5.725a2.407,2.407,0,0,1,2.216,2.584h0A2.408,2.408,0,0,1,1616.655,1205.238Z" transform="translate(-1521.299 -1111.29)" fill="#edc9a0"/>
          <path id="Path_628" data-name="Path 628" d="M1614.9,1228.056l-74.225-5.728a2.407,2.407,0,0,1-2.216-2.584h0a2.409,2.409,0,0,1,2.586-2.217l74.22,5.724a2.409,2.409,0,0,1,2.217,2.586h0A2.409,2.409,0,0,1,1614.9,1228.056Z" transform="translate(-1520.431 -1122.551)" fill="#edc9a0"/>
          <path id="Path_629" data-name="Path 629" d="M1613.139,1250.881l-74.219-5.724a2.407,2.407,0,0,1-2.216-2.584h0a2.408,2.408,0,0,1,2.586-2.216h0l74.22,5.724a2.407,2.407,0,0,1,2.215,2.585h0a2.407,2.407,0,0,1-2.584,2.216Z" transform="translate(-1519.564 -1133.819)" fill="#edc9a0"/>
          <path id="Path_630" data-name="Path 630" d="M1583.512,1271.555l-46.355-3.575a2.407,2.407,0,0,1-2.216-2.584h0a2.407,2.407,0,0,1,2.584-2.217h0l46.353,3.573a2.409,2.409,0,0,1,2.217,2.586h0a2.407,2.407,0,0,1-2.584,2.217Z" transform="translate(-1518.694 -1145.084)" fill="#edc9a0"/>
          <path id="Path_631" data-name="Path 631" d="M1579.581,1118.654l-27.278-2.1a6.135,6.135,0,0,1-5.645-6.588h0a6.135,6.135,0,0,1,6.589-5.645l27.278,2.1a6.135,6.135,0,0,1,5.645,6.588h0a6.134,6.134,0,0,1-6.587,5.646Z" transform="translate(-1524.472 -1066.667)" fill="#edc9a0"/>
        </g>
        <g id="Group_366" data-name="Group 366" transform="translate(55.592 0)">
          <path id="Path_632" data-name="Path 632" d="M1510.605,851.426l-4.047,63.748a7.907,7.907,0,0,1-8.391,7.393h0l-63.7-4.042a2.193,2.193,0,0,0-1.59.542l-16.439,14.475a2.194,2.194,0,0,1-3.639-1.78l.786-12.363a2.194,2.194,0,0,0-2.051-2.328h0l-59.51-3.775a7.911,7.911,0,0,1-7.393-8.4l4.046-63.748a7.91,7.91,0,0,1,8.4-7.393l146.136,9.276a7.91,7.91,0,0,1,7.4,8.39Z" transform="translate(-1344.613 -833.744)" fill="#ff7f00"/>
          <g id="INFO" transform="translate(33.769 17.138)" style="isolation: isolate">
            <text id="INFO-2" data-name="INFO" transform="translate(0.539 31.936) rotate(3.632)" fill="#fff" font-size="33" font-family="Montserrat-ExtraBold, Montserrat" font-weight="800" letter-spacing="0.08em" style="isolation: isolate"><tspan x="0" y="0">INFO</tspan></text>
          </g>
        </g>
        <g id="Group_368" data-name="Group 368" transform="translate(0 85.521)">
          <rect id="Rectangle_203" data-name="Rectangle 203" width="39.669" height="112.484" rx="7.005" transform="translate(0 39.571) rotate(-85.969)" fill="#fff"/>
          <g id="Group_367" data-name="Group 367" transform="translate(19.299 14.944)">
            <path id="Path_633" data-name="Path 633" d="M1348.345,1040.314l-72.657-5.119a1.543,1.543,0,0,1-1.424-1.641h0a1.542,1.542,0,0,1,1.642-1.424l72.657,5.12a1.543,1.543,0,0,1,1.424,1.641h0a1.536,1.536,0,0,1-1.64,1.423Z" transform="translate(-1273.596 -1032.127)" fill="#edc9a0"/>
            <path id="Path_634" data-name="Path 634" d="M1319.341,1056.926l-44.966-3.169a1.542,1.542,0,0,1-1.424-1.641h0a1.542,1.542,0,0,1,1.641-1.424l44.967,3.169a1.542,1.542,0,0,1,1.423,1.642h0a1.535,1.535,0,0,1-1.64,1.422Z" transform="translate(-1272.947 -1041.289)" fill="#edc9a0"/>
          </g>
        </g>
      </g>
      <path id="Path_641" data-name="Path 641" d="M1063.885,883.234c-5.71-21.962-56.165-21.26-62.289,10.128-4.051,20.763-8.021,16.182-8.609,30.891-.506,12.661,12.66,27.347,34.436,26.84,32.2-.749,35.328-3.8,40.007-25.321C1075.026,890.831,1063.885,883.234,1063.885,883.234Z" transform="translate(-81.313 -26.503)" fill="#5e4343"/>
      <path id="Path_644" data-name="Path 644" d="M1070.01,1466.439c-51.374-18.348-98.689-53.18-134.212-95.8l4.117-45.753,113.981,18.289Z" transform="translate(-53.093 -251.972)" fill="#d9b978"/>
      <path id="Path_645" data-name="Path 645" d="M1054.208,1128.39c-6.656-8.617-21.776-20.763-21.776-20.763a37.349,37.349,0,0,1-.506,16.712s-6.077,51.655-1.519,85.078c-1.49,15.359-17.306-2.475-42.294-2.65-37.136-.27-83.1-1.568-83.1-1.568s13.359,9.986,13.985-1.859c.2-3.872,8.889-6.29,9.116-10.635.193-3.768,1.819-19.457,2.026-23.3.219-4.226,2.832-33.985,3.039-37.981,2.532-27.853-8.609-41.03-8.609-41.526l-16.205,25.827L880,1093.953c33.424-70.9,77.066-61.156,77.066-61.156l32.32,2.411s26.168,2.08,40.007,15.7c6.919,6.81,39.427,38.8,49.629,51.148Z" transform="translate(-25.552 -107.579)" fill="#d9b978"/>
      <path id="Path_648" data-name="Path 648" d="M1061.845,1261.332c-.607,2.245-1.305,4.6-2.071,6.98a25.5,25.5,0,0,0-1,5.44H934.02c.219-4.226.439-8.424.645-12.42Z" transform="translate(-52.216 -220.603)" fill="#fff" opacity="0.25" style="isolation: isolate"/>
      <path id="Path_649" data-name="Path 649" d="M1058.205,1320.941H931.534c.2-3.871.426-8.068.652-12.412h125.186C1057.527,1312.6,1057.849,1316.865,1058.205,1320.941Z" transform="translate(-50.989 -243.898)" fill="#fff" opacity="0.25" style="isolation: isolate"/>
      <path id="Path_664" data-name="Path 664" d="M1068.749,992.905l-1.271,17.21-.265,3.6s-1.414,14.255-5.972,14.255c-6.583,0-23.35-18.006-23.35-18.006s1.1-11.254,1.1-28.191L1066.6,992.1Z" transform="translate(-103.485 -82.619)" fill="#ffc28f"/>
      <path id="Path_665" data-name="Path 665" d="M1071.341,993.919l-1.271,15.62a23.042,23.042,0,0,1-19.265-2.768c-10.761-6.7-9.774-17.9-6.33-13.833l24.716.252Z" transform="translate(-105.57 -87.7)" fill="#e08057"/>
      <path id="Path_666" data-name="Path 666" d="M1039,945.657a122.087,122.087,0,0,0,1.519-19.244c8.858,6.077,22.858-10.563,23.212-10.863-.175.246-4.272,6.02-.078,7.071,4.283,1.068,18.9-6.843,18.9-6.843l.1,21.256c0,1.413.114,4.019-.083,7.1-.561,8.742-3.691,21.348-19.354,21.348-12.155,0-18.317-6.542-21.356-12.115v-.007c-1.338-2.42-1.837-1.445-2.354-4.162" transform="translate(-104.032 -49.931)" fill="#ffc28f"/>
      <path id="Path_668" data-name="Path 668" d="M1088.8,951.707l3.7,10.085a2.95,2.95,0,0,1-1.462,3.66l-2.952,1.462" transform="translate(-128.258 -67.777)" fill="none" stroke="#e08057" stroke-linecap="round" stroke-miterlimit="10" stroke-width="2"/>
      <path id="Path_669" data-name="Path 669" d="M1071.507,957.461a1.812,1.812,0,1,1-1.811-1.811h0A1.811,1.811,0,0,1,1071.507,957.461Z" transform="translate(-118.288 -69.724)" fill="#330e49"/>
      <path id="Path_670" data-name="Path 670" d="M1110.66,957.461a1.812,1.812,0,1,1-1.812-1.811h0A1.811,1.811,0,0,1,1110.66,957.461Z" transform="translate(-137.614 -69.724)" fill="#330e49"/>
      <path id="Path_671" data-name="Path 671" d="M1061.378,943.635a8.223,8.223,0,0,1,8.936-.577" transform="translate(-115.077 -62.989)" fill="none" stroke="#330e49" stroke-linecap="round" stroke-miterlimit="10" stroke-width="2"/>
      <path id="Path_672" data-name="Path 672" d="M1109.346,943.635a8.223,8.223,0,0,0-8.936-.577" transform="translate(-134.343 -62.989)" fill="none" stroke="#330e49" stroke-linecap="round" stroke-miterlimit="10" stroke-width="2"/>
      <path id="Path_558" data-name="Path 558" d="M1074.512,991.87c5,3.907,9.224.99,9.224.99" transform="translate(-121.56 -87.601)" fill="none" stroke="#e08057" stroke-linecap="round" stroke-miterlimit="10" stroke-width="2"/>
      <path id="Path_673" data-name="Path 673" d="M1229.8,1523.864q-3.949-.775-7.871-1.7c-1.168-.271-2.328-.548-3.5-.845q-6.288-1.559-12.523-3.465-1.248-.376-2.492-.774-1.847-.581-3.69-1.2c-.83-.271-1.65-.548-2.477-.839-.961-.329-1.916-.663-2.878-1.006-1.1-.394-2.212-.8-3.315-1.212-1.033-.381-2.065-.775-3.085-1.175l-.206-.077a164.545,164.545,0,0,1,4.322-30.859c10.239-42.386,35.419-63.309,50.09-58.785,13.226,4.07-11.452,44.65-25.755,66.284,12.161-15.935,34.942-39.523,59.181-32.375,26.277,7.749-19.577,35.53-45.754,49.723,20.581-9.639,55.717-22.464,76.1-9.534C1331.934,1512.515,1261.625,1513.644,1229.8,1523.864Z" transform="translate(-177.461 -299.572)" fill="#f2c50c"/>
      <g id="Group_379" data-name="Group 379" transform="translate(1019.79 1132.158)" opacity="0.25">
        <path id="Path_674" data-name="Path 674" d="M1240.118,1444.121a104.6,104.6,0,0,0-13.614,20.025c-6.89,13.059-11.29,27.278-14.237,41.7-1.368,6.684-2.425,13.417-3.3,20.179-.831-.27-1.651-.548-2.477-.839,2-15.258,4.929-30.464,10.168-44.973,4.974-13.763,11.967-26.852,21.633-37.922C1239.388,1441.036,1241.2,1442.873,1240.118,1444.121Z" transform="translate(-1206.493 -1441.873)" fill="#fff"/>
        <path id="Path_675" data-name="Path 675" d="M1278.576,1512.367a100.307,100.307,0,0,0-17.56,8.068,106.117,106.117,0,0,0-26.3,21.634,103.331,103.331,0,0,0-13.542,19.458q-1.248-.376-2.492-.773,2.16-4.084,4.677-7.969a108.417,108.417,0,0,1,23.646-25.9,106.1,106.1,0,0,1,30.89-17.005C1279.462,1509.336,1280.133,1511.826,1278.576,1512.367Z" transform="translate(-1212.508 -1475.401)" fill="#fff"/>
        <path id="Path_676" data-name="Path 676" d="M1315.157,1577.935a134.2,134.2,0,0,0-20.013,2.787,138.2,138.2,0,0,0-33.932,12.167q-4.8,2.469-9.394,5.3c-1.168-.27-2.328-.548-3.5-.845a141.162,141.162,0,0,1,30.7-14.82,139,139,0,0,1,36.136-7.174C1316.82,1575.251,1316.808,1577.833,1315.157,1577.935Z" transform="translate(-1227.139 -1507.755)" fill="#fff"/>
      </g>
      <g id="Group_2352" data-name="Group 2352" transform="translate(914.267 974.035)">
        <path id="Path_4047" data-name="Path 4047" d="M998.314,1151.143a.632.632,0,0,1-.013-.893.648.648,0,0,1,.1-.083c.219-.362.386-.75.569-1.132a31.1,31.1,0,0,0,1.312-3.983c.187-.525.36-1.05.522-1.584a27.621,27.621,0,0,0,1.394-6.1,42.807,42.807,0,0,0,.494-7.212.555.555,0,0,1,1.109.035,34.05,34.05,0,0,1-.42,6.455A24.91,24.91,0,0,1,1002.1,1143c-.29,1.071-.667,2.11-1.006,3.164a17.78,17.78,0,0,1-1.4,3.936C999.439,1150.6,999.008,1151.62,998.314,1151.143Z" transform="translate(-998.123 -1129.633)" fill="#96793b"/>
      </g>
      <g id="Group_2353" data-name="Group 2353" transform="translate(911.868 949.327)">
        <path id="Path_4048" data-name="Path 4048" d="M1001.089,1103.264a.563.563,0,0,1-.539-.572c-.094-2.084-.008-4.258-.305-6.316a32.509,32.509,0,0,0-2.156-7.543,34.1,34.1,0,0,0-4.183-6.67c-.317-.347-.782-.7-.337-1.174a.562.562,0,0,1,.786.031,29.947,29.947,0,0,1,5.056,8.147,28.53,28.53,0,0,1,2.13,9.395c.053,1.388.08,2.777.117,4.165A.557.557,0,0,1,1001.089,1103.264Z" transform="translate(-993.386 -1080.844)" fill="#96793b"/>
      </g>
      <g id="Group_2354" data-name="Group 2354" transform="translate(933.875 931.346)">
        <path id="Path_4049" data-name="Path 4049" d="M1061.044,1082.772c-.262-.085-.367-.389-.5-.6-.126-.165-.26-.322-.353-.423a27.115,27.115,0,0,0-5.428-4.819c-3.039-2.459-6.17-4.772-8.978-7.5-.988-1.105-2.437-2.09-2.862-3.562-.053-1.969,2.038-3.547,3.027-5.072a28.063,28.063,0,0,1-5.072,1.33c-1.768.271-1.426-2.018-1.382-3.141a30.626,30.626,0,0,0-1.608-9.889c-.252-.765-.461-1.541-.74-2.3-.158-.455-.608-1.117.007-1.418a.562.562,0,0,1,.734.281,21.455,21.455,0,0,1,.787,2.23,31.2,31.2,0,0,1,1.728,7.718,25.149,25.149,0,0,1,.2,3.354,8.106,8.106,0,0,0,.036,2.062,25.129,25.129,0,0,0,4.928-1.268,3.8,3.8,0,0,1,1.8-.441c.693.228.51.827.122,1.256q-.738,1.07-1.578,2.062c-.527.721-2.2,2.39-1.811,3.281a27.069,27.069,0,0,0,4.289,4.388,31.573,31.573,0,0,0,2.757,2.3,20.671,20.671,0,0,0,1.748,1.413c1.36,1.095,2.719,2.181,4.15,3.179a25.845,25.845,0,0,1,3.367,3.177,7.4,7.4,0,0,1,1.246,1.508.585.585,0,0,1,.1.576A.563.563,0,0,1,1061.044,1082.772Z" transform="translate(-1036.841 -1045.337)" fill="#96793b"/>
      </g>
      <g id="Group_2355" data-name="Group 2355" transform="translate(960.315 928.931)">
        <path id="Path_4050" data-name="Path 4050" d="M1089.487,1080.332a.562.562,0,0,1-.426-.656c.2-.8.437-1.583.667-2.37a40.933,40.933,0,0,1,1.781-4.893c1.715-3.537,3.733-6.936,5.37-10.508v.01l-.007.015c.9-1.7-.307-2.477-1.353-3.643-.808-.783-1.593-1.593-2.325-2.452-.42-.438-.848-1.083-.124-1.479a1.115,1.115,0,0,1,.588-.063c.8.083,1.593.236,2.382.392.67.057,1.486.326,2.04-.182a14.818,14.818,0,0,0-.453-2.724c-.118-.828-.264-1.655-.367-2.485-.1-1.636-.281-3.264-.436-4.894-.118-.869-.187-1.745-.3-2.612-.034-.448-.238-1.088.382-1.212.668-.089.7.661.725,1.142.219,1.748.375,3.491.575,5.234a31.98,31.98,0,0,0,.4,3.858c.1,1.355.764,2.693.523,4.057-.914,1.753-3.24.82-4.766.639.837.895,1.721,1.76,2.552,2.657a4.526,4.526,0,0,1,1.344,2.043,3.6,3.6,0,0,1-.36,2.137c-.424.988-.944,1.93-1.416,2.894-.5,1.011-1.011,2.021-1.564,3.007a41.848,41.848,0,0,0-3.692,8.072c-.353,1-.635,2.016-.933,3.032C1090.19,1079.782,1090.079,1080.453,1089.487,1080.332Z" transform="translate(-1089.05 -1040.569)" fill="#96793b"/>
      </g>
      <g id="Group_2363" data-name="Group 2363" transform="translate(961.091 1062.067)">
        <path id="Path_4057" data-name="Path 4057" d="M1091.932,1328.474a.563.563,0,0,0,.587-.521q.036-2.128.065-4.253c0-3.257.057-6.526-.214-9.772-.187-3.321-.429-6.633-.679-9.95a.555.555,0,0,0-1.107.078c.362,5.151.83,10.3.891,15.465.034,2.742-.009,5.61-.066,8.37A.563.563,0,0,0,1091.932,1328.474Z" transform="translate(-1090.583 -1303.466)" fill="#96793b"/>
      </g>
      <g id="Group_2364" data-name="Group 2364" transform="translate(959.593 1013.088)">
        <path id="Path_4058" data-name="Path 4058" d="M1088.736,1207.236a.557.557,0,0,0-1.1.142h0c.038,2.777.249,5.561.3,8.342a46.033,46.033,0,0,0,.177,4.682c-.067,2.8.02,5.624.119,8.435-.054,3.281-.281,6.7-.114,10,.254,3.843.555,7.673.781,11.514a.555.555,0,0,0,1.107-.078c-.23-4.442-.691-8.874-.853-13.318.064-4.152.281-8.4.041-12.565a70.488,70.488,0,0,0-.171-7.248C1089.095,1213.84,1088.779,1210.55,1088.736,1207.236Z" transform="translate(-1087.626 -1206.75)" fill="#96793b"/>
      </g>
      <g id="Group_2365" data-name="Group 2365" transform="translate(957.09 969.268)">
        <path id="Path_4059" data-name="Path 4059" d="M1084.87,1124.926a34.007,34.007,0,0,0-1.107-4.329.556.556,0,0,0-1.052.358,4.32,4.32,0,0,1,.27.874,31.964,31.964,0,0,1,.844,3.572,37.167,37.167,0,0,0,.385,4.516,40.517,40.517,0,0,0,.7,4.968c.094,1.725.247,3.432.255,5.164-.058,1.514-.059,3.181.038,4.728q-.058,2.349-.1,4.7-.044,2.309-.094,4.615a.556.556,0,1,0,1.106.11.469.469,0,0,0,0-.047q.046-2.379.094-4.76c.044-2.394.138-4.78,0-7.175a62.819,62.819,0,0,0-.195-7.365,42.91,42.91,0,0,1-.677-4.754,20.175,20.175,0,0,1-.316-2.829A10.956,10.956,0,0,0,1084.87,1124.926Z" transform="translate(-1082.682 -1120.22)" fill="#96793b"/>
      </g>
      <g id="Group_2367" data-name="Group 2367" transform="translate(917.112 966.868)">
        <path id="Path_4061" data-name="Path 4061" d="M1067.427,1236.49c-1.42.215-2.858.344-4.282.57a22.843,22.843,0,0,1-6.053.438,10.337,10.337,0,0,1-1.593-1.087.549.549,0,0,0-.213-.238c-.077-.727-.115-1.457-.187-2.184-.125-1.084-.086-2.173-.172-3.26-.281-2.111-.563-4.231-.674-6.359-.232-2.846-.592-5.681-.7-8.537a49,49,0,0,1-.209-5.673c-.054-1.945-.286-3.883-.281-5.832-.017-1.622.027-3.243-.1-4.882-.132-2.531-.029-5.071-.114-7.629a44.809,44.809,0,0,0,.015-5.431c-.076-3.342-.107-6.728-.263-10.08-.079-2.077-.013-4.054-.057-6.169-.023-1.928-.115-3.853-.035-5.78-.132-3.742.082-7.524-.1-11.28-.014-1.411.105-2.938.094-4.365-.094-1.846-.142-3.866-.315-5.738-.281-3.259-.786-6.483-1.079-9.748a63.353,63.353,0,0,0-2.551-11.356,16.1,16.1,0,0,0-2.047-4.158,5.169,5.169,0,0,0-1.452-1.678c-.141-.142-.275-.291-.419-.429a.555.555,0,0,0-.74.826,8.941,8.941,0,0,0,.99.922,17.4,17.4,0,0,1,2.391,4.165,63.7,63.7,0,0,1,2.679,11.446c.348,3.571.856,7.119,1.187,10.7.086,1.659.16,3.321.249,4.981.018,1.333-.094,2.795-.094,4.16.048,2.267.157,4.429.054,6.718-.05,2.142.094,4.206.014,6.374.1,4.839.042,9.7.281,14.548.125,2.238-.015,4.481.159,6.717a40.317,40.317,0,0,1-.059,4.3c-.01,1.563.087,3.056.028,4.637-.011,1.693.094,3.385.174,5.075,0,1.843.005,3.691.094,5.53.057,1.134.187,2.267.206,3.4a25.647,25.647,0,0,0,.087,3.876c.212,2.362.2,4.743.512,7.1.251,2.072.306,4.159.563,6.229.12,1.561.452,3.1.481,4.667,0,1.179.159,2.521.254,3.74.059.358.021.767.113,1.125v.021a2.144,2.144,0,0,1-1.118,1.093,5.014,5.014,0,0,1-1.43.23,4.36,4.36,0,0,0-1.462-.094c-4.655.2-9.32.107-13.972.347-2.479-.141-4.957-.079-7.436.021-4.282.073-8.566.385-12.846.147a47.7,47.7,0,0,1-8.788-1.364q-1.391-.375-2.784-.739a.555.555,0,0,0-.241,1.084c1.031.273,2.069.536,3.093.827a31.571,31.571,0,0,0,5.888,1,47.623,47.623,0,0,0,5.088.406c4.548-.031,9.092-.226,13.641-.351,1.51-.066,3.016.038,4.526.078,2.531-.187,5.069-.116,7.6-.213,1.915.067,3.822-.1,5.731-.13a.554.554,0,0,0,.385.139l1.572-.068a4.256,4.256,0,0,0,1.709-.248,3.529,3.529,0,0,0,1.594-1.236,1.745,1.745,0,0,0,.142-.229c.281.187.574.351.766.492.442.215.908.785,1.434.534l.128.016a5.693,5.693,0,0,0,.668.068c3.6,0,7.176-1.031,10.779-1.189a.562.562,0,0,0,.532-.578C1069.345,1236.021,1068.032,1236.495,1067.427,1236.49Z" transform="translate(-1003.74 -1115.481)" fill="#96793b"/>
      </g>
      <g id="Group_2369" data-name="Group 2369" transform="translate(929.839 1056.587)">
        <path id="Path_4063" data-name="Path 4063" d="M1030.831,1297.754a23.653,23.653,0,0,0,3.107-.041c1.277-.041,2.551.047,3.83.082,1.048,0,2.073-.133,3.117-.2.974.059,1.93.139,2.906.14,1.754-.036,3.587.063,5.383.005,1.071-.026,2.223.111,2.281-1.307.166-1.171.743-3.176-.8-3.617a17.611,17.611,0,0,0-2.381-.024c-1.817-.007-3.562-.039-5.416.036a10.333,10.333,0,0,1-2.161.02,9.237,9.237,0,0,0-3.041-.14c-1.294.136-2.589-.1-3.888,0-.629-.008-1.251.078-1.875.036-.761-.048-1.8-.292-2.376.414a3.958,3.958,0,0,0-.638,2.463A2.076,2.076,0,0,0,1030.831,1297.754Zm-.82-2.279c.069-.553-.077-1.47.577-1.687,1.814.187,3.635-.072,5.453.064a22.391,22.391,0,0,0,2.482-.061,17.341,17.341,0,0,1,2.563.212c2.057-.016,4.03-.172,6.115-.094.686-.011,1.374.013,2.062-.009a3.331,3.331,0,0,1,1.246.059,7.726,7.726,0,0,1-.194,2.636c-2.062.136-4.082-.009-6.155.045-1.081.01-2.274-.107-3.374-.147-2.586.344-5.18.014-7.773.147-.981.017-3.244.452-3-1.164Z" transform="translate(-1028.871 -1292.646)" fill="#96793b"/>
      </g>
      <g id="Group_2370" data-name="Group 2370" transform="translate(981.252 1053.009)">
        <path id="Path_4064" data-name="Path 4064" d="M1131.809,1291.716c2.016.553,4.092-.3,6.1-.534a25.721,25.721,0,0,0,4.441-.579c.571-.094,2.279-.112,2.477-.708a.562.562,0,0,0-.345-.7.687.687,0,0,0-.538.026c-.82.293-1.718.2-2.555.444-1.434.367-2.933.281-4.4.538-1.17.132-5.266,1.487-5.387-.347a3.945,3.945,0,0,1-.078-.913c.014-.225.023-.571.254-.677a50.276,50.276,0,0,1,6.329-.8c1.429-.124,2.826-.469,4.25-.643.345-.044.7-.1,1.055-.119a.551.551,0,0,0,.539-.165.562.562,0,0,0-.04-.783c-.432-.334-1.026-.067-1.522-.053-.874.111-1.744.249-2.611.4-1.509.308-3.072.312-4.6.527a15.46,15.46,0,0,0-2.123.3c-.74.129-1.647.078-2.207.656a3.236,3.236,0,0,0-.26,2.77A1.911,1.911,0,0,0,1131.809,1291.716Z" transform="translate(-1130.394 -1285.581)" fill="#96793b"/>
      </g>
      <path id="Path_4095" data-name="Path 4095" d="M1088.176,890.68s-15.813-7.193-26.693,0" transform="translate(-115.129 -36.078)" fill="none" stroke="#402626" stroke-linecap="round" stroke-miterlimit="10" stroke-width="2"/>
      <path id="Path_4096" data-name="Path 4096" d="M1017.634,893.8s-9.644,10.238-10.428,24.414-8.134,19.109-4.459,25.252" transform="translate(-85.633 -39.194)" fill="none" stroke="#402626" stroke-linecap="round" stroke-miterlimit="10" stroke-width="2"/>
      <path id="Path_4097" data-name="Path 4097" d="M1025.388,921.64a52.045,52.045,0,0,0-7.955,24.783" transform="translate(-93.387 -52.937)" fill="none" stroke="#402626" stroke-linecap="round" stroke-miterlimit="10" stroke-width="2"/>
      <path id="Path_4098" data-name="Path 4098" d="M1071.675,902.185s-14.315-1.081-24.181,6.743-14.353,8.053-14.353,8.053" transform="translate(-101.14 -43.309)" fill="none" stroke="#402626" stroke-linecap="round" stroke-miterlimit="10" stroke-width="2"/>
      <path id="Path_4099" data-name="Path 4099" d="M1125.7,942.006s2.26,24.968-11.511,36.538" transform="translate(-141.145 -62.989)" fill="none" stroke="#402626" stroke-linecap="round" stroke-miterlimit="10" stroke-width="2"/>
      <path id="Path_4100" data-name="Path 4100" d="M1248.607,1163.8l15.193,13.167s36.929-10.653,41.02-14.686a52.883,52.883,0,0,0,6.611-7.922l11.62,15.519s-3.545,3.545-16.205,8.609c-14.137,5.655-25.321,18.231-42.539,21.776s-34.571-14.93-34.571-14.93Z" transform="translate(-198.175 -167.801)" fill="#ffc28f"/>
      <path id="Path_4101" data-name="Path 4101" d="M1385.838,1144.483c1.852-2.768,7.256-9.432,12.657-10.911s-4.735,10.911-4.735,10.911a47.964,47.964,0,0,0,13.175-11.884c5.136-6.929,10.116-2.919,9.115,6.583-1.013,9.622-14.7,20.37-25.321,23.8S1385.838,1144.483,1385.838,1144.483Z" transform="translate(-274.463 -155.34)" fill="#ffc28f"/>
      <path id="Path_4102" data-name="Path 4102" d="M945.666,1047.876s1.04,3.552,9.973,0S978.1,1036.51,978.1,1036.51l-.18-4.165" transform="translate(-57.964 -107.579)" fill="none" stroke="#96793b" stroke-linecap="round" stroke-miterlimit="10" stroke-width="2"/>
      <path id="Path_4103" data-name="Path 4103" d="M1114.179,1040.8s-.711,5.521,8.2,8.128a64.344,64.344,0,0,1,14.461,6.037s.063,10.224,4.1,17.324,9.1,13.683,7.578,33.94" transform="translate(-141.132 -111.753)" fill="none" stroke="#96793b" stroke-linecap="round" stroke-miterlimit="10" stroke-width="2"/>
      <g id="Group_373" data-name="Group 373" transform="translate(851.797 1023.611)">
        <path id="Path_651" data-name="Path 651" d="M1013.546,1283.729l-23.583,30.335L962.105,1349.9l-16.091,20.69a3.628,3.628,0,0,1-5.089.639l-64.758-50.345a3.633,3.633,0,0,1-.64-5.09l8.193-10.535,41.6-53.509,17.747-22.825a3.624,3.624,0,0,1,5.084-.64l64.761,50.36a3.618,3.618,0,0,1,.635,5.077Z" transform="translate(-874.767 -1227.529)" fill="#5e4343"/>
        <path id="Path_652" data-name="Path 652" d="M998.686,1337.675l-27.858,35.838-78.381-44.644,41.6-53.5Z" transform="translate(-883.494 -1251.14)" fill="#9b8787"/>
        <path id="Path_653" data-name="Path 653" d="M1076.037,1278l-14.646-11.39a4.891,4.891,0,0,1-.858-6.862h0a4.891,4.891,0,0,1,6.862-.859l14.645,11.39a4.89,4.89,0,0,1,.86,6.861h0A4.89,4.89,0,0,1,1076.037,1278Z" transform="translate(-965.949 -1242.498)" fill="#1d1d1e"/>
      </g>
      <path id="Path_654" data-name="Path 654" d="M997.03,1366.031c1.841,3.115,10.051,3.165,9.675,6.278s-8.307,5.1-14.487.14c3.349,4.156,7.032,4.3,6.7,6.988s-5.283,5.049-13.121-1.6a36.008,36.008,0,0,1-7.1-8.872c-3.667-6.119-5.974-12.462-6.772-13.685l11.612-13.216a14.316,14.316,0,0,1,4.95.417c7.467,1.767,16.776,7.852,16.849,10.814.1,3.638-9.493-.374-9.715-.466.136.188,4.381,6.156,7.075,7.83,2.736,1.7,10.381.093,10.288,3.87S1003.824,1369.712,997.03,1366.031Z" transform="translate(-70.923 -260.419)" fill="#ffc28f"/>
      <path id="Path_4104" data-name="Path 4104" d="M877.707,1159.466s-11.6,20.455-9.373,34.671,52.359,70.934,52.359,70.934l12.628-13.595s-28.8-41.622-33.121-54.78,2.262-18.222,2.262-18.222Z" transform="translate(-19.654 -170.323)" fill="#ffc28f"/>
      <path id="Path_4105" data-name="Path 4105" d="M1014.621,1403.922s-.3-.948-3.5-4a102.688,102.688,0,0,1-7.382-8.314" transform="translate(-86.628 -284.905)" fill="none" stroke="#e08057" stroke-linecap="round" stroke-miterlimit="10" stroke-width="2"/>
      <path id="Path_4106" data-name="Path 4106" d="M1029.009,1392.74s.384-.965-4.266-3.229a24.066,24.066,0,0,1-7.633-6.116" transform="translate(-93.227 -280.851)" fill="none" stroke="#e08057" stroke-linecap="round" stroke-miterlimit="10" stroke-width="2"/>
      <path id="Path_4107" data-name="Path 4107" d="M1018.713,1363.372s2.04,4.289,5.144,6.355,9.665,2.894,9.665,2.894" transform="translate(-94.019 -270.968)" fill="none" stroke="#e08057" stroke-linecap="round" stroke-miterlimit="10" stroke-width="2"/>
      <path id="Path_4108" data-name="Path 4108" d="M1405.972,1149.059s-5.625,5.587-4.763,8.6a10.817,10.817,0,0,1-.09,5.825" transform="translate(-282.767 -165.187)" fill="none" stroke="#e08057" stroke-linecap="round" stroke-miterlimit="10" stroke-width="2"/>
      <path id="Path_4109" data-name="Path 4109" d="M1429.941,1129.924a38.483,38.483,0,0,1-8.394,10.67" transform="translate(-292.85 -155.742)" fill="none" stroke="#e08057" stroke-linecap="round" stroke-miterlimit="10" stroke-width="2"/>
      <path id="Path_4110" data-name="Path 4110" d="M1433.239,1137.812s-4.474,9.5-9.437,12.9" transform="translate(-293.963 -159.635)" fill="none" stroke="#e08057" stroke-linecap="round" stroke-miterlimit="10" stroke-width="2"/>
    </g>
  </g>
</svg>
