<svg xmlns="http://www.w3.org/2000/svg" width="422.961" height="404.134" viewBox="0 0 422.961 404.134">
  <g id="Group_266" data-name="Group 266" transform="translate(-57.367 -366.05)">
    <g id="Group_265" data-name="Group 265" transform="translate(57.367 366.05)">
      <path id="Path_188" data-name="Path 188" d="M423.176,1084.875H523.889l8.354-22.493A31.818,31.818,0,0,1,549,1044.505a80.094,80.094,0,0,0,26.627-19.973,184.988,184.988,0,0,0,28.345-43.084l-62.415-.306s5.617-34.913-25.4-81.283a26.245,26.245,0,0,1-4.313-16.869l2.941-33.818s21.08-23.558,8.146-52.784c0,0-12.367-17.124-17.274-10.855,0,0-37.358,88.961-40.759,102.188s-7.936,21.542-3.4,63.114a251.934,251.934,0,0,1,1.617,27.73,98.408,98.408,0,0,1-9.46,41.884Z" transform="translate(-384.847 -680.742)" fill="#f7c29e"/>
      <path id="Path_189" data-name="Path 189" d="M517.109,1607.391c-9.348-10.379-22.334-8.74-35.99-13.474s-18.037-38.866-18.037-38.866v-.005c.022,1.288.032,2.539.03,3.744a98.409,98.409,0,0,1-9.46,41.884L423.176,1665.1H523.889l8.354-22.493A31.817,31.817,0,0,1,549,1624.729a78.387,78.387,0,0,0,22.364-15.508C543.627,1620.881,526.458,1617.77,517.109,1607.391Z" transform="translate(-384.847 -1260.965)" fill="#f7c29e" opacity="0.2" style="mix-blend-mode: multiply;isolation: isolate"/>
      <g id="Group_245" data-name="Group 245" transform="translate(87.728 0)">
        <path id="Path_190" data-name="Path 190" d="M622.9,370.553c23.154,36.533,80.22,69.09,80.22,69.09s-36.094-2.931-60.116-24.6a63.7,63.7,0,0,1-7.761-8.406l8.163-6.761s-6.488.627-11.923,1.255A61.417,61.417,0,0,1,622.9,370.553Z" transform="translate(-622.902 -369.439)" fill="#dd6e00"/>
        <path id="Path_191" data-name="Path 191" d="M683.653,382.273c-3.521,1.6-8.729,4.031-8.729,4.031l5.018-7.21a58.485,58.485,0,0,0-18.651-9.562c-2.584,3.762-5.621,7.967-5.621,7.967l-.6-9.6a89.022,89.022,0,0,0-32.166-.737c23.154,36.533,80.22,69.09,80.22,69.09C702.864,409.412,694.691,392.651,683.653,382.273Z" transform="translate(-622.902 -366.05)" fill="#ff7f00"/>
      </g>
      <g id="Group_246" data-name="Group 246" transform="translate(79.227 45.143)">
        <path id="Path_192" data-name="Path 192" d="M588.53,556.085a53.779,53.779,0,0,1,20.435-7.039c2.023,2.309,4.5,5.025,4.5,5.025l.138-5.437c25.807-1.237,47.565,15.017,47.565,15.017-14.768,8.984-27.477,11.5-37.948,10.758-.661-1.9-1.6-4.732-1.6-4.732l-1.752,4.376a47.623,47.623,0,0,1-13.34-3.959c.929-2.27,1.9-4.865,1.9-4.865l-5.5,3.016A48.894,48.894,0,0,1,588.53,556.085Z" transform="translate(-588.53 -548.567)" fill="#0e5fc4"/>
        <path id="Path_193" data-name="Path 193" d="M623.225,595.269c-.661-1.9-1.6-4.732-1.6-4.732l-1.752,4.376a47.617,47.617,0,0,1-13.34-3.959c.929-2.27,1.9-4.865,1.9-4.865l-5.5,3.016a48.893,48.893,0,0,1-14.4-12.159c30.026-3.431,72.643,7.566,72.643,7.566C646.4,593.5,633.7,596.015,623.225,595.269Z" transform="translate(-588.53 -569.427)" fill="#4385d8"/>
      </g>
      <g id="Group_247" data-name="Group 247" transform="translate(321.128 38.582)">
        <path id="Path_194" data-name="Path 194" d="M1609.331,532.365l-2.177,16.408,11.654-8.511,35.671-18.223-27.591,2.526s-14.056,3.414-14.816,4.1A34.2,34.2,0,0,0,1609.331,532.365Z" transform="translate(-1597.114 -522.039)" fill="#0e5fc4"/>
        <path id="Path_195" data-name="Path 195" d="M1566.561,522.458l57.365-.419-45.148,10.326Z" transform="translate(-1566.561 -522.039)" fill="#4385d8"/>
        <path id="Path_196" data-name="Path 196" d="M1644.774,548.872,1629.743,536.8l41.738-14.759Z" transform="translate(-1614.116 -522.039)" fill="#4385d8"/>
      </g>
      <g id="Group_251" data-name="Group 251" transform="translate(280.413 55.431)">
        <g id="Group_248" data-name="Group 248" transform="translate(46.659)">
          <path id="Path_197" data-name="Path 197" d="M1590.95,592.188a17.358,17.358,0,0,1,3.829-1.006l-.108-1.019a18.162,18.162,0,0,0-4.082,1.066Z" transform="translate(-1590.589 -590.163)" fill="#292929"/>
        </g>
        <g id="Group_249" data-name="Group 249" transform="translate(10.87 5.213)">
          <path id="Path_198" data-name="Path 198" d="M1445.893,699.431a64.541,64.541,0,0,0,6.641-3.854l.568.853a65.7,65.7,0,0,1-6.747,3.915Zm12.686-8.557a41.647,41.647,0,0,0,5.155-5.636l.818.617a42.671,42.671,0,0,1-5.282,5.776Zm9.114-12.156c.5-1.055.964-2.153,1.374-3.266.463-1.26.873-2.577,1.219-3.915l.992.256c-.354,1.37-.774,2.72-1.249,4.012-.42,1.142-.895,2.27-1.41,3.352Zm4.137-22.4,1.024-.023a66.176,66.176,0,0,1-.252,7.8l-1.02-.1A65.148,65.148,0,0,0,1471.83,656.315Zm-1.458-15.355,1.014-.145c.429,3,.735,5.447.964,7.707l-1.019.1C1471.1,646.379,1470.8,643.944,1470.372,640.96Zm-1.146-7.713a37.732,37.732,0,0,1-.387-7.776l1.022.064a36.688,36.688,0,0,0,.378,7.56l.008.06-1.015.14Zm1.288-15.473a18.6,18.6,0,0,1,4.447-6.533l.7.745a17.584,17.584,0,0,0-4.2,6.176Z" transform="translate(-1445.893 -611.241)" fill="#292929"/>
        </g>
        <g id="Group_250" data-name="Group 250" transform="translate(0 96.549)">
          <path id="Path_199" data-name="Path 199" d="M1402.28,982.9c1.318-.458,2.618-.939,3.862-1.428l-.375-.953c-1.232.485-2.517.961-3.823,1.414Z" transform="translate(-1401.944 -980.521)" fill="#292929"/>
        </g>
      </g>
      <g id="Group_252" data-name="Group 252" transform="translate(273.925 37.399)">
        <path id="Path_200" data-name="Path 200" d="M1377.226,525.337s21.332-14.277,26.2-4.871-27.715,42.691-27.715,42.691Z" transform="translate(-1375.714 -517.259)" fill="#f19c61"/>
        <path id="Path_201" data-name="Path 201" d="M1377.226,776.849s21.332-14.277,26.2-4.871-27.715,42.691-27.715,42.691Z" transform="translate(-1375.714 -706.563)" fill="#f19c61"/>
        <path id="Path_202" data-name="Path 202" d="M1377.226,948.209s21.332-14.277,26.2-4.871-27.715,42.691-27.715,42.691Z" transform="translate(-1375.714 -835.54)" fill="#f19c61"/>
      </g>
      <path id="Path_203" data-name="Path 203" d="M917.828,485.235H800.719a15.791,15.791,0,0,0-15.791,15.791V740.365a15.8,15.8,0,0,0,15.791,15.792H917.828a15.792,15.792,0,0,0,15.792-15.792V501.026A15.8,15.8,0,0,0,917.828,485.235Z" transform="translate(-657.125 -455.756)" fill="#292929"/>
      <path id="Path_204" data-name="Path 204" d="M769.43,1200.646S748.248,1252.5,750.3,1262.3s14.909,22.915,46.446,18.545a484.356,484.356,0,0,0,53.336-10.214s1.318-69.978,0-73.527-58.022-28.738-60.253-28.738S769.43,1200.646,769.43,1200.646Z" transform="translate(-630.958 -969.927)" fill="#f7c29e" opacity="0.2" style="mix-blend-mode: multiply;isolation: isolate"/>
      <rect id="Rectangle_136" data-name="Rectangle 136" width="133.382" height="227.877" transform="translate(135.458 51.001)" fill="#fff"/>
      <path id="Path_205" data-name="Path 205" d="M849.528,1109.63H733.69a7.245,7.245,0,0,0-7.245,7.245v47.8a7.245,7.245,0,0,0,7.245,7.245h91.2c3.691,5.151,10.383,14.374,10.974,14.374.553,0-.511-8.711-1.262-14.374h14.927a7.245,7.245,0,0,0,7.245-7.245v-47.8A7.245,7.245,0,0,0,849.528,1109.63Z" transform="translate(-613.107 -925.716)" fill="#3e82d7" opacity="0.3" style="mix-blend-mode: multiply;isolation: isolate"/>
      <path id="Path_206" data-name="Path 206" d="M994.416,671.738H871.1a7.245,7.245,0,0,0-7.245,7.245v51.379a7.245,7.245,0,0,0,7.245,7.245H883.9c-.743,5.656-1.716,13.769-1.182,13.769.568,0,6.783-8.535,10.54-13.769H994.416a7.245,7.245,0,0,0,7.245-7.245V678.983A7.245,7.245,0,0,0,994.416,671.738Z" transform="translate(-716.529 -596.13)" fill="#3e82d7" opacity="0.3" style="mix-blend-mode: multiply;isolation: isolate"/>
      <path id="Rectangle_137" data-name="Rectangle 137" d="M1.428,0h54.22a1.428,1.428,0,0,1,1.428,1.428v0a1.428,1.428,0,0,1-1.428,1.428H1.428A1.428,1.428,0,0,1,0,1.428v0A1.428,1.428,0,0,1,1.428,0Z" transform="translate(173.72 40.985)" fill="#fff"/>
      <path id="Path_207" data-name="Path 207" d="M670.588,869.581a9.96,9.96,0,0,0,2.624,4.464l2.163-24.872s15.508-17.33,11.761-40.7a34.921,34.921,0,0,0-11.349-20.715c-3.474-3.054-7.29-5.095-9.539-2.222,0,0-17.568,41.835-29.706,72.393Z" transform="translate(-545.44 -680.742)" fill="#f7c29e"/>
      <path id="Path_208" data-name="Path 208" d="M830.192,1059.495H714.353a7.245,7.245,0,0,0-7.245,7.245v47.8a7.245,7.245,0,0,0,7.245,7.245h91.2c3.691,5.151,10.383,14.374,10.974,14.374.553,0-.512-8.711-1.262-14.374h14.928a7.245,7.245,0,0,0,7.245-7.245v-47.8A7.245,7.245,0,0,0,830.192,1059.495Z" transform="translate(-598.553 -887.982)" fill="#4385d8"/>
      <g id="Group_254" data-name="Group 254" transform="translate(195.521 283.306)">
        <path id="Path_209" data-name="Path 209" d="M1071.822,1518.035a6.551,6.551,0,1,1-6.551-6.551A6.551,6.551,0,0,1,1071.822,1518.035Z" transform="translate(-1058.72 -1511.484)" fill="#3e82d7" opacity="0.3"/>
        <g id="Group_253" data-name="Group 253" transform="translate(3.822 3.822)">
          <path id="Path_210" data-name="Path 210" d="M1078.854,1532.394h-3.906a.777.777,0,0,1-.776-.776v-3.907a.776.776,0,0,1,.776-.776h3.906a.777.777,0,0,1,.776.776v3.907A.777.777,0,0,1,1078.854,1532.394Zm-3.906-5.248a.566.566,0,0,0-.565.565v3.907a.566.566,0,0,0,.565.565h3.906a.566.566,0,0,0,.565-.565v-3.907a.566.566,0,0,0-.565-.565Z" transform="translate(-1074.172 -1526.936)" fill="#3e82d7"/>
        </g>
      </g>
      <rect id="Rectangle_138" data-name="Rectangle 138" width="133.382" height="13.479" transform="translate(135.458 265.399)" fill="#8abbfa"/>
      <rect id="Rectangle_139" data-name="Rectangle 139" width="133.382" height="12.093" transform="translate(135.458 51.001)" fill="#8abbfa"/>
      <path id="Path_211" data-name="Path 211" d="M731.72,810.105c4.854-2.233,7.389-14.863,8.3-20.54-3.9-3.919-8.782-7.446-11.455-4.031,0,0-3.868,9.212-9.229,22.148C723,809.721,728.091,811.775,731.72,810.105Z" transform="translate(-607.754 -680.742)" fill="#f19c61"/>
      <path id="Path_212" data-name="Path 212" d="M1206.844,1179.049s-18.015,1.511-18.645,6.3.756,13.227,17.763,14.865h17.616s-5.271-14.613-5.019-15.117S1206.844,1179.049,1206.844,1179.049Z" transform="translate(-960.565 -977.966)" fill="#f3aa78"/>
      <path id="Path_213" data-name="Path 213" d="M1139.258,1086.7a4.888,4.888,0,0,0-1.9,6.769c8.29,14.3,41.253,71.117,44.225,75.739,3.4,5.292,11.716,17.763,39.3,24.188s38.927,24.943,38.927,24.943h85.034s-20.03-31.746-36.659-114.135c0,0-12.85-68.405-37.037-66.137,0,0-14.739-15.5-29.1-12.472,0,0-27.211-16.251-42.706-16.251l-37.219-43.987a10.769,10.769,0,0,0-14.705-1.741,7.051,7.051,0,0,0-2.875,4.533c-1.134,7.181,8.315,25.322,23.432,47.241s52.532,91.459,36.281,122.071a164.4,164.4,0,0,1-30.99-32.5C1161.238,1088.184,1147.091,1082.542,1139.258,1086.7Z" transform="translate(-921.883 -814.203)" fill="#f7c29e"/>
      <path id="Path_214" data-name="Path 214" d="M1390.318,1155.079a155.034,155.034,0,0,1,13.939,13.631,160.913,160.913,0,0,1,17.735,23.306c5.519,9.1,9.162,17.072,10.884,27.088l-.111.023c-1.983-9.41-7.164-19.544-11.676-26.545a196.484,196.484,0,0,0-17.507-23.286c-3.958-4.565-8.978-9.958-13.342-14.136Z" transform="translate(-1112.723 -959.924)" fill="#f19c61"/>
      <path id="Path_215" data-name="Path 215" d="M1561.508,1220.239a42.011,42.011,0,0,1,10.769,8.166,52.117,52.117,0,0,1,8.16,10.886,53.174,53.174,0,0,1,5.108,12.607,51.411,51.411,0,0,1,1.71,13.4l-.113.009a65.967,65.967,0,0,0-2.451-13.16,59.68,59.68,0,0,0-5.241-12.3,58.315,58.315,0,0,0-7.832-10.839,50.309,50.309,0,0,0-10.167-8.672Z" transform="translate(-1241.587 -1008.968)" fill="#f19c61"/>
      <path id="Path_216" data-name="Path 216" d="M1678.9,1269.855a37.464,37.464,0,0,1,8.9,10.66,48.026,48.026,0,0,1,5.08,12.957,40.325,40.325,0,0,1,1.186,9.171l-.112.016a68.376,68.376,0,0,0-1.93-8.944,62.57,62.57,0,0,0-5.161-12.689,50.755,50.755,0,0,0-8.008-11.088Z" transform="translate(-1329.948 -1046.312)" fill="#f19c61"/>
      <path id="Path_217" data-name="Path 217" d="M1156.426,1485.089c.754-3.826-3.7-9.894-7.751-14.472a9.409,9.409,0,0,0-10.022-2.731,4.895,4.895,0,0,0-1.3,6.378c2.228,3.842,6.238,10.755,10.968,18.9C1151.868,1491.36,1155.728,1488.63,1156.426,1485.089Z" transform="translate(-921.887 -1195)" fill="#f19c61"/>
      <path id="Path_218" data-name="Path 218" d="M1196.174,984.04c2.15-.431,11.9-3.674,11.307-5.452h0l-9.621-11.37a10.957,10.957,0,0,0-7.333-3.832h0l-.046,0c-.078-.007-.254-.02-.5-.02-1.29,0-4.466.369-5.165,3.862-.69,3.449,5.02,11.834,7.538,15.32A3.794,3.794,0,0,0,1196.174,984.04Z" transform="translate(-958.062 -815.625)" fill="#f19c61"/>
      <path id="Path_219" data-name="Path 219" d="M506.941,1758.017c10.657,6.547,44.964,26.125,80.439,30.3,2.078.245,3.54,2.15,2.925,3.8l-6.2,16.6a2.756,2.756,0,0,1-3.031,1.571c-10.455-1.27-53.591-7.762-83.941-31.242a2.718,2.718,0,0,1-1.083-3.046l6.325-16.94C502.974,1757.458,505.206,1756.951,506.941,1758.017Z" transform="translate(-439.594 -1413.311)" fill="#292929"/>
      <path id="Path_220" data-name="Path 220" d="M525.173,1801.131l-.117-.043a1.2,1.2,0,0,1-.706-1.547l1.908-5.111a1.2,1.2,0,0,1,1.547-.706l.117.044a1.2,1.2,0,0,1,.706,1.547l-1.908,5.11A1.2,1.2,0,0,1,525.173,1801.131Z" transform="translate(-460.94 -1440.553)" fill="#141414"/>
      <path id="Path_221" data-name="Path 221" d="M550.973,1817.031l-.117-.044a1.2,1.2,0,0,1-.706-1.547l1.908-5.11a1.2,1.2,0,0,1,1.547-.706l.117.044a1.2,1.2,0,0,1,.706,1.547l-1.908,5.11A1.2,1.2,0,0,1,550.973,1817.031Z" transform="translate(-480.358 -1452.52)" fill="#141414"/>
      <path id="Rectangle_140" data-name="Rectangle 140" d="M1.265,0h0A1.265,1.265,0,0,1,2.53,1.265v5.33A1.265,1.265,0,0,1,1.265,7.86h0A1.265,1.265,0,0,1,0,6.6V1.265A1.265,1.265,0,0,1,1.265,0Z" transform="translate(78.51 360.589) rotate(20.451)" fill="#141414"/>
      <path id="Path_222" data-name="Path 222" d="M603.405,1845.667l-.117-.044a1.2,1.2,0,0,1-.706-1.548l1.908-5.11a1.2,1.2,0,0,1,1.547-.706l.117.044a1.2,1.2,0,0,1,.706,1.547l-1.908,5.11A1.2,1.2,0,0,1,603.405,1845.667Z" transform="translate(-519.822 -1474.072)" fill="#141414"/>
      <path id="Path_223" data-name="Path 223" d="M629.568,1860.6l-.117-.043a1.2,1.2,0,0,1-.706-1.547l1.908-5.11a1.2,1.2,0,0,1,1.547-.706l.117.044a1.2,1.2,0,0,1,.706,1.547l-1.908,5.111A1.2,1.2,0,0,1,629.568,1860.6Z" transform="translate(-539.514 -1485.309)" fill="#141414"/>
      <path id="Path_224" data-name="Path 224" d="M656.884,1872.434l-.117-.044a1.2,1.2,0,0,1-.706-1.547l1.908-5.11a1.2,1.2,0,0,1,1.547-.706l.117.043a1.2,1.2,0,0,1,.706,1.547l-1.908,5.11A1.2,1.2,0,0,1,656.884,1872.434Z" transform="translate(-560.074 -1494.219)" fill="#141414"/>
      <path id="Path_225" data-name="Path 225" d="M684.737,1882.832l-.117-.043a1.2,1.2,0,0,1-.706-1.547l1.908-5.11a1.2,1.2,0,0,1,1.547-.707l.117.044a1.2,1.2,0,0,1,.706,1.547l-1.908,5.11A1.2,1.2,0,0,1,684.737,1882.832Z" transform="translate(-581.038 -1502.046)" fill="#141414"/>
      <path id="Rectangle_141" data-name="Rectangle 141" d="M1.265,0h0A1.265,1.265,0,0,1,2.53,1.265V6.6A1.265,1.265,0,0,1,1.266,7.86h0A1.265,1.265,0,0,1,0,6.6V1.265A1.265,1.265,0,0,1,1.265,0Z" transform="translate(112.224 375.175) rotate(20.441)" fill="#141414"/>
      <path id="Path_226" data-name="Path 226" d="M742.673,1897.661l-.117-.044a1.2,1.2,0,0,1-.706-1.547l1.908-5.11a1.2,1.2,0,0,1,1.547-.706l.117.043a1.2,1.2,0,0,1,.706,1.548l-1.908,5.11A1.2,1.2,0,0,1,742.673,1897.661Z" transform="translate(-624.644 -1513.207)" fill="#141414"/>
      <path id="Path_227" data-name="Path 227" d="M771.439,1905.615l-.117-.044a1.2,1.2,0,0,1-.706-1.547l1.908-5.11a1.2,1.2,0,0,1,1.547-.707l.117.044a1.2,1.2,0,0,1,.706,1.547l-1.908,5.111A1.2,1.2,0,0,1,771.439,1905.615Z" transform="translate(-646.295 -1519.194)" fill="#141414"/>
      <path id="Path_228" data-name="Path 228" d="M801.305,1910.621l-.117-.044a1.2,1.2,0,0,1-.706-1.547l1.908-5.11a1.2,1.2,0,0,1,1.547-.707l.117.044a1.2,1.2,0,0,1,.706,1.547l-1.908,5.11A1.2,1.2,0,0,1,801.305,1910.621Z" transform="translate(-668.774 -1522.961)" fill="#141414"/>
      <path id="Path_229" data-name="Path 229" d="M831.213,1915.518l-.117-.044a1.2,1.2,0,0,1-.706-1.547l1.908-5.11a1.2,1.2,0,0,1,1.547-.706l.117.044a1.2,1.2,0,0,1,.706,1.547l-1.908,5.111A1.2,1.2,0,0,1,831.213,1915.518Z" transform="translate(-691.285 -1526.648)" fill="#141414"/>
      <path id="Path_230" data-name="Path 230" d="M590.053,1826.856l.029-.078a1.494,1.494,0,0,1-.335-.082l-8.4-3.134a1.675,1.675,0,0,1-.9-2.186l7.57-20.276a1.675,1.675,0,0,1,2.109-1.063l8.4,3.135a1.566,1.566,0,0,1,.958,1.1q.988.432,1.995.862a3.631,3.631,0,0,0-2.213-3.944l-8.4-3.134a3.718,3.718,0,0,0-4.683,2.359l-7.57,20.276a3.717,3.717,0,0,0,1.991,4.851l8.4,3.135a3.535,3.535,0,0,0,3.625-.781Q591.344,1827.388,590.053,1826.856Z" transform="translate(-501.648 -1443.713)" fill="#7fbf43"/>
      <path id="Path_231" data-name="Path 231" d="M601.73,1845.7l-3.652-1.364a1.371,1.371,0,0,0-.956,2.561l3.652,1.364Z" transform="translate(-515.167 -1478.648)" fill="#fff"/>
      <path id="Path_232" data-name="Path 232" d="M1397.914,1779.453h85.034s-13.132-20.816-26.958-72.475c-6.067,38.038-39.541,35.844-52.826,37.955-15.3,2.43-74.67-9.95-82.988-13.85,3.7,5.646,12.47,17.292,38.811,23.426C1386.576,1760.934,1397.914,1779.453,1397.914,1779.453Z" transform="translate(-1059.987 -1375.319)" fill="#f7c29e" opacity="0.2" style="mix-blend-mode: multiply;isolation: isolate"/>
      <path id="Path_233" data-name="Path 233" d="M1281.349,1207.342c16.672,26.79,46.585,88.327,31.786,115.175l9.823,9.7s24.818-27.495-14.676-88.128A404.177,404.177,0,0,0,1281.349,1207.342Z" transform="translate(-1030.764 -999.261)" fill="#f7c29e" opacity="0.2" style="mix-blend-mode: multiply;isolation: isolate"/>
      <path id="Path_234" data-name="Path 234" d="M770.519,1130.155a18.163,18.163,0,1,1-18.162-18.163A18.163,18.163,0,0,1,770.519,1130.155Z" transform="translate(-618.939 -927.494)" fill="#fff"/>
      <path id="Path_235" data-name="Path 235" d="M768.261,1148.326s-1.8-7.39,2.49-10.158,8.871-3.4,12-1.806c4.34,2.21,6.123,8.184,4.734,11.488l-11.519-2.893Z" transform="translate(-644.298 -945.189)"/>
      <g id="Group_255" data-name="Group 255" transform="translate(121.055 192.86)">
        <rect id="Rectangle_142" data-name="Rectangle 142" width="5.333" height="5.324" transform="translate(9.903 18.952)" fill="#f7c29e"/>
        <path id="Path_236" data-name="Path 236" d="M803.018,1225.619v-3.192h-5.333v2.716A7.815,7.815,0,0,0,803.018,1225.619Z" transform="translate(-787.782 -1203.475)" fill="#f19a5e"/>
        <path id="Path_237" data-name="Path 237" d="M781.29,1155.223a1.981,1.981,0,0,0-1.787.071,9.5,9.5,0,0,0-18.992,0,1.981,1.981,0,0,0-1.787-.071,2.757,2.757,0,0,0,2.384,4.825,1.735,1.735,0,0,0,.4-.274,8.56,8.56,0,0,0,17,0,1.732,1.732,0,0,0,.4.274,2.757,2.757,0,0,0,2.384-4.825Z" transform="translate(-757.645 -1145.802)" fill="#f7c29e"/>
        <path id="Path_238" data-name="Path 238" d="M803.633,1208.986a3.329,3.329,0,0,1-5.948.182Z" transform="translate(-787.782 -1193.358)" fill="#fff"/>
      </g>
      <path id="Path_239" data-name="Path 239" d="M768.219,1150.612s6.979-2.115,10.034-5.645c0,0-.865,4.253-1.51,4.932.2.136,6.971-3.155,7.89-6.191s-6.919-4.127-6.919-4.127-2.686,1.143-2.822,1.211-2.655.362-2.944,1c-.376.836-2.154.91-2.154.91l-1.123,2.337-.786,2.458Z" transform="translate(-644.298 -948.259)"/>
      <path id="Path_240" data-name="Path 240" d="M746.117,1122.577a7.64,7.64,0,0,0,5.168.34c4.073-1.251,5.686-.766,6.228-.459a1.326,1.326,0,0,0,1.069.139c.4-.134.774-.5.659-1.415a7.4,7.4,0,0,0-3.156-6.075A18.2,18.2,0,0,0,746.117,1122.577Z" transform="translate(-627.913 -929.839)"/>
      <g id="Group_257" data-name="Group 257" transform="translate(126.896 190.424)">
        <g id="Group_256" data-name="Group 256">
          <path id="Path_241" data-name="Path 241" d="M781.332,1138.011v0a.344.344,0,0,1,.084-.5,9.567,9.567,0,0,1,4.532-1.562.346.346,0,0,1,.363.346h0a.344.344,0,0,1-.328.344,9.006,9.006,0,0,0-4.188,1.451A.344.344,0,0,1,781.332,1138.011Z" transform="translate(-781.261 -1135.951)" fill="#7fbf43"/>
        </g>
      </g>
      <g id="Group_259" data-name="Group 259" transform="translate(152.602 61.95)">
        <path id="Path_242" data-name="Path 242" d="M1018.25,616.521H894.933a7.245,7.245,0,0,0-7.245,7.245v51.379a7.245,7.245,0,0,0,7.245,7.245h12.806c-.743,5.656-1.716,13.769-1.182,13.769.568,0,6.783-8.535,10.54-13.769H1018.25a7.245,7.245,0,0,0,7.245-7.245V623.766A7.245,7.245,0,0,0,1018.25,616.521Z" transform="translate(-887.071 -616.521)" fill="#ff7f00"/>
        <circle id="Ellipse_21" data-name="Ellipse 21" cx="18.162" cy="18.162" r="18.162" transform="translate(0 40.853) rotate(-62.53)" fill="#fff"/>
        <g id="Group_258" data-name="Group 258" transform="translate(12.13 18.64)">
          <rect id="Rectangle_143" data-name="Rectangle 143" width="5.333" height="5.324" transform="translate(9.903 23.628)" fill="#f7c29e"/>
          <path id="Path_243" data-name="Path 243" d="M979.609,790.607v-3.192h-5.333v2.716A7.816,7.816,0,0,0,979.609,790.607Z" transform="translate(-964.373 -763.787)" fill="#f19a5e"/>
          <path id="Path_244" data-name="Path 244" d="M957.882,720.212a1.981,1.981,0,0,0-1.787.071,9.5,9.5,0,0,0-18.992,0,1.981,1.981,0,0,0-1.787-.071,2.757,2.757,0,0,0,2.384,4.825,1.748,1.748,0,0,0,.4-.274,8.56,8.56,0,0,0,17,0,1.748,1.748,0,0,0,.4.274,2.758,2.758,0,0,0,2.384-4.825Z" transform="translate(-934.237 -706.115)" fill="#f7c29e"/>
          <path id="Path_245" data-name="Path 245" d="M944.132,694.485s2.676-2.265,8.76-1.9,7.241,3.541,7.586,8.073l-.356,5.394a23.543,23.543,0,0,1-3.636-6.127s-3.406,3.822-4.889,3.369.561-3.2.561-3.2-6.939,5.971-11.027,5.962c0,0-2.163-6.988.873-9.552,0,0-2.287.11-2.408-.34s1.091-1.123,3.289-.869c0,0-1.567-3.064-.692-3.383S944.132,694.485,944.132,694.485Z" transform="translate(-938.263 -691.885)" fill="#050505"/>
          <path id="Path_246" data-name="Path 246" d="M980.225,773.976a3.329,3.329,0,0,1-5.949.182Z" transform="translate(-964.373 -753.672)" fill="#fff"/>
        </g>
        <path id="Rectangle_144" data-name="Rectangle 144" d="M1.578,0H70.709a1.578,1.578,0,0,1,1.578,1.578v0a1.578,1.578,0,0,1-1.578,1.578H1.578A1.578,1.578,0,0,1,0,1.578v0A1.578,1.578,0,0,1,1.578,0Z" transform="translate(48.906 14.806)" fill="#fff"/>
        <rect id="Rectangle_145" data-name="Rectangle 145" width="17.072" height="3.156" rx="1.578" transform="translate(48.906 23.134)" fill="#fff"/>
        <rect id="Rectangle_146" data-name="Rectangle 146" width="48.773" height="3.156" rx="1.578" transform="translate(72.42 23.134)" fill="#fff"/>
        <rect id="Rectangle_147" data-name="Rectangle 147" width="37.344" height="3.156" rx="1.578" transform="translate(48.906 31.462)" fill="#fff"/>
        <path id="Rectangle_148" data-name="Rectangle 148" d="M1.578,0H27.9a1.578,1.578,0,0,1,1.578,1.578v0A1.578,1.578,0,0,1,27.9,3.156H1.578A1.578,1.578,0,0,1,0,1.578v0A1.578,1.578,0,0,1,1.578,0Z" transform="translate(91.712 31.462)" fill="#fff"/>
        <path id="Rectangle_149" data-name="Rectangle 149" d="M1.578,0H70.709a1.578,1.578,0,0,1,1.578,1.578v0a1.578,1.578,0,0,1-1.578,1.578H1.578A1.578,1.578,0,0,1,0,1.578v0A1.578,1.578,0,0,1,1.578,0Z" transform="translate(48.906 39.79)" fill="#fff"/>
      </g>
      <path id="Rectangle_150" data-name="Rectangle 150" d="M1.578,0H22.754a1.578,1.578,0,0,1,1.578,1.578v0a1.578,1.578,0,0,1-1.578,1.578H1.578A1.578,1.578,0,0,1,0,1.578v0A1.578,1.578,0,0,1,1.578,0Z" transform="translate(155.121 187.013)" fill="#fff"/>
      <path id="Rectangle_151" data-name="Rectangle 151" d="M1.578,0h13.28a1.578,1.578,0,0,1,1.578,1.578v0a1.578,1.578,0,0,1-1.578,1.578H1.578A1.578,1.578,0,0,1,0,1.578v0A1.578,1.578,0,0,1,1.578,0Z" transform="translate(155.121 195.341)" fill="#fff"/>
      <path id="Rectangle_152" data-name="Rectangle 152" d="M1.578,0h17.07a1.578,1.578,0,0,1,1.578,1.578v0a1.578,1.578,0,0,1-1.578,1.578H1.578A1.578,1.578,0,0,1,0,1.578v0A1.578,1.578,0,0,1,1.578,0Z" transform="translate(174.391 195.341)" fill="#fff"/>
      <path id="Rectangle_153" data-name="Rectangle 153" d="M1.578,0H25.687a1.578,1.578,0,0,1,1.578,1.578v0a1.578,1.578,0,0,1-1.578,1.578H1.578A1.578,1.578,0,0,1,0,1.578v0A1.578,1.578,0,0,1,1.578,0Z" transform="translate(197.45 195.341)" fill="#fff"/>
      <path id="Rectangle_154" data-name="Rectangle 154" d="M1.578,0H39.652A1.578,1.578,0,0,1,41.23,1.578v0a1.578,1.578,0,0,1-1.578,1.578H1.578A1.578,1.578,0,0,1,0,1.578v0A1.578,1.578,0,0,1,1.578,0Z" transform="translate(183.485 187.013)" fill="#fff"/>
      <path id="Rectangle_155" data-name="Rectangle 155" d="M1.578,0H68.016a1.578,1.578,0,0,1,1.578,1.578v0a1.578,1.578,0,0,1-1.578,1.578H1.578A1.578,1.578,0,0,1,0,1.578v0A1.578,1.578,0,0,1,1.578,0Z" transform="translate(155.121 211.665)" fill="#fff"/>
      <path id="Rectangle_156" data-name="Rectangle 156" d="M1.578,0h32.8a1.578,1.578,0,0,1,1.578,1.578v0a1.578,1.578,0,0,1-1.578,1.578H1.578A1.578,1.578,0,0,1,0,1.578v0A1.578,1.578,0,0,1,1.578,0Z" transform="translate(155.121 203.669)" fill="#fff"/>
      <rect id="Rectangle_157" data-name="Rectangle 157" width="28.383" height="3.156" rx="1.578" transform="translate(196.332 203.669)" fill="#fff"/>
      <g id="Group_263" data-name="Group 263" transform="translate(36.551 190.272)">
        <g id="Group_260" data-name="Group 260" transform="translate(8.872)">
          <path id="Path_247" data-name="Path 247" d="M455.106,1138.523a17.375,17.375,0,0,0-3.246-2.266l.453-.919a18.135,18.135,0,0,1,3.463,2.409Z" transform="translate(-451.86 -1135.338)" fill="#292929"/>
        </g>
        <g id="Group_261" data-name="Group 261" transform="translate(0 8.623)">
          <path id="Path_248" data-name="Path 248" d="M429.733,1263.7a65.623,65.623,0,0,1-4.98-6l.827-.6a64.612,64.612,0,0,0,4.9,5.91Zm-9.111-12.637a42.621,42.621,0,0,1-2.963-7.244l.98-.3a41.614,41.614,0,0,0,2.892,7.07Zm-4.467-14.932c-.11-1.193-.166-2.416-.166-3.634,0-1.376.072-2.788.213-4.2l1.019.1c-.138,1.374-.208,2.752-.208,4.094,0,1.186.055,2.377.162,3.54Zm2.454-15.256-.99-.261a66.212,66.212,0,0,1,2.455-7.405l.953.376A65.083,65.083,0,0,0,418.609,1220.875Zm5.542-14.335-.921-.448c.995-2.043,2.128-4.236,3.566-6.9l.9.486C426.266,1202.329,425.139,1204.51,424.151,1206.54Zm7.263-13.665-.9-.481.029-.053a36.7,36.7,0,0,0,2.965-6.965l.981.293a37.72,37.72,0,0,1-3.049,7.164Zm3.133-14.971a17.589,17.589,0,0,0-1.811-7.248l.917-.456a18.6,18.6,0,0,1,1.917,7.667Z" transform="translate(-415.989 -1170.201)" fill="#292929"/>
        </g>
        <g id="Group_262" data-name="Group 262" transform="translate(19.34 106.811)">
          <path id="Path_249" data-name="Path 249" d="M497.312,1570.624c-1.079-.885-2.133-1.785-3.131-2.674l.681-.765c.988.88,2.031,1.771,3.1,2.647Z" transform="translate(-494.181 -1567.185)" fill="#292929"/>
        </g>
      </g>
      <g id="Group_264" data-name="Group 264" transform="translate(0 156.453)">
        <path id="Path_250" data-name="Path 250" d="M310.134,1018.279l-1.355,16.5-9.582-10.791L268.208,998.6l26.426,8.325s13.01,6.32,13.607,7.155A34.183,34.183,0,0,1,310.134,1018.279Z" transform="translate(-268.208 -998.604)" fill="#dd6e00"/>
        <path id="Path_251" data-name="Path 251" d="M324.177,1011.191,268.208,998.6l41.926,19.675Z" transform="translate(-268.208 -998.604)" fill="#ff7f00"/>
        <path id="Path_252" data-name="Path 252" d="M288.61,1030.494l17.251-8.608L268.208,998.6Z" transform="translate(-268.208 -998.604)" fill="#ff7f00"/>
      </g>
    </g>
  </g>
</svg>
