<svg xmlns="http://www.w3.org/2000/svg" width="55.12" height="70.364" viewBox="0 0 55.12 70.364">
  <g id="pdf-svgrepo-com" transform="translate(-32.842)">
    <path id="Path_603" data-name="Path 603" d="M76.236,0H32.842V70.364h55.12V11.726Z" fill="#e8e8e8"/>
    <path id="Path_604" data-name="Path 604" d="M115.394,73.6c-.845-1.507-3.767-1.98-5.107-2.193a20.32,20.32,0,0,0-3.2-.217c-.839-.006-1.666.036-2.482.082-.3.02-.6.046-.9.072q-.457-.473-.885-.975a32.42,32.42,0,0,1-4.474-7.117,28.1,28.1,0,0,0,.724-3.826,15.976,15.976,0,0,0-.531-7.485c-.313-.8-1.148-1.766-2.111-1.283-1.107.555-1.419,2.128-1.509,3.243a10.821,10.821,0,0,0,.13,2.691,19.215,19.215,0,0,0,.672,2.585q.378,1.163.833,2.308c-.192.6-.4,1.19-.61,1.765-.5,1.31-1.039,2.554-1.559,3.751l-.8,1.742a59.034,59.034,0,0,1-2.742,5.342,29.96,29.96,0,0,0-6.233,2.93,13.628,13.628,0,0,0-2.47,2,4.345,4.345,0,0,0-1.379,2.558A1.614,1.614,0,0,0,81.4,82.99a2.688,2.688,0,0,0,2.182.284c2.379-.5,4.206-2.544,5.761-4.267a46.97,46.97,0,0,0,3.567-4.517l.009-.013a53.991,53.991,0,0,1,7.1-1.672c1.155-.191,2.34-.348,3.549-.458a16.721,16.721,0,0,0,2.771,2.127,12.729,12.729,0,0,0,2.48,1.188,17.768,17.768,0,0,0,2.675.67,7.877,7.877,0,0,0,1.414.078c1.075-.041,2.617-.453,2.719-1.757A1.82,1.82,0,0,0,115.394,73.6Zm-25.73,2.393c-.5.78-.989,1.481-1.446,2.1-1.12,1.524-2.4,3.335-4.252,4.012a3.288,3.288,0,0,1-1.3.233c-.435-.026-.864-.217-.844-.711a2.088,2.088,0,0,1,.33-.912,5.635,5.635,0,0,1,.76-.981,12.615,12.615,0,0,1,2.269-1.838,26.883,26.883,0,0,1,4.8-2.387C89.871,75.667,89.767,75.831,89.664,75.989Zm6.318-19.555A8.858,8.858,0,0,1,95.907,54a5.77,5.77,0,0,1,.241-1.149c.1-.309.314-1.062.656-1.159.564-.16.737,1.051.8,1.394a15.345,15.345,0,0,1-.393,6.027c-.069.3-.147.6-.226.9-.135-.372-.264-.744-.382-1.119A18.329,18.329,0,0,1,95.981,56.434Zm3.872,15.382a54.889,54.889,0,0,0-6.029,1.325,15.465,15.465,0,0,0,1.5-2.45,29.849,29.849,0,0,0,2.636-6.08,29.687,29.687,0,0,0,4.213,6.316q.234.261.476.515C101.7,71.545,100.767,71.67,99.853,71.817Zm14.33,2.714c-.078.419-.972.658-1.39.724a7.961,7.961,0,0,1-3.72-.358,11.921,11.921,0,0,1-2.334-1.088,13.85,13.85,0,0,1-2.074-1.549c.8-.048,1.6-.079,2.411-.064a20.4,20.4,0,0,1,2.431.154,8.593,8.593,0,0,1,4.394,1.668C114.135,74.212,114.21,74.382,114.183,74.53Z" transform="translate(-36.793 -38.8)" fill="#fb3449"/>
    <path id="Path_605" data-name="Path 605" d="M78.051,5.863H32.842V0H76.236Z" fill="#fb3449"/>
    <g id="Group_360" data-name="Group 360" transform="translate(46.576 52.425)">
      <path id="Path_606" data-name="Path 606" d="M100.1,229.434a3.728,3.728,0,0,1-1.1,2.883,4.44,4.44,0,0,1-3.127,1.017H95.03v3.694H92.022V225.892h3.854a4.711,4.711,0,0,1,3.168.922A3.287,3.287,0,0,1,100.1,229.434Zm-5.072,1.447h.548a1.5,1.5,0,0,0,1.078-.381,1.382,1.382,0,0,0,.4-1.051q0-1.127-1.249-1.127H95.03Z" transform="translate(-92.022 -225.892)" fill="#1b1b1c"/>
      <path id="Path_607" data-name="Path 607" d="M143.94,231.223a5.753,5.753,0,0,1-1.535,4.3,5.894,5.894,0,0,1-4.315,1.508h-3.6V225.892h3.854a5.814,5.814,0,0,1,4.139,1.371A5.175,5.175,0,0,1,143.94,231.223Zm-3.123.107a3.54,3.54,0,0,0-.605-2.27,2.239,2.239,0,0,0-1.839-.739H137.5v6.238h.67a2.426,2.426,0,0,0,2.011-.8A3.845,3.845,0,0,0,140.817,231.33Z" transform="translate(-124.632 -225.892)" fill="#1b1b1c"/>
      <path id="Path_608" data-name="Path 608" d="M186.776,237.027h-2.963V225.892h6.581v2.414h-3.618v2.125h3.336v2.414h-3.336v4.181Z" transform="translate(-162.51 -225.892)" fill="#1b1b1c"/>
    </g>
    <path id="Path_609" data-name="Path 609" d="M219.821,11.726h11.726L219.821,0Z" transform="translate(-143.585)" fill="#d1d3d3"/>
  </g>
</svg>
