<svg id="Group_1268" data-name="Group 1268" xmlns="http://www.w3.org/2000/svg" width="515.438" height="422.377" viewBox="0 0 515.438 422.377">
  <g id="Group_1256" data-name="Group 1256" transform="translate(0 190.798)">
    <g id="Group_1255" data-name="Group 1255">
      <path id="Path_1142" data-name="Path 1142" d="M2562.665,1249.143a5.719,5.719,0,0,1-.776,8.008L2430.7,1365.917v-1.227l130.589-108.268a4.776,4.776,0,0,0,.647-6.681l-27.95-34.188a5.707,5.707,0,0,1,4.4-9.317l51.836-.2,117.305-.455a5.711,5.711,0,0,1,5.591,6.964l-20.149,89.6-5.218,23.189v0l-11.24,49.979a5.71,5.71,0,0,1-9.99,2.361l-26.7-32.663-7.8-9.544a4.759,4.759,0,0,0-6.725-.656l-123.447,102.348h-1.478l124.322-103.074a5.707,5.707,0,0,1,8.063.781l7.8,9.538,26.708,32.669a4.763,4.763,0,0,0,8.334-1.968l11.4-50.7,5.008-22.259,20.2-89.81a4.767,4.767,0,0,0-4.646-5.81h-.021l-116.536.452-52.6.2a4.763,4.763,0,0,0-3.673,7.777Z" transform="translate(-2430.7 -1205.58)" fill="#66192d"/>
    </g>
  </g>
  <g id="Group_1257" data-name="Group 1257" transform="translate(0 173.562)">
    <path id="Path_1143" data-name="Path 1143" d="M2264.472,1346.263v49h97.97l111.145-92.148.732-.606,33.369-27.664a5.233,5.233,0,0,1,7.4.717l5.678,6.947.761.927v0l2.877,3.518,25.192,30.812a5.234,5.234,0,0,0,9.159-2.163l36.6-162.774a5.235,5.235,0,0,0-5.125-6.384l-15.4.061h0l-14.436.055-17.213.067h-.006l-6.39.023h0l-9.853.038-4.037.015-23.72.093h0l-15.432.061h0l-62.648.242a5.234,5.234,0,0,0-4.031,8.547l6.938,8.489.773.942L2445,1189.841a5.23,5.23,0,0,1-.711,7.34Z" transform="translate(-2264.472 -1146.45)" fill="#164c87"/>
  </g>
  <g id="Group_1258" data-name="Group 1258" transform="translate(0 51.896)">
    <path id="Path_1144" data-name="Path 1144" d="M2885.4,815.057v65.5l109.257-91.927a2.737,2.737,0,0,1,3.868.376l15.33,18.753a2.74,2.74,0,0,0,4.8-1.134l16.692-74.212a2.74,2.74,0,0,0-2.685-3.338l-77.115.3a2.742,2.742,0,0,0-2.114,4.475l12.3,15.036a2.741,2.741,0,0,1-.373,3.845Z" transform="translate(-2885.399 -729.08)" fill="#57a9da"/>
  </g>
  <g id="Group_1259" data-name="Group 1259" transform="translate(50.576 287.357)">
    <path id="Path_1145" data-name="Path 1145" d="M2489.857,1671.84h90.323l74.2-61.517a2.492,2.492,0,0,1,3.524.341l20.84,25.489a2.5,2.5,0,0,0,4.37-1.032l16.1-71.588,5.323-23.67a2.492,2.492,0,0,0-2.44-3.043l-.542,0-.971,0-97.477.376a2.5,2.5,0,0,0-1.924,4.073l17.079,20.892a2.494,2.494,0,0,1-.341,3.5Z" transform="translate(-2489.857 -1536.82)" fill="#ff8548"/>
  </g>
  <g id="Group_1261" data-name="Group 1261" transform="translate(302.741 297.912)">
    <g id="Group_1260" data-name="Group 1260" transform="translate(0)">
      <path id="Path_1146" data-name="Path 1146" d="M1747.148,1597.409a6.8,6.8,0,0,1-.939,9.707l-112.886,90.379h-1.51l113.8-91.116a5.853,5.853,0,0,0,.81-8.357l-11.372-13.436a6.8,6.8,0,0,1,5.168-11.194l74.512-.277,22.944-.084h.026a6.8,6.8,0,0,1,6.626,8.343l-21.093,90.565a6.8,6.8,0,0,1-11.818,2.857l-16.351-19.315a5.825,5.825,0,0,0-8.13-.787l-53.459,42.8h-1.513l54.38-43.54a6.768,6.768,0,0,1,9.445.912l16.348,19.313a5.857,5.857,0,0,0,10.177-2.455l21.093-90.565a5.855,5.855,0,0,0-5.7-7.186h-.02l-23.16.084h0l-74.3.277a5.856,5.856,0,0,0-4.448,9.64Z" transform="translate(-1631.814 -1573.03)" fill="#66192d"/>
    </g>
  </g>
  <g id="Group_1262" data-name="Group 1262" transform="translate(162.504 113.613)">
    <path id="Path_1147" data-name="Path 1147" d="M2666.941,947.153s3.212-7.173,11.339-6.274,7.16,8.089,11.031,7.414,9.289,0,10.449,4.494,6.386,2.022,6.58,5.842-6,6.516-13.159,3.146-10.643,2.618-20.706,1.534-11.31-2.433-17.266-1.758-5.815-4.061-3.105-7.207S2665.78,951.5,2666.941,947.153Z" transform="translate(-2650.31 -940.801)" fill="#d9d9d9"/>
  </g>
  <g id="Group_1263" data-name="Group 1263" transform="translate(134.574)">
    <path id="Path_1148" data-name="Path 1148" d="M2710.117,559.311s4.175-9.323,14.739-8.155,9.306,10.513,14.337,9.637,12.074,0,13.583,5.841,8.3,2.628,8.552,7.593-7.8,8.469-17.1,4.088-13.834,3.4-26.914,1.994-14.7-3.162-22.441-2.286-7.558-5.278-4.037-9.367S2708.608,564.957,2710.117,559.311Z" transform="translate(-2688.5 -551.055)" fill="#d9d9d9"/>
  </g>
  <g id="Group_1264" data-name="Group 1264" transform="translate(385.379 163.077)">
    <path id="Path_1149" data-name="Path 1149" d="M1741.539,1123.2a24.97,24.97,0,0,0-24.964-12.56c-17.893,1.8-15.763,16.193-24.283,14.844s-20.449,0-23.005,9-14.059,4.048-14.485,11.695,13.207,13.045,28.969,6.3,23.431,5.242,45.584,3.071,24.9-4.87,38.01-3.521,12.8-8.13,6.837-14.427S1744.1,1131.9,1741.539,1123.2Z" transform="translate(-1654.792 -1110.482)" fill="#d9d9d9"/>
  </g>
  <g id="Group_1265" data-name="Group 1265" transform="translate(355.103 129.702)">
    <path id="Path_1150" data-name="Path 1150" d="M2016.693,1002.163a12.276,12.276,0,0,0-12.254-6.094c-8.783.873-7.738,7.856-11.92,7.2s-10.038,0-11.292,4.365-6.9,1.964-7.11,5.674,6.483,6.329,14.22,3.055,11.5,2.543,22.375,1.49,12.221-2.363,18.658-1.708,6.283-3.944,3.356-7S2017.947,1006.382,2016.693,1002.163Z" transform="translate(-1974.112 -995.993)" fill="#d9d9d9"/>
  </g>
  <g id="Group_1266" data-name="Group 1266" transform="translate(405.747 77.105)">
    <path id="Path_1151" data-name="Path 1151" d="M1811.147,822.919a14.64,14.64,0,0,0-14.614-7.268c-10.475,1.041-9.228,9.37-14.216,8.589s-11.971,0-13.468,5.205-8.23,2.342-8.48,6.767,7.732,7.548,16.959,3.644,13.717,3.033,26.686,1.777,14.576-2.818,22.252-2.037,7.494-4.7,4-8.348S1812.643,827.951,1811.147,822.919Z" transform="translate(-1760.364 -815.561)" fill="#d9d9d9"/>
  </g>
  <g id="Group_1267" data-name="Group 1267" transform="translate(246.783 260.952)">
    <path id="Path_1152" data-name="Path 1152" d="M1707.517,1607.665h90.326l106.044-87.921a2.5,2.5,0,0,1,3.524.341l20.84,25.489a2.5,2.5,0,0,0,4.367-1.029l13.564-60.315h0l.21-.945,7.646-34a2.5,2.5,0,0,0-2.443-3.046l-98.987.385a2.5,2.5,0,0,0-1.924,4.072l17.077,20.889a2.49,2.49,0,0,1-.338,3.5Z" transform="translate(-1707.517 -1446.24)" fill="#ffba41"/>
  </g>
</svg>
